<svg id="Group_11138" data-name="Group 11138" xmlns="http://www.w3.org/2000/svg" width="36.687" height="23.729" viewBox="0 0 36.687 23.729">
  <path id="Path_10699" data-name="Path 10699" d="M188,249.908V227.237a1.674,1.674,0,0,1,1.441-.534q16.9.017,33.808,0a1.685,1.685,0,0,1,1.438.534v22.671a4.3,4.3,0,0,1-1.357.5q-16.986.042-33.972,0A4.307,4.307,0,0,1,188,249.908Zm6.824-16.043c-.616-.82-2.2-.9-2.559-.135-.5,1.079-.97,2.178-1.385,3.293-.077.208.118.739.264.771.6.132,1.246.35,1.76-.359a1.248,1.248,0,0,1,1.047-.112c.319.664.862.548,1.395.578.86.049,1.709-.323,2.584-.016.207.073.5-.119.76-.171a1.127,1.127,0,0,1,.381-.01,9.3,9.3,0,0,0,1.17.186c1.352.02,2.7-.027,4.055.007,1.241.032,1.283.03,1.542-1.165.006-.027.089-.037.188-.075a2.468,2.468,0,0,1,.185.292c.137.3.243.843.4.856a25.42,25.42,0,0,0,2.66.01c.277-.006.555-.083.83-.073.908.033,1.89.669,2.648-.441a1.1,1.1,0,0,1,.934-.046c.452.984,1.3.58,2,.642.589.053,1.112-.064,1.066-.938.378.993,1.126,1,1.916.948.515-.034.808-.237.8-.8-.013-1.032-.007-2.064,0-3.1,0-.5-.224-.81-.73-.748a15.353,15.353,0,0,0-1.573.358c-.319-.679-1.119-.353-1.775-.338-.278.006-.549.36-.642.427a7,7,0,0,0-1.295-.447c-1.639-.216-3.274.312-4.932.012a14.011,14.011,0,0,0-2.53-.025c-1.79.009-3.581.048-5.371.023-1.12-.016-2.355-.382-2.607,1.378-.521-.579-.462-1.527-1.43-1.4C195.946,233.333,195.172,232.957,194.824,233.865Zm14.517,8.653.315.112a4.241,4.241,0,0,1,.115.561c.036.5.3.709.8.706,2.063-.013,4.126,0,6.189-.021.392,0,.783-.177,1.173-.169.853.018,1.71.19,2.555.136a1.61,1.61,0,0,0,1.37-2.152,3.138,3.138,0,0,1-.1-1.127c.111-1.055-.1-1.319-1.166-1.323a31.523,31.523,0,0,1-3.894.023,23.62,23.62,0,0,0-2.936-.024c-1.71,0-3.42-.015-5.13.01-.473.007-.947.2-1.417.193-.915-.022-1.827-.134-2.742-.2-.806-.061-1.585-.041-1.962.724a4.66,4.66,0,0,0-1.383-.692c-.967-.1-1.952-.026-2.93-.031-.551,0-.782.268-.765.81.018.57,0,1.141,0,1.711.022,2.434-.294,2.131,2.115,2.118.984-.005,2.107.383,2.811-.859.725,1.247,1.834.88,2.813.79.233-.021.412-.632.662-1.049l1.394-.179c.142.533-.118,1.258.828,1.328C209.029,243.984,209.485,243.635,209.341,242.518Z" transform="translate(-188 -226.703)"/>
  <path id="Path_10700" data-name="Path 10700" d="M322.392,273.055c-.43.848-1.067,1.036-2.071.693-.755-.258-1.084-1.128-.839-2.216.191-.846.871-1.259,1.967-1.115.205.027.377.308.565.472l-.129.2a2.419,2.419,0,0,0-.946.073,1.282,1.282,0,0,0-.656.768,1.36,1.36,0,0,0,.338,1.068.6.6,0,0,0,.989-.272c.243-.6.544-1.183.762-1.793a.741.741,0,0,1,.846-.556c.422.011.718.073.861.532a13.581,13.581,0,0,0,.527,1.274,5.719,5.719,0,0,0,.631,1.185v-2.851c.811-.252,1.378-.206,1.739.594a4.72,4.72,0,0,0,1,1.38V270.45l.8-.038v3.359a1.1,1.1,0,0,1-1.564-.661,6.5,6.5,0,0,0-1.141-1.617v2.331h-1.645C324.116,272.623,323.132,273.259,322.392,273.055Zm1.4-.7-.595-1.382-.547,1.382Z" transform="translate(-297.977 -263.258)"/>
  <path id="Path_10701" data-name="Path 10701" d="M213.031,273.256V270.45c1.211-.305,1.316-.257,1.78.755.2.435.408.867.681,1.446a9,9,0,0,0,.587-1.351c.232-.959.821-1.161,1.8-.882,0,.98.027,2-.028,3.016-.009.157-.393.294-.791.571v-2.593l-.172-.033c-.295.648-.567,1.308-.9,1.937-.1.2-.365.442-.55.44s-.444-.247-.547-.449a19.184,19.184,0,0,0-.995-1.906v2.4c-.763-.144-1.554.425-2.012-.624-.171-.391-1.649-.159-1.943.188a3.825,3.825,0,0,1-.783.56l-.21-.21c.439-1.031.848-2.078,1.343-3.081.1-.192.536-.3.812-.289a.9.9,0,0,1,.661.392c.419.832.768,1.7,1.142,2.554ZM211,270.876l-.572,1.392h1.119Z" transform="translate(-205.537 -263.179)"/>
  <path id="Path_10702" data-name="Path 10702" d="M288.055,270.75c.9,0,1.738-.052,2.563.016a.814.814,0,0,1,.658,1.258.861.861,0,0,0-.01,1.03c.155.248.029.672.029,1.23-.315-.169-.651-.234-.724-.408-.445-1.069-.425-1.077-1.672-.9l-.066,1.117c-.548.162-.816.069-.788-.569C288.085,272.613,288.055,271.7,288.055,270.75Zm.855,1.433a7.382,7.382,0,0,0,1.195-.021c.142-.025.244-.284.364-.436-.135-.1-.263-.272-.407-.288a10.451,10.451,0,0,0-1.151-.014Z" transform="translate(-271.731 -263.552)"/>
  <path id="Path_10703" data-name="Path 10703" d="M270.6,272.5h-1.62c-.258.511-.116.728.427.708a4.734,4.734,0,0,1,.972.016c.155.027.28.224.419.344-.139.118-.273.332-.418.339-.725.035-1.453.016-2.243.016v-3.472c.761,0,1.535-.029,2.3.024.158.011.3.324.6.679h-2.058l-.167.209c.166.151.311.389.5.435.307.074.657-.031.966.04.2.046.356.273.532.419Z" transform="translate(-255.074 -263.311)"/>
  <path id="Path_10704" data-name="Path 10704" d="M312.075,274.174v-3.318h.781c0,1.017.031,1.987-.025,2.952-.012.2-.338.389-.519.583Z" transform="translate(-291.844 -263.657)"/>
  <path id="Path_10705" data-name="Path 10705" d="M249.658,310.321v-3.5a21.231,21.231,0,0,1,3.09.047c.445.066.813.64,1.231,1,.017,0,.089,0,.111-.03,1.162-1.635,2.808-.981,4.308-.867.575.044.695.611.663,1.144a.937.937,0,0,1-.921.956c-.479.046-.967.01-1.494.01l-.1,1.113c-1.18.236-1.188.233-2.649-1C252.886,310.992,251.194,310.082,249.658,310.321Zm.63-.777c1.314,0,2.509.372,3.061-1.013-.453-1.069-1.379-1.07-2.318-.981a1.987,1.987,0,0,0-.62.306,1.382,1.382,0,0,0,1.316.358c.534-.027.6.224.444.575C251.61,309.169,250.72,308.458,250.288,309.545Zm4.209-.975,1.224,1.362v-2.689Zm2.078-.151a6.412,6.412,0,0,0,1.12-.018c.185-.035.335-.251.5-.385-.143-.16-.265-.424-.434-.458a5.932,5.932,0,0,0-1.134-.022Z" transform="translate(-239.605 -293.694)"/>
  <path id="Path_10706" data-name="Path 10706" d="M311.1,309.39l-.053,1.134-.744.041V307.1a15.391,15.391,0,0,1,2,.023c.414.054.99.234,1.146.537.169.33-.063.866-.134,1.415l.322,1.441-.89.044C312.933,309.173,312.1,309.209,311.1,309.39Zm.006-.779a6.959,6.959,0,0,0,1.138-.018c.163-.029.291-.251.435-.385-.146-.127-.279-.338-.441-.363a7.686,7.686,0,0,0-1.132-.017Z" transform="translate(-290.363 -293.973)"/>
  <path id="Path_10707" data-name="Path 10707" d="M376.8,307.3c-.28,1.327-1.6.221-2.083,1.151a6.116,6.116,0,0,0,1,.21c.662.027,1.2.146,1.2.975,0,.718-.322,1.024-1.211,1.089a4.594,4.594,0,0,1-1.136,0c-.228-.041-.421-.274-.63-.421l.137-.3c.479,0,.96.031,1.435-.015.187-.018.357-.21.535-.322a2.148,2.148,0,0,0-.5-.293c-.2-.055-.435,0-.647-.04-.557-.1-.966-.346-.961-1a.945.945,0,0,1,.937-1.026C375.464,307.254,376.061,307.3,376.8,307.3Z" transform="translate(-343.623 -294.143)"/>
  <path id="Path_10708" data-name="Path 10708" d="M356.172,307.942l-2.074.17-.017.38a7.518,7.518,0,0,0,.992.173c.626.028,1.138.148,1.162.924.022.728-.3,1.062-1.156,1.133-.376.031-.757.008-1.135.031-.523.032-.689-.184-.49-.743.493,0,1.005.021,1.513-.014.135-.009.258-.194.387-.3-.128-.107-.242-.277-.387-.309-.339-.077-.752.012-1.023-.152-.3-.18-.659-.578-.645-.865a1.245,1.245,0,0,1,.641-.952,5.6,5.6,0,0,1,1.84-.11C355.9,307.314,356.006,307.66,356.172,307.942Z" transform="translate(-326.346 -294.146)"/>
  <path id="Path_10709" data-name="Path 10709" d="M333.926,310.68v-3.47c.784,0,1.537-.015,2.287.015.125,0,.243.2.365.31-.139.117-.267.315-.419.336-.373.052-.76-.007-1.135.039-.137.017-.253.2-.379.309.133.127.252.339.4.364.344.056.714-.032,1.05.041.2.043.353.284.527.435l-.145.228c-.482,0-.967-.021-1.447.014-.135.01-.258.183-.387.281.13.124.251.343.392.356.48.045.966.017,1.45.017l.162.221c-.164.168-.317.468-.492.482C335.435,310.712,334.7,310.68,333.926,310.68Z" transform="translate(-310.132 -294.08)"/>
</svg>
