<svg xmlns="http://www.w3.org/2000/svg" viewBox="0 0 119.95 119.95"><defs><style>.cls-1{opacity:0.5;}.cls-2{fill:#eeec38;}.cls-3{fill:#361181;}.cls-4,.cls-5{fill:none;stroke:#361181;}.cls-5{stroke-linecap:round;stroke-width:3px;}</style></defs><title>Layer 6</title><g id="Layer_2" data-name="Layer 2"><g id="Layer_6" data-name="Layer 6"><g id="Group_11162" data-name="Group 11162"><g id="Group_11031" data-name="Group 11031"><g id="Group_7763" data-name="Group 7763" class="cls-1"><circle id="Ellipse_179" data-name="Ellipse 179" class="cls-2" cx="59.98" cy="59.98" r="59.98"/></g><g id="Group_7764" data-name="Group 7764"><circle id="Ellipse_180" data-name="Ellipse 180" class="cls-2" cx="59.98" cy="59.98" r="46.74"/></g></g><g id="Group_10440" data-name="Group 10440"><g id="Group_10432" data-name="Group 10432"><g id="Ellipse_277" data-name="Ellipse 277"><circle class="cls-3" cx="86.5" cy="32.95" r="1.95"/><circle class="cls-4" cx="86.5" cy="32.95" r="1.28"/></g><g id="Ellipse_278" data-name="Ellipse 278"><circle class="cls-3" cx="101.64" cy="52.28" r="1.3"/><circle class="cls-4" cx="101.64" cy="52.28" r="0.63"/></g><g id="Group_10427" data-name="Group 10427"><path id="Path_5123" data-name="Path 5123" class="cls-5" d="M91.71,41.53l-.26,4.93"/><path id="Path_5124" data-name="Path 5124" class="cls-5" d="M94.05,44.12l-4.93-.26"/></g><g id="Group_11237" data-name="Group 11237"><path id="Path_10744" data-name="Path 10744" class="cls-3" d="M93.54,69.3a1.11,1.11,0,0,0-.11-.82L73.57,34.07a1.08,1.08,0,0,0-1.48-.4l-10.42,6-5.54-4.45a1.08,1.08,0,0,0-1.52.16h0l-9.67,12-7.67-2a1.06,1.06,0,0,0-1.32.76h0L28.66,73.31a1.08,1.08,0,0,0,.77,1.32h0L67.79,84.92a1.08,1.08,0,0,0,1.33-.76h0l.13-.48.33-.19.08.07.17-.21L93,70A1.12,1.12,0,0,0,93.54,69.3ZM72.24,36.08l13,22.52L63.49,41.14ZM55.62,37.59,84.91,61.11l-14.42,18L76.41,57a1.08,1.08,0,0,0-.76-1.33h0L47.23,48Zm11.7,45L31,72.82l6.72-25.07L74,57.47Zm6.26-3.87L87.1,61.84,91,68.62Z"/><path id="Path_10745" data-name="Path 10745" class="cls-3" d="M43.56,63.15a4.18,4.18,0,0,0-1.43.92A4.22,4.22,0,0,0,41,66.79v.09a.49.49,0,0,0,0,.12,5.05,5.05,0,0,0,2,4.25,4.08,4.08,0,0,0,1.23.58A1.25,1.25,0,0,1,46,73.58a4.83,4.83,0,0,0,7.73,2.07A1.26,1.26,0,0,1,56.14,75h0a3.79,3.79,0,0,0,1.92,0l.15,0h0a5,5,0,0,0,3.7-4.3,3.88,3.88,0,0,0-.9-2.86l.26-.11a3.94,3.94,0,0,0,2.21-2.63,4.93,4.93,0,0,0-3.11-5.91,4.23,4.23,0,0,0-1.7-.08,4,4,0,0,0,0-.85v0s0-.07,0-.11a.41.41,0,0,0,0-.11v-.06a.77.77,0,0,0,0-.15h0a3.82,3.82,0,0,0-.65-1.6,3.6,3.6,0,0,0-.39-.47l0,0a5.12,5.12,0,0,0-5-1.35h0q-.29.09-.57.21a3.89,3.89,0,0,0-1.36,1.05l0,0-.09.11,0,.06-.06.08-.07.1a0,0,0,0,1,0,0,3.71,3.71,0,0,0-.39.77A4,4,0,0,0,48.44,56a4.34,4.34,0,0,0-3.56.69,5.22,5.22,0,0,0-2.09,2.87A4,4,0,0,0,43.56,63.15Zm5.16,2.49a3.44,3.44,0,0,0,.42,1.53l-1,.94a.61.61,0,0,0-.16.12c-1.19,1.2-2.35,1.72-3.25,1.47h0a2.35,2.35,0,0,1-1.5-1.61.31.31,0,0,1,0-.08l0-.08a1.6,1.6,0,0,0,0-.21h0a2.67,2.67,0,0,1,.15-1.58c.69-1.47,2.74-1.18,3.91-.87h0Zm3.69-8.79.1-.09h0l.1-.08a1.56,1.56,0,0,1,.28-.16l.2-.08h0l.19-.06h0l.2,0h.63l.2,0h.08l.1,0,.13,0,.09,0,.13,0,.1,0,.06,0,.2.09,0,0,.22.12,0,0,.1.06.09.06.06,0,.15.12,0,0,.13.14h0l.14.18a1.17,1.17,0,0,1,.15.27l.06.12v0l.05.14h0a2.9,2.9,0,0,1-.7,2.36h0l-.14.19a.1.1,0,0,0,0,0l-.15.17,0,0-.17.18,0,0-.2.21h0L54,62.32a3.53,3.53,0,0,0-1.53-.41l-.37-1.48h0a2.68,2.68,0,0,1-.07-.27v0a2.25,2.25,0,0,1,0-.22l0-.09,0-.2V59.5a1.92,1.92,0,0,1,0-.22v0a2.91,2.91,0,0,1,.57-2.38h0ZM55.34,67.4l1.35.38.11,0c2.2.59,3.26,1.7,2.9,3.06a3,3,0,0,1-1.13,1.57.91.91,0,0,1-.16.11l0,0a2.53,2.53,0,0,1-1.07.37c-1.62.15-2.38-1.79-2.7-3v0l-.41-1.46a3.66,3.66,0,0,0,1.13-1.12Zm-4.41-2.28a1.42,1.42,0,0,1,1.74-1,1.42,1.42,0,0,1-.74,2.74h0a1.42,1.42,0,0,1-1-1.73Zm1.25,9a2.7,2.7,0,0,1-3.78-.53,3.25,3.25,0,0,1-.33-.57,3.46,3.46,0,0,1,1.2-3l.29-.27,1.12-1.09a3.64,3.64,0,0,0,1.44.39l.4,1.41a.2.2,0,0,1,0,.07c.44,1.63.31,2.89-.36,3.56Zm9.22-9.59a1.81,1.81,0,0,1-1,1.22,4.51,4.51,0,0,1-2.86,0l-.15,0h0l-1.49-.42a3.64,3.64,0,0,0-.39-1.45l1.07-1.11c1.2-1.2,2.36-1.72,3.26-1.47a2.75,2.75,0,0,1,1.58,3.25ZM47.88,58.07c.9.24,1.65,1.28,2.09,2.91h0l.38,1.5a3.49,3.49,0,0,0-1.06,1.07l-1.35-.34-.16-.05c-2.2-.59-3.25-1.71-2.89-3.06a2.76,2.76,0,0,1,3-2Z"/></g></g></g></g></g></g></svg>