<svg xmlns="http://www.w3.org/2000/svg" viewBox="0 0 119.8 119.8"><defs><style>.cls-1{opacity:0.5;}.cls-2{fill:#10a0de;}.cls-3{fill:#361181;}.cls-4,.cls-5,.cls-6{fill:none;stroke:#361181;}.cls-5{stroke-linecap:round;stroke-width:3px;}.cls-6{stroke-linejoin:round;stroke-width:2px;}</style></defs><title>Layer 5</title><g id="Layer_2" data-name="Layer 2"><g id="Layer_5" data-name="Layer 5"><g id="Group_11158" data-name="Group 11158"><g id="Group_11031" data-name="Group 11031"><g id="Group_7763" data-name="Group 7763" class="cls-1"><circle id="Ellipse_179" data-name="Ellipse 179" class="cls-2" cx="59.9" cy="59.9" r="59.9"/></g><g id="Group_7764" data-name="Group 7764"><circle id="Ellipse_180" data-name="Ellipse 180" class="cls-2" cx="59.9" cy="59.9" r="46.68"/></g></g><g id="Group_10440" data-name="Group 10440"><g id="Group_10432" data-name="Group 10432"><g id="Ellipse_277" data-name="Ellipse 277"><circle class="cls-3" cx="54.44" cy="30.25" r="1.95"/><circle class="cls-4" cx="54.44" cy="30.25" r="1.28"/></g><g id="Ellipse_278" data-name="Ellipse 278"><circle class="cls-3" cx="32.29" cy="52.21" r="1.3"/><circle class="cls-4" cx="32.29" cy="52.21" r="0.63"/></g><g id="Group_10427" data-name="Group 10427"><path id="Path_5123" data-name="Path 5123" class="cls-5" d="M37,37.48l-.26,4.92"/><path id="Path_5124" data-name="Path 5124" class="cls-5" d="M39.35,40.07l-4.92-.26"/></g><g id="Group_11236" data-name="Group 11236"><path id="Path_10749" data-name="Path 10749" class="cls-6" d="M69.09,63.36l-.49-2.11A2.14,2.14,0,0,0,66,59.64l-8.41,1.94A2.15,2.15,0,0,0,56,64.16l.48,2.11"/><path id="Path_10750" data-name="Path 10750" class="cls-6" d="M55.67,48.39l-.16-.71a1.08,1.08,0,0,0-1.29-.81L49,48.08a2.16,2.16,0,0,0-1.61,2.59l.8,3.48"/><path id="Path_10751" data-name="Path 10751" class="cls-6" d="M85.74,68.37a8.74,8.74,0,0,1,6.38-5.9l1-.25L83.63,40.08,66.82,44C49.18,48,37.19,63.16,37.41,79.52"/><path id="Path_10752" data-name="Path 10752" class="cls-6" d="M34.06,84.17a.54.54,0,0,0,.64.4l52-12A2.16,2.16,0,0,0,88.33,70h0a2.15,2.15,0,0,0-2.59-1.6h0L37.41,79.52,34.25,83A1.08,1.08,0,0,0,34,84Z"/><path id="Path_10753" data-name="Path 10753" class="cls-6" d="M77.17,50.42h0a2.16,2.16,0,0,0-2.59-1.61l-6.3,1.45A32.44,32.44,0,0,0,49.94,61.87,3.25,3.25,0,0,0,53.23,67l15.86-3.66a10.78,10.78,0,0,0,8.08-12.93Z"/></g></g></g></g></g></g></svg>