<svg xmlns="http://www.w3.org/2000/svg" viewBox="0 0 120 120"><defs><style>.cls-1{opacity:0.5;}.cls-2{fill:#19cbc5;}.cls-3,.cls-6,.cls-7,.cls-8{fill:#361181;}.cls-4,.cls-5{fill:none;}.cls-4,.cls-5,.cls-6,.cls-7,.cls-8{stroke:#361181;}.cls-5{stroke-linecap:round;stroke-width:3px;}.cls-6{stroke-width:0.75px;}.cls-7{stroke-width:0.75px;}.cls-8{stroke-width:0.75px;}</style></defs><title>Layer 4</title><g id="Layer_2" data-name="Layer 2"><g id="Layer_4" data-name="Layer 4"><g id="Group_11157" data-name="Group 11157"><g id="Group_11031" data-name="Group 11031"><g id="Group_7763" data-name="Group 7763" class="cls-1"><circle id="Ellipse_179" data-name="Ellipse 179" class="cls-2" cx="60" cy="60" r="60"/></g><g id="Group_7764" data-name="Group 7764"><circle id="Ellipse_180" data-name="Ellipse 180" class="cls-2" cx="60" cy="60" r="46.76"/></g></g><g id="Group_10440" data-name="Group 10440"><g id="Group_10432" data-name="Group 10432"><g id="Ellipse_277" data-name="Ellipse 277"><circle class="cls-3" cx="85.2" cy="32.96" r="1.95"/><circle class="cls-4" cx="85.2" cy="32.96" r="1.29"/></g><g id="Ellipse_278" data-name="Ellipse 278"><circle class="cls-3" cx="100.35" cy="53.63" r="1.3"/><circle class="cls-4" cx="100.35" cy="53.63" r="0.63"/></g><g id="Group_10427" data-name="Group 10427"><path id="Path_5123" data-name="Path 5123" class="cls-5" d="M91.74,42.88l-.25,4.93"/><path id="Path_5124" data-name="Path 5124" class="cls-5" d="M94.08,45.47l-4.93-.26"/></g><g id="Group_11235" data-name="Group 11235"><g id="Group_11227" data-name="Group 11227"><g id="Group_11212" data-name="Group 11212"><g id="Group_11211" data-name="Group 11211"><path id="Path_10754" data-name="Path 10754" class="cls-6" d="M44.62,82.5,56.48,46l6.18,2A2.34,2.34,0,0,1,64.43,50c0,2.19,2.77,4.67,6.55,5.89s7.46.84,8.77-.91a2.31,2.31,0,0,1,2.57-.54l6.18,2L76.64,92.91Zm13-35L46.42,81.93l29.1,9.46L86.7,57,82,55.45a.8.8,0,0,0-.89.2c-1.61,2.17-6,2.7-10.45,1.25S63,52.44,62.92,49.75a.8.8,0,0,0-.6-.69Z"/></g></g><g id="Group_11222" data-name="Group 11222"><g id="Group_11213" data-name="Group 11213"><rect id="Rectangle_2026" data-name="Rectangle 2026" class="cls-6" x="55.03" y="62.02" width="1.54" height="1.54" transform="translate(-21.16 96.45) rotate(-72)"/></g><g id="Group_11214" data-name="Group 11214"><rect id="Rectangle_2027" data-name="Rectangle 2027" class="cls-6" x="57.95" y="62.97" width="1.54" height="1.54" transform="translate(-20.04 99.89) rotate(-72)"/></g><g id="Group_11215" data-name="Group 11215"><rect id="Rectangle_2028" data-name="Rectangle 2028" class="cls-6" x="60.88" y="63.92" width="1.54" height="1.54" transform="translate(-18.92 103.33) rotate(-72)"/></g><g id="Group_11216" data-name="Group 11216"><rect id="Rectangle_2029" data-name="Rectangle 2029" class="cls-6" x="63.8" y="64.87" width="1.54" height="1.54" transform="translate(-17.81 106.76) rotate(-72)"/></g><g id="Group_11217" data-name="Group 11217"><rect id="Rectangle_2030" data-name="Rectangle 2030" class="cls-6" x="66.73" y="65.82" width="1.54" height="1.54" transform="translate(-16.69 110.2) rotate(-72)"/></g><g id="Group_11218" data-name="Group 11218"><rect id="Rectangle_2031" data-name="Rectangle 2031" class="cls-6" x="69.65" y="66.77" width="1.54" height="1.54" transform="translate(-15.57 113.64) rotate(-72)"/></g><g id="Group_11219" data-name="Group 11219"><rect id="Rectangle_2032" data-name="Rectangle 2032" class="cls-6" x="72.58" y="67.72" width="1.54" height="1.54" transform="translate(-14.46 117.08) rotate(-72)"/></g><g id="Group_11220" data-name="Group 11220"><rect id="Rectangle_2033" data-name="Rectangle 2033" class="cls-6" x="75.5" y="68.67" width="1.54" height="1.54" transform="translate(-13.34 120.52) rotate(-72)"/></g><g id="Group_11221" data-name="Group 11221"><rect id="Rectangle_2034" data-name="Rectangle 2034" class="cls-6" x="78.42" y="69.62" width="1.54" height="1.54" transform="translate(-12.22 123.95) rotate(-72)"/></g></g></g><g id="Group_11228" data-name="Group 11228"><g id="Group_11228-2" data-name="Group 11228-2"><path id="Path_10755" data-name="Path 10755" class="cls-7" d="M37.82,52.68a5.39,5.39,0,0,1-1-.43,3.9,3.9,0,0,1-1.89-5.16,4,4,0,0,1,1-1.28A6.73,6.73,0,0,1,39.66,44c3.14-.46,6,1.17,6.35,3.63s-1.9,4.84-5,5.3A7,7,0,0,1,37.82,52.68Zm4.57-7.12a5.7,5.7,0,0,0-2.53-.19,5.27,5.27,0,0,0-3,1.42,2.5,2.5,0,0,0-.33,3.52,2.56,2.56,0,0,0,1,.71,5.36,5.36,0,0,0,3.27.51c2.37-.35,4.1-2,3.85-3.71a3,3,0,0,0-2.23-2.26Z"/></g><g id="Group_11229" data-name="Group 11229"><path id="Path_10756" data-name="Path 10756" class="cls-7" d="M44.51,38.94a7,7,0,0,1-2.68-1.65c-2.27-2.21-2.7-5.46-1-7.25A4.1,4.1,0,0,1,44.4,29a7,7,0,0,1,5.72,5.58,4.07,4.07,0,0,1-1,3.56A4.4,4.4,0,0,1,44.51,38.94Zm-1.7-2.65c1.71,1.68,4.09,2.05,5.29.82a2.71,2.71,0,0,0,.63-2.37,5.58,5.58,0,0,0-4.51-4.41,2.7,2.7,0,0,0-2.35.69C40.67,32.25,41.1,34.62,42.81,36.29Z"/></g><g id="Group_11230" data-name="Group 11230"><rect id="Rectangle_2035" data-name="Rectangle 2035" class="cls-8" x="56.18" y="34.62" width="1.4" height="29.66" transform="translate(-18.44 46.6) rotate(-38.84)"/></g><g id="Group_11231" data-name="Group 11231"><rect id="Rectangle_2036" data-name="Rectangle 2036" class="cls-8" x="43.92" y="42.98" width="29.66" height="1.4" transform="translate(-9.38 16.89) rotate(-15.16)"/></g></g></g></g></g></g></g></g></svg>