<svg xmlns="http://www.w3.org/2000/svg" viewBox="0 0 120 120"><defs><style>.cls-1{opacity:0.5;}.cls-2{fill:#91e375;}.cls-3,.cls-6,.cls-7,.cls-8{fill:#361181;}.cls-4,.cls-5{fill:none;}.cls-4,.cls-5,.cls-6,.cls-7,.cls-8{stroke:#361181;}.cls-5{stroke-linecap:round;stroke-width:3px;}.cls-6{stroke-width:0.5px;}.cls-7{stroke-width:0.5px;}.cls-8{stroke-width:0.5px;}</style></defs><title>Layer 3</title><g id="Layer_2" data-name="Layer 2"><g id="Layer_3" data-name="Layer 3"><g id="Group_11156" data-name="Group 11156"><g id="Group_11031" data-name="Group 11031"><g id="Group_7763" data-name="Group 7763" class="cls-1"><circle id="Ellipse_179" data-name="Ellipse 179" class="cls-2" cx="60" cy="60" r="60"/></g><g id="Group_7764" data-name="Group 7764"><circle id="Ellipse_180" data-name="Ellipse 180" class="cls-2" cx="60" cy="60" r="46.76"/></g></g><g id="Group_10440" data-name="Group 10440"><g id="Group_10432" data-name="Group 10432"><g id="Ellipse_277" data-name="Ellipse 277"><circle class="cls-3" cx="41.2" cy="30.3" r="1.95"/><circle class="cls-4" cx="41.2" cy="30.3" r="1.29"/></g><g id="Ellipse_278" data-name="Ellipse 278"><circle class="cls-3" cx="27.01" cy="52.3" r="1.3"/><circle class="cls-4" cx="27.01" cy="52.3" r="0.63"/></g><g id="Group_10427" data-name="Group 10427"><path id="Path_5123" data-name="Path 5123" class="cls-5" d="M29.08,37.54l-.26,4.93"/><path id="Path_5124" data-name="Path 5124" class="cls-5" d="M31.41,40.14l-4.93-.26"/></g><g id="Group_11234" data-name="Group 11234"><g id="Group_11173" data-name="Group 11173"><g id="Group_11172" data-name="Group 11172"><g id="Group_11164" data-name="Group 11164"><path id="Path_10728" data-name="Path 10728" class="cls-6" d="M65.3,90.46a1,1,0,0,1-.24,0L37.54,86.79a.84.84,0,0,1-.71-.7L31.38,51.73,33,51.47l5.34,33.74,25.79,3.44L58.9,55.4l1.66-.26L66,89.5a.84.84,0,0,1-.69,1Z"/></g><g id="Group_11166" data-name="Group 11166"><g id="Group_11165" data-name="Group 11165"><rect id="Rectangle_2010" data-name="Rectangle 2010" class="cls-7" x="43.94" y="77.8" width="1.67" height="9.79" transform="translate(-43.04 116.32) rotate(-82.51)"/></g></g><g id="Group_11168" data-name="Group 11168"><g id="Group_11167" data-name="Group 11167"><rect id="Rectangle_2011" data-name="Rectangle 2011" class="cls-8" x="43.43" y="74.12" width="1.67" height="9.79" transform="translate(-39.86 112.58) rotate(-82.49)"/></g></g><g id="Group_11169" data-name="Group 11169"><path id="Path_10729" data-name="Path 10729" class="cls-6" d="M59.86,56.1h-.24L32.1,52.43a.84.84,0,0,1-.25-1.58L50,42.15l.73,1.51L35.1,51.14l24.49,3.27,4.55-2.18.72,1.51L60.1,56A.75.75,0,0,1,59.86,56.1Z"/></g><g id="Group_11170" data-name="Group 11170"><path id="Path_10730" data-name="Path 10730" class="cls-6" d="M65.3,90.46a.84.84,0,0,1-1-.7L58.9,55.4l1.65-.26,5.27,33.25L89.28,77.15,86,56.45l1.64-.26L91,77.5a.83.83,0,0,1-.47.89l-25,12Z"/></g><g id="Group_11171" data-name="Group 11171"><path id="Path_10731" data-name="Path 10731" class="cls-6" d="M67.3,84.83,65.92,76.1l9.25-4.4,1.38,8.73Zm.47-7.77.83,5.29,6.1-2.89-.84-5.29Z"/></g></g></g><g id="Group_11174" data-name="Group 11174"><path id="Path_10732" data-name="Path 10732" class="cls-6" d="M78.27,57.32l-12.64,2-.26-1.65,12.64-2a9.79,9.79,0,1,0-2.84-19.38l-.22,0h0L63.56,38.13l-.32-2.06-6.16,5.44,7.54,3.29-.33-2.06,11.39-1.81a5.12,5.12,0,1,1,1.61,10.12h0L72,51.9l-.27-1.66L77,49.4A3.45,3.45,0,0,0,76,42.59h0l-9.74,1.54.54,3.42L54,42l10.4-9.21L65,36.23l9.73-1.54h0a11.47,11.47,0,0,1,3.59,22.65Z"/></g></g></g></g></g></g></g></svg>