<svg xmlns="http://www.w3.org/2000/svg" viewBox="0 0 120 120"><defs><style>.cls-1{opacity:0.5;}.cls-2{fill:#10a0de;}.cls-3,.cls-6{fill:#361181;}.cls-4,.cls-5{fill:none;}.cls-4,.cls-5,.cls-6{stroke:#361181;}.cls-5{stroke-linecap:round;stroke-width:3px;}.cls-6{stroke-miterlimit:4;stroke-width:0.5px;}</style></defs><title>Layer 9</title><g id="Layer_2" data-name="Layer 2"><g id="Layer_9" data-name="Layer 9"><g id="Group_11159" data-name="Group 11159"><g id="Group_11031" data-name="Group 11031"><g id="Group_7763" data-name="Group 7763" class="cls-1"><circle id="Ellipse_179" data-name="Ellipse 179" class="cls-2" cx="60" cy="60" r="60"/></g><g id="Group_7764" data-name="Group 7764"><circle id="Ellipse_180" data-name="Ellipse 180" class="cls-2" cx="60" cy="60" r="46.76"/></g></g><g id="Group_10440" data-name="Group 10440"><g id="Group_10432" data-name="Group 10432"><g id="Ellipse_277" data-name="Ellipse 277"><circle class="cls-3" cx="82.53" cy="32.96" r="1.95"/><circle class="cls-4" cx="82.53" cy="32.96" r="1.29"/></g><g id="Ellipse_278" data-name="Ellipse 278"><circle class="cls-3" cx="97.68" cy="57.63" r="1.3"/><circle class="cls-4" cx="97.68" cy="57.63" r="0.63"/></g><g id="Group_10427" data-name="Group 10427"><path id="Path_5123" data-name="Path 5123" class="cls-5" d="M93.08,40.21l-.26,4.93"/><path id="Path_5124" data-name="Path 5124" class="cls-5" d="M95.41,42.8l-4.93-.25"/></g><g id="Group_11203" data-name="Group 11203"><g id="Group_11196" data-name="Group 11196"><path id="Path_10738" data-name="Path 10738" class="cls-6" d="M82.6,61.86,37.82,54a1.22,1.22,0,0,1-1-1.41h0l1.58-8.95a1.22,1.22,0,0,1,1.41-1l44.79,7.91a1.21,1.21,0,0,1,1,1.41L84,60.87a1.22,1.22,0,0,1-1.41,1ZM38.36,52.52l44.22,7.81,1.48-8.4L39.84,44.12Z"/></g><g id="Group_11197" data-name="Group 11197"><path id="Path_10739" data-name="Path 10739" class="cls-6" d="M75,87.23,36.24,80.38a1,1,0,0,1-.85-1.21l4.66-26.35L80.89,60,76.24,86.39A1.06,1.06,0,0,1,75,87.23ZM37,79l37.89,6.69,4.31-24.43L41.27,54.55Z"/></g><g id="Group_11198" data-name="Group 11198"><path id="Path_10740" data-name="Path 10740" class="cls-6" d="M71.46,49.71l.26-1.48a4.29,4.29,0,0,0,1.49-8.45c-2.45-.43-9.53,2.82-10.39,7.65l-1.48-.27c1-5.62,8.85-9.44,12.13-8.86a5.79,5.79,0,1,1-2,11.41Z"/></g><g id="Group_11199" data-name="Group 11199"><path id="Path_10741" data-name="Path 10741" class="cls-6" d="M52.45,46.36a5.79,5.79,0,1,1,2-11.41h0c3.28.58,9.35,6.86,8.35,12.48l-1.47-.26c.85-4.83-4.68-10.31-7.14-10.75a4.3,4.3,0,1,0-1.5,8.46h0Z"/></g><g id="Group_11200" data-name="Group 11200"><path id="Path_10742" data-name="Path 10742" class="cls-6" d="M65.42,58.06l-1.48-.26,1.61-9.13L58.34,47.4l-1.61,9.13-1.48-.26,1.87-10.61,10.17,1.79Z"/></g><g id="Group_11201" data-name="Group 11201"><path id="Path_10743" data-name="Path 10743" class="cls-6" d="M60.71,84.71l-10.17-1.8,4.31-24.38,1.48.26-4,22.9L59.49,83l4-22.91,1.48.26Z"/></g><g id="Group_11202" data-name="Group 11202"><rect id="Rectangle_2024" data-name="Rectangle 2024" class="cls-6" x="55.01" y="57.54" width="1.5" height="51.05" transform="translate(-35.74 123.53) rotate(-79.98)"/></g></g></g></g></g></g></g></svg>