<svg xmlns="http://www.w3.org/2000/svg" viewBox="0 0 120 120"><defs><style>.cls-1{opacity:0.5;}.cls-2{fill:#10a0de;}.cls-3{fill:#361181;}.cls-4,.cls-5{fill:none;stroke:#361181;}.cls-5{stroke-linecap:round;stroke-width:3px;}</style></defs><title>Layer 9 (2)</title><g id="Layer_2" data-name="Layer 2"><g id="Layer_9" data-name="Layer 9"><g id="Group_11159" data-name="Group 11159"><g id="Group_11031" data-name="Group 11031"><g id="Group_7763" data-name="Group 7763" class="cls-1"><circle id="Ellipse_179" data-name="Ellipse 179" class="cls-2" cx="60" cy="60" r="60"/></g><g id="Group_7764" data-name="Group 7764"><circle id="Ellipse_180" data-name="Ellipse 180" class="cls-2" cx="60" cy="60" r="46.76"/></g></g></g><g id="Group_10434" data-name="Group 10434"><g id="Ellipse_281" data-name="Ellipse 281"><circle class="cls-3" cx="80.11" cy="31.96" r="2.32"/><circle class="cls-4" cx="80.11" cy="31.96" r="1.7"/></g><g id="Ellipse_282" data-name="Ellipse 282"><circle class="cls-3" cx="87.88" cy="52.7" r="1.55"/><circle class="cls-4" cx="87.88" cy="52.7" r="0.93"/></g><g id="Group_10429" data-name="Group 10429"><path id="Path_5123" data-name="Path 5123" class="cls-5" d="M90.22,35.16,89.91,41"/><path id="Path_5124" data-name="Path 5124" class="cls-5" d="M93,38.24l-5.86-.3"/></g><path id="Path_9989" data-name="Path 9989" class="cls-3" d="M40.14,73.84,33.74,52.9a5.75,5.75,0,0,1,3.76-7.2l.08,0a1,1,0,0,1,1.36.61s0,.08,0,.13a1.05,1.05,0,0,1-.61,1.35l-.13,0a3.5,3.5,0,0,0-2.39,4.35s0,.06,0,.09L40.06,66l3-.91a1.12,1.12,0,0,1,.87,2.06l-.22.07-3,.91,1.56,5.11a1,1,0,0,1-.61,1.35l-.13,0A1.12,1.12,0,0,1,40.14,73.84ZM69.28,38.31a3.51,3.51,0,0,1,4.41,2.28l0,.08,4.19,13.72-3,.91a1.12,1.12,0,0,0,.43,2.2l.22-.07,3-.91,1.57,5.1A1.11,1.11,0,0,0,82.25,61L75.85,40a5.75,5.75,0,0,0-7.15-3.86l-.07,0a1,1,0,0,0-.79,1.26l0,.13a1.05,1.05,0,0,0,1.28.77ZM68.37,73l-5.63,1.73a1.11,1.11,0,1,0,.42,2.19,1,1,0,0,0,.23-.07L69,75.13a1,1,0,0,0,.78-1.26.74.74,0,0,0,0-.14A1.11,1.11,0,0,0,68.37,73Zm1,3.41-5.63,1.72a1.11,1.11,0,1,0,.42,2.19,1,1,0,0,0,.23-.06l5.63-1.73a1,1,0,0,0,.78-1.26.5.5,0,0,0,0-.13A1.11,1.11,0,0,0,69.41,76.41Zm1,3.4-5.63,1.72a1.12,1.12,0,1,0,.42,2.2l.23-.07,5.63-1.73a1,1,0,0,0,.78-1.26.65.65,0,0,0,0-.13A1.11,1.11,0,0,0,70.45,79.81Zm-10.71-.45A1.06,1.06,0,0,0,59,80.63l0,.13,1,3.4a1.12,1.12,0,1,0,2.2-.42,1.55,1.55,0,0,0-.07-.23l-1-3.41a1.06,1.06,0,0,0-1.28-.77Zm-.62-3.53-.85.26a1.12,1.12,0,0,0,.65,2.13l.85-.26a1.12,1.12,0,0,0-.42-2.2Zm28.62-2.24h0C89,77.85,78.6,82.9,69.31,86c-.75.23-1.46.56-2.31.82a16.16,16.16,0,0,1-2.37.61c-9.42,2.65-20.82,4.16-22.08,0l-.07-.21a1,1,0,0,1,0-.57,45.06,45.06,0,0,1-.36-8.37c.34-5,3.88-7.47,7.22-9.88l.46-.38c.18-.17.47-.37.65-.54a12.9,12.9,0,0,1-7.61-8.14l-2.34-7.66C38.34,44.75,43,36.92,51.12,34.45S67.47,35.84,69.65,43L70,44.13h0l1.46,4.78h0l.52,1.7a13.2,13.2,0,0,1-1.75,11,6,6,0,0,0,.84.09l.7,0c4.12.14,8.47.32,11.51,4.16A45.46,45.46,0,0,1,87.68,73a.77.77,0,0,0,.06.56ZM44.43,57.07c.75.94,5.34,6,14.16,3.34s10.41-9.69,10.58-11L67.84,45C67,44,61.73,39.1,52.9,41.8S43.14,51.31,43,52.5Zm-2.23-9.2a15.72,15.72,0,0,1,10.09-8.08A17.06,17.06,0,0,1,66.15,41c-2.82-4.25-8.75-6.16-14.38-4.43S42.43,42.92,42.2,47.87ZM60.77,66c6.06-1.86,9.89-7.21,9.42-12.53-1.38,3.09-4.46,7.06-10.95,9a15.92,15.92,0,0,1-12.47-.84l-.69-.37C48.82,65.73,54.82,67.85,60.77,66ZM44.9,76.46a8.66,8.66,0,0,1,4.25,2.88,16.24,16.24,0,0,1,3.71,8.29c1-.08,2-.27,3.25-.41l-2.89-9.47a4.33,4.33,0,0,1,2.87-5.41l12.12-3.71a4.36,4.36,0,0,1,5.42,2.88L76.52,81a28.55,28.55,0,0,0,2.92-1.48,15.28,15.28,0,0,1-1.56-8.94,7.92,7.92,0,0,1,1.92-4.77c-2.21-1.53-5.06-1.71-8.22-1.79h-.73a7.18,7.18,0,0,1-2.31-.34,16.77,16.77,0,0,1-7.22,4.53,15.62,15.62,0,0,1-8.52.28A12.34,12.34,0,0,1,51.07,70l-.57.41C48.13,72.21,45.84,73.85,44.9,76.46Zm5.66,11.29a13.38,13.38,0,0,0-3.17-6.94,6.85,6.85,0,0,0-3.11-2.19h0a40.45,40.45,0,0,0,.33,7.93l.06.21c.34.71,2.33,1.15,5.89,1Zm23.85-6-3-9.68a2.11,2.11,0,0,0-2.63-1.4h0L56.7,74.36A2.12,2.12,0,0,0,55.3,77h0l3,9.68a54.79,54.79,0,0,0,5.94-1.47,34.45,34.45,0,0,0,4.57-1.4,50.7,50.7,0,0,0,5.64-2.07Zm11.23-7.39h0l-.1-.32a47.2,47.2,0,0,0-4.15-6.75h0A6.67,6.67,0,0,0,80,70.83a13.27,13.27,0,0,0,1.25,7.52c3-1.85,4.56-3.36,4.36-4Z"/></g></g></g></svg>