<svg xmlns="http://www.w3.org/2000/svg" viewBox="0 0 120 120"><defs><style>.cls-1{opacity:0.5;}.cls-2{fill:#eeec38;}.cls-3,.cls-6{fill:#361181;}.cls-4,.cls-5{fill:none;}.cls-4,.cls-5,.cls-6{stroke:#361181;}.cls-5{stroke-linecap:round;stroke-width:3px;}.cls-6{stroke-miterlimit:4;stroke-width:0.5px;}</style></defs><title>Layer 2</title><g id="Layer_2" data-name="Layer 2"><g id="Layer_2-2" data-name="Layer 2"><g id="Group_11120" data-name="Group 11120"><g id="Group_11031" data-name="Group 11031"><g id="Group_7763" data-name="Group 7763" class="cls-1"><circle id="Ellipse_179" data-name="Ellipse 179" class="cls-2" cx="60" cy="60" r="60"/></g><g id="Group_7764" data-name="Group 7764"><circle id="Ellipse_180" data-name="Ellipse 180" class="cls-2" cx="60" cy="60" r="46.76"/></g></g><g id="Group_10440" data-name="Group 10440"><g id="Group_10432" data-name="Group 10432"><g id="Ellipse_277" data-name="Ellipse 277"><circle class="cls-3" cx="87.86" cy="30.3" r="1.95"/><circle class="cls-4" cx="87.86" cy="30.3" r="1.29"/></g><g id="Ellipse_278" data-name="Ellipse 278"><circle class="cls-3" cx="99.01" cy="49.63" r="1.3"/><circle class="cls-4" cx="99.01" cy="49.63" r="0.63"/></g><g id="Group_10427" data-name="Group 10427"><path id="Path_5123" data-name="Path 5123" class="cls-5" d="M94.41,34.88l-.26,4.93"/><path id="Path_5124" data-name="Path 5124" class="cls-5" d="M96.75,37.47l-4.93-.26"/></g><g id="Group_11233" data-name="Group 11233"><g id="Group_11182" data-name="Group 11182"><path id="Path_10736" data-name="Path 10736" class="cls-6" d="M65.83,90.23,24.66,81.47l9.91-46.59a8.11,8.11,0,0,1,9.61-6.24L83.62,37a8.09,8.09,0,0,1,6.23,9.6l-2,9.65L77.38,54.07l.36-1.73,8.7,1.85,1.69-7.93a6.33,6.33,0,1,0-12.39-2.63ZM26.76,80.11l37.71,8L74,43.26a8.09,8.09,0,0,1,4.31-5.56L43.81,30.37a6.33,6.33,0,0,0-7.51,4.87Z"/></g><g id="Group_11183" data-name="Group 11183"><path id="Path_10737" data-name="Path 10737" class="cls-6" d="M56.63,60.81a.86.86,0,0,1-.47-.27l-4.48-5-6.1,2.72A.89.89,0,0,1,44.45,57l3.34-5.79-4.47-5a.89.89,0,0,1,.84-1.46l6.54,1.4,3.35-5.79a.91.91,0,0,1,1.28-.21,1,1,0,0,1,.36.56l.7,6.64,6.54,1.4a.87.87,0,0,1,.68,1,.9.9,0,0,1-.51.63L57,53.21l.69,6.65a.87.87,0,0,1-.79,1,.82.82,0,0,1-.27,0ZM52.1,53.64a.84.84,0,0,1,.47.27l3.08,3.42-.48-4.58a.89.89,0,0,1,.52-.9L59.91,50,55.4,49a.88.88,0,0,1-.7-.77l-.48-4.58-2.3,4a.89.89,0,0,1-1,.42l-4.52-1,3.09,3.43a.87.87,0,0,1,.11,1l-2.3,4,4.21-1.87A.84.84,0,0,1,52.1,53.64Z"/></g><g id="Group_11194" data-name="Group 11194"><g id="Group_11184" data-name="Group 11184"><rect id="Rectangle_2014" data-name="Rectangle 2014" class="cls-6" x="50.42" y="55.42" width="1.77" height="20.9" transform="translate(-23.8 102.34) rotate(-77.99)"/></g><g id="Group_11185" data-name="Group 11185"><rect id="Rectangle_2015" data-name="Rectangle 2015" class="cls-6" x="49.64" y="59.1" width="1.77" height="20.9" transform="translate(-28.02 104.49) rotate(-77.99)"/></g><g id="Group_11186" data-name="Group 11186"><rect id="Rectangle_2016" data-name="Rectangle 2016" class="cls-6" x="37.61" y="62.26" width="1.77" height="1.77" transform="translate(-31.28 87.66) rotate(-77.99)"/></g><g id="Group_11187" data-name="Group 11187"><rect id="Rectangle_2017" data-name="Rectangle 2017" class="cls-6" x="36.82" y="65.94" width="1.77" height="1.77" transform="translate(-35.5 89.8) rotate(-77.99)"/></g><g id="Group_11188" data-name="Group 11188"><rect id="Rectangle_2018" data-name="Rectangle 2018" class="cls-6" x="48.85" y="62.78" width="1.77" height="20.9" transform="translate(-32.23 106.64) rotate(-77.99)"/></g><g id="Group_11189" data-name="Group 11189"><rect id="Rectangle_2019" data-name="Rectangle 2019" class="cls-6" x="36.04" y="69.62" width="1.77" height="1.77" transform="translate(-39.71 91.95) rotate(-77.99)"/></g><g id="Group_11190" data-name="Group 11190"><rect id="Rectangle_2020" data-name="Rectangle 2020" class="cls-6" x="48.07" y="66.45" width="1.77" height="20.9" transform="translate(-36.45 108.79) rotate(-77.99)"/></g><g id="Group_11191" data-name="Group 11191"><rect id="Rectangle_2021" data-name="Rectangle 2021" class="cls-6" x="35.26" y="73.29" width="1.77" height="1.77" transform="translate(-43.93 94.1) rotate(-77.99)"/></g><g id="Group_11192" data-name="Group 11192"><rect id="Rectangle_2022" data-name="Rectangle 2022" class="cls-6" x="47.29" y="70.13" width="1.77" height="20.9" transform="translate(-40.67 110.93) rotate(-77.99)"/></g><g id="Group_11193" data-name="Group 11193"><rect id="Rectangle_2023" data-name="Rectangle 2023" class="cls-6" x="34.48" y="76.97" width="1.77" height="1.77" transform="translate(-48.15 96.25) rotate(-77.99)"/></g></g></g></g></g></g></g></g></svg>