<svg xmlns="http://www.w3.org/2000/svg" viewBox="0 0 120 120"><defs><style>.cls-1{opacity:0.5;}.cls-2{fill:#91e375;}.cls-3,.cls-6,.cls-7{fill:#361181;}.cls-4,.cls-5{fill:none;}.cls-4,.cls-5,.cls-6,.cls-7{stroke:#361181;}.cls-5{stroke-linecap:round;stroke-width:3px;}.cls-6{stroke-width:0.5px;}.cls-7{stroke-width:0.5px;}</style></defs><title>Layer 7</title><g id="Layer_2" data-name="Layer 2"><g id="Layer_7" data-name="Layer 7"><g id="Group_11161" data-name="Group 11161"><g id="Group_11031" data-name="Group 11031"><g id="Group_7763" data-name="Group 7763" class="cls-1"><circle id="Ellipse_179" data-name="Ellipse 179" class="cls-2" cx="60" cy="60" r="60"/></g><g id="Group_7764" data-name="Group 7764"><circle id="Ellipse_180" data-name="Ellipse 180" class="cls-2" cx="60" cy="60" r="46.76"/></g></g><g id="Group_10440" data-name="Group 10440"><g id="Group_10432" data-name="Group 10432"><g id="Ellipse_277" data-name="Ellipse 277"><circle class="cls-3" cx="49.2" cy="30.3" r="1.95"/><circle class="cls-4" cx="49.2" cy="30.3" r="1.29"/></g><g id="Ellipse_278" data-name="Ellipse 278"><circle class="cls-3" cx="32.35" cy="52.3" r="1.3"/><circle class="cls-4" cx="32.35" cy="52.3" r="0.63"/></g><g id="Group_10427" data-name="Group 10427"><path id="Path_5123" data-name="Path 5123" class="cls-5" d="M37.08,37.54l-.26,4.93"/><path id="Path_5124" data-name="Path 5124" class="cls-5" d="M39.41,40.14l-4.93-.26"/></g><g id="Group_11238" data-name="Group 11238"><g id="Group_11176" data-name="Group 11176"><path id="Path_10733" data-name="Path 10733" class="cls-6" d="M66.35,89a1.25,1.25,0,0,1-.93,0L35.73,75.12a1.21,1.21,0,0,1-.58-1.61L50.83,39.87a1.24,1.24,0,0,1,.69-.64h0l21-7.47A1.92,1.92,0,0,1,75,32.9l7.79,20.89a1.22,1.22,0,0,1,0,.94L76.53,68l-1.47-.69L81.18,54.2,73.45,33.46a.29.29,0,0,0-.37-.18L52.23,40.7,36.79,73.83,65.73,87.32l6.85-14.68,1.47.68L67,88.37A1.19,1.19,0,0,1,66.35,89Z"/></g><g id="Group_11177" data-name="Group 11177"><path id="Path_10734" data-name="Path 10734" class="cls-6" d="M70.09,48.47a5,5,0,1,1,3-6.35,5,5,0,0,1-.17,3.79A4.93,4.93,0,0,1,70.09,48.47Zm-2.83-7.79a3.34,3.34,0,1,0,4.28,2,3.4,3.4,0,0,0-1.73-1.88,3.32,3.32,0,0,0-2.55-.1Z"/></g><g id="Group_11178" data-name="Group 11178"><path id="Path_10735" data-name="Path 10735" class="cls-6" d="M81.41,79.55C77,81.17,71.14,72.65,67.91,63.8s-4.23-19.13.21-20.75c1-.35,2.57-.38,4.77,1.43l-1,1.26C71,45,69.7,44.2,68.68,44.58c-2.52.91-2.83,8.8.76,18.66S78.33,79,80.85,78s2.83-8.81-.76-18.67l-.46-1.28,1.52-.55.47,1.27C84.84,67.66,85.86,77.93,81.41,79.55Z"/></g><g id="Group_11179" data-name="Group 11179"><rect id="Rectangle_2012" data-name="Rectangle 2012" class="cls-7" x="52.37" y="63.77" width="1.62" height="25.69" transform="translate(-38.73 92.44) rotate(-65)"/></g><g id="Group_11180" data-name="Group 11180"><rect id="Rectangle_2013" data-name="Rectangle 2013" class="cls-7" x="54.57" y="59.05" width="1.62" height="25.69" transform="translate(-33.18 91.71) rotate(-65)"/></g></g></g></g></g></g></g></svg>