<svg xmlns="http://www.w3.org/2000/svg" viewBox="0 0 119.85 119.85"><defs><style>.cls-1{opacity:0.5;}.cls-2{fill:#19cbc5;}.cls-3,.cls-6{fill:#361181;}.cls-4,.cls-5{fill:none;}.cls-4,.cls-5,.cls-6{stroke:#361181;}.cls-5{stroke-linecap:round;stroke-width:3px;}.cls-6{stroke-miterlimit:4;stroke-width:0.25px;}</style></defs><title>Layer 8</title><g id="Layer_2" data-name="Layer 2"><g id="Layer_8" data-name="Layer 8"><g id="Group_11160" data-name="Group 11160"><g id="Group_11031" data-name="Group 11031"><g id="Group_7763" data-name="Group 7763" class="cls-1"><circle id="Ellipse_179" data-name="Ellipse 179" class="cls-2" cx="59.92" cy="59.92" r="59.92"/></g><g id="Group_7764" data-name="Group 7764"><circle id="Ellipse_180" data-name="Ellipse 180" class="cls-2" cx="59.92" cy="59.92" r="46.7"/></g></g><g id="Group_10440" data-name="Group 10440"><g id="Group_10432" data-name="Group 10432"><g id="Ellipse_277" data-name="Ellipse 277"><circle class="cls-3" cx="30.49" cy="35.59" r="1.95"/><circle class="cls-4" cx="30.49" cy="35.59" r="1.28"/></g><g id="Ellipse_278" data-name="Ellipse 278"><circle class="cls-3" cx="30.97" cy="61.55" r="1.3"/><circle class="cls-4" cx="30.97" cy="61.55" r="0.63"/></g><g id="Group_10427" data-name="Group 10427"><path id="Path_5123" data-name="Path 5123" class="cls-5" d="M25.05,48.15l-.26,4.92"/><path id="Path_5124" data-name="Path 5124" class="cls-5" d="M27.38,50.74l-4.93-.26"/></g><g id="Group_11239" data-name="Group 11239"><g id="Group_11205" data-name="Group 11205"><path id="Path_10746" data-name="Path 10746" class="cls-6" d="M79.69,44.6,77.89,44l-5.55-1.9a16.38,16.38,0,0,0-8.75-.53,1.85,1.85,0,0,0-1.65,1.91,3.42,3.42,0,0,1-2.59,3.24h0a3.36,3.36,0,0,1-3.77-1.87,1.86,1.86,0,0,0-2.31-1.08h0a16,16,0,0,0-7.55,3.86c-1.62,1.48-3.25,3-4.82,4.47l-1.13,1a1.87,1.87,0,0,0-.37,2.61l.17.19,5.5,6.9a1.88,1.88,0,0,0,1.91.84,2.51,2.51,0,0,0,1-.5l1.13-.9L52.92,80.4a2.9,2.9,0,0,0,3.23,2.52,4.1,4.1,0,0,0,.48-.1h0l19.76-4.2a2.92,2.92,0,0,0,2.54-3.23,3.25,3.25,0,0,0-.12-.52L75,56.78l1.37.35a2.44,2.44,0,0,0,1.14.06,1.87,1.87,0,0,0,1.39-1.56q1.11-4.23,2.2-8.45A1.91,1.91,0,0,0,80,44.7Zm-.21,2.16c-.73,2.82-1.46,5.63-2.2,8.45a.85.85,0,0,1-.15.37,1,1,0,0,1-.39,0L75,55.07,74.61,55a17.33,17.33,0,0,1-.55-4.42v0l-1.62-.29a17.29,17.29,0,0,0,.62,5.31,1.49,1.49,0,0,0,0,.21L77.21,75.2A1.3,1.3,0,0,1,76.05,77L56.29,81.2a1.49,1.49,0,0,1-1.17-.12,1.54,1.54,0,0,1-.59-1L50.4,60.64a17.51,17.51,0,0,0-1.64-5.34l-1.36.93v0a17.22,17.22,0,0,1,1.3,4.28l-.29.22-1.48,1.17a.84.84,0,0,1-.31.19s-.1,0-.28-.26l-5.5-6.9a.92.92,0,0,1-.18-.3.85.85,0,0,1,.22-.28l1.12-1c1.57-1.47,3.2-3,4.81-4.46a14.32,14.32,0,0,1,6.8-3.47.31.31,0,0,1,.44.06.29.29,0,0,1,.07.18,5,5,0,0,0,5.57,2.71h0a5,5,0,0,0,3.88-4.74.3.3,0,0,1,.18-.39.33.33,0,0,1,.17,0,14.71,14.71,0,0,1,7.89.48c1.84.62,3.72,1.27,5.53,1.9l1.81.62a1,1,0,0,1,.38.19A1.4,1.4,0,0,1,79.48,46.76Z"/><path id="Path_10747" data-name="Path 10747" class="cls-6" d="M68.82,57l-1.14.24L67.43,56l-1.19.25L66,55l-2.06.44-.22-1-2.22.47-.24-1.16L60,54l.25,1.16-1.89.4.21,1-2,.43.27,1.25-1.18.26.25,1.2L54.76,60l.3,1.43-1.45.31.63,3,1.61-.34-.15-.7,2.52-.53.25,1.18,1.21-.25-.25-1.19,2.31-.49,1.34,6.3,1.43-.31.29,1.33,2-.42L66.48,68l1.23-.26-.34-1.61-1.23.26.27,1.26-1.78.37-1.28-6,2.38-.51L66,62.72l1.21-.26-.25-1.19,2.52-.53.15.7,1.61-.35-.64-3-1.45.31Zm-2.27,2.69.25,1.18-1.09.24-.25-1.19-2.77.59L63,61.81l-.91.19-.28-1.32L59,61.27l.25,1.18-1.1.24-.25-1.19-2.56.55-.11-.51,1.05-.22-.25-1.21,1.14-.25-.27-1.25L59,58.16l-.21-1L64,56l.22,1,2.12-.45.26,1.25,1.14-.24L68,58.84,69,58.61l.11.51Z"/></g><g id="Group_11208" data-name="Group 11208"><g id="Group_11206" data-name="Group 11206"><path id="Path_10748" data-name="Path 10748" class="cls-6" d="M90.31,80.28,44.61,90a2.43,2.43,0,0,1-2.88-1.88l0-.16L34.85,40.08l11.73-2.49L47,39.51l-9.93,2.11,6.59,46.06a.51.51,0,0,0,.19.32.47.47,0,0,0,.36.07l45.7-9.72a.46.46,0,0,0,.3-.21.53.53,0,0,0,0-.37L77.52,33,46.44,39.63,46,37.7l32.88-7L92.14,77.23a2.43,2.43,0,0,1-1.67,3l-.16,0Z"/></g><g id="Group_11207" data-name="Group 11207"><rect id="Rectangle_2025" data-name="Rectangle 2025" class="cls-6" x="45.76" y="73.37" width="43.95" height="1.97" transform="matrix(0.98, -0.21, 0.21, 0.98, -13.99, 15.72)"/></g></g></g></g></g></g></g></g></svg>