<svg id="Group_11137" data-name="Group 11137" xmlns="http://www.w3.org/2000/svg" width="36.753" height="23.773" viewBox="0 0 36.753 23.773">
  <g id="Group_11136" data-name="Group 11136" transform="translate(0)">
    <path id="Path_10696" data-name="Path 10696" d="M188,249.946V227.234a3.906,3.906,0,0,1,1.278-.5c11.409-.028,22.819-.019,34.228-.032a1.2,1.2,0,0,1,1.247.7v22.549a4.31,4.31,0,0,1-1.359.5q-17.017.042-34.034,0A4.312,4.312,0,0,1,188,249.946Zm36.064-8.157c-2.418,1.179-4.757,2.451-7.2,3.474a75.77,75.77,0,0,1-7.508,2.657c-2.5.749-5.067,1.277-7.652,1.914h22.36Zm-19.222-4.21a2.318,2.318,0,1,0,2.386-2.3A2.375,2.375,0,0,0,204.842,237.579Zm-11.876-2.127v4.293c2.254.167,3.47-.584,3.505-2.118C196.506,236.068,195.286,235.3,192.966,235.452Zm25.579,2.512a1.265,1.265,0,0,0,.891-1.585,1.314,1.314,0,0,0-1.428-.962c-.423-.014-.847,0-1.33,0,0,1.3.025,2.5-.009,3.688-.019.667.242.809.926.571v-1.539c.786.537.745,1.967,2.2,1.58Zm-3.887,1.009v-1.135h1.414c.1-1.364-1.083-.389-1.46-.953l.048-.706h1.419v-.716h-2.309v4.276h2.3v-.7Zm-16.144-.4-.541.5a5.191,5.191,0,0,0,.632.559,1.625,1.625,0,0,0,2.216-.5c.424-.788.119-1.506-.824-1.938a1.8,1.8,0,0,1-.511-.241,2.543,2.543,0,0,1-.343-.553c.2-.112.4-.3.61-.314a1.994,1.994,0,0,1,.7.264l.346-.527a1.557,1.557,0,0,0-1.915-.257,1.633,1.633,0,0,0-.638,1.107c-.056.778.627.985,1.231,1.187.026.009.062.011.074.03.172.26.341.522.51.784a4.449,4.449,0,0,1-.984.3C198.914,238.983,198.732,238.737,198.514,238.573Zm12.761-.3c-.338-.837-.656-1.5-.87-2.194-.194-.626-.524-.815-1.176-.577.559,1.363,1.1,2.716,1.672,4.055.173.406.507.472.7.034.6-1.353,1.158-2.727,1.732-4.09-.689-.246-.992.011-1.184.615C211.93,236.808,211.608,237.467,211.275,238.274Zm-6.712.472c-.957.44-1.63.376-2.093-.181a1.615,1.615,0,0,1-.024-1.892c.468-.6,1.048-.667,2.116-.235.1-.863-.054-1.056-.885-1.106a2.294,2.294,0,0,0-2.438,2.277,2.232,2.232,0,0,0,2.451,2.234C204.371,239.813,204.806,239.6,204.563,238.746Zm-6.945,1V235.4l-.733.071v4.272Z" transform="translate(-188 -226.698)"/>
    <path id="Path_10697" data-name="Path 10697" d="M223.34,287.838v-2.718c1.174-.082,1.746.349,1.768,1.3C225.131,287.411,224.555,287.89,223.34,287.838Z" transform="translate(-217.567 -275.568)"/>
    <path id="Path_10698" data-name="Path 10698" d="M369.151,285.8V284.6c.457-.006.927-.074.959.546C370.144,285.8,369.695,285.852,369.151,285.8Z" transform="translate(-339.561 -275.138)"/>
  </g>
</svg>
