<svg id="Layer_1" data-name="Layer 1" xmlns="http://www.w3.org/2000/svg" xmlns:xlink="http://www.w3.org/1999/xlink" viewBox="0 0 1440 400"><defs><style>.cls-1{fill:none;}.cls-2{clip-path:url(#clip-path);}.cls-3{clip-path:url(#clip-path-2);}.cls-4{fill:url(#linear-gradient);}.cls-5{opacity:0.15;isolation:isolate;fill:url(#linear-gradient-2);}.cls-6{fill:url(#linear-gradient-3);}.cls-7{fill:#fff;}.cls-8{fill:#ffe6f7;}</style><clipPath id="clip-path"><path class="cls-1" d="M.07.1h1440v374s-57.2,26-188.3,26-158.33-26-306.7-26-157.94,16.63-330,16.63-211.69-39.61-360-39.61-255,23-255,23Z"/></clipPath><clipPath id="clip-path-2"><path class="cls-1" d="M.21-627.49v1219c0,58-1,107.72,0,105.08H94.67c281.47-9.57,431.2-68.43,440.72-75.39,154.73-76.81,196,13.6,349.89-120.73,132.93-96.85,405.24,32.61,590.32-36.28,199.94-77.63,46.34-379.74,46.34-379.74S1537.85-1,1475.6-46.65c-77.89-71-268.31-53.89-327.51-127.8-80.53-91.35-100.87-142.8-477.34-136.3-78.67-75.76,144-159.06,85.68-253.43-12.28-19.81-21.17-41.09-28.06-63.31H85.52C38.42-627.49.21-685.45.21-627.49Z"/></clipPath><linearGradient id="linear-gradient" x1="1.98" y1="399.61" x2="1.06" y2="400.7" gradientTransform="matrix(1550.89, 0, 0, -1398.41, -1250.18, 560019.58)" gradientUnits="userSpaceOnUse"><stop offset="0" stop-color="#27053e"/><stop offset="0.49" stop-color="#160539"/><stop offset="1" stop-color="#27053e"/></linearGradient><linearGradient id="linear-gradient-2" x1="1.24" y1="399.94" x2="1.24" y2="400.91" gradientTransform="matrix(1295.89, -182.13, -119.11, -847.48, 46562.92, 339832.94)" gradientUnits="userSpaceOnUse"><stop offset="0" stop-color="#e19ff1"/><stop offset="0.09" stop-color="#eba7e8"/><stop offset="0.23" stop-color="#764ce8"/><stop offset="0.29" stop-color="#4d06ed"/><stop offset="0.57" stop-color="#f197f1"/><stop offset="0.61" stop-color="#cb90f6"/><stop offset="0.78" stop-color="#e584f2"/><stop offset="1" stop-color="#784b6a"/></linearGradient><linearGradient id="linear-gradient-3" x1="1.23" y1="399.83" x2="1.23" y2="400.78" gradientTransform="matrix(1211.77, -21.15, -9.71, -556.08, 2827.93, 223102.28)" xlink:href="#linear-gradient"/></defs><title>header_graphic</title><g class="cls-2"><g id="Mask_Group_49" data-name="Mask Group 49"><g class="cls-3"><g id="Group_7779" data-name="Group 7779"><g id="Group_7146" data-name="Group 7146"><rect id="Rectangle_1561" data-name="Rectangle 1561" class="cls-4" x="-24.22" y="-636.13" width="1550.89" height="1398.41"/></g><g id="Group_7147" data-name="Group 7147"><path id="Path_4581" data-name="Path 4581" class="cls-5" d="M1068.67,533l116.4,31.12-1293.37,200L-189.68-88.62C-43-36.39,87.82,74.65,244.41,158.21c143.18,76.41,323.44,55.12,500.31,170.73C935.22,441.29,971.92,430.19,1068.67,533Z"/></g><g id="Group_10851" data-name="Group 10851"><path id="Path_4582" data-name="Path 4582" class="cls-6" d="M1043.91,729.9-167.83,752.51l-9.08-556.1c106,26.41,246.14,162.2,550.77,136.2C723.41,352.42,809.84,566.12,1043.91,729.9Z"/></g></g></g><g id="Group_10850" data-name="Group 10850"><path id="Path_5086" data-name="Path 5086" class="cls-7" d="M1352.09,2.12s2,2.6,1.91,4.52c0,1.59-2,4-2,4s2-1.92,3.71-2.15,4.23,2,4.23,2-2-2.38-2.12-4.3c-.1-1.47,2.12-4.06,2.12-4.06s-2.54,2.25-3.92,2.14C1354.31,4.27,1352.09,2.12,1352.09,2.12Z"/><path id="Path_5087" data-name="Path 5087" class="cls-7" d="M1391.11,345.27s2,2.6,1.9,4.52c0,1.58-2,3.95-2,3.95s2-1.92,3.7-2.15,4.23,2,4.23,2-2-2.37-2.11-4.29c-.11-1.47,2.11-4.07,2.11-4.07s-2.54,2.26-3.91,2.15C1393.33,347.42,1391.11,345.27,1391.11,345.27Z"/><path id="Path_5088" data-name="Path 5088" class="cls-7" d="M1259.89,61.1s1.38,2.15,1.27,3.62c-.11,1.24-1.9,2.94-1.9,2.94a6.29,6.29,0,0,1,3-1.36c1.39-.11,3.18,2,3.18,2s-1.48-2-1.37-3.51c0-1.13,2-3,2-3s-2.11,1.58-3.17,1.36C1261.48,63,1259.89,61.1,1259.89,61.1Z"/><path id="Path_5089" data-name="Path 5089" class="cls-7" d="M1366.58,180.76s1.37,2.15,1.27,3.61c-.11,1.25-1.9,2.94-1.9,2.94a6.35,6.35,0,0,1,3-1.36c1.38-.1,3.18,2,3.18,2s-1.49-2-1.38-3.5c0-1.13,2-3.05,2-3.05s-2.11,1.58-3.17,1.35C1368.06,182.57,1366.58,180.76,1366.58,180.76Z"/><path id="Path_5101" data-name="Path 5101" class="cls-7" d="M1234.73,368.88a6.42,6.42,0,0,1,3.28,1.7c.73,1,.74,3.5.74,3.5a8.77,8.77,0,0,1,1.16-3.28c.95-1,3.49-1,3.49-1s-2.43-.34-3.28-1.47c-.74-.79-.63-3.62-.63-3.62s-.43,2.71-1.27,3.39A7.82,7.82,0,0,1,1234.73,368.88Z"/><path id="Path_5102" data-name="Path 5102" class="cls-7" d="M1264.23,374a6.41,6.41,0,0,1,3.27,1.69c.74,1,.75,3.5.75,3.5a8.66,8.66,0,0,1,1.16-3.27c.95-1,3.49-1,3.49-1s-2.43-.34-3.28-1.47c-.74-.79-.63-3.61-.63-3.61s-.43,2.71-1.27,3.39C1266.55,374.19,1264.23,374,1264.23,374Z"/><path id="Path_5103" data-name="Path 5103" class="cls-7" d="M1392.8,392.27a6.48,6.48,0,0,1,3.28,1.69c.73,1,.74,3.51.74,3.51a8.94,8.94,0,0,1,1.16-3.28c1-1,3.49-1,3.49-1s-2.43-.33-3.28-1.46c-.74-.8-.63-3.62-.63-3.62s-.42,2.71-1.27,3.39C1395.12,392.5,1392.8,392.27,1392.8,392.27Z"/><path id="Path_5104" data-name="Path 5104" class="cls-7" d="M1337.82,237.93s3.7.79,5.18,2.6c1.27,1.58,1,5.42,1,5.42s.54-3.5,1.91-5.19,5.5-1.59,5.5-1.59-3.7-.56-5.18-2.37c-1.06-1.36-1.06-5.65-1.06-5.65s-.74,4.18-2,5.31C1341.41,238.16,1337.82,237.93,1337.82,237.93Z"/><path id="Path_5108" data-name="Path 5108" class="cls-7" d="M1310.54,77.94s1.37,2.15,1.27,3.62c-.11,1.24-1.9,2.93-1.9,2.93a6.39,6.39,0,0,1,2.95-1.36c1.38-.1,3.18,2,3.18,2s-1.48-2-1.38-3.5c0-1.13,2-3,2-3s-2.11,1.58-3.17,1.35A8,8,0,0,1,1310.54,77.94Z"/><path id="Path_5110" data-name="Path 5110" class="cls-7" d="M1397,172.4s2.11,3.38,1.9,5.65c-.21,2-2.85,4.63-2.85,4.63s2.64-2.15,4.75-2.15,4.87,3.17,4.87,3.17-2.22-3.28-2-5.54c.1-1.92,3-4.75,3-4.75s-3.28,2.38-5,2.15C1399.46,175.22,1397,172.4,1397,172.4Z"/></g><g id="Group_7872" data-name="Group 7872"><path id="Path_5087-2" data-name="Path 5087-2" class="cls-8" d="M166.65,181.6s1.39,3,3,3.65c1.34.64,4.15-.35,4.15-.35a8.78,8.78,0,0,0-3.3,2.71c-.87,1.55,0,4.9,0,4.9s-1.2-2.89-2.78-3.77c-1.2-.69-4.29.41-4.29.41s2.93-1.54,3.39-2.9C167.57,184.61,166.65,181.6,166.65,181.6Z"/><path id="Path_5089-2" data-name="Path 5089-2" class="cls-8" d="M37.51,91.8s1.26,2.2,2.54,2.68c1.1.4,3.25-.65,3.25-.65A6.53,6.53,0,0,0,41,96.14c-.65,1.28.44,3.87.44,3.87s-1.12-2.24-2.4-2.73c-1-.45-3.39.71-3.39.71s2.19-1.4,2.42-2.51A6.94,6.94,0,0,0,37.51,91.8Z"/><path id="Path_5101-2" data-name="Path 5101-2" class="cls-8" d="M249.46,40.22a7.36,7.36,0,0,0,.12,3.84c.56,1.12,2.66,2.12,2.66,2.12A7.39,7.39,0,0,0,249,46c-1.24.5-2.26,2.95-2.26,2.95s.69-2.48.08-3.75c-.37-1-2.8-2.06-2.8-2.06s2.46.68,3.37.13A8.57,8.57,0,0,0,249.46,40.22Z"/><path id="Path_5102-2" data-name="Path 5102-2" class="cls-8" d="M241.9,70.72a7.36,7.36,0,0,0,.12,3.84c.56,1.13,2.66,2.13,2.66,2.13a7.39,7.39,0,0,0-3.24-.2c-1.24.51-2.26,3-2.26,3s.69-2.48.08-3.75c-.38-1-2.8-2.07-2.8-2.07s2.46.69,3.37.14C241.16,73.06,241.9,70.72,241.9,70.72Z"/><path id="Path_5103-2" data-name="Path 5103-2" class="cls-8" d="M205.68,202.13a7.36,7.36,0,0,0,.12,3.84c.56,1.12,2.66,2.13,2.66,2.13a7.25,7.25,0,0,0-3.24-.2c-1.24.51-2.26,3-2.26,3s.69-2.49.08-3.76c-.37-1-2.8-2.06-2.8-2.06s2.46.68,3.37.14C204.94,204.46,205.68,202.13,205.68,202.13Z"/><path id="Path_5104-2" data-name="Path 5104-2" class="cls-8" d="M97.38,87s-.82,3.88.11,6c.82,1.86,4.15,3.2,4.15,3.2s-3.16-.9-5.15-.25-3.55,4.67-3.55,4.67,1-3.8.08-6c-.72-1.56-4.35-3.29-4.35-3.29s3.83,1,5.3.2C96.12,90.6,97.38,87,97.38,87Z"/><path id="Path_5110-2" data-name="Path 5110-2" class="cls-8" d="M18.21,117.82s2,3.41,4,4.11c1.8.61,5.06-.89,5.06-.89s-2.88,1.68-3.73,3.73.72,6,.72,6-1.88-3.46-3.87-4.16c-1.67-.67-5.2.94-5.2.94s3.32-2.2,3.81-3.92C19.62,121.3,18.21,117.82,18.21,117.82Z"/></g></g></g></svg>