<?xml version="1.0" encoding="utf-8"?>
<!-- Generator: Adobe Illustrator 24.0.3, SVG Export Plug-In . SVG Version: 6.00 Build 0)  -->
<svg version="1.1" id="Layer_1" xmlns="http://www.w3.org/2000/svg" xmlns:xlink="http://www.w3.org/1999/xlink" x="0px" y="0px"
	 viewBox="0 0 1200 650" style="enable-background:new 0 0 1200 650;" xml:space="preserve">
<style type="text/css">
	.st0{clip-path:url(#SVGID_2_);}
	.st1{fill:url(#Rectangle_1561_1_);}
	.st2{opacity:0.15;fill:url(#Path_4581_1_);enable-background:new    ;}
	.st3{fill:url(#Path_4582_1_);}
	.st4{opacity:0.3;}
	.st5{fill:#00E2DA;}
	.st6{fill:#FFEB47;}
	.st7{opacity:0.41;}
	.st8{opacity:5.000000e-02;}
	.st9{fill:#00FFF1;}
	.st10{opacity:0.86;}
	.st11{fill:#04C7C7;}
	.st12{fill:#350E52;}
	.st13{fill:#6E3E1D;}
	.st14{fill:#A936C4;}
	.st15{opacity:0.1;}
	.st16{opacity:0.4;}
	.st17{fill:#FFE6F7;}
</style>
<g id="Group_7780" transform="translate(90.726 16.612)">
	<g>
		<defs>
			<path id="SVGID_1_" d="M-91.4-234.3v799c0,38-0.7,70.6,0,68.9h66.2c197.1-6.3,302-44.8,308.7-49.4
				c108.4-50.3,102.1-56,209.9-144.1c93.1-63.5,241-23.9,370.6-69c140-50.9,63.6-136.3,63.6-136.3s-12.4-0.5-56-30.4
				C816.9,157.7,754,111,712.5,62.6C656.1,2.7,641.8-31,378.2-26.7c-55.1-49.7,100.9-104.3,60-166.1c-8.4-12.9-15-26.9-19.7-41.5
				H-31.7C-64.7-234.3-91.4-272.3-91.4-234.3z"/>
		</defs>
		<clipPath id="SVGID_2_">
			<use xlink:href="#SVGID_1_"  style="overflow:visible;"/>
		</clipPath>
		<g id="Group_7779" transform="translate(-0.313 -16.612)" class="st0">
			<g id="Group_7146" transform="translate(-18.904 -11.898)">
				
					<linearGradient id="Rectangle_1561_1_" gradientUnits="userSpaceOnUse" x1="-69.589" y1="661.8573" x2="-70.5156" y2="662.9518" gradientTransform="matrix(1086.6949 0 0 -916.945 76826.7734 607861)">
					<stop  offset="0" style="stop-color:#27053E"/>
					<stop  offset="0.494" style="stop-color:#160539"/>
					<stop  offset="1" style="stop-color:#27053E"/>
				</linearGradient>
				<rect id="Rectangle_1561" x="-91.4" y="-234.6" class="st1" width="1086.2" height="916.5"/>
			</g>
			<g id="Group_7147" transform="translate(-18.904 42.345)">
				
					<linearGradient id="Path_4581_1_" gradientUnits="userSpaceOnUse" x1="-70.282" y1="607.9556" x2="-70.282" y2="608.9241" gradientTransform="matrix(1086.6949 0 0 -862.791 76826.7734 525162.0625)">
					<stop  offset="0" style="stop-color:#E19FF1"/>
					<stop  offset="9.200000e-02" style="stop-color:#EBA7E8"/>
					<stop  offset="0.231" style="stop-color:#764CE8"/>
					<stop  offset="0.287" style="stop-color:#4D06ED"/>
					<stop  offset="0.57" style="stop-color:#F197F1"/>
					<stop  offset="0.612" style="stop-color:#CB90F6"/>
					<stop  offset="0.781" style="stop-color:#E584F2"/>
					<stop  offset="1" style="stop-color:#784B6A"/>
				</linearGradient>
				<path id="Path_4581" class="st2" d="M902.3,585.8l92.4,37.4l-1086.2,4.5v-862.4C23.7-177.4,119.3-76.8,239.1,5.7
					c109.6,75.4,260.2,79.9,393.3,189.4C777.1,303.6,833.8,495.5,902.3,585.8z"/>
			</g>
			<g id="Group_7148" transform="translate(-128.992 618.358)">
				
					<linearGradient id="Path_4582_1_" gradientUnits="userSpaceOnUse" x1="39.7297" y1="32.3574" x2="39.7297" y2="33.305" gradientTransform="matrix(849.186 0 0 -364.689 -33404.9375 11924.1875)">
					<stop  offset="0" style="stop-color:#27053E"/>
					<stop  offset="0.494" style="stop-color:#160539"/>
					<stop  offset="1" style="stop-color:#27053E"/>
				</linearGradient>
				<path id="Path_4582" class="st3" d="M757.4,129.6H-91.4v-364.5c74,18.6,170.5,109.3,384.1,96
					C537.3-121.7,595.4,19.4,757.4,129.6z"/>
			</g>
			<g id="Group_7749" transform="translate(102.519 111.893)">
				<g id="Group_7744" transform="translate(4.09 4.147)" class="st4">
					<ellipse id="Ellipse_174" class="st5" cx="-43.6" cy="-186.8" rx="46.8" ry="46.8"/>
				</g>
				<g id="Group_7745" transform="translate(0 0)" class="st4">
					<ellipse id="Ellipse_175" class="st5" cx="-39.5" cy="-182.7" rx="42.7" ry="42.7"/>
				</g>
				<g id="Group_7746" transform="translate(14.215 23.927)" class="st4">
					<path id="Path_4831" class="st5" d="M-88.2-221.9c8.5-19,28.4-17.5,36.9,9.7c6.1,19.9,40.4,2,31.8,21.1
						c-8.7,18.9-31.1,27.1-50,18.4C-88-181.3-96.3-203.2-88.2-221.9z"/>
				</g>
				<g id="Group_7747" transform="translate(17.247 45.811)" class="st4">
					<path id="Path_4832" class="st5" d="M-89.9-227.4c5.3-11.8,20.5-9.5,28.7,8.7c6,13.2,30.9,3.9,25.6,15.6
						c-5.3,11.8-21.7,15.8-36.7,9C-87.2-200.8-95.1-215.8-89.9-227.4z"/>
				</g>
				<g id="Group_7748" transform="translate(20.29 62.32)" class="st4">
					<path id="Path_4833" class="st5" d="M-90.9-231.3c2.8-6.3,14.1-3.8,21.6,7.5c5.4,8.2,22.7,4.8,19.9,11.1
						c-2.8,6.3-14.4,7.3-25.9,2.1C-86.7-215.7-93.7-225-90.9-231.3z"/>
				</g>
			</g>
			<g id="Group_7753" transform="translate(-17.062 75.471)">
				<g id="Group_7750" transform="translate(0 0)" class="st4">
					<circle id="Ellipse_176" class="st6" cx="-45" cy="-188.2" r="32.8"/>
				</g>
				<g id="Group_7751" transform="translate(10.334 10.286)" class="st7">
					<ellipse id="Ellipse_177" class="st6" cx="-55.3" cy="-198.5" rx="30.1" ry="30.1"/>
				</g>
				<g id="Group_7752" transform="translate(18.357 17.882)" class="st7">
					<path id="Path_4834" class="st6" d="M-88-204.6c0-14.3,11.6-25.8,25.8-25.8c6.8,0,13.3,2.7,18.1,7.5
						c-7.8-11.9-23.7-15.3-35.7-7.5c-11.9,7.8-15.3,23.7-7.5,35.7c1,1.5,2.2,3,3.5,4.2C-86.6-194.8-88-199.7-88-204.6z"/>
				</g>
			</g>
			<g id="Group_7762" transform="matrix(0.966, -0.259, 0.259, 0.966, 495.313, 264.294)">
				<g id="Group_7754" transform="translate(13.016 37.163)" class="st8">
					<circle id="Ellipse_178" class="st9" cx="82.7" cy="-140" r="78.1"/>
				</g>
				<g id="Group_7755" transform="translate(53.74 69.591)" class="st8">
					<path id="Path_4835" class="st9" d="M105.5-126.8C80.3-91.7,79.2-168,44.2-193.1s-90.8,10.3-65.6-24.7
						C3.6-253,52.4-261.1,87.5-236c35.1,25.1,43.2,73.9,18.1,109C105.5-126.9,105.5-126.9,105.5-126.8z"/>
				</g>
				<g id="Group_7757" transform="translate(45.393 66.938)" class="st10">
					<g id="Group_7756">
						<path id="Path_4836" class="st11" d="M-27.8-171.3c-0.1-3.1,0.1-6.2,0.3-9.3c0.9-9.3,3.6-18.4,7.8-26.8
							c5.8-11.3,14.2-21.1,24.6-28.5c5.2-3.7,10.8-6.7,16.8-9.1c6-2.3,12.2-3.9,18.5-4.8c6.4-0.8,12.8-0.9,19.2-0.3
							c6.4,0.7,12.6,2.2,18.7,4.3c6,2.2,11.8,5.1,17.1,8.7c5.3,3.5,10.2,7.7,14.5,12.5c4.3,4.7,8,10,11.1,15.5
							c3.1,5.6,5.4,11.6,7,17.8c0.4,1.6,0.7,3.1,1,4.6c0.3,1.6,0.6,3.1,0.8,4.7c0.4,3.1,0.7,6.3,0.7,9.5c0,6.3-0.6,12.6-2,18.8
							c-2.9,12.2-8.7,23.5-16.9,33c7.2-9.9,12-21.4,14.2-33.5c2.1-11.9,1.3-24.2-2.1-35.8c-6.8-23-24.9-42.3-47.3-50.2
							c-22.9-8.3-48.3-5.3-68.6,8.1c-5,3.3-9.7,7.2-13.8,11.5c-4.2,4.4-7.8,9.2-10.9,14.5c-3,5.3-5.5,10.9-7.3,16.7
							C-26.2-183.5-27.3-177.4-27.8-171.3L-27.8-171.3z"/>
					</g>
				</g>
				<g id="Group_7758">
					<path id="Path_4837" class="st11" d="M31.4-168.2C26.2-174.1,21-180,15.9-186S5.7-198,0.8-204.2c-4.9-6.2-9.8-12.3-14.4-18.8
						c-2.3-3.2-4.6-6.4-6.8-9.7c-2.2-3.3-4.2-6.7-5.9-10.3c-0.4-0.9-0.8-1.9-1-2.9c-0.2-0.5-0.3-1-0.3-1.6c-0.1-0.5-0.1-1.1,0.1-1.6
						c0.1-0.3,0.3-0.6,0.5-0.8c0.2-0.3,0.5-0.4,0.9-0.4c0.5-0.2,1.1-0.2,1.6-0.1c1,0.2,2,0.5,3,1c3.6,1.7,7,3.8,10.2,6.2
						c6.4,4.6,12.6,9.5,18.6,14.6c6,5.1,11.9,10.3,17.8,15.6c5.8,5.3,11.5,10.7,17.3,16.1c-5.8-5.3-11.6-10.6-17.6-15.8
						c-5.9-5.2-11.9-10.3-18-15.4c-6.1-4.9-12.2-10-18.7-14.4c-3.2-2.3-6.5-4.3-10.1-6c-0.9-0.4-1.8-0.7-2.7-0.9
						c-0.9-0.2-1.7,0-2,0.7c-0.2,0.9-0.1,1.8,0.2,2.6c0.3,0.9,0.6,1.8,1,2.7c1.7,3.5,3.6,6.9,5.8,10.2c2.2,3.3,4.3,6.5,6.7,9.7
						c4.6,6.4,9.5,12.6,14.3,18.8c4.9,6.2,9.8,12.3,14.8,18.3C21.3-180.2,26.3-174.2,31.4-168.2z"/>
				</g>
				<g id="Group_7759" transform="translate(93.421 120.258)">
					<path id="Path_4838" class="st11" d="M92-168.1c9.1,10.5,18.1,21.1,26.9,31.9c4.3,5.5,8.6,10.9,12.8,16.5
						c4.2,5.6,8.1,11.3,11.7,17.3c0.9,1.5,1.7,3,2.4,4.6c0.8,1.6,1.4,3.3,1.6,5c0,0.5,0,0.9-0.2,1.4c-0.1,0.5-0.5,0.9-1,1.1
						c-0.9,0.3-1.9,0.2-2.8-0.1c-1.7-0.5-3.3-1.3-4.9-2.2c-3-1.7-6-3.6-8.8-5.7c-2.9-2-5.6-4.2-8.3-6.3
						c-10.9-8.6-21.4-17.8-31.8-27.2c-20.6-18.8-40.5-38.3-60.1-58.1c-9.8-9.9-19.4-19.9-29.1-30l-28.4-30.6l28.7,30.3
						c9.6,10.1,19.4,20,29.2,29.9c19.6,19.7,39.6,39.1,60.2,57.8c10.3,9.4,20.7,18.6,31.6,27.3c2.7,2.2,5.5,4.3,8.3,6.3
						c2.8,2.1,5.7,4,8.7,5.7c1.5,0.9,3,1.6,4.7,2.1c0.8,0.3,1.6,0.3,2.3,0.1c0.7-0.3,0.9-1,0.8-1.8c-0.3-1.7-0.8-3.3-1.6-4.9
						c-0.7-1.6-1.5-3.1-2.4-4.6c-3.6-6-7.4-11.7-11.6-17.3c-4.1-5.6-8.3-11.1-12.7-16.6C109.9-146.8,101-157.5,92-168.1z"/>
				</g>
				<g id="Group_7760" transform="translate(172.754 204.888)">
					<path id="Path_4839" class="st12" d="M5.2-216.9c-7.8,7.5-20.2,7.2-27.6-0.6c-7.5-7.8-7.2-20.2,0.6-27.6
						c7.8-7.5,20.2-7.2,27.6,0.6c0,0,0,0,0,0C13.3-236.7,13-224.4,5.2-216.9C5.2-216.9,5.2-216.9,5.2-216.9z"/>
				</g>
				<g id="Group_7761" transform="translate(172.758 204.482)">
					<path id="Path_4840" class="st13" d="M-27.8-230.1c-0.2-2.4,0.2-4.9,1-7.2c0.8-2.3,2-4.5,3.6-6.3c7-8.2,19.3-9.3,27.5-2.3
						c1.6,1.4,3,3,4.2,4.9c1.2,2.1,2.1,4.4,2.4,6.9c-1.1-4.7-3.8-8.9-7.7-11.7c-8-5.8-19.1-4.6-25.8,2.7
						C-25.9-239.6-27.7-235-27.8-230.1z"/>
				</g>
			</g>
			<g id="Group_7778" transform="translate(-149.268 655.967)">
				<g id="Group_7767" transform="translate(40.878 40.937)" class="st8">
					<g id="Group_7766" transform="translate(0)">
						<ellipse id="Ellipse_181" class="st14" cx="39.4" cy="-104.1" rx="130.8" ry="130.8"/>
					</g>
				</g>
				<g id="Group_7769" transform="translate(0)" class="st15">
					<g id="Group_7768">
						<circle id="Ellipse_182" class="st14" cx="80.3" cy="-63.2" r="121.4"/>
					</g>
				</g>
				<g id="Group_7771" transform="translate(57.307 57.316)" class="st16">
					<g id="Group_7770">
						<path id="Path_4841" class="st14" d="M67.6-15.2C9.4,9.2-57.6-18.2-82.1-76.4c-24.3-57.9,2.6-124.7,60.4-149.4
							c3-1.2,6-2.4,8.9-3.4c53-17.4,110.8,6,136.9,55.4c1.5,2.8,2.8,5.7,4.1,8.7C152.9-107,125.8-39.9,67.6-15.2
							C67.7-15.2,67.6-15.2,67.6-15.2z"/>
					</g>
				</g>
				<g id="Group_7773" transform="translate(77.078 57.404)" class="st16">
					<g id="Group_7772">
						<path id="Path_4842" class="st14" d="M-7.8-104.3L-7.8-104.3c26.9,28.6,67.2,40.4,105.4,31l0,0c7.3-1.8,13-7.3,15.3-14.5
							c7.6-25.5,6.1-52.9-4.3-77.4c-1.2-3-2.6-5.9-4.1-8.7c-26-49.4-83.8-72.8-136.9-55.4c-3,1-6,2.1-8.9,3.4
							c-15.5,6.6-29.4,16.5-40.6,29c-18.9,21.1-8,54.7,19.7,61.1C-41.4-130.8-22.4-119.9-7.8-104.3z"/>
					</g>
				</g>
				<g id="Group_7775" transform="translate(74.094 57.317)" class="st16">
					<g id="Group_7774">
						<path id="Path_4843" class="st14" d="M88.1-133.7l15.4-8.4c8.2-4.4,11.6-14.3,8.1-22.9c0-0.1,0-0.1-0.1-0.2
							c-1.2-3-2.6-5.9-4.1-8.7c-26-49.4-83.8-72.8-136.9-55.4c-3,1-6,2.1-8.9,3.4c-20.1,8.5-37.4,22.6-49.7,40.7
							c-8.9,13,1.8,30.4,17.4,28.3l38.3-5c11.9-1.6,24,0.9,34.3,7.1l33.4,20C51.5-125,71.6-124.6,88.1-133.7z"/>
					</g>
				</g>
				<g id="Group_7777" transform="translate(136.11 57.404)" class="st16">
					<g id="Group_7776">
						<path id="Path_4844" class="st14" d="M45.4-173.8c-53,17.4-110.8-6-136.9-55.4C-38.4-246.6,19.4-223.2,45.4-173.8z"/>
					</g>
				</g>
			</g>
		</g>
	</g>
	<g id="Group_7872" transform="translate(-258.755 279.154) rotate(-21)">
		<path id="Path_5084" class="st17" d="M35.1,259.5c0,0,0.4,3.7,1.9,5.3c1.3,1.3,4.9,1.5,4.9,1.5s-3.2,0.1-4.9,1.5
			c-1.6,1.3-1.9,5.3-1.9,5.3s-0.1-3.7-1.6-5.3c-1.2-1.2-5-1.5-5-1.5s3.8-0.3,5-1.5C34.9,263.1,35.1,259.5,35.1,259.5z"/>
		<path id="Path_5085" class="st17" d="M4,300.4c-1.5-1.5-1.9-5.3-1.9-5.3s-0.1,3.7-1.6,5.2c-0.5,0.4-1,0.7-1.6,0.9l0,1.3
			c0.6,0.1,1.2,0.5,1.6,0.9c1.5,1.6,1.6,5.3,1.6,5.3s0.3-4,1.9-5.3c1.6-1.3,4.9-1.5,4.9-1.5S5.4,301.8,4,300.4z"/>
		<path id="Path_5086" class="st17" d="M651.8-226c0,0,0.3,3.1,1.6,4.3c1,1,4,1.2,4,1.2c-1.4,0.1-2.8,0.5-4,1.2
			c-1.3,1-1.6,4.3-1.6,4.3s-0.1-3-1.3-4.3c-0.9-1-4.1-1.2-4.1-1.2s3.2-0.3,4.1-1.3C651.6-223.1,651.8-226,651.8-226z"/>
		<path id="Path_5087" class="st17" d="M848.8,25.5c0,0,0.3,3.1,1.6,4.3c1,1,4,1.2,4,1.2c-1.4,0.1-2.8,0.5-4,1.2
			c-1.3,1-1.6,4.3-1.6,4.3s-0.1-3-1.3-4.3c-0.9-1-4.1-1.2-4.1-1.2s3.2-0.3,4.1-1.3C848.7,28.5,848.8,25.5,848.8,25.5z"/>
		<path id="Path_5088" class="st17" d="M754.7-251.9c0,0,0.4,2.4,1.5,3.2c0.9,0.7,3.2,0.6,3.2,0.6c-1.1,0.1-2.1,0.5-3,1.2
			c-1,0.9-0.9,3.5-0.9,3.5s-0.3-2.4-1.3-3.2c-0.7-0.7-3.4-0.6-3.4-0.6s2.5-0.4,3.1-1.3C754.9-249.5,754.7-251.9,754.7-251.9z"/>
		<path id="Path_5089" class="st17" d="M758.4-99.1c0,0,0.4,2.4,1.5,3.2c0.9,0.7,3.2,0.6,3.2,0.6c-1.1,0.1-2.1,0.5-3,1.2
			c-1,0.9-0.9,3.5-0.9,3.5s-0.3-2.4-1.3-3.2c-0.7-0.7-3.4-0.6-3.4-0.6s2.5-0.4,3.1-1.3C758.2-96.8,758.5-98,758.4-99.1z"/>
		<path id="Path_5093" class="st17" d="M548.4,322.1c0,0,0.3,3.1,1.6,4.3c1,1,4,1.2,4,1.2c-1.4,0.1-2.8,0.5-4,1.2
			c-1.3,1-1.6,4.3-1.6,4.3s-0.1-3-1.3-4.3c-0.9-1-4.1-1.2-4.1-1.2s3.2-0.3,4.1-1.3C548.2,325.1,548.4,322.1,548.4,322.1z"/>
		<path id="Path_5094" class="st17" d="M508,368.2c0,0,0.3,3.1,1.6,4.3c1,1,4,1.2,4,1.2c-1.4,0.1-2.8,0.5-4,1.2
			c-1.3,1-1.6,4.3-1.6,4.3s-0.1-3-1.3-4.3c-0.9-1-4.1-1.2-4.1-1.2s3.2-0.3,4.1-1.3C507.9,371.2,508,368.2,508,368.2z"/>
		<path id="Path_5095" class="st17" d="M505.8,334.4c0,0,0.4,2.4,1.5,3.2c0.9,0.7,3.2,0.6,3.2,0.6c-1.1,0.1-2.1,0.5-3,1.2
			c-1,0.9-0.9,3.5-0.9,3.5s-0.3-2.4-1.3-3.2c-0.7-0.7-3.4-0.6-3.4-0.6s2.5-0.4,3.1-1.3C506,336.8,505.8,334.4,505.8,334.4z"/>
		<path id="Path_5096" class="st17" d="M470.7,349.6c0,0,0.4,2.4,1.5,3.2c0.9,0.7,3.2,0.6,3.2,0.6c-1.1,0.1-2.1,0.5-3,1.2
			c-1,0.9-0.9,3.5-0.9,3.5s-0.3-2.4-1.3-3.2c-0.7-0.7-3.4-0.6-3.4-0.6s2.5-0.4,3.1-1.3C470.4,351.9,470.7,350.8,470.7,349.6z"/>
		<path id="Path_5097" class="st17" d="M47.5,104.4c0,0,0.3,3.1,1.6,4.3c1,1,4,1.2,4,1.2c-1.4,0.1-2.8,0.5-4,1.2
			c-1.3,1-1.6,4.3-1.6,4.3s-0.1-3-1.3-4.3c-0.9-1-4.1-1.2-4.1-1.2s3.2-0.3,4.1-1.3C47.3,107.4,47.5,104.4,47.5,104.4z"/>
		<path id="Path_5098" class="st17" d="M112.2,144.9c0,0,0.3,3.1,1.6,4.3c1,1,4,1.2,4,1.2c-1.4,0.1-2.8,0.5-4,1.2
			c-1.3,1-1.6,4.3-1.6,4.3s-0.1-3-1.3-4.3c-0.9-1-4.1-1.2-4.1-1.2s3.2-0.3,4.1-1.3C112,147.8,112.2,144.9,112.2,144.9z"/>
		<path id="Path_5099" class="st17" d="M109.9,111.1c0,0,0.4,2.4,1.5,3.2c0.9,0.7,3.2,0.6,3.2,0.6c-1.1,0.1-2.1,0.5-3,1.2
			c-1,0.9-0.9,3.5-0.9,3.5s-0.3-2.4-1.3-3.2c-0.7-0.7-3.4-0.6-3.4-0.6s2.5-0.4,3.1-1.3C110.1,113.4,109.9,111.1,109.9,111.1z"/>
		<path id="Path_5100" class="st17" d="M74.8,126.3c0,0,0.4,2.4,1.5,3.2c0.9,0.7,3.2,0.6,3.2,0.6c-1.1,0.1-2.1,0.5-3,1.2
			c-1,0.9-0.9,3.5-0.9,3.5s-0.3-2.4-1.3-3.2c-0.7-0.7-3.4-0.6-3.4-0.6s2.5-0.4,3.1-1.3C74.6,128.6,74.8,127.4,74.8,126.3z"/>
		<path id="Path_5101" class="st17" d="M973.5-68.3c-0.7,1-1.1,2.2-1.2,3.4c0.1,1.2,1.8,2.8,1.8,2.8c-0.9-0.6-1.9-1.1-3-1.3
			c-1.3,0-3.1,1.8-3.1,1.8s1.5-1.9,1.3-3.2c0-1-1.9-2.8-1.9-2.8s2.1,1.5,3.1,1.3C971.6-66.8,972.7-67.4,973.5-68.3z"/>
		<path id="Path_5102" class="st17" d="M956.2-44.3c-0.7,1-1.1,2.2-1.2,3.4c0.1,1.2,1.8,2.8,1.8,2.8c-0.9-0.6-1.9-1.1-3-1.3
			c-1.3,0-3.1,1.8-3.1,1.8s1.5-1.9,1.3-3.2c0-1-1.9-2.8-1.9-2.8s2.1,1.5,3.1,1.3C954.7-42.6,956.2-44.3,956.2-44.3z"/>
		<path id="Path_5103" class="st17" d="M878.4,57.4c-0.7,1-1.1,2.2-1.2,3.4c0.1,1.2,1.8,2.8,1.8,2.8c-0.9-0.6-1.9-1.1-3-1.3
			c-1.3,0-3.1,1.8-3.1,1.8s1.5-1.9,1.3-3.2c0-1-1.9-2.8-1.9-2.8s2.1,1.5,3.1,1.3C876.9,59.2,878.4,57.4,878.4,57.4z"/>
		<path id="Path_5104" class="st17" d="M815.9-81.9c0,0-2.1,3.1-1.9,5.3c0.1,1.9,2.8,4.3,2.8,4.3s-2.7-1.9-4.7-2.1
			c-2.1,0-4.9,2.8-4.9,2.8s2.2-3,2.1-5.2c-0.1-1.6-3-4.4-3-4.4s3.2,2.2,4.9,2.1C813.5-79.2,815.9-81.9,815.9-81.9z"/>
		<path id="Path_5106" class="st17" d="M386.3-94.9c0,0,0.4,2.4,1.5,3.2c0.9,0.7,3.2,0.6,3.2,0.6c-1.1,0.1-2.1,0.5-3,1.2
			c-1,0.9-0.9,3.5-0.9,3.5s-0.3-2.4-1.3-3.2c-0.7-0.7-3.4-0.6-3.4-0.6s2.5-0.4,3.1-1.3C386.5-92.5,386.3-94.9,386.3-94.9z"/>
		<path id="Path_5107" class="st17" d="M439.8-97.5c0,0,0.4,2.4,1.5,3.2c0.9,0.7,3.2,0.6,3.2,0.6c-1.1,0.1-2.1,0.5-3,1.2
			c-1,0.9-0.9,3.5-0.9,3.5s-0.3-2.4-1.3-3.2c-0.7-0.7-3.4-0.6-3.4-0.6s2.5-0.4,3.1-1.3C439.9-95.2,439.8-97.5,439.8-97.5z"/>
		<path id="Path_5108" class="st17" d="M730.3-205.5c0,0,0.4,2.4,1.5,3.2c0.9,0.7,3.2,0.6,3.2,0.6c-1.1,0.1-2.1,0.5-3,1.2
			c-1,0.9-0.9,3.5-0.9,3.5s-0.3-2.4-1.3-3.2c-0.7-0.7-3.4-0.6-3.4-0.6s2.5-0.4,3.1-1.3C730.1-203.2,730.4-204.3,730.3-205.5z"/>
		<path id="Path_5109" class="st17" d="M391.3-142.6c0,0,0.7,3.7,2.4,5c1.5,1.2,5,1,5,1s-3.2,0.4-4.7,1.9c-1.5,1.5-1.3,5.5-1.3,5.5
			s-0.6-3.7-2.2-5c-1.3-1.2-5.2-1-5.2-1s3.8-0.7,4.9-2.1C391.5-139,391.3-142.6,391.3-142.6z"/>
		<path id="Path_5110" class="st17" d="M731.7-83.3c0,0,0.7,3.7,2.4,5c1.5,1.2,5,1,5,1s-3.2,0.4-4.7,1.9c-1.5,1.5-1.3,5.5-1.3,5.5
			s-0.6-3.7-2.2-5c-1.3-1.2-5.2-1-5.2-1s3.8-0.7,4.9-2.1C731.8-79.8,731.7-83.3,731.7-83.3z"/>
		<path id="Path_5111" class="st17" d="M414.2-182.8c0,0-2.1,3.1-1.9,5.3c0.1,1.9,2.8,4.3,2.8,4.3s-2.7-1.9-4.7-2.1
			c-2.1,0-4.9,2.8-4.9,2.8s2.2-3,2.1-5.2c-0.1-1.6-3-4.4-3-4.4s3.2,2.2,4.9,2.1C411.7-180.1,414.2-182.8,414.2-182.8z"/>
	</g>
</g>
</svg>
