<?xml version="1.0" encoding="utf-8"?>
<!-- Generator: Adobe Illustrator 24.0.3, SVG Export Plug-In . SVG Version: 6.00 Build 0)  -->
<svg version="1.1" id="Layer_1" xmlns="http://www.w3.org/2000/svg" xmlns:xlink="http://www.w3.org/1999/xlink" x="0px" y="0px"
	 viewBox="0 0 600 600" style="enable-background:new 0 0 600 600;" xml:space="preserve">
<style type="text/css">
	.st0{clip-path:url(#SVGID_2_);}
	.st1{fill:url(#Rectangle_1592_1_);}
	.st2{opacity:0.76;fill:#100230;enable-background:new    ;}
	.st3{opacity:0.82;fill:#19063D;enable-background:new    ;}
	.st4{fill:#FFFFFF;}
	.st5{fill:#FFE6F7;}
</style>
<g>
	<defs>
		<path id="SVGID_1_" d="M601.5-0.9c0,0-32.4,79.8-133.2,110.7s-175.1-31.9-314.4,30.4S5.3,459.4,112.8,539.9s227.9,58.5,301.6,17.6
			S553.9,403.6,601.5,416S601.5-0.9,601.5-0.9z"/>
	</defs>
	<clipPath id="SVGID_2_">
		<use xlink:href="#SVGID_1_"  style="overflow:visible;"/>
	</clipPath>
	<g id="Mask_Group_35" transform="translate(-667.326 -1267.844)" class="st0">
		<g id="Group_7891" transform="translate(348.411 1472.644) rotate(-19)">
			
				<radialGradient id="Rectangle_1592_1_" cx="174.1969" cy="478.3221" r="0.6376" gradientTransform="matrix(651.1384 224.3669 224.2045 -651.6099 -220112.5 272952.0938)" gradientUnits="userSpaceOnUse">
				<stop  offset="0" style="stop-color:#38237C"/>
				<stop  offset="1" style="stop-color:#1C143C"/>
			</radialGradient>
			<polygon id="Rectangle_1592" class="st1" points="38,12.1 1073.6,12.1 1073.6,701.2 38,701.2 			"/>
			<g id="Group_7890" transform="translate(228.821 0)">
				<path id="Path_5130" class="st2" d="M540.4,471.5c-2.2-0.3-4.4-0.4-6.6-0.3c-10,0.6-19.8,5.4-29,9.7
					c-18.7,8.9-41.3,16.7-59.1,6.3c-13.2-7.7-19.5-23.2-23.3-37.9s-6.6-30.4-15.6-42.5c-11.7-15.5-31.9-22.6-51.2-23
					c-19.3-0.5-38.5,4.6-57.4,8.9c-25.6,5.8-54,10-78.9-0.6c-10.3-4.4-20.6-9.5-28.8-17.2c-15.2-14.3-21.6-35.3-25.8-55.7
					c-4-20.4-6.4-41.6-16-60.1c-18.9-36.8-65.2-55.7-105.4-46.2c-1.7,0.5-3.5,0.9-5.2,1.4l0,161.1c4-2.8,8.1-5.4,12.3-7.7
					c5.8-3.2,12.4-5.8,19.2-5.1c11.7,1.4,19.3,12.7,25.2,23l30.2,52c8.4,14.6,15.5,33.9,29.5,43.9c22.4,16.3,52.9,16.4,79.5,9.4
					s51.1-20.7,76.9-30.4c13.8-5.2,28.8-9.4,43-4.9c24.5,7.7,34.7,37.1,55.5,52c20.3,14.4,46.6,12.4,69.2,5.5
					c17.2-5.2,32.2-15.5,49.4-20.7c19.6-6,30.8-0.9,48.2,8.6c8.3,4.6,18,8.1,27.2,5.8C579.4,501.7,564.4,475,540.4,471.5z"/>
				<path id="Path_5131" class="st3" d="M743.9,300c-4-2.5-6.4-6.6-8.7-10.7c-9.4-17-26.1-29.6-46.6-23.2c-10.1,3.1-18.1,11-27.5,16
					c-3.2,1.7-6.9,3.2-10.6,2.8c-6.3-0.8-10.9-6.6-12.6-12.7c-1.7-6.1-1.2-12.6-1.7-18.9c-2-24.2-18.1-40.8-40.7-48.2
					c-17.5-5.8-41-5.7-52.2-22.9c-8.7-13.5-4.3-31.8,4.8-45s22.1-23.2,32.5-35.1c21.9-25.1,34.6-56.8,36.2-90.1l-155.3,0
					C501.1,79,427.7,141.4,434.5,216c1.8,20.1,10.9,41,29,49.7c19.6,9.5,43,2.8,64.1-2.3c21.2-5.2,46.6-7.5,62.3,7.7
					c6,5.8,9.7,13.3,13.8,20.6c6.1,10.1,16.1,21.8,28.4,24.4c12.7,2.8,25.3-6.1,35.1-13.8c9.8-7.7,19.3-16.3,31-20.6
					c9.5-3.5,22.4-3.4,27.9,5.2c12.1,19.2,24.4,19.3,30.5,12C753.9,302.5,747.9,302.5,743.9,300z"/>
				<path id="Path_5132" class="st3" d="M527.8,600.6c-3.8,4.6-7.4,9.8-11.5,14.1c-9.1,9.2-21.3,14.3-33.6,18
					c-9.2,2.8-19,4.6-28.4,2.5c-5.7-1.5-11.1-4-15.8-7.5c-12.6-8.6-23.2-20.6-27.6-35.1c-4.6-14.6-2.3-31.5,7.5-43
					c11.7-13.7,33.4-17.3,48.8-8.1c15.3,9.2,22.1,30.5,14.9,46.9c-1.5,3.2-3.5,6.4-6.4,8.6c-5.5,4.1-13.8,3.7-19.5-0.2
					c-5.7-3.8-9.1-10.7-9.8-17.5c-0.3-3.5,0-7.2,1.8-10.1c9.5-14.1,20.7,10.1,12.4,12.1c-3.2,0.8-5.4-3.1-6.4-6.1
					c-1.7,3.7-1.2,8,1.2,11.2c8.1,10.1,19.3-1.1,21-10.1c1.7-8.6-2.1-17.5-8.1-23.8c-5.8-6-14-9.8-22.2-9.7
					c-12.6,0.2-23.9,9.8-27.8,21.8c-3.7,12-0.5,25.6,7.2,35.6s19,16.6,31.1,19.9c8.1,2.1,16.9,2.9,25,0.3
					c9.4-3.1,16.7-10.4,21.2-19.2s6.3-18.6,6.8-28.2c0.2-1.8,0.2-3.5,0.2-5.4l-32.8-60.3c-2.3-1.1-4.6-2-7.1-2.6
					c-12-3.2-25-1.2-36.4,3.8s-21.2,13-29.9,21.8c-11.8,11.8-22.2,25.3-28.5,40.8s-8.3,33-3.7,49.1c7.5,25.6,31,44,56.2,53.1
					c13.2,4.8,26.2,4.8,39.6,7.8c5.1,1.2,8.3,3.2,13.8,2.9c6.4-0.5,12.9-2.1,19.5-2.1c6.1,0,12.1,1.5,18.4,1.1
					c6.4-0.6,12.4-2.9,18.4-5.4c8.9-3.7,17.8-8.1,25.5-13.8L527.8,600.6z"/>
				<path id="Path_5133" class="st4" d="M96.3,419.8c-0.4,0.5-1.1,0.7-1.7,0.3c-0.5-0.4-0.7-1.1-0.3-1.7c0.4-0.5,1.1-0.7,1.7-0.3
					c0.5,0.3,0.7,0.9,0.5,1.5C96.4,419.6,96.3,419.7,96.3,419.8z"/>
				<path id="Path_5134" class="st4" d="M84,384.5c-0.4,0.5-1.2,0.6-1.7,0.2c-0.5-0.4-0.6-1.2-0.2-1.7c0.4-0.5,1.2-0.6,1.7-0.2
					c0,0,0,0,0,0C84.3,383.3,84.3,384,84,384.5z"/>
				<circle id="Ellipse_202" class="st4" cx="58.5" cy="410" r="1.2"/>
				<circle id="Ellipse_204" class="st4" cx="53.8" cy="377.1" r="1.2"/>
				<path id="Path_5135" class="st4" d="M97.2,357.6c-0.4,0.5-1.2,0.6-1.7,0.2c-0.5-0.4-0.6-1.2-0.2-1.7s1.2-0.6,1.7-0.2
					c0,0,0,0,0,0C97.6,356.4,97.6,357.1,97.2,357.6z"/>
				<path id="Path_5136" class="st4" d="M70.8,446.2c-0.4,0.5-1.2,0.6-1.7,0.2s-0.6-1.2-0.2-1.7c0.4-0.5,1.2-0.6,1.7-0.2
					c0,0,0,0,0,0C71.1,444.9,71.2,445.6,70.8,446.2z"/>
				<path id="Path_5137" class="st4" d="M89.8,401.8c-0.4,0.5-1.2,0.6-1.7,0.2c-0.5-0.4-0.6-1.2-0.2-1.7s1.2-0.6,1.7-0.2
					c0,0,0,0,0,0C90.2,400.6,90.3,401.3,89.8,401.8C89.9,401.8,89.8,401.8,89.8,401.8z"/>
				<path id="Path_5138" class="st5" d="M75.6,408.7c0,0,0.5,3.8,2,5.5c1.4,1.4,5.1,1.5,5.1,1.5s-3.4,0.2-5.1,1.5
					c-1.7,1.4-2,5.5-2,5.5s-0.2-3.8-1.7-5.5c-1.2-1.2-5.2-1.5-5.2-1.5s4-0.3,5.2-1.5C75.4,412.6,75.6,408.7,75.6,408.7z"/>
				<path id="Path_5144" class="st4" d="M619.7,204.3c0,0.6-0.5,1.2-1.1,1.4c-0.6,0-1.2-0.5-1.4-1.1c0-0.6,0.5-1.2,1.1-1.4
					c0.6-0.2,1.2,0.2,1.3,0.7C619.7,204.1,619.7,204.2,619.7,204.3z"/>
				<path id="Path_5145" class="st4" d="M599.7,224.6c0,0.6-0.5,1.2-1.1,1.4c-0.6,0-1.2-0.5-1.4-1.1c0-0.6,0.5-1.2,1.1-1.4
					c0.6-0.2,1.2,0.2,1.3,0.7C599.7,224.3,599.7,224.4,599.7,224.6z"/>
				<path id="Path_5146" class="st4" d="M605.1,179.8c-0.3,0.5-0.9,0.7-1.5,0.5c-0.1,0-0.2-0.1-0.2-0.2c-0.5-0.3-0.7-0.9-0.5-1.5
					c0-0.1,0.1-0.2,0.2-0.2c0.3-0.5,1-0.7,1.5-0.4c0.1,0,0.1,0.1,0.2,0.1c0.5,0.3,0.7,1,0.4,1.5
					C605.2,179.7,605.1,179.7,605.1,179.8z"/>
				<path id="Path_5148" class="st5" d="M598,195.4c0,0,0.5,2.5,1.5,3.4c0.9,0.8,3.4,0.6,3.4,0.6c-1.1,0.1-2.2,0.6-3.1,1.2
					c-1.1,0.9-0.9,3.7-0.9,3.7s-0.3-2.5-1.4-3.4c-0.8-0.8-3.5-0.6-3.5-0.6s2.6-0.5,3.2-1.4C598.2,197.9,598,195.4,598,195.4z"/>
				<path id="Path_5149" class="st5" d="M356.4,347.5c0,0,0.3,3.2,1.7,4.4c1.1,1.1,4.1,1.2,4.1,1.2c-1.5,0.1-2.9,0.5-4.1,1.2
					c-1.4,1.1-1.7,4.4-1.7,4.4s-0.2-3.1-1.4-4.4c-0.9-1.1-4.3-1.2-4.3-1.2s3.4-0.3,4.3-1.4C356.3,350.7,356.4,347.5,356.4,347.5z"/>
				<path id="Path_5150" class="st5" d="M404,397.6c0,0,0.3,3.2,1.7,4.4c1.1,1.1,4.1,1.2,4.1,1.2c-1.5,0.1-2.9,0.5-4.1,1.2
					c-1.4,1.1-1.7,4.4-1.7,4.4s-0.2-3.1-1.4-4.4c-0.9-1.1-4.3-1.2-4.3-1.2s3.4-0.3,4.3-1.4C403.8,400.7,404,397.6,404,397.6z"/>
				<path id="Path_5151" class="st4" d="M382.3,344.5c0,0.6-0.5,1.2-1.1,1.4c-0.6,0-1.2-0.5-1.4-1.1c0-0.6,0.5-1.2,1.1-1.4
					c0.6-0.1,1.2,0.3,1.4,0.9C382.3,344.4,382.3,344.5,382.3,344.5z"/>
				<path id="Path_5152" class="st5" d="M413.6,365.9c0,0,0.5,2.5,1.5,3.4c0.9,0.8,3.4,0.6,3.4,0.6c-1.1,0.1-2.2,0.6-3.1,1.2
					c-1.1,0.9-0.9,3.7-0.9,3.7s-0.3-2.5-1.4-3.4c-0.8-0.8-3.5-0.6-3.5-0.6s2.6-0.5,3.2-1.4C413.4,368.3,413.6,367.1,413.6,365.9z"/>
				<path id="Path_5160" class="st5" d="M88.5,247.6c0,0,0.3,3.2,1.7,4.4c1.1,1.1,4.1,1.2,4.1,1.2c-1.5,0.1-2.9,0.5-4.1,1.2
					c-1.4,1.1-1.7,4.4-1.7,4.4s-0.2-3.1-1.4-4.4c-0.9-1.1-4.3-1.2-4.3-1.2s3.4-0.3,4.3-1.4C88.3,250.7,88.5,247.6,88.5,247.6z"/>
				<path id="Path_5161" class="st5" d="M155.7,289.7c0,0,0.3,3.2,1.7,4.4c1.1,1.1,4.1,1.2,4.1,1.2c-1.5,0.1-2.9,0.5-4.1,1.2
					c-1.4,1.1-1.7,4.4-1.7,4.4s-0.2-3.1-1.4-4.4c-0.9-1.1-4.3-1.2-4.3-1.2s3.4-0.3,4.3-1.4C155.5,292.7,155.7,289.7,155.7,289.7z"/>
				<path id="Path_5162" class="st4" d="M140,254.5c0,0.6-0.5,1.2-1.1,1.4c-0.6,0-1.2-0.5-1.4-1.1c0-0.6,0.5-1.2,1.1-1.4
					c0.6-0.1,1.2,0.3,1.4,0.9C140,254.4,140,254.5,140,254.5z"/>
				<path id="Path_5163" class="st4" d="M114.4,244.7c0,0.6-0.5,1.2-1.1,1.4c-0.6,0-1.2-0.5-1.4-1.1c0-0.6,0.5-1.2,1.1-1.4
					c0.6-0.2,1.2,0.2,1.3,0.7C114.4,244.5,114.4,244.6,114.4,244.7z"/>
				<path id="Path_5164" class="st4" d="M169.2,243.7c-0.3,0.5-0.9,0.7-1.5,0.5c-0.1,0-0.1-0.1-0.2-0.1c-0.5-0.3-0.7-0.9-0.5-1.5
					c0-0.1,0.1-0.1,0.1-0.2c0.3-0.5,0.9-0.7,1.5-0.5c0.1,0,0.2,0.1,0.2,0.1c0.5,0.3,0.7,0.9,0.5,1.5
					C169.3,243.5,169.2,243.6,169.2,243.7z"/>
				<path id="Path_5165" class="st5" d="M153.4,254.5c0,0,0.5,2.5,1.5,3.4c0.9,0.8,3.4,0.6,3.4,0.6c-1.1,0.1-2.2,0.6-3.1,1.2
					c-1.1,0.9-0.9,3.7-0.9,3.7s-0.3-2.5-1.4-3.4c-0.8-0.8-3.5-0.6-3.5-0.6s2.6-0.5,3.2-1.4C153.5,257,153.4,254.5,153.4,254.5z"/>
				<path id="Path_5166" class="st5" d="M116.8,270.5c0,0,0.5,2.5,1.5,3.4c0.9,0.8,3.4,0.6,3.4,0.6c-1.1,0.1-2.2,0.6-3.1,1.2
					c-1.1,0.9-0.9,3.7-0.9,3.7s-0.3-2.5-1.4-3.4c-0.8-0.8-3.5-0.6-3.5-0.6s2.6-0.5,3.2-1.4C116.6,272.9,116.8,271.7,116.8,270.5z"/>
				<path id="Path_5208" class="st5" d="M657.7,213.4c0,0-2.1,3.2-2,5.5c0.2,2,2.9,4.4,2.9,4.4s-2.8-2-4.9-2.1
					c-2.1,0-5.1,2.9-5.1,2.9s2.3-3.1,2.1-5.4c-0.2-1.7-3.1-4.6-3.1-4.6s3.4,2.3,5.1,2.1C655.3,216.3,657.7,213.4,657.7,213.4z"/>
				<path id="Path_5209" class="st4" d="M273.9,229.9c-0.3,0.6-1.1,0.8-1.7,0.5s-0.8-1.1-0.5-1.7s1.1-0.8,1.7-0.5c0,0,0,0,0,0
					c0.5,0.2,0.9,0.8,0.7,1.3C274,229.7,274,229.8,273.9,229.9z"/>
				<path id="Path_5210" class="st4" d="M244.7,155.1c-0.3,0.5-0.9,0.7-1.5,0.5c-0.1,0-0.1-0.1-0.2-0.1c-0.5-0.3-0.7-0.9-0.5-1.5
					c0-0.1,0.1-0.1,0.1-0.2c0.3-0.5,0.9-0.7,1.5-0.5c0.1,0,0.1,0.1,0.2,0.1C244.9,153.8,245,154.5,244.7,155.1z"/>
				<path id="Path_5211" class="st4" d="M208.5,181c-0.3,0.5-0.9,0.7-1.5,0.5c-0.1,0-0.2-0.1-0.2-0.2c-0.5-0.3-0.7-0.9-0.5-1.5
					c0-0.1,0.1-0.1,0.1-0.2c0.3-0.5,0.9-0.7,1.5-0.5c0.1,0,0.1,0.1,0.2,0.1c0.5,0.3,0.7,0.9,0.5,1.5
					C208.6,180.9,208.6,180.9,208.5,181z"/>
				<path id="Path_5212" class="st4" d="M256.8,186.4c-0.3,0.5-0.9,0.7-1.5,0.5c-0.1,0-0.1-0.1-0.2-0.1c-0.5-0.3-0.7-0.9-0.5-1.5
					c0-0.1,0.1-0.1,0.1-0.2c0.3-0.5,0.9-0.7,1.5-0.5c0.1,0,0.1,0.1,0.2,0.1C257,185.1,257.1,185.8,256.8,186.4z"/>
				<path id="Path_5213" class="st4" d="M207.4,131.7c-0.3,0.5-0.9,0.7-1.5,0.5c-0.1,0-0.1-0.1-0.2-0.1c-0.5-0.3-0.7-0.9-0.5-1.5
					c0-0.1,0.1-0.2,0.2-0.2c0.3-0.5,0.9-0.7,1.5-0.5c0.1,0,0.2,0.1,0.2,0.1C207.6,130.5,207.7,131.2,207.4,131.7z"/>
				<path id="Path_5214" class="st4" d="M178.7,275.6c-0.3,0.5-0.9,0.7-1.5,0.5c-0.1,0-0.1-0.1-0.2-0.1c-0.5-0.3-0.7-0.9-0.5-1.5
					c0-0.1,0.1-0.1,0.1-0.2c0.3-0.5,0.9-0.7,1.5-0.5c0.1,0,0.2,0.1,0.2,0.1C178.9,274.3,179,275,178.7,275.6z"/>
				<path id="Path_5216" class="st4" d="M236,187.6c0,0.6-0.5,1.2-1.1,1.4c-0.6,0-1.2-0.5-1.4-1.1c0-0.6,0.5-1.2,1.1-1.4
					c0.6-0.1,1.2,0.3,1.4,0.9C236,187.5,236,187.5,236,187.6z"/>
				<path id="Path_5218" class="st5" d="M456,370.3c0,0,0.5,2.5,1.5,3.4c0.9,0.8,3.4,0.6,3.4,0.6c-1.1,0.1-2.2,0.6-3.1,1.2
					c-1.1,0.9-0.9,3.7-0.9,3.7s-0.3-2.5-1.4-3.4c-0.8-0.8-3.5-0.6-3.5-0.6s2.6-0.5,3.2-1.4C455.7,372.7,456,371.5,456,370.3z"/>
				<path id="Path_5219" class="st5" d="M211.6,199.9c0,0,0.5,2.5,1.5,3.4c0.9,0.8,3.4,0.6,3.4,0.6c-1.1,0.1-2.2,0.6-3.1,1.2
					c-1.1,0.9-0.9,3.7-0.9,3.7s-0.3-2.5-1.4-3.4c-0.8-0.8-3.5-0.6-3.5-0.6s2.6-0.5,3.2-1.4C211.7,202.3,211.6,199.9,211.6,199.9z"/>
				<path id="Path_5220" class="st5" d="M267.1,197.1c0,0,0.5,2.5,1.5,3.4c0.9,0.8,3.4,0.6,3.4,0.6c-1.1,0.1-2.2,0.6-3.1,1.2
					c-1.1,0.9-0.9,3.7-0.9,3.7s-0.3-2.5-1.4-3.4c-0.8-0.8-3.5-0.6-3.5-0.6s2.6-0.5,3.2-1.4C267.3,199.6,267.1,197.1,267.1,197.1z"/>
				<path id="Path_5222" class="st5" d="M216.8,150.3c0,0,0.8,3.8,2.5,5.2c1.5,1.2,5.2,1.1,5.2,1.1s-3.4,0.5-4.9,2s-1.4,5.7-1.4,5.7
					s-0.6-3.8-2.3-5.2c-1.4-1.2-5.4-1.1-5.4-1.1s4-0.8,5.1-2.1C217,154.1,216.8,150.3,216.8,150.3z"/>
				<path id="Path_5223" class="st5" d="M570.3,211.8c0,0,0.8,3.8,2.5,5.2c1.5,1.2,5.2,1.1,5.2,1.1s-3.4,0.5-4.9,2
					c-1.5,1.5-1.4,5.7-1.4,5.7s-0.6-3.8-2.3-5.2c-1.4-1.2-5.4-1.1-5.4-1.1s4-0.8,5.1-2.1C570.4,215.5,570.3,211.8,570.3,211.8z"/>
				<path id="Path_5224" class="st5" d="M240.6,108.7c0,0-2.1,3.2-2,5.5c0.2,2,2.9,4.4,2.9,4.4s-2.8-2-4.9-2.1
					c-2.1,0-5.1,2.9-5.1,2.9s2.3-3.1,2.1-5.4c-0.2-1.7-3.1-4.6-3.1-4.6s3.4,2.3,5.1,2.1C238,111.5,240.6,108.7,240.6,108.7z"/>
			</g>
		</g>
	</g>
</g>
</svg>
