<svg id="Layer_1" data-name="Layer 1" xmlns="http://www.w3.org/2000/svg" xmlns:xlink="http://www.w3.org/1999/xlink" viewBox="0 0 390 590"><defs><style>.cls-1{fill:none;}.cls-2{clip-path:url(#clip-path);}.cls-3{fill:url(#radial-gradient);}.cls-4{fill:#100230;opacity:0.76;}.cls-4,.cls-5{isolation:isolate;}.cls-5{fill:#19063d;opacity:0.82;}.cls-6{fill:#fff;}.cls-7{fill:#ffe6f7;}</style><clipPath id="clip-path"><path class="cls-1" d="M-34.79-94.81s3.14,85.75,86.94,149S226.9,83.92,336,189.7s30.36,349.37-97.61,388S5.16,554.81-49.87,491.42-128,299.94-176.78,295.33-34.79-94.81-34.79-94.81Z"/></clipPath><radialGradient id="radial-gradient" cx="1.67" cy="590.37" r="0.64" gradientTransform="matrix(0, -685.77, 686.27, 0, -405049.09, 1483.83)" gradientUnits="userSpaceOnUse"><stop offset="0" stop-color="#38237c"/><stop offset="1" stop-color="#1c143c"/></radialGradient></defs><title>Untitled-6</title><g class="cls-2"><g id="Mask_Group_43" data-name="Mask Group 43"><g id="Group_8141" data-name="Group 8141"><rect id="Rectangle_1675" data-name="Rectangle 1675" class="cls-3" x="-240.33" y="-176.7" width="686.27" height="1031.24" transform="translate(-225.29 205.53) rotate(-51)"/><g id="Group_8140" data-name="Group 8140"><path id="Path_5875" data-name="Path 5875" class="cls-4" d="M-134.36,294a31.54,31.54,0,0,1,5.3,3.89c7.33,6.73,12,16.56,16.38,25.66,8.91,18.61,21.46,38.8,41.77,41.88,15,2.33,29.6-5.72,41.8-14.71S-5,331.34,9.63,327.64c18.73-4.69,38.83,2.54,54.08,14.3s26.91,27.69,38.82,42.84c16.18,20.57,35.55,41.56,61.42,49,10.74,3,21.87,5.52,33.09,4.78,20.69-1.53,38.85-13.76,54.84-26.95s31-28.14,50-36.54c37.68-16.67,85.36-2.24,110.51,30.31,1,1.41,2.15,2.92,3.17,4.34l-101,124.66c-1.36-4.63-2.93-9.25-4.7-13.62-2.49-6.15-6-12.3-11.67-15.94-9.88-6.24-22.94-2.26-33.89,2l-56,21.31c-15.67,6-33.24,16.52-50.3,15.49-27.52-1.45-51.25-20.46-67.36-42.56S64.19,453,50.3,429.37c-7.42-12.69-16.46-25.31-30.17-30.72-23.8-9.44-50.1,7-75.57,5.45-24.71-1.53-43.88-19.61-57-39.08-10-14.81-15.23-32.19-25.26-47-11.44-16.94-23.28-20-42.66-23.54-9.3-1.63-19-5-24.67-12.51C-183.46,293-155.09,281.73-134.36,294Z"/><path id="Path_5876" data-name="Path 5876" class="cls-5" d="M-184.42,33.79c4.62.6,9.12-1.06,13.5-2.83,17.91-7.31,38.74-6.57,50.61,11.3,5.91,8.72,7.09,19.9,11.25,29.56,1.44,3.32,3.32,6.82,6.46,8.77,5.35,3.35,12.57,1.72,17.72-2s8.83-9,13.13-13.55C-55,47.56-32.16,44.83-10.09,53.27c17.19,6.45,35.25,21.28,54.69,15,15.23-5,23.23-21.89,24.49-37.77S66.51-1.27,65.94-17.07a146.86,146.86,0,0,1,28.41-92.39l120.16,97.3C142.07,14.9,159.69,109.18,107.74,162.65c-14,14.4-34.1,24.88-53.59,20.3C33,178,19.18,158.17,6,141s-31.39-35-53-33.1c-8.28.76-15.84,4.27-23.57,7.26-11.09,4-26.11,6.76-37.25,1.09-11.58-5.84-15.74-20.61-18.53-32.7s-4.77-24.7-11.1-35.34c-5.15-8.69-15.22-16.64-24.88-13.46-21.4,7.25-31-.32-31.12-9.87C-193.68,29.44-189,33.19-184.42,33.79Z"/><path id="Path_5878" data-name="Path 5878" class="cls-6" d="M241.76,532.33a1.21,1.21,0,1,0,1.3-1.12,1.1,1.1,0,0,0-1.28.85A2.45,2.45,0,0,0,241.76,532.33Z"/><path id="Path_5879" data-name="Path 5879" class="cls-6" d="M273.38,512.71a1.19,1.19,0,1,0,1.17-1.21h0A1.38,1.38,0,0,0,273.38,512.71Z"/><circle id="Ellipse_241" data-name="Ellipse 241" class="cls-6" cx="275.6" cy="572.11" r="1.22"/><circle id="Ellipse_242" data-name="Ellipse 242" class="cls-6" cx="277.13" cy="548.38" r="1.22"/><circle id="Ellipse_243" data-name="Ellipse 243" class="cls-6" cx="297.15" cy="547.69" r="1.22"/><circle id="Ellipse_244" data-name="Ellipse 244" class="cls-6" cx="301.38" cy="525.95" r="1.22"/><path id="Path_5880" data-name="Path 5880" class="cls-6" d="M280,483.66a1.2,1.2,0,1,0,1.18-1.21h0A1.21,1.21,0,0,0,280,483.66Z"/><path id="Path_5881" data-name="Path 5881" class="cls-6" d="M244.94,568.71a1.19,1.19,0,1,0,1.17-1.21h0A1.38,1.38,0,0,0,244.94,568.71Z"/><path id="Path_5882" data-name="Path 5882" class="cls-6" d="M258,522.47a1.2,1.2,0,1,0,1.18-1.21,1.18,1.18,0,0,0-1.18,1.18Z"/><path id="Path_5883" data-name="Path 5883" class="cls-7" d="M264.72,536.76s-2.76,2.68-5,3c-1.93.2-4.88-2-4.88-2s2.52,2.23,3,4.36-1.92,5.52-1.92,5.52,2.52-2.87,4.77-3.22c1.72-.18,5,2.08,5,2.08s-2.9-2.73-3.08-4.45C262.43,539.82,264.72,536.76,264.72,536.76Z"/><path id="Path_5884" data-name="Path 5884" class="cls-7" d="M262.92,590c2.15-.22,5-3,5-3s-2.29,3.06-2.06,5.21a5.19,5.19,0,0,0,.73,1.77l-.87,1.07a3.61,3.61,0,0,0-1.88-.34c-2.25.34-4.77,3.21-4.77,3.21s2.36-3.4,1.92-5.52-3-4.36-3-4.36S261.08,590,262.92,590Z"/><path id="Path_5885" data-name="Path 5885" class="cls-7" d="M162.28,11.8s-2.26,2.3-4.1,2.38c-1.5.16-4-1.64-4-1.64a9,9,0,0,1,2.43,3.54c.4,1.7-1.48,4.5-1.48,4.5s2-2.27,3.86-2.57c1.38-.26,4.09,1.74,4.09,1.74s-2.42-2.35-2.46-3.76C160.47,14.27,162.28,11.8,162.28,11.8Z"/><path id="Path_5887" data-name="Path 5887" class="cls-6" d="M193.87,19.88a1.47,1.47,0,0,0,0,1.75,1.47,1.47,0,0,0,1.74,0,1.46,1.46,0,0,0,0-1.74,1.08,1.08,0,0,0-1.49-.28A1.14,1.14,0,0,0,193.87,19.88Z"/><path id="Path_5891" data-name="Path 5891" class="cls-6" d="M-1.59,27.72A1.07,1.07,0,0,0-.74,29a.74.74,0,0,0,.26,0A1.08,1.08,0,0,0,.8,28.16a2.11,2.11,0,0,0,0-.26,1.11,1.11,0,0,0-.89-1.28.89.89,0,0,0-.23,0,1.11,1.11,0,0,0-1.28.92A1.15,1.15,0,0,0-1.59,27.72Z"/><path id="Path_5894" data-name="Path 5894" class="cls-7" d="M85.78,313.34s-2.25,2.3-4.09,2.39c-1.51.16-4-1.65-4-1.65a9.09,9.09,0,0,1,2.44,3.55c.39,1.69-1.48,4.5-1.48,4.5s2-2.28,3.85-2.58c1.39-.26,4.1,1.74,4.1,1.74s-2.42-2.35-2.46-3.76C83.88,315.93,85.78,313.34,85.78,313.34Z"/><path id="Path_5895" data-name="Path 5895" class="cls-7" d="M17.53,322.36s-2.25,2.3-4.09,2.39c-1.5.16-4-1.65-4-1.65a9.06,9.06,0,0,1,2.43,3.55c.4,1.69-1.48,4.5-1.48,4.5s2-2.28,3.86-2.58c1.38-.26,4.09,1.74,4.09,1.74S16,328,15.91,326.55C15.73,324.83,17.53,322.36,17.53,322.36Z"/><path id="Path_5896" data-name="Path 5896" class="cls-6" d="M67.54,294.84a1.23,1.23,0,1,0,1.71,1.77,1.46,1.46,0,0,0,0-1.74,1.13,1.13,0,0,0-1.6-.16A.86.86,0,0,0,67.54,294.84Z"/><path id="Path_5897" data-name="Path 5897" class="cls-7" d="M30,291.73s-1.9,1.61-3.31,1.65c-1.19,0-3-1.64-3-1.64a6.48,6.48,0,0,1,1.6,2.87c.26,1.38-1.59,3.43-1.59,3.43s1.77-1.71,3.18-1.75C27.93,296.18,30,298,30,298s-1.74-2-1.63-3.09A8.27,8.27,0,0,1,30,291.73Z"/><path id="Path_5905" data-name="Path 5905" class="cls-7" d="M355.69,404s-2.25,2.3-4.09,2.39c-1.5.16-4-1.65-4-1.65a9.06,9.06,0,0,1,2.43,3.55c.4,1.7-1.48,4.5-1.48,4.5s2-2.28,3.86-2.58c1.38-.25,4.09,1.74,4.09,1.74s-2.42-2.35-2.46-3.76C353.89,406.49,355.69,404,355.69,404Z"/><path id="Path_5906" data-name="Path 5906" class="cls-7" d="M277.35,394.44s-2.26,2.29-4.1,2.38c-1.5.16-4-1.65-4-1.65a9.19,9.19,0,0,1,2.44,3.55c.39,1.7-1.49,4.5-1.49,4.5s2-2.28,3.86-2.58c1.39-.25,4.09,1.75,4.09,1.75s-2.42-2.36-2.46-3.77C275.54,396.91,277.35,394.44,277.35,394.44Z"/><path id="Path_5907" data-name="Path 5907" class="cls-6" d="M311.48,377.05a1.23,1.23,0,1,0,1.7,1.78,1.47,1.47,0,0,0,0-1.74,1.14,1.14,0,0,0-1.61-.16A.74.74,0,0,0,311.48,377.05Z"/><path id="Path_5908" data-name="Path 5908" class="cls-6" d="M337.46,385.51a1.23,1.23,0,0,0,1.7,1.78,1.46,1.46,0,0,0,0-1.74,1.07,1.07,0,0,0-1.49-.28A1.14,1.14,0,0,0,337.46,385.51Z"/><path id="Path_5909" data-name="Path 5909" class="cls-6" d="M295.74,350.36a1.09,1.09,0,0,0,.86,1.27.74.74,0,0,0,.26,0,1.07,1.07,0,0,0,1.27-.85.76.76,0,0,0,0-.26,1.08,1.08,0,0,0-.85-1.28,1.14,1.14,0,0,0-.26,0,1.09,1.09,0,0,0-1.28.85A2.45,2.45,0,0,0,295.74,350.36Z"/><path id="Path_5910" data-name="Path 5910" class="cls-7" d="M301.15,368.69s-1.9,1.61-3.31,1.65c-1.19,0-3-1.64-3-1.64a6.64,6.64,0,0,1,1.6,2.87c.26,1.39-1.59,3.43-1.59,3.43s1.77-1.71,3.18-1.75c1.08-.11,3.12,1.74,3.12,1.74s-1.74-2-1.63-3.09C299.49,370.49,301.15,368.69,301.15,368.69Z"/><path id="Path_5911" data-name="Path 5911" class="cls-7" d="M319.4,403.92s-1.89,1.61-3.3,1.65c-1.19,0-3-1.64-3-1.64a6.8,6.8,0,0,1,1.6,2.87c.25,1.39-1.59,3.43-1.59,3.43s1.77-1.71,3.18-1.75c1.07-.11,3.11,1.74,3.11,1.74s-1.73-2-1.62-3.09A8.24,8.24,0,0,1,319.4,403.92Z"/><path id="Path_5918" data-name="Path 5918" class="cls-6" d="M223.3,274.12a1.24,1.24,0,1,0,1.42-1h0a1,1,0,0,0-1.35.59A1.25,1.25,0,0,0,223.3,274.12Z"/><path id="Path_5919" data-name="Path 5919" class="cls-6" d="M292.78,234.45a1.08,1.08,0,0,0,.85,1.27.82.82,0,0,0,.27,0,1.08,1.08,0,0,0,1.27-.85,1.14,1.14,0,0,0,0-.26,1.08,1.08,0,0,0-.85-1.28l-.26,0A1.45,1.45,0,0,0,292.78,234.45Z"/><path id="Path_5920" data-name="Path 5920" class="cls-6" d="M304.55,277.2a1.1,1.1,0,0,0,.85,1.28,1.23,1.23,0,0,0,.27,0,1.08,1.08,0,0,0,1.27-.85.78.78,0,0,0,0-.26,1.08,1.08,0,0,0-.85-1.28,1.14,1.14,0,0,0-.26,0,1.08,1.08,0,0,0-1.28.85A1.18,1.18,0,0,0,304.55,277.2Z"/><path id="Path_5921" data-name="Path 5921" class="cls-6" d="M263.79,251.07a1.08,1.08,0,0,0,.85,1.28,1.14,1.14,0,0,0,.26,0,1.09,1.09,0,0,0,1.28-.85,2.46,2.46,0,0,0,0-.26,1.1,1.1,0,0,0-.85-1.28,1.23,1.23,0,0,0-.27,0A1.39,1.39,0,0,0,263.79,251.07Z"/><path id="Path_5922" data-name="Path 5922" class="cls-6" d="M336.25,239.76a1.08,1.08,0,0,0,.85,1.28,1.14,1.14,0,0,0,.26,0,1.08,1.08,0,0,0,1.28-.85,2.46,2.46,0,0,0,0-.26,1.09,1.09,0,0,0-1.12-1.3A1.43,1.43,0,0,0,336.25,239.76Z"/><path id="Path_5923" data-name="Path 5923" class="cls-6" d="M268.38,369.09a1.1,1.1,0,0,0,.86,1.28l.26,0a1.08,1.08,0,0,0,1.27-.86.74.74,0,0,0,0-.26,1.07,1.07,0,0,0-.85-1.27.76.76,0,0,0-.26,0A1.36,1.36,0,0,0,268.38,369.09Z"/><path id="Path_5924" data-name="Path 5924" class="cls-6" d="M253.41,282.58a1.47,1.47,0,0,0,0,1.74,1.46,1.46,0,0,0,1.74,0,1.47,1.47,0,0,0,0-1.74,1.19,1.19,0,0,0-1.68-.09Z"/><path id="Path_5925" data-name="Path 5925" class="cls-6" d="M279.17,265.1a1.23,1.23,0,1,0,1.74,0,1.14,1.14,0,0,0-1.61-.16A.8.8,0,0,0,279.17,265.1Z"/><path id="Path_5928" data-name="Path 5928" class="cls-7" d="M290.35,289.88s-1.89,1.62-3.3,1.65c-1.19,0-3-1.64-3-1.64a6.69,6.69,0,0,1,1.61,2.88c.25,1.38-1.6,3.42-1.6,3.42s1.78-1.7,3.19-1.74c1.07-.12,3.11,1.73,3.11,1.73s-1.73-2-1.63-3.08C288.7,291.69,290.35,289.88,290.35,289.88Z"/><path id="Path_5929" data-name="Path 5929" class="cls-7" d="M249.1,252.94s-1.89,1.61-3.3,1.65c-1.19,0-3-1.64-3-1.64a6.69,6.69,0,0,1,1.61,2.88c.25,1.38-1.6,3.42-1.6,3.42s1.78-1.71,3.19-1.75c1.07-.11,3.11,1.74,3.11,1.74s-1.73-2-1.62-3.09C247.45,254.75,249.1,252.94,249.1,252.94Z"/><path id="Path_5931" data-name="Path 5931" class="cls-7" d="M317.37,248.27s-3,2.49-5.17,2.5c-1.95,0-4.71-2.44-4.71-2.44s2.33,2.47,2.55,4.62-2.49,5.25-2.49,5.25,2.88-2.58,5.05-2.59c1.84-.08,4.83,2.53,4.83,2.53s-2.6-3.09-2.57-4.83C314.85,251.14,317.37,248.27,317.37,248.27Z"/><path id="Path_5932" data-name="Path 5932" class="cls-7" d="M5.26,74.36s-3,2.49-5.17,2.5c-1.95,0-4.7-2.44-4.7-2.44S-2.29,76.89-2.06,79-4.55,84.3-4.55,84.3-1.68,81.71.5,81.7c1.83-.08,4.82,2.54,4.82,2.54s-2.6-3.1-2.57-4.84C2.84,77.11,5.26,74.36,5.26,74.36Z"/><path id="Path_5933" data-name="Path 5933" class="cls-7" d="M325,201.19s-.35,3.84-1.91,5.52c-1.37,1.45-5.05,1.62-5.05,1.62s3.39.18,5.15,1.41,2.09,5.43,2.09,5.43.14-3.82,1.7-5.5c1.18-1.21,5.26-1.64,5.26-1.64s-4.05-.33-5.26-1.51C325.31,205,325,201.19,325,201.19Z"/></g></g></g></g></svg>