<svg id="Layer_1" data-name="Layer 1" xmlns="http://www.w3.org/2000/svg" xmlns:xlink="http://www.w3.org/1999/xlink" viewBox="0 0 1460 666"><defs><style>.cls-1{fill:none;}.cls-2{fill:#2d1159;}.cls-3{clip-path:url(#clip-path);}.cls-4{opacity:0.15;isolation:isolate;fill:url(#linear-gradient);}.cls-5{fill:#fff;}</style><clipPath id="clip-path"><path class="cls-1" d="M-7.45,124.75s126.89-42,261.62-35.31,353.43,68.91,560.9,64.2,297.07-39.41,424-44.16,232.88,0,232.88,0,96.52,82.72,0,194.41-230.73,70.25-393,74-149.58,35-363.17,37.42-417.51,15.39-540.54,77.21S-7.45,678.59-7.45,678.59Z"/></clipPath><linearGradient id="linear-gradient" x1="1.07" y1="666.45" x2="1.07" y2="667.43" gradientTransform="matrix(1175.6, -706.37, -557.48, -927.8, 371202.47, 619972.62)" gradientUnits="userSpaceOnUse"><stop offset="0" stop-color="#e19ff1"/><stop offset="0.09" stop-color="#eba7e8"/><stop offset="0.23" stop-color="#764ce8"/><stop offset="0.29" stop-color="#4d06ed"/><stop offset="0.57" stop-color="#f197f1"/><stop offset="0.61" stop-color="#cb90f6"/><stop offset="0.78" stop-color="#e584f2"/><stop offset="1" stop-color="#784b6a"/></linearGradient></defs><title>home_products_bg</title><g id="Group_10412" data-name="Group 10412"><path id="Path_5236" data-name="Path 5236" class="cls-2" d="M-10.54,35.66S14.64-3.66,251.18,1.5s325.58,81.2,508,79.64,303.49-49.93,477.25-60.26,233,0,233,0V295.46s-12.67,100.68-261.66,84.85S931,412,717.32,414.42s-417.67,15.87-540.75,75.69S-6.26,677-6.26,677Z"/><g class="cls-3"><g id="Mask_Group_36" data-name="Mask Group 36"><g id="Group_7912" data-name="Group 7912"><path id="Path_4581" data-name="Path 4581" class="cls-4" d="M1395.51,552.8,1521.35,533,334.52,1249.34-231.86,311.19c163.65-13.17,334.5,33.69,519.93,44.9,169.55,10.27,337.52-83.58,555.19-51.62C1073,327.85,1261.12,499.37,1395.51,552.8Z"/></g></g></g><g id="Group_10381" data-name="Group 10381"><path id="Path_5086" data-name="Path 5086" class="cls-5" d="M297.74,336.37s-.19,3.15.95,4.55c.87,1.19,3.8,1.81,3.8,1.81a9,9,0,0,0-4.18.55c-1.49.82-2.3,4-2.3,4s.32-3-.65-4.5c-.72-1.17-3.95-1.83-3.95-1.83s3.3.21,4.35-.68C297.13,339.31,297.74,336.37,297.74,336.37Z"/><path id="Path_5087" data-name="Path 5087" class="cls-5" d="M455,619.27s-.19,3.15,1,4.54c.87,1.2,3.8,1.82,3.8,1.82a8.77,8.77,0,0,0-4.18.55c-1.49.82-2.3,4-2.3,4s.32-3-.65-4.49c-.73-1.18-3.95-1.84-3.95-1.84s3.3.21,4.35-.67C454.4,622.2,455,619.27,455,619.27Z"/><path id="Path_5088" data-name="Path 5088" class="cls-5" d="M404.84,326.83s.07,2.43,1,3.48c.77.88,3.16,1.11,3.16,1.11a6.46,6.46,0,0,0-3.14.71c-1.18.72-1.45,3.41-1.45,3.41s.07-2.42-.82-3.46c-.62-.86-3.3-1.13-3.3-1.13s2.58-.05,3.31-.84C404.61,329.21,404.84,326.83,404.84,326.83Z"/><path id="Path_5089" data-name="Path 5089" class="cls-5" d="M384.33,480.22s.07,2.43,1,3.48c.77.88,3.15,1.11,3.15,1.11a6.46,6.46,0,0,0-3.14.71c-1.17.72-1.45,3.41-1.45,3.41s.08-2.41-.81-3.46c-.62-.86-3.31-1.13-3.31-1.13s2.58,0,3.31-.84A6.17,6.17,0,0,0,384.33,480.22Z"/><path id="Path_5091" data-name="Path 5091" class="cls-5" d="M254.17,616.68s-.19,3.15,1,4.55c.87,1.2,3.8,1.81,3.8,1.81a9,9,0,0,0-4.18.55c-1.49.83-2.3,4-2.3,4s.32-3-.65-4.5c-.73-1.17-4-1.83-4-1.83s3.3.21,4.35-.68C253.53,619.76,254.17,616.68,254.17,616.68Z"/><path id="Path_5101" data-name="Path 5101" class="cls-5" d="M594.61,545.18a6.63,6.63,0,0,0-1.72,3.21c0,1.21,1.33,3.09,1.33,3.09a8,8,0,0,0-2.75-1.79c-1.33-.22-3.38,1.28-3.38,1.28s1.78-1.69,1.85-3c.16-1-1.48-3.11-1.48-3.11s1.84,1.8,2.89,1.82A8.22,8.22,0,0,0,594.61,545.18Z"/><path id="Path_5102" data-name="Path 5102" class="cls-5" d="M573.53,566.38a6.58,6.58,0,0,0-1.72,3.22c0,1.2,1.33,3.09,1.33,3.09a7.86,7.86,0,0,0-2.75-1.8c-1.33-.21-3.38,1.28-3.38,1.28s1.78-1.69,1.84-3c.17-1-1.47-3.11-1.47-3.11s1.83,1.8,2.89,1.82C571.77,567.92,573.53,566.38,573.53,566.38Z"/><path id="Path_5103" data-name="Path 5103" class="cls-5" d="M479.52,655.87a6.63,6.63,0,0,0-1.72,3.21c0,1.21,1.33,3.09,1.33,3.09a8.15,8.15,0,0,0-2.75-1.8c-1.33-.21-3.38,1.28-3.38,1.28s1.79-1.68,1.85-3c.16-1-1.48-3.11-1.48-3.11s1.84,1.81,2.89,1.82C477.76,657.41,479.52,655.87,479.52,655.87Z"/><path id="Path_5104" data-name="Path 5104" class="cls-5" d="M439.08,506.61s-2.56,2.77-2.76,5c-.16,1.94,2.13,4.73,2.13,4.73s-2.36-2.34-4.4-2.82c-2.07-.33-5.33,2-5.33,2s2.69-2.61,2.89-4.85c.11-1.65-2.25-4.9-2.25-4.9s2.9,2.73,4.55,2.84C436.3,508.9,439.08,506.61,439.08,506.61Z"/><path id="Path_5105" data-name="Path 5105" class="cls-5" d="M220.83,626.86s.07,2.44,1,3.49c.77.88,3.16,1.11,3.16,1.11a6.46,6.46,0,0,0-3.14.71c-1.18.72-1.45,3.41-1.45,3.41s.07-2.42-.82-3.47c-.62-.85-3.3-1.13-3.3-1.13s2.58,0,3.31-.83A7.82,7.82,0,0,0,220.83,626.86Z"/><path id="Path_5106" data-name="Path 5106" class="cls-5" d="M11.4,425.54s.06,2.44,1,3.49c.77.88,3.16,1.1,3.16,1.1a6.51,6.51,0,0,0-3.15.72c-1.17.72-1.45,3.4-1.45,3.4s.08-2.41-.81-3.46c-.62-.85-3.31-1.13-3.31-1.13s2.59,0,3.31-.84C11.17,427.93,11.4,425.54,11.4,425.54Z"/><path id="Path_5107" data-name="Path 5107" class="cls-5" d="M65.31,431.35s.07,2.44,1,3.49c.77.88,3.15,1.11,3.15,1.11a6.46,6.46,0,0,0-3.14.71c-1.17.72-1.45,3.41-1.45,3.41s.08-2.42-.81-3.47c-.63-.85-3.31-1.13-3.31-1.13s2.58,0,3.31-.83C65.09,433.74,65.31,431.35,65.31,431.35Z"/><path id="Path_5108" data-name="Path 5108" class="cls-5" d="M373.11,369.37s.07,2.43,1,3.48c.77.88,3.16,1.11,3.16,1.11a6.46,6.46,0,0,0-3.14.71c-1.18.72-1.45,3.41-1.45,3.41s.07-2.41-.82-3.46c-.62-.86-3.31-1.13-3.31-1.13s2.59-.05,3.32-.84A8.16,8.16,0,0,0,373.11,369.37Z"/><path id="Path_5109" data-name="Path 5109" class="cls-5" d="M24,378.6s.15,3.82,1.57,5.4c1.29,1.42,4.86,1.83,4.86,1.83s-3.32-.07-5,1.18-2.2,5.25-2.2,5.25,0-3.79-1.42-5.37c-1.14-1.4-5-1.86-5-1.86s4-.13,5.21-1.29C23.57,382.17,24,378.6,24,378.6Z"/><path id="Path_5110" data-name="Path 5110" class="cls-5" d="M355.08,491.79s.15,3.81,1.57,5.4c1.29,1.42,4.86,1.83,4.86,1.83s-3.32-.07-5,1.17-2.2,5.26-2.2,5.26,0-3.79-1.42-5.37c-1.14-1.4-5-1.86-5-1.86s4-.13,5.21-1.29C354.67,495.36,355.08,491.79,355.08,491.79Z"/><path id="Path_5111" data-name="Path 5111" class="cls-5" d="M53.25,342s-2.56,2.77-2.76,5c-.16,1.95,2.13,4.73,2.13,4.73s-2.36-2.34-4.4-2.82c-2.07-.32-5.32,2-5.32,2s2.68-2.6,2.88-4.84c.11-1.65-2.25-4.91-2.25-4.91s2.9,2.74,4.55,2.85C50.32,344.3,53.25,342,53.25,342Z"/></g><g id="Group_10382" data-name="Group 10382"><path id="Path_5084-2" data-name="Path 5084-2" class="cls-5" d="M1214.29,245.06s-.54,3.73.48,5.71c1,1.64,4.38,2.72,4.38,2.72s-3.22-.71-5.16.17-3.27,4.7-3.27,4.7.82-3.66-.2-5.63c-.84-1.47-4.52-2.76-4.52-2.76s3.83.71,5.3-.13C1213.21,248.49,1214.29,245.06,1214.29,245.06Z"/><path id="Path_5085-2" data-name="Path 5085-2" class="cls-5" d="M1173.2,277c-1.06-1.84-.49-5.71-.49-5.71s-1.11,3.57-2.94,4.63a5.51,5.51,0,0,1-1.82.44l-.35,1.3a3.61,3.61,0,0,1,1.36,1.3c1,2,.19,5.63.19,5.63s1.34-3.82,3.27-4.7,5.16-.17,5.16-.17S1174.15,278.61,1173.2,277Z"/><path id="Path_5097-2" data-name="Path 5097-2" class="cls-5" d="M1267.12,96.55s-.52,3.11.46,4.62c.74,1.28,3.6,2.2,3.6,2.2a9,9,0,0,0-4.22.11c-1.57.66-2.71,3.77-2.71,3.77s.63-2.93-.18-4.54c-.59-1.25-3.73-2.25-3.73-2.25s3.25.56,4.39-.21C1266.2,99.4,1267.12,96.55,1267.12,96.55Z"/><path id="Path_5098-2" data-name="Path 5098-2" class="cls-5" d="M1319.8,153.13s-.51,3.11.47,4.62c.74,1.28,3.59,2.2,3.59,2.2a8.82,8.82,0,0,0-4.21.11c-1.57.66-2.71,3.76-2.71,3.76s.63-2.93-.18-4.54c-.6-1.24-3.74-2.24-3.74-2.24s3.26.56,4.4-.21C1318.88,156,1319.8,153.13,1319.8,153.13Z"/><path id="Path_5099-2" data-name="Path 5099-2" class="cls-5" d="M1326.51,119.45s-.19,2.43.59,3.56c.68,1,3,1.44,3,1.44a6.36,6.36,0,0,0-3.2.38c-1.25.59-1.8,3.23-1.8,3.23s.33-2.39-.45-3.53c-.53-.91-3.17-1.47-3.17-1.47s2.57.23,3.38-.48C1326,121.8,1326.51,119.45,1326.51,119.45Z"/><path id="Path_5100-2" data-name="Path 5100-2" class="cls-5" d="M1288.12,125.11s-.19,2.43.59,3.57c.68.95,3,1.43,3,1.43a6.59,6.59,0,0,0-3.2.38c-1.25.6-1.8,3.24-1.8,3.24s.33-2.39-.45-3.53c-.53-.92-3.17-1.47-3.17-1.47s2.57.22,3.38-.49A7.69,7.69,0,0,0,1288.12,125.11Z"/></g></g></svg>