<svg id="Layer_1" data-name="Layer 1" xmlns="http://www.w3.org/2000/svg" xmlns:xlink="http://www.w3.org/1999/xlink" viewBox="0 0 1476 570"><defs><style>.cls-1{fill:none;}.cls-2{clip-path:url(#clip-path);}.cls-3{fill:#2d1159;}.cls-4{clip-path:url(#clip-path-2);}.cls-5{opacity:0.15;isolation:isolate;fill:url(#linear-gradient);}.cls-6{fill:#fff;}.cls-7{fill:#ffe6f7;}</style><clipPath id="clip-path"><path class="cls-1" d="M-84.07,258.47c-12.6-65-257.35-76.32-204.34-92.49,66.73-20.3,135,30.27,204.34,28.2,70.5-2.26,51.74-18.13,149.73-57.34,88.2-44.43,164.82-81.38,261.76-76.41s109.14,15.88,193.83,53.46c71.66,38.41,113.29,47.38,196.47,43.81,86.68-7.24,126.8-18.78,185.47-35.81,56.21-16.77,129-29,221.45,15,107.52,44.45,205.35-24.75,267.55-76.41,204.66-145.94,78.83-75.58,121.5-74.64,139-25.92,243,431.89-205.19,495.57-132.68,23.73-170.6,21-347.6-7.73-303.45-23.73-214.64,17.26-349.14,29.64-72.54,5.37-89.48-26.07-120.68-29.64-51.89-6.2-78.78,18.77-211.19,79.21-71.16,27.94-122,24-171.56-35.14-35.62-41.86-36.62-60.46-56.18-90-22-33.46-51.51-62.23-88.91-74.07-28-8.84-57.34-7.33-86.1-3.57-26.32,3.38,81.65-43.3,58-59.85C-75.61,282.35-81.63,271.07-84.07,258.47Z"/></clipPath><clipPath id="clip-path-2"><path class="cls-1" d="M1478.55,313.66s-126-41.94-259.87-35.24S867.62,347.19,661.54,342.5s-295.08-39.34-421.19-44.09S9,298.41,9,298.41s-125.08,53.33-29.21,164.8,226.91,144.13,390.58,153,177.53-15,389.7-12.52S1174.8,619,1297,680.72s181.54,185.66,181.54,185.66Z"/></clipPath><linearGradient id="linear-gradient" x1="1.83" y1="571.26" x2="1.83" y2="570.29" gradientTransform="matrix(-1505.11, -799.43, -507.71, 955.88, 293360.35, -543545.41)" gradientUnits="userSpaceOnUse"><stop offset="0" stop-color="#e19ff1"/><stop offset="0.09" stop-color="#eba7e8"/><stop offset="0.23" stop-color="#764ce8"/><stop offset="0.29" stop-color="#4d06ed"/><stop offset="0.57" stop-color="#f197f1"/><stop offset="0.61" stop-color="#cb90f6"/><stop offset="0.78" stop-color="#e584f2"/><stop offset="1" stop-color="#784b6a"/></linearGradient></defs><title>home_testimonials_graphic</title><g class="cls-2"><g id="Mask_Group_48" data-name="Mask Group 48"><path id="Path_10366" data-name="Path 10366" class="cls-3" d="M1477.37-53.14s-25-39.06-260-33.94-413.14,20-575.74,28.13-148.32,7.22-295.24-9c-129.81-17.35-165.55-39.59-217.65-77.27C31.93-219,4.77-299.83,4.77-299.83l-8.85,780.4S68.14,570.16,249.71,604s296.68-2.36,508.92,0,414.87,15.77,537.13,75.19,181.61,185.64,181.61,185.64Z"/><g class="cls-4"><g id="Mask_Group_51" data-name="Mask Group 51"><g id="Group_10852" data-name="Group 10852"><path id="Path_10367" data-name="Path 10367" class="cls-5" d="M-64.38,615.9l-126.17,39.37,1756.79,346.15-65.33-680.24c-163-4.54-176,124.29-516.09,158.63C676.31,523.72,537.66,441,279.65,452.25S66.08,555.61-64.38,615.9Z"/></g></g></g><g id="Group_10853" data-name="Group 10853"><path id="Path_10272" data-name="Path 10272" class="cls-6" d="M169.9,564.56a1.41,1.41,0,0,1-2.58,1.16,1.47,1.47,0,0,1,.71-1.87,1.27,1.27,0,0,1,1.74.43A1,1,0,0,1,169.9,564.56Z"/><path id="Path_10273" data-name="Path 10273" class="cls-6" d="M127.28,555.64a1.4,1.4,0,1,1-1.78-.86h0A1.62,1.62,0,0,1,127.28,555.64Z"/><path id="Path_10274" data-name="Path 10274" class="cls-6" d="M108.37,526.34a1.39,1.39,0,1,1-1.77-.86h0A1.41,1.41,0,0,1,108.37,526.34Z"/><path id="Path_10276" data-name="Path 10276" class="cls-6" d="M148.1,560.22a1.4,1.4,0,1,1-1.78-.86h0a1.38,1.38,0,0,1,1.77.83Z"/><path id="Path_10279" data-name="Path 10279" class="cls-7" d="M-6.77,469s3.4,1.63,5.45,1c1.72-.43,3.72-3.4,3.72-3.4s-1.51,2.85-1.26,4.87,3.43,4.36,3.43,4.36-3.16-1.69-5.28-1.29c-1.62.27-3.8,3.55-3.8,3.55s1.72-3.55,1.2-5.12C-3.8,471-6.77,469-6.77,469Z"/><path id="Path_10280" data-name="Path 10280" class="cls-7" d="M75.56,427.14s3.41,1.63,5.46,1c1.72-.43,3.71-3.4,3.71-3.4s-1.5,2.85-1.26,4.87S86.9,434,86.9,434s-3.16-1.69-5.27-1.29c-1.62.27-3.8,3.55-3.8,3.55s1.72-3.55,1.2-5.12C78.53,429.14,75.56,427.14,75.56,427.14Z"/><path id="Path_10281" data-name="Path 10281" class="cls-6" d="M31.07,421.69a1.44,1.44,0,1,1-1.17,2.63,1.71,1.71,0,0,1-.73-1.9,1.33,1.33,0,0,1,1.7-.82A.88.88,0,0,1,31.07,421.69Z"/><path id="Path_10282" data-name="Path 10282" class="cls-6" d="M5.88,441.39a1.71,1.71,0,0,1,.73,1.9,1.7,1.7,0,0,1-1.9.73,1.71,1.71,0,0,1-.73-1.9,1.25,1.25,0,0,1,1.52-.9A1.3,1.3,0,0,1,5.88,441.39Z"/><path id="Path_10283" data-name="Path 10283" class="cls-6" d="M37.68,386a1.27,1.27,0,0,1-.42,1.75l-.28.13a1.28,1.28,0,0,1-1.75-.43,1.39,1.39,0,0,1-.12-.28,1.27,1.27,0,0,1,.43-1.75,1.31,1.31,0,0,1,.27-.12,1.28,1.28,0,0,1,1.75.43A1.31,1.31,0,0,1,37.68,386Z"/><path id="Path_10284" data-name="Path 10284" class="cls-7" d="M39.08,408.35s2.73,1,4.29.5c1.32-.46,2.64-3,2.64-3s-1,2.33-.61,3.8c.27,1.63,3.12,3.13,3.12,3.13s-2.63-1.16-4.2-.64c-1.23.3-2.73,3.15-2.73,3.15s1.11-2.88.56-4C41.62,409.67,39.08,408.35,39.08,408.35Z"/><path id="Path_10285" data-name="Path 10285" class="cls-7" d="M33.1,454.41s2.73,1,4.29.49c1.32-.46,2.64-3,2.64-3s-1,2.33-.61,3.8c.27,1.63,3.12,3.13,3.12,3.13s-2.63-1.17-4.2-.65c-1.22.31-2.73,3.16-2.73,3.16s1.11-2.88.56-4A9.71,9.71,0,0,0,33.1,454.41Z"/><path id="Path_10286" data-name="Path 10286" class="cls-6" d="M86.84,273.18a1.44,1.44,0,1,1-2-.56h0a1.21,1.21,0,0,1,1.71.12A1.29,1.29,0,0,1,86.84,273.18Z"/><path id="Path_10289" data-name="Path 10289" class="cls-6" d="M33.09,264a1.28,1.28,0,0,1-.43,1.75l-.28.13a1.28,1.28,0,0,1-1.75-.43,1.39,1.39,0,0,1-.12-.28,1.28,1.28,0,0,1,.43-1.75,1.18,1.18,0,0,1,.28-.12A1.63,1.63,0,0,1,33.09,264Z"/><path id="Path_10291" data-name="Path 10291" class="cls-6" d="M75.28,395.68a1.27,1.27,0,0,1-.43,1.74,1,1,0,0,1-.28.13,1.28,1.28,0,0,1-1.75-.43,1.39,1.39,0,0,1-.12-.28,1.27,1.27,0,0,1,.43-1.74.9.9,0,0,1,.28-.13A1.58,1.58,0,0,1,75.28,395.68Z"/><path id="Path_10292" data-name="Path 10292" class="cls-6" d="M57.11,294.53a1.73,1.73,0,0,1,.73,1.91,1.44,1.44,0,1,1-2.63-1.17,1.39,1.39,0,0,1,1.81-.78Z"/><path id="Path_10293" data-name="Path 10293" class="cls-6" d="M21.79,285.62a1.71,1.71,0,0,1,.73,1.9,1.7,1.7,0,0,1-1.9.73,1.7,1.7,0,0,1-.73-1.9,1.34,1.34,0,0,1,1.7-.82A.88.88,0,0,1,21.79,285.62Z"/><path id="Path_10294" data-name="Path 10294" class="cls-7" d="M19.4,317.36s2.73,1,4.3.49c1.32-.46,2.64-3,2.64-3s-1,2.33-.62,3.8c.28,1.62,3.13,3.13,3.13,3.13s-2.64-1.17-4.2-.65c-1.23.31-2.74,3.16-2.74,3.16s1.11-2.88.56-4.05C22,318.68,19.4,317.36,19.4,317.36Z"/><path id="Path_10295" data-name="Path 10295" class="cls-7" d="M50,260.21s2.72,1,4.29.5c1.32-.46,2.64-3,2.64-3s-1,2.33-.62,3.8c.28,1.63,3.13,3.13,3.13,3.13s-2.64-1.16-4.2-.64c-1.23.3-2.73,3.15-2.73,3.15s1.1-2.88.55-4C52.53,261.53,50,260.21,50,260.21Z"/></g><g id="Group_10854" data-name="Group 10854"><path id="Path_10279-2" data-name="Path 10279-2" class="cls-7" d="M1432.8,522.34s3.41,1.63,5.46,1c1.72-.43,3.71-3.4,3.71-3.4s-1.5,2.85-1.26,4.87,3.43,4.36,3.43,4.36-3.15-1.69-5.27-1.29c-1.62.27-3.8,3.55-3.8,3.55s1.72-3.55,1.2-5.12C1435.78,524.34,1432.8,522.34,1432.8,522.34Z"/><path id="Path_10281-2" data-name="Path 10281-2" class="cls-6" d="M1470.64,475a1.7,1.7,0,0,1,.74,1.9,1.72,1.72,0,0,1-1.9.73,1.7,1.7,0,0,1-.74-1.9,1.35,1.35,0,0,1,1.71-.82A.82.82,0,0,1,1470.64,475Z"/><path id="Path_10282-2" data-name="Path 10282-2" class="cls-6" d="M1445.46,494.69a1.44,1.44,0,1,1-1.91.73,1.26,1.26,0,0,1,1.53-.9A1.43,1.43,0,0,1,1445.46,494.69Z"/><path id="Path_10283-2" data-name="Path 10283-2" class="cls-6" d="M1477.26,439.33a1.27,1.27,0,0,1-.43,1.74,1.2,1.2,0,0,1-.28.13,1.27,1.27,0,0,1-1.74-.43,1.43,1.43,0,0,1-.13-.28,1.28,1.28,0,0,1,.43-1.75,1.39,1.39,0,0,1,.28-.12,1.28,1.28,0,0,1,1.75.43A1.18,1.18,0,0,1,1477.26,439.33Z"/><path id="Path_10285-2" data-name="Path 10285-2" class="cls-7" d="M1472.68,507.71s2.73,1,4.29.49c1.32-.46,2.64-3,2.64-3s-1,2.33-.61,3.8c.27,1.63,3.12,3.13,3.12,3.13s-2.64-1.17-4.2-.65c-1.23.31-2.73,3.16-2.73,3.16s1.11-2.88.55-4.05A9.57,9.57,0,0,0,1472.68,507.71Z"/><path id="Path_10287-2" data-name="Path 10287-2" class="cls-6" d="M1434.12,310.66a1.27,1.27,0,0,1-.43,1.74,1.43,1.43,0,0,1-.28.13,1.27,1.27,0,0,1-1.74-.43,1,1,0,0,1-.13-.28,1.27,1.27,0,0,1,.43-1.74,1,1,0,0,1,.28-.13A1.67,1.67,0,0,1,1434.12,310.66Z"/><path id="Path_10288-2" data-name="Path 10288-2" class="cls-6" d="M1438.29,362.39a1.28,1.28,0,0,1-.43,1.75,1.39,1.39,0,0,1-.28.12,1.26,1.26,0,0,1-1.74-.42,1,1,0,0,1-.13-.28,1.28,1.28,0,0,1,.43-1.75,1.18,1.18,0,0,1,.28-.12,1.26,1.26,0,0,1,1.74.42A1.75,1.75,0,0,1,1438.29,362.39Z"/><path id="Path_10289-2" data-name="Path 10289-2" class="cls-6" d="M1472.66,317.34a1.26,1.26,0,0,1-.43,1.74,1.34,1.34,0,0,1-.27.13,1.28,1.28,0,0,1-1.75-.43,1.39,1.39,0,0,1-.12-.28,1.27,1.27,0,0,1,.42-1.75,1.39,1.39,0,0,1,.28-.12A1.63,1.63,0,0,1,1472.66,317.34Z"/><path id="Path_10290-2" data-name="Path 10290-2" class="cls-6" d="M1388.44,333.9a1.28,1.28,0,0,1-.43,1.75,1.39,1.39,0,0,1-.28.12,1.26,1.26,0,0,1-1.74-.42,1.75,1.75,0,0,1-.13-.28,1.28,1.28,0,0,1,.43-1.75,1.39,1.39,0,0,1,.28-.12A1.67,1.67,0,0,1,1388.44,333.9Z"/><path id="Path_10293-2" data-name="Path 10293-2" class="cls-6" d="M1461.36,338.92a1.44,1.44,0,1,1-1.9.73,1.35,1.35,0,0,1,1.71-.82A.82.82,0,0,1,1461.36,338.92Z"/><path id="Path_10294-2" data-name="Path 10294-2" class="cls-7" d="M1459,370.66s2.73,1,4.29.49c1.32-.46,2.64-3,2.64-3s-1,2.33-.61,3.8c.27,1.62,3.12,3.13,3.12,3.13s-2.63-1.17-4.2-.65c-1.22.31-2.73,3.16-2.73,3.16s1.11-2.88.56-4C1461.53,372,1459,370.66,1459,370.66Z"/><path id="Path_10296-2" data-name="Path 10296-2" class="cls-7" d="M1412.6,335.7s4.3,1.53,6.69.68c2.15-.8,4.2-4.57,4.2-4.57s-1.56,3.65-1,6.1,4.84,4.79,4.84,4.79-4.2-1.69-6.59-.83c-2.06.64-4.3,4.72-4.3,4.72s1.63-4.45.89-6.35C1416.53,337.85,1412.6,335.7,1412.6,335.7Z"/><path id="Path_10297-2" data-name="Path 10297-2" class="cls-7" d="M1385.34,287s1.93,4.08,4.32,5.31c2.09,1,6.2-.24,6.2-.24s-3.65,1.56-5.1,3.61c-1.29,2.15-.12,6.81-.12,6.81s-1.69-4.14-4.08-5.37c-1.78-.86-6.44.3-6.44.3s4.33-2,5.19-3.76C1386.53,291.24,1385.34,287,1385.34,287Z"/></g></g></g></svg>