<svg xmlns="http://www.w3.org/2000/svg" xmlns:xlink="http://www.w3.org/1999/xlink" viewBox="130 7 1454.15 785.17"><defs><style>.cls-1{fill:none;}.cls-2{fill:#2d1159;}.cls-3{clip-path:url(#clip-path);}.cls-4{opacity:0.15;isolation:isolate;fill:url(#linear-gradient);}.cls-5{fill:#fff;}</style><clipPath id="clip-path" transform="translate(68.57)"><path class="cls-1" d="M1521.6,255S1396.65,213.46,1264,220.11s-348,68.17-552.31,63.52-292.52-39-417.54-43.7-229.32,0-229.32,0-124,52.86-29,163.37S260.79,546.18,423,554.94s176-14.84,386.32-12.41,411.12,15.23,532.27,76.38S1521.6,803,1521.6,803Z"/></clipPath><linearGradient id="linear-gradient" x1="64.15" y1="794.44" x2="64.15" y2="793.47" gradientTransform="matrix(-1412.35, -848.63, -538.89, 896.86, 519351.48, -657107.86)" gradientUnits="userSpaceOnUse"><stop offset="0" stop-color="#e19ff1"/><stop offset="0.09" stop-color="#eba7e8"/><stop offset="0.23" stop-color="#764ce8"/><stop offset="0.29" stop-color="#4d06ed"/><stop offset="0.57" stop-color="#f197f1"/><stop offset="0.61" stop-color="#cb90f6"/><stop offset="0.78" stop-color="#e584f2"/><stop offset="1" stop-color="#784b6a"/></linearGradient></defs><title>Asset 1</title><g id="Layer_2" data-name="Layer 2"><g id="Layer_1-2" data-name="Layer 1"><g id="Group_10424" data-name="Group 10424"><path id="Path_5236" data-name="Path 5236" class="cls-2" d="M1520.69,244.56S1495.9,205.83,1263,210.91s-409.57,19.8-570.76,27.89-147,7.15-292.68-9c-128.68-17.19-164.11-39.24-215.76-76.59C87.77,80.16,60.86,0,60.86,0l-9,420.5s71.6,88.82,251.59,122.34,294.1-2.34,504.51,0,411.28,15.63,532.47,74.54,180,184,180,184Z" transform="translate(68.57)"/><g class="cls-3"><g id="Mask_Group_36" data-name="Mask Group 36"><g id="Group_7912" data-name="Group 7912"><path id="Path_4581" data-name="Path 4581" class="cls-4" d="M58.41,504.34l-127,32.38L1585.58,973.17l-29.09-676.94c-161.14-13-249.78,125.43-466.69,142.57C782.05,466.13,692.29,377,420.06,348.37,193.85,371.5,190.74,451.47,58.41,504.34Z" transform="translate(68.57)"/></g></g></g><g id="Group_10381" data-name="Group 10381"><path id="Path_5086" data-name="Path 5086" class="cls-5" d="M1221.08,466s.19,3.1-.93,4.47c-.86,1.18-3.75,1.79-3.75,1.79a8.64,8.64,0,0,1,4.12.54c1.47.81,2.26,4,2.26,4s-.31-2.93.65-4.42c.71-1.16,3.89-1.81,3.89-1.81s-3.25.21-4.29-.67C1221.69,468.88,1221.08,466,1221.08,466Z" transform="translate(68.57)"/><path id="Path_5106" data-name="Path 5106" class="cls-5" d="M1503,553.8s-.07,2.4-.94,3.43c-.76.87-3.11,1.09-3.11,1.09a6.4,6.4,0,0,1,3.09.7c1.16.72,1.43,3.36,1.43,3.36s-.08-2.38.8-3.41c.61-.84,3.25-1.11,3.25-1.11s-2.54-.05-3.26-.83C1503.27,556.15,1503,553.8,1503,553.8Z" transform="translate(68.57)"/><path id="Path_5107" data-name="Path 5107" class="cls-5" d="M1450,559.52s-.07,2.4-1,3.44c-.76.86-3.11,1.09-3.11,1.09a6.41,6.41,0,0,1,3.1.7c1.16.71,1.42,3.35,1.42,3.35s-.07-2.37.81-3.41c.61-.84,3.25-1.11,3.25-1.11s-2.54,0-3.26-.82C1450.17,561.88,1450,559.52,1450,559.52Z" transform="translate(68.57)"/><path id="Path_5108" data-name="Path 5108" class="cls-5" d="M1146.87,498.49s-.07,2.39-.95,3.43c-.76.86-3.11,1.09-3.11,1.09a6.37,6.37,0,0,1,3.09.7c1.16.71,1.43,3.35,1.43,3.35s-.07-2.37.8-3.4c.62-.85,3.26-1.12,3.26-1.12s-2.55,0-3.26-.82A7.78,7.78,0,0,1,1146.87,498.49Z" transform="translate(68.57)"/><path id="Path_5109" data-name="Path 5109" class="cls-5" d="M1490.65,507.58s-.15,3.75-1.54,5.32c-1.27,1.39-4.79,1.8-4.79,1.8s3.27-.07,5,1.15,2.16,5.18,2.16,5.18,0-3.73,1.4-5.29c1.12-1.37,4.93-1.83,4.93-1.83s-3.9-.13-5.12-1.27C1491.06,511.1,1490.65,507.58,1490.65,507.58Z" transform="translate(68.57)"/><path id="Path_5111" data-name="Path 5111" class="cls-5" d="M1461.83,472.57s2.52,2.73,2.72,4.94c.15,1.92-2.1,4.66-2.1,4.66s2.32-2.31,4.34-2.78c2-.32,5.24,2,5.24,2s-2.64-2.57-2.85-4.77c-.11-1.63,2.22-4.83,2.22-4.83s-2.85,2.69-4.48,2.8C1464.72,474.8,1461.83,472.57,1461.83,472.57Z" transform="translate(68.57)"/></g><g id="Group_10382" data-name="Group 10382"><path id="Path_5084-2" data-name="Path 5084-2" class="cls-5" d="M318.45,376s.52,3.68-.48,5.62c-.94,1.63-4.32,2.68-4.32,2.68s3.17-.69,5.08.17,3.23,4.63,3.23,4.63-.81-3.6.19-5.55c.83-1.44,4.46-2.72,4.46-2.72s-3.78.7-5.22-.13C319.51,379.41,318.45,376,318.45,376Z" transform="translate(68.57)"/><path id="Path_5085-2" data-name="Path 5085-2" class="cls-5" d="M358.91,407.44c1-1.8.47-5.62.47-5.62s1.1,3.52,2.9,4.56a5.34,5.34,0,0,0,1.8.44l.34,1.28a3.63,3.63,0,0,0-1.34,1.27c-1,1.95-.19,5.55-.19,5.55s-1.32-3.77-3.22-4.63-5.08-.17-5.08-.17S358,409.07,358.91,407.44Z" transform="translate(68.57)"/><path id="Path_5097-2" data-name="Path 5097-2" class="cls-5" d="M266.42,229.8s.52,3.06-.45,4.54c-.73,1.27-3.54,2.17-3.54,2.17a8.83,8.83,0,0,1,4.15.11c1.54.65,2.67,3.71,2.67,3.71s-.62-2.89.17-4.47c.59-1.23,3.68-2.21,3.68-2.21s-3.21.55-4.33-.21C267.33,232.61,266.42,229.8,266.42,229.8Z" transform="translate(68.57)"/><path id="Path_5098-2" data-name="Path 5098-2" class="cls-5" d="M214.54,285.51s.51,3.06-.46,4.55c-.73,1.26-3.53,2.16-3.53,2.16a8.78,8.78,0,0,1,4.14.11c1.55.66,2.68,3.71,2.68,3.71s-.62-2.89.17-4.47c.59-1.23,3.68-2.21,3.68-2.21s-3.21.55-4.33-.21C215.45,288.32,214.54,285.51,214.54,285.51Z" transform="translate(68.57)"/><path id="Path_5099-2" data-name="Path 5099-2" class="cls-5" d="M207.94,252.34s.18,2.39-.58,3.52c-.67.94-3,1.4-3,1.4a6.39,6.39,0,0,1,3.15.38c1.22.59,1.77,3.19,1.77,3.19s-.32-2.36.44-3.48c.52-.9,3.12-1.44,3.12-1.44s-2.53.22-3.33-.48C208.41,254.66,207.94,252.34,207.94,252.34Z" transform="translate(68.57)"/><path id="Path_5100-2" data-name="Path 5100-2" class="cls-5" d="M245.74,257.92s.19,2.39-.58,3.51c-.67.94-3,1.41-3,1.41a6.38,6.38,0,0,1,3.15.38c1.23.58,1.77,3.18,1.77,3.18s-.32-2.35.44-3.47c.52-.9,3.12-1.45,3.12-1.45s-2.53.23-3.33-.48A7.62,7.62,0,0,1,245.74,257.92Z" transform="translate(68.57)"/></g></g></g></g></svg>