<svg id="Layer_1" data-name="Layer 1" xmlns="http://www.w3.org/2000/svg" xmlns:xlink="http://www.w3.org/1999/xlink" viewBox="0 0 450 750"><defs><style>.cls-1{fill:none;}.cls-2{clip-path:url(#clip-path);}.cls-3{fill:url(#radial-gradient);}.cls-4{fill:#100230;opacity:0.76;}.cls-4,.cls-5{isolation:isolate;}.cls-5{fill:#19063d;opacity:0.82;}.cls-6{fill:#fff;}.cls-7{fill:#ffe6f7;}.cls-8{fill:url(#linear-gradient);}</style><clipPath id="clip-path"><path class="cls-1" d="M459.41-60.89s3.32,99.81-88.84,180S170.09,167.85,52.05,299.53,45.16,707.62,196.88,742.11s268.89-45.54,327.63-123.6,75.17-228.66,131.43-238S459.41-60.89,459.41-60.89Z"/></clipPath><radialGradient id="radial-gradient" cx="1.49" cy="750.59" r="0.64" gradientTransform="matrix(798.15, 0, 0, -798.72, -857.22, 599971.81)" gradientUnits="userSpaceOnUse"><stop offset="0" stop-color="#38237c"/><stop offset="1" stop-color="#1c143c"/></radialGradient><linearGradient id="linear-gradient" x1="1.84" y1="752.36" x2="0.54" y2="752.08" gradientTransform="matrix(31.21, -29.1, -29.1, -31.21, 22127.86, 23555.9)" gradientUnits="userSpaceOnUse"><stop offset="0" stop-color="#f5ef64"/><stop offset="1" stop-color="#0063ed"/></linearGradient></defs><title>home_integrate_right</title><g class="cls-2"><g id="Mask_Group_44" data-name="Mask Group 44"><g id="Group_10393" data-name="Group 10393"><rect id="Rectangle_1677" data-name="Rectangle 1677" class="cls-3" x="-265.24" y="54.49" width="1200.22" height="798.72" transform="translate(-219.56 350.31) rotate(-43)"/><g id="Group_10392" data-name="Group 10392"><path id="Path_8973" data-name="Path 8973" class="cls-4" d="M606.58,382.43a37.37,37.37,0,0,0-5.84,5c-8,8.4-12.53,20.19-16.94,31.11-8.83,22.33-21.76,46.79-45.09,52-17.25,3.92-34.83-4.24-49.72-13.69s-29.6-20.53-46.85-23.65c-22.14-3.92-44.88,6.1-61.63,21s-29,34.34-41.6,52.9c-17.11,25.19-37.89,51.14-67.33,61.81-12.23,4.35-24.94,8.19-38,8.23-24.15-.09-46.23-12.81-65.86-26.83s-38.33-30.15-61.06-38.36c-45.1-16.3-99.29,4.33-125.84,44.16-1.07,1.73-2.26,3.58-3.33,5.3L104.79,697.92a166.78,166.78,0,0,1,4.34-16.2c2.39-7.34,5.92-14.76,12.25-19.45,11-8,26.45-4.49,39.52-.38l66.72,20.19c18.68,5.69,39.94,16.5,59.65,13.91,31.85-3.92,57.85-27.92,74.76-54.88S389,583.17,403.17,554.6c7.58-15.33,17.05-30.73,32.54-38.11,26.87-12.9,58.73,4.06,88.18.18,28.56-3.78,49.35-26.33,63-50,10.44-18,15.06-38.6,25.51-56.6,11.92-20.59,25.41-25.15,47.62-30.79,10.66-2.65,21.64-7.3,27.63-16.52C663.5,377.25,629.66,366.51,606.58,382.43Z"/><path id="Path_8974" data-name="Path 8974" class="cls-5" d="M643.58,76.26c-5.32,1.07-10.68-.5-15.9-2.19-21.4-7-45.51-4.48-57.85,17.23-6.15,10.6-6.61,23.67-10.66,35.23-1.4,4-3.31,8.19-6.79,10.71-5.94,4.32-14.45,3-20.73-.85s-11-9.7-16.35-14.66c-20.85-19-47.6-20.29-72.54-8.7-19.43,8.88-39.2,27.57-62.28,21.85C362.4,130.35,351.74,111.36,349,93s.41-37.09-.2-55.49A170.93,170.93,0,0,0,308.29-67.42L176.68,55.3C263,80.83,250.17,191.73,314.83,249.59c17.45,15.58,41.61,26.11,63.87,19.22,24.16-7.46,38.59-31.62,52.54-52.64s33.59-43.24,58.86-42.73c9.68.21,18.74,3.67,27.95,6.51,13.2,3.73,30.87,5.73,43.34-1.76,13-7.72,16.61-25.21,18.87-39.47s3.52-29.06,10-41.92c5.27-10.51,16.31-20.57,27.79-17.65,25.43,6.67,35.95-2.9,35.33-14C654,70.46,648.9,75.19,643.58,76.26Z"/><path id="Path_8976" data-name="Path 8976" class="cls-6" d="M189.24,689.67a1.41,1.41,0,1,1-1.59-1.18,1.26,1.26,0,0,1,1.55.89A1.35,1.35,0,0,1,189.24,689.67Z"/><path id="Path_8977" data-name="Path 8977" class="cls-6" d="M151,669.47a1.39,1.39,0,1,1-1.47-1.31h0A1.61,1.61,0,0,1,151,669.47Z"/><circle id="Ellipse_263" data-name="Ellipse 263" class="cls-6" cx="153.18" cy="738.61" r="1.42"/><circle id="Ellipse_264" data-name="Ellipse 264" class="cls-6" cx="149.49" cy="711.18" r="1.42"/><circle id="Ellipse_265" data-name="Ellipse 265" class="cls-6" cx="126.18" cy="712.01" r="1.42"/><circle id="Ellipse_266" data-name="Ellipse 266" class="cls-6" cx="119.51" cy="687.11" r="1.42"/><path id="Path_8978" data-name="Path 8978" class="cls-6" d="M140.91,636.28a1.39,1.39,0,1,1-1.47-1.31h0A1.42,1.42,0,0,1,140.91,636.28Z"/><path id="Path_8979" data-name="Path 8979" class="cls-6" d="M188.51,732.17a1.39,1.39,0,1,1-1.46-1.31h0A1.64,1.64,0,0,1,188.51,732.17Z"/><path id="Path_8980" data-name="Path 8980" class="cls-6" d="M169.59,679.55a1.39,1.39,0,1,1-1.46-1.31h0a1.37,1.37,0,0,1,1.46,1.28Z"/><path id="Path_8981" data-name="Path 8981" class="cls-7" d="M163,696.68s3.42,2.89,6.06,3.11c2.26.08,5.5-2.7,5.5-2.7s-2.74,2.79-3.08,5.3,2.68,6.26,2.68,6.26-3.16-3.13-5.8-3.35c-2-.07-5.63,2.82-5.63,2.82s3.14-3.41,3.21-5.42C165.85,700.06,163,696.68,163,696.68Z"/><path id="Path_8983" data-name="Path 8983" class="cls-7" d="M239.27,78.87s2.8,2.49,4.95,2.44c1.76.06,4.48-2.23,4.48-2.23s-2.22,2.31-2.55,4.31,2.09,5.11,2.09,5.11-2.56-2.48-4.69-2.68c-1.62-.18-4.61,2.35-4.61,2.35s2.62-2.93,2.55-4.56C241.56,81.6,239.27,78.87,239.27,78.87Z"/><path id="Path_8985" data-name="Path 8985" class="cls-6" d="M203.25,90.83a1.43,1.43,0,1,1-2,.18,1.24,1.24,0,0,1,1.71-.44A1.26,1.26,0,0,1,203.25,90.83Z"/><path id="Path_8986" data-name="Path 8986" class="cls-6" d="M317.24.33a1.7,1.7,0,0,1,.18,2,1.7,1.7,0,0,1-2,.18,1.72,1.72,0,0,1-.19-2,1.24,1.24,0,0,1,1.71-.44A1,1,0,0,1,317.24.33Z"/><path id="Path_8989" data-name="Path 8989" class="cls-6" d="M430.82,84.05a1.26,1.26,0,0,1-.89,1.55,1,1,0,0,1-.3.05,1.27,1.27,0,0,1-1.55-.89,1,1,0,0,1,0-.3A1.28,1.28,0,0,1,429,82.9a1.07,1.07,0,0,1,.25,0,1.31,1.31,0,0,1,1.57,1Z"/><path id="Path_8991" data-name="Path 8991" class="cls-7" d="M437.21,102.9s2.33,1.71,4,1.65c1.39-.08,3.35-2.15,3.35-2.15s-1.58,2-1.63,3.46,2.13,3.85,2.13,3.85-2.2-1.84-3.84-1.77c-1.26,0-3.48,2.27-3.48,2.27s1.85-2.45,1.64-3.72C439.27,104.86,437.21,102.9,437.21,102.9Z"/><path id="Path_8992" data-name="Path 8992" class="cls-7" d="M352.56,422.76s2.81,2.49,4.95,2.44c1.76.06,4.48-2.23,4.48-2.23s-2.22,2.31-2.54,4.31,2.09,5.11,2.09,5.11-2.56-2.48-4.69-2.68c-1.63-.19-4.61,2.35-4.61,2.35s2.62-2.93,2.55-4.56C355,425.62,352.56,422.76,352.56,422.76Z"/><path id="Path_8993" data-name="Path 8993" class="cls-7" d="M432.53,427.69s2.81,2.49,5,2.44c1.76.06,4.48-2.23,4.48-2.23s-2.22,2.31-2.54,4.31,2.08,5.11,2.08,5.11-2.55-2.48-4.68-2.68c-1.63-.18-4.61,2.35-4.61,2.35s2.61-2.93,2.55-4.56C434.83,430.42,432.53,427.69,432.53,427.69Z"/><path id="Path_8994" data-name="Path 8994" class="cls-6" d="M372.24,399.8a1.43,1.43,0,1,1-2,.18,1.33,1.33,0,0,1,1.85-.32Z"/><path id="Path_8995" data-name="Path 8995" class="cls-7" d="M415.62,393.14s2.33,1.71,4,1.65c1.39-.08,3.34-2.15,3.34-2.15a7.79,7.79,0,0,0-1.63,3.46c-.18,1.63,2.14,3.85,2.14,3.85s-2.21-1.84-3.84-1.77c-1.26,0-3.48,2.27-3.48,2.27s1.85-2.45,1.64-3.72A9.52,9.52,0,0,0,415.62,393.14Z"/><path id="Path_9003" data-name="Path 9003" class="cls-7" d="M46.55,550s2.8,2.49,4.94,2.44c1.76.06,4.48-2.23,4.48-2.23s-2.21,2.31-2.54,4.31,2.09,5.1,2.09,5.1-2.56-2.47-4.69-2.68c-1.63-.18-4.61,2.36-4.61,2.36s2.62-2.93,2.55-4.57C48.84,552.67,46.55,550,46.55,550Z"/><path id="Path_9004" data-name="Path 9004" class="cls-7" d="M136.73,532.47s2.81,2.49,5,2.44c1.76.06,4.48-2.24,4.48-2.24s-2.22,2.32-2.54,4.32,2.09,5.1,2.09,5.1-2.56-2.48-4.69-2.68c-1.63-.18-4.61,2.36-4.61,2.36s2.62-2.93,2.55-4.57C139,535.19,136.73,532.47,136.73,532.47Z"/><path id="Path_9005" data-name="Path 9005" class="cls-6" d="M95.7,515.06a1.43,1.43,0,1,1-2,.18,1.33,1.33,0,0,1,1.85-.32Z"/><path id="Path_9006" data-name="Path 9006" class="cls-6" d="M66.22,527a1.43,1.43,0,0,1-1.84,2.2,1.72,1.72,0,0,1-.18-2,1.24,1.24,0,0,1,1.71-.44A1.1,1.1,0,0,1,66.22,527Z"/><path id="Path_9007" data-name="Path 9007" class="cls-6" d="M111.8,482.78a1.28,1.28,0,0,1-.89,1.56,1.54,1.54,0,0,1-.3,0,1.26,1.26,0,0,1-1.55-.89,1.57,1.57,0,0,1,0-.3,1.27,1.27,0,0,1,.89-1.55,1,1,0,0,1,.3,0,1.26,1.26,0,0,1,1.55.88A1.57,1.57,0,0,1,111.8,482.78Z"/><path id="Path_9008" data-name="Path 9008" class="cls-7" d="M107,504.51s2.33,1.71,4,1.65c1.39-.08,3.34-2.15,3.34-2.15a7.85,7.85,0,0,0-1.63,3.46c-.18,1.63,2.13,3.85,2.13,3.85s-2.2-1.83-3.83-1.77c-1.26,0-3.48,2.27-3.48,2.27s1.85-2.45,1.64-3.71C109.08,506.47,107,504.51,107,504.51Z"/><path id="Path_9009" data-name="Path 9009" class="cls-7" d="M88.67,546.89s2.33,1.72,4,1.65C94,548.47,96,546.4,96,546.4s-1.58,2-1.63,3.46,2.13,3.85,2.13,3.85-2.2-1.84-3.84-1.77c-1.26,0-3.48,2.27-3.48,2.27s1.85-2.45,1.64-3.72A9.64,9.64,0,0,0,88.67,546.89Z"/><circle id="Ellipse_267" data-name="Ellipse 267" class="cls-8" cx="277.16" cy="38.43" r="21.34"/><path id="Path_9016" data-name="Path 9016" class="cls-6" d="M189.71,388.39a1.43,1.43,0,1,1-2.79.66,1.43,1.43,0,0,1,1.07-1.72h0a1.19,1.19,0,0,1,1.72,1.06Z"/><path id="Path_9017" data-name="Path 9017" class="cls-6" d="M105.82,348a1.26,1.26,0,0,1-.88,1.55,1.57,1.57,0,0,1-.3.05,1.26,1.26,0,0,1-1.55-.89,1,1,0,0,1,0-.3,1.27,1.27,0,0,1,.89-1.55,1.57,1.57,0,0,1,.3-.05A1.66,1.66,0,0,1,105.82,348Z"/><path id="Path_9018" data-name="Path 9018" class="cls-6" d="M95.63,398.57a1.27,1.27,0,0,1-.89,1.55,1,1,0,0,1-.3,0,1.26,1.26,0,0,1-1.55-.88,1.06,1.06,0,0,1,0-.31,1.26,1.26,0,0,1,.88-1.55,1.54,1.54,0,0,1,.3,0,1.26,1.26,0,0,1,1.55.89A1,1,0,0,1,95.63,398.57Z"/><path id="Path_9019" data-name="Path 9019" class="cls-6" d="M140.84,364.92a1.27,1.27,0,0,1-.89,1.55,1.57,1.57,0,0,1-.3,0,1.27,1.27,0,0,1-1.55-.89,1.57,1.57,0,0,1,0-.3,1.26,1.26,0,0,1,.89-1.55,1.57,1.57,0,0,1,.3,0A1.64,1.64,0,0,1,140.84,364.92Z"/><path id="Path_9020" data-name="Path 9020" class="cls-6" d="M55.79,357.67a1.26,1.26,0,0,1-.89,1.55,1.34,1.34,0,0,1-.3,0,1.27,1.27,0,0,1-1.55-.89,1.54,1.54,0,0,1,0-.3,1.26,1.26,0,0,1,.89-1.55,1,1,0,0,1,.3,0A1.66,1.66,0,0,1,55.79,357.67Z"/><path id="Path_9021" data-name="Path 9021" class="cls-6" d="M145.08,502.31a1.25,1.25,0,0,1-.88,1.55,1.06,1.06,0,0,1-.31.05,1.27,1.27,0,0,1-1.55-.89,1.54,1.54,0,0,1,0-.3,1.26,1.26,0,0,1,.89-1.55,1,1,0,0,1,.3,0A1.56,1.56,0,0,1,145.08,502.31Z"/><path id="Path_9022" data-name="Path 9022" class="cls-6" d="M155.44,400.66a1.43,1.43,0,1,1-2,.18,1.38,1.38,0,0,1,1.94-.25Z"/><path id="Path_9023" data-name="Path 9023" class="cls-6" d="M124.12,382.45a1.43,1.43,0,1,1-2,.18,1.33,1.33,0,0,1,1.86-.31Z"/><path id="Path_9024" data-name="Path 9024" class="cls-6" d="M233.71,61.44a1.27,1.27,0,0,1-.88,1.56,1.55,1.55,0,0,1-.31,0,1.27,1.27,0,0,1-1.55-.89,1.54,1.54,0,0,1,0-.3,1.26,1.26,0,0,1,.89-1.55,1,1,0,0,1,.3,0A1.66,1.66,0,0,1,233.71,61.44Z"/><path id="Path_9026" data-name="Path 9026" class="cls-7" d="M113.14,412.14s2.33,1.72,4,1.65c1.39-.08,3.35-2.15,3.35-2.15s-1.58,2-1.63,3.46S121,419,121,419s-2.2-1.83-3.84-1.77c-1.26,0-3.48,2.27-3.48,2.27s1.85-2.45,1.64-3.71C115.21,414.1,113.14,412.14,113.14,412.14Z"/><path id="Path_9027" data-name="Path 9027" class="cls-7" d="M158,365.9s2.33,1.72,4,1.65c1.38-.08,3.34-2.15,3.34-2.15s-1.58,2-1.63,3.47,2.13,3.84,2.13,3.84-2.2-1.83-3.84-1.77c-1.25,0-3.47,2.27-3.47,2.27s1.84-2.45,1.64-3.71C160.11,367.86,158,365.9,158,365.9Z"/><path id="Path_9028" data-name="Path 9028" class="cls-7" d="M325.19,32.31s2.33,1.71,4,1.65c1.39-.08,3.35-2.15,3.35-2.15s-1.58,2-1.63,3.46S333,39.12,333,39.12s-2.2-1.84-3.84-1.77c-1.26,0-3.48,2.27-3.48,2.27s1.85-2.45,1.64-3.72C327.13,34.39,325.19,32.31,325.19,32.31Z"/><path id="Path_9029" data-name="Path 9029" class="cls-7" d="M78.4,366s3.68,2.65,6.2,2.48c2.27-.17,5.27-3.21,5.27-3.21s-2.5,3.06-2.58,5.57,3.31,5.9,3.31,5.9-3.55-2.76-6.07-2.6c-2.14.05-5.4,3.34-5.4,3.34s2.77-3.81,2.59-5.83C81.56,369.14,78.4,366,78.4,366Z"/><path id="Path_9030" data-name="Path 9030" class="cls-7" d="M426.64,138.76s3.68,2.65,6.21,2.48c2.27-.17,5.27-3.21,5.27-3.21s-2.5,3.06-2.59,5.57,3.32,5.9,3.32,5.9-3.55-2.76-6.07-2.6c-2.15,0-5.41,3.33-5.41,3.33s2.78-3.8,2.6-5.82C429.68,141.76,426.64,138.76,426.64,138.76Z"/><path id="Path_9031" data-name="Path 9031" class="cls-7" d="M65.69,312s.73,4.43,2.68,6.26c1.7,1.57,6,1.47,6,1.47s-3.91.49-5.86,2.06-2,6.47-2,6.47S66,323.81,64.08,322c-1.46-1.31-6.24-1.47-6.24-1.47s4.68-.72,6-2.19C65.66,316.38,65.69,312,65.69,312Z"/></g></g></g></g></svg>