<?xml version="1.0" encoding="utf-8"?>
<!-- Generator: Adobe Illustrator 24.0.3, SVG Export Plug-In . SVG Version: 6.00 Build 0)  -->
<svg version="1.1" id="Layer_1" xmlns="http://www.w3.org/2000/svg" xmlns:xlink="http://www.w3.org/1999/xlink" x="0px" y="0px"
	 viewBox="0 0 690 474" style="enable-background:new 0 0 690 474;" xml:space="preserve">
<style type="text/css">
	.st0{fill:#2D1159;}
	.st1{fill:#16073A;}
	.st2{fill:#F4B472;}
	.st3{fill:#F79459;}
	.st4{fill:#DD7E45;}
	.st5{fill:none;stroke:#FFFFFF;stroke-miterlimit:10;}
	.st6{fill:#19CBC5;}
	.st7{fill:#91E375;}
	.st8{fill:#0B42D8;}
	.st9{fill:url(#Path_8914_1_);}
	.st10{fill:#EEEC38;}
	.st11{fill:url(#Path_5972_1_);}
	.st12{fill:#220E59;}
	.st13{fill:#2B2B8E;}
	.st14{opacity:0.53;}
	.st15{fill:#FFFFFF;}
</style>
<g id="Group_8181" transform="translate(-4.019 -2.98)">
	<g id="Group_8146" transform="translate(4.019 2.981)">
		<path id="Path_5939" class="st0" d="M592.8,331.8c-0.7,1.1-1.4,2.2-2.1,3.3c-7.2,11.6-15.7,22.4-25.4,32.1
			c-16.3,16-35.8,28.4-57.2,36.4c-16,6.1-32.9,9.8-50,10.8c-24.9,1.3-49.5-3.1-71.8-14.4c-26.7-13.6-52.6-36.4-82.1-32.1
			c-22.3,3.3-39.2,21.3-58.5,33.1c-27.2,16.7-60.8,21.3-92.1,15.6s-60.3-21.3-84.6-42.1c-32.1-27.2-56.9-64.9-60.8-106.4
			s16.4-86.7,54.4-104.4c13.1-6.2,30-11.3,33.3-25.4c3.1-13.1-7.9-24.9-13.3-37.4c-7.7-17.4-3.8-38,6.9-53.9
			c0.3-0.5,0.5-0.8,0.8-1.3c2.9-4.3,6.3-8.2,10.3-11.5c18.7-16.2,44.6-21.5,69.2-20.3c36.9,2.1,69.5,20.3,105.1,25.6
			c33.3,5.1,70-3.8,100.8,13.1c16.7,9.2,28.7,24.9,41.5,39s28.5,27.4,47.4,29.5c26.4,2.6,50.3-17.4,76.7-18.2
			c20.8-0.5,40.5,11.3,53.1,27.4c12.8,16.4,19.2,36.7,22.8,56.9C626.2,236.6,618,289.2,592.8,331.8z"/>
		<path id="Path_8954" class="st1" d="M379.5,323.5c62.3-2.6,84.2-20.3,104.9-75.2c20.8-54.9-10.3-6.7-5.6-52.7s58.2,23.9,83.1,85.2
			s28.1,18.7,12.3,83.2s-7.2,55.6-45.3,63.5s-66.1,32.1-149.5-28.4s-108.6-15.3-120.3-7.6C247.4,399,317.2,326.1,379.5,323.5z"/>
		<g id="Group_8145" transform="translate(443.06 109.899)">
			<path id="Path_5940" class="st2" d="M201.8,282.7c-8.7-14.1-52.8-51.3-61-78.2c3.1,10-25.4,27.4-33.6,31
				c-11.8,4.9-29-4.9-37.2,4.6C49.8,263.9,9,291.9,8,331.9h203.3C211.1,314.7,210.8,297,201.8,282.7z"/>
			<path id="Path_5941" class="st3" d="M127.7,119.8L127.7,119.8c-1.8,2.1-3.3,3.8-4.9,5.6l-2.6,2.6c-4.7,4.4-10,7.9-15.9,10.5
				c-0.6,0.3-1.2,0.6-1.8,0.8c-7.4,2.6-15,4.3-22.8,4.9c-0.8,0-1.5,0.3-2.1,0.3c-4.2,0.6-8.5,0.7-12.8,0.5c-2,0-3.9-0.2-5.9-0.5
				c-6.1-1-11.8-3.7-16.4-7.7l0,0l-1.8-1.8c-1.3-1.5-2.5-3.1-3.3-4.9l0,0c-2.8-5.4-4.1-11.5-4.9-17.7c-2.8-24.6,3.1-51.3,18.2-70.5
				c12.6-15.6,32.1-29,52.3-25.1c19,3.6,41.3,21.8,44.4,42.8C150,78.8,141.6,102.9,127.7,119.8z"/>
			<path id="Path_5942" class="st3" d="M149.8,244.7c-1.9,16.1-10,30.8-22.6,41C111.8,298,90,302.1,71.3,296
				c-12.3-3.8-24.6-14.6-22.6-27.4c0.5-2.9,1.6-5.7,3.3-8.2c3.1-4.9,7.7-9,11.8-13.1c4.6-4.6,8.5-9.8,11.8-15.4
				c0.2-0.2,0.3-0.5,0.3-0.8c1.5-2.3,2.8-4.7,3.8-7.2c11.3-23.3,12.8-51.8,0.8-74.6c-0.3-0.3-0.3-0.8-0.5-1c-0.8-1.5-1.6-3-2.6-4.4
				l0,0c-0.3-0.5-0.5-0.8-0.8-1.3c-0.8-1.2-1.6-2.3-2.6-3.3c-1.5-1.8-3.1-3.8-4.9-5.6c7.9,8.5,28.5-13.8,32.6-18.5
				c10-11.8,16.7-25.6,23.3-39.5c0.3,9.5,0.8,18.7,1.3,28.2c0,1.5,0.3,3.3,0.3,4.9v1.3c0.3,3.1,0.3,6.4,0.5,9.5
				c1.8,24.6,4.4,49.2,10,73.3C141.3,209.8,151.8,227.5,149.8,244.7z"/>
			<path id="Path_5943" class="st4" d="M127,110.1v0.5c-1.4,6.1-3.7,11.9-6.9,17.2c-5.4,9.7-12.3,18.7-16.7,29
				c-9.2,22.1-5.6,48-15.9,69.5c-7.2,15.1-20.5,26.7-35.4,34.1h-0.3c3.1-4.9,7.7-9,11.8-13.1c4.6-4.6,8.5-9.8,11.8-15.4
				c0.2-0.2,0.3-0.5,0.3-0.8c1.5-2.3,2.8-4.7,3.8-7.2c11.3-23.3,12.8-51.8,0.8-74.6c-0.3-0.3-0.3-0.8-0.5-1c-0.8-1.5-1.6-3-2.6-4.4
				c-4.2,0.6-8.5,0.7-12.8,0.5c-2,0-3.9-0.2-5.9-0.5c-6.1-1-11.8-3.7-16.4-7.7c5,2.4,10.4,3.8,15.9,4.1c5.2,0.2,10.5-0.2,15.6-1.3
				c5.2-1.1,10.3-2.8,15.1-4.9C103,128.8,116,120.6,127,110.1z"/>
			<path id="Path_5944" class="st0" d="M53.9,51.1c12.8,1.8,24.9,7.4,37.4,10c12.3,2.6,26.9,1.8,36.4-7.7
				c-3.3,3.1-9.2,28.2-10.3,36.4c-3.8,27.7,8.2,33.8,12.6,59c10-12.8,7.2-16.2,14.6-30.8c7.4-14.4,12.1-30.8,10-46.9
				c-2.3-20.3-15.1-38.7-32.8-48.7s-40-11-59-3.8c-9.2,3.5-17.6,9-24.6,15.9c-4.1,3.8-17.2,16.2-13.3,22.1
				C34.9,52.9,42.6,49.6,53.9,51.1z"/>
		</g>
	</g>
	<path id="Path_5945" class="st5" d="M191.1,212.5l-58.2-6.4l-6.4,49.5l76.9,40.8l1.5-68.5L191.1,212.5z"/>
	<g id="Group_8147" transform="translate(360.164 326.509)">
		<path id="Path_5946" class="st6" d="M97.7,131.1c5.1-1,8.7-4.9,7.4-14.1c-3.6-29.5-28-60.3-50.3-78.2C41.1,27.5,25.1,19,8,13.9
			v2.1C43.4,49.3,79.5,85.4,97.7,131.1z"/>
		<path id="Path_5947" class="st7" d="M8.2,15.9c-0.4,27.7,8.6,54.6,25.6,76.4c11,13.9,24.9,25.2,40.8,33.1
			c6.7,3.3,16.4,7.2,23.3,5.9C79.5,85.4,43.4,49.3,8.2,15.9z"/>
	</g>
	<g id="Group_8161" transform="matrix(0.985, -0.174, 0.174, 0.985, 349.802, 284.831)">
		<path id="Path_5954" class="st8" d="M19,32.5c9.3,11.2,17.6,23.2,24.9,35.9C50,79,55.5,89.9,60.3,101.2c9,21.8,16.2,44.9,18.7,78
			c0,1.3,2.1,1,2.1-0.3c-2.6-33.3-10-56.7-19-78.7c-4.8-11.4-10.4-22.4-16.7-33.1c-7.5-12.6-15.9-24.7-25.1-36.2
			C19.8,30.2,18.2,31.7,19,32.5z"/>
		<path id="Path_5955" class="st8" d="M74.1,139.2c2-4.2,4.2-8.2,6.7-12.1c2.6-3.9,5.5-7.6,8.7-11c2.6-2.8,6.2-2.3,8.5-0.3
			c2.5,2.2,2.8,6,0.7,8.6c0,0.1-0.1,0.1-0.1,0.2C91.7,131.4,83.3,136.4,74.1,139.2z"/>
		<path id="Path_5956" class="st8" d="M68.2,124.3c0,0,3.1-5.4,6.9-12.3c3.8-6.9,8.5-15.4,12.8-21c1.6-2.4,4.9-3,7.3-1.3
			c0.1,0.1,0.3,0.2,0.4,0.3c2.5,1.8,3.1,5.3,1.4,7.8c0,0,0,0.1-0.1,0.1c-3.6,5.4-10.8,12.3-17.2,17.4
			C76.1,118.5,72.2,121.5,68.2,124.3z"/>
		<g id="Group_8155" transform="translate(56.622 54.337)">
			<path id="Path_5957" class="st8" d="M28,23C22.9,33,14.9,41.7,5.4,49.9c2.1-5.9,4.1-11.3,6.4-16.7c2-5.2,4.4-10.4,6.9-15.4
				C21.6,11.7,31.1,16.6,28,23z"/>
		</g>
		<g id="Group_8156" transform="translate(49.442 32.391)">
			<path id="Path_5958" class="st8" d="M26.7,22.9C22.4,34.7,14.7,45,5.4,55.2C8.8,42.1,11.6,30.1,16,18.8
				C18.5,11.6,29,15.7,26.7,22.9z"/>
		</g>
		<g id="Group_8157" transform="translate(40.21 21.419)">
			<path id="Path_5959" class="st8" d="M19.3,21.1C17,30.3,11.9,39,5.4,48.2c1-11.3,2.1-20.5,4.4-29.5
				C11.3,12.6,20.8,14.7,19.3,21.1z"/>
		</g>
		<path id="Path_5960" class="st8" d="M11.5,16.1c5.4,5.5,9.3,12.2,11.5,19.5c-6.3-4-12-8.9-16.9-14.6C3.6,17.6,8.5,13,11.5,16.1z"
			/>
		<path id="Path_5961" class="st8" d="M37.7,56.8C38,52.7,38,48.6,38,44.8s0-7.9,0.3-11.8c0.3-5.4,8.7-5.1,8.2,0.5
			c-0.3,4.9-2.3,10.8-4.6,15.4C39.8,53.3,37.7,56.8,37.7,56.8z"/>
		<path id="Path_5962" class="st8" d="M27.4,43.3c0-5.6-0.8-11.5-0.5-16.9c0-3.8,5.9-3.8,5.9,0c-0.2,3.8-1.2,7.6-2.8,11
			C28.7,40.7,27.4,43.3,27.4,43.3z"/>
		<path id="Path_5963" class="st8" d="M71.3,139.7c-3.5-2.9-7.4-5.2-11.5-6.9c-4.1-1.8-8.4-3.1-12.8-3.8c-3.1-0.6-6.3,1.1-7.4,4.1
			c-1,2.6,0,5.1,3.6,5.9C52.3,140.7,61.8,141.5,71.3,139.7z"/>
		<path id="Path_5964" class="st8" d="M69.2,124c-4.1-2.2-8.3-4.1-12.6-5.9c-7.2-2.8-15.9-5.4-22.6-5.9c-2.8-0.2-5.4,1.5-6.4,4.1
			c-0.8,2.3,0.3,4.6,3.6,5.1c6.2,0.8,15.4,1.3,23.6,1.5C62.8,123.8,69.2,124,69.2,124z"/>
		<g id="Group_8158" transform="translate(18.452 79.201)">
			<path id="Path_5965" class="st8" d="M9,24.1c10.3,1.5,21.8,1.3,34.4,1c-5.1-2.7-10.4-4.9-15.9-6.7c-5.1-1.6-10.3-2.7-15.6-3.3
				C5.7,14.6,2.6,23.3,9,24.1z"/>
		</g>
		<g id="Group_8159" transform="translate(7.848 62.811)">
			<path id="Path_5966" class="st8" d="M9.3,25.1c11.3,1,23.8,0.3,37.4-0.5c-12.1-5.9-23.6-9-34.9-9.5C5.2,15.1,2.7,24.5,9.3,25.1z"
				/>
		</g>
		<g id="Group_8160" transform="translate(6.866 46.907)">
			<path id="Path_5967" class="st8" d="M8.8,23.8c8.7,0.8,18.5-0.3,29.7-1c-10.3-4.9-18.7-7.2-27.7-7.7C5.2,14.8,3.1,23.3,8.8,23.8z
				"/>
		</g>
		<path id="Path_5968" class="st8" d="M37.7,56.8c-3.8-1.5-7.4-3.1-11-4.1c-3.6-1.3-7.3-2.3-11-2.8c-5.1-0.5-7.2,6.7-2.3,7.7
			c4.1,0.8,10.3,0.5,15.4,0.3C33.9,57.1,37.7,56.8,37.7,56.8z"/>
		<path id="Path_5969" class="st8" d="M28.7,42.2c-5.6-1.5-10.8-3.8-16.2-4.1c-3.6-0.3-4.9,5.1-1.3,5.6c3.1,0.5,7.4,0,11-0.3
			C25.9,42.7,28.7,42.2,28.7,42.2z"/>
	</g>
	<g id="Group_8178" transform="translate(592.955 236.044) rotate(41)">
		
			<linearGradient id="Path_8914_1_" gradientUnits="userSpaceOnUse" x1="-283.911" y1="567.204" x2="-283.911" y2="566.204" gradientTransform="matrix(70.3188 -125.9357 -61.1271 -144.8726 54697.5625 46423.0312)">
			<stop  offset="0" style="stop-color:#01AFBE"/>
			<stop  offset="0" style="stop-color:#14E2E2"/>
			<stop  offset="0.497" style="stop-color:#304BCE"/>
			<stop  offset="0.818" style="stop-color:#4F0BD9"/>
			<stop  offset="1" style="stop-color:#0B42D8"/>
			<stop  offset="1" style="stop-color:#230E5B"/>
			<stop  offset="1" style="stop-color:#220E59"/>
			<stop  offset="1" style="stop-color:#392462"/>
		</linearGradient>
		<path id="Path_8914" class="st9" d="M74.5,100.6c-4.2-4.9-10.2-7.8-16.7-8c-1.7,0-3.3,0-4.3,1.7c-1,1.7,0,3,1.3,4.3
			c3.6,4.1,8.4,7.1,13.7,8.7c3,0.7,6,2,9,3c2.5,0.9,4.4,3,5,5.7l3.3,14.3c0.3,1.7,0.7,3.7,1,5.7c-2-0.7-2.3-2-3.3-3
			c-3.5-4.4-8-8.1-13-10.7c-1.6-0.9-3.2-1.4-5-1.7c-1.4-0.4-2.9,0.1-3.7,1.3c-1,1.3-0.7,2.3,0,3.7c2,4.9,5.8,8.9,10.7,11l7.3,3.7
			c5,2.3,8.3,6,9,12c0.3,5,1.3,9.7,1.7,14.7c0.7,9.3,3,19,2.3,28.3c0,1,0.3,2,1.7,2c1.7,0,1.3-1.3,1.3-2.3c-0.3-3.7-0.3-7-0.7-10.7
			c-1.7-10.7-2.3-21.7-4-32.3c-0.7-6.7,1.7-13.7,7-16.3c6.7-3,8.3-9.7,10-16c0.7-2.7-1-4-3.3-3c-1.5,0.6-3,1.4-4.3,2.3
			c-4.3,3.7-6.3,8.3-8,13.7c-0.7,1.7-1,3.7-3,4.7c-1.3-6.7-3-13-4.3-19.3c-0.3-0.6-0.3-1.4,0-2c2-3,3.7-6.7,6.7-9
			c6-4.3,7.7-11,9-18.3c0.2-1.9-0.3-3.8-1.3-5.3c-1.3-2-2.7-2.3-4.7-1c-2.7,2.3-5.3,5-6.7,9s-2.7,7.7-3.7,11.7
			c-0.3,1.3-0.3,3.3-1.7,4.7c-1.7-4.7-3.3-9.3-5-13.7c-3-6-2.7-11.3,0.3-17c1.7-3,3.3-5.7,5-8.7c1.9-3.1,3.2-6.5,4-10
			c0.3-2.3,0.3-4.7-1.7-6.7c-2.3-2-4.7-1.3-6.7-0.7c-1,0.4-2,1.1-2.7,2c-2.7,3-3.3,6.7-3.7,10.7c-0.7,4.7-1.3,9.3-1.7,15
			c-3-3.3-4.3-6.7-6.3-9.7c-2-2.7-4-5.7-2.3-9.3v-1.3c-0.7-6.3-0.3-12.7,3.3-18.3c0.9-1.4,1.7-2.8,2.3-4.3c1.7-3.3,1.7-7,1.7-10.7
			c0-4-3.3-5.7-6.3-3.7c-1.3,0.8-2.5,2-3.3,3.3c-1.9,3-2.8,6.5-2.7,10c0.3,6.3,1,12.7,1.7,18.7c0.6,1.6,0.3,3.3-0.7,4.7
			c-1.9-2.4-3.4-4.9-4.7-7.7c-1.7-3-3-5.3-3-9.3c0.2-5.6,0.8-11.1,1.7-16.7c0.8-3.5,0.6-7.2-0.7-10.7c-0.7-1.7-3-4-4.7-4
			c-2-0.3-2.3,1.3-3.3,2.7c-1.6,3.1-2.1,6.6-1.3,10c0.9,2.8,1.2,5.7,1,8.7c-2.8-4.1-4.8-8.6-6-13.3c-0.6-2.1-1.4-4.1-2.3-6
			c-2-3.3-4.7-6.3-9-6.3c-4.7,0-6.3,3-4.3,7c1.3,2.5,3,4.7,5,6.7c3.3,3.7,6.7,7.3,11,11.3c-2-0.3-3-1.3-4-1.7c-4.7-2-9-4.3-14-3.7
			c-1.7,0.3-3.7,0.7-4.3,2.7c-0.3,2,1.3,3,2.7,3.7c2.8,1.8,5.7,3.3,8.7,4.7c4.9,2.3,10,3.8,15.3,4.7c1.7,0.3,3.7,1,4.7,2.3
			c2.3,3.3,4.7,6.7,5.7,10.7c-0.3,0-0.5,0.2-0.7,0.3c-0.3-0.3-1-0.3-1.3-0.7c-5.3-4.7-12-6.3-18.7-7c-3.3-0.3-4.3,1-3.3,4
			c1.3,5,4.7,7.7,9.3,9c4.7,1.3,9.7,2.3,15,1.7c3-0.3,5,0.7,6.3,3l5,8c1,1.7,2.3,3.3,2.7,5.7c-1.4-0.3-2.8-0.9-4-1.7
			c-5.3-2.7-10.7-4-16.7-2.7c-4.3,1-5.3,3.7-3,7c1.7,2.3,3.7,4,6.7,4.3c5.3,0.7,10.7,1.3,16.3,1.7c2.7,0,5.7,0.3,7.3,3
			c1.3,2.3,2.3,4.7,3.7,7c1,2.7,1.7,5,2.7,8C75.8,102.9,75.2,101.6,74.5,100.6z"/>
	</g>
	<path id="Path_5971" class="st10" d="M473,461.7c-9.3-1.1-24.4-3.8-28.2-14.2c-3.3-9-2.2-17.8-1.1-27.1c0.8-6.6,1.9-13.4,6.3-18.1
		c5.5-5.8,14.2-6.3,21.4-3.8c4.6,1.5,8.4,4.6,11,8.8c1.9,3,2.5,12.9,4.9,13.7c1.8,0.5,3.7-0.3,4.7-1.9c1.1-1.4,1.4-3.3,1.9-5.2
		c1.4-7.4,1.9-15.1,5.2-21.6c3.6-6.6,11.5-11.5,18.3-9c6.8,2.7,9.3,11.5,8.2,18.9c-1.6,8.8-6.8,15.9-7.9,24.9
		c5-8.2,12.6-14.5,21.6-17.8c2.1-0.9,4.3-1.3,6.6-1.1c2.3,0.2,4.3,1.7,5.2,3.8c1.9,5.2-4.9,11.8-7.9,15.3c-2.5,3-5.5,6.6-8.5,8.8
		c-1.1,0.8-2.2,2.2-1.6,3.6c0.5,1.6,2.7,1.4,4.4,1.1c7.7-1.4,41.1-4.1,38.3,11.2c-0.8,4.9-6.8,6.6-11.8,7.4
		c-15.4,2-30.8,3.2-46.3,3.6C502.9,462.8,487.5,463.6,473,461.7z"/>
	<g id="Group_8169" transform="translate(392.147 300.398) rotate(-14)">
		<g id="Group_8163" transform="translate(0 0)">
			
				<linearGradient id="Path_5972_1_" gradientUnits="userSpaceOnUse" x1="-417.5466" y1="77.2423" x2="-416.7506" y2="78.1753" gradientTransform="matrix(67.6316 36.7275 16.8625 -147.3057 26951.541 26881.834)">
				<stop  offset="0" style="stop-color:#0B42D8"/>
				<stop  offset="0.606" style="stop-color:#14E2E2"/>
				<stop  offset="1" style="stop-color:#CCF04F"/>
			</linearGradient>
			<path id="Path_5972" class="st11" d="M74.1,15.7c-1.3,2.1-2.6,4.1-3.6,6.2c-5.9,12.1-5.6,26.9-3.8,40.5c0.3,1,0.3,1.8,0.5,2.8
				c0,0.8,0.3,1.5,0.3,2.1c0.5,3.6,1.3,6.9,1.8,10.5c-5.9,5.1-10.6,11.4-13.9,18.5c4.6-3.8,9.8-6.7,15.4-8.7
				c1.1,6.8,1.5,13.7,1.3,20.5c0,0.6,0,1.2-0.3,1.8v0.5c-0.3,2.6-0.8,5.1-1.3,7.7c-0.3,0.8-0.5,1.7-0.5,2.6
				c-4.4,16.2-15.4,30.3-29.2,39.5c-4.6,3.1-11.5,7.7-16.9,7.4c-0.7,0-1.4-0.2-2.1-0.5c-1.8-0.6-3.3-1.9-4.1-3.6
				c-2.3-3.8-2.6-10.5-4.1-14.9c-2.1-5.9-4.9-11.5-6.7-17.4c-6.4-21.3,0-44.4,12.3-63.1c0.5-0.5,0.8-1.3,1.3-1.8l1.5-2.3
				c4.6-6.2,9.7-12,15.1-17.4c1.8,4.1,4.3,7.8,7.4,11c-2-5.3-2.6-11.1-1.5-16.7c8.7-7.9,18.2-15.1,27.7-22.3
				C71.7,17.3,72.8,16.4,74.1,15.7z"/>
			<path id="Path_5973" class="st12" d="M49.7,55.7c-5.1,10-9.6,20.3-13.6,30.8c8.1-9.8,18.8-17.1,30.8-21.3c0,0.8,0.3,1.5,0.3,2.1
				C53.7,72.1,42,81,33.8,92.8c-0.3,0.8-0.5,1.5-0.8,2.6c-3.8,14.1-7.4,29.2-9.2,44.1c5.4-8.2,13.1-14.9,21.3-20
				c5.9-3.8,12.3-6.4,18.7-9c2.5-1,5.1-1.9,7.7-2.6c0,0.6,0,1.2-0.3,1.8c-2.8,1-5.6,2.3-8.5,3.3c-5.2,2-10.3,4.4-15.1,7.2
				c-9.7,5.6-19.2,14.1-24.4,24.4l0,0c-0.3,2.8-0.5,5.6-0.5,8.5c10-17.7,28.5-27.7,47.2-35.1c-0.3,0.8-0.5,1.7-0.5,2.6
				c-19,7.4-37.7,18.2-46.7,37.2c0,3.1,0.3,6.4,0.5,9.5c-0.7,0-1.4-0.2-2.1-0.5c-0.2-2.3-0.3-4.6-0.3-6.9c-0.5-0.3-1-0.5-0.8-1.3
				c0.2-0.4,0.4-0.8,0.5-1.3c0-21,4.6-42.1,10-62.1c-0.4,0-0.7-0.4-0.8-0.8c-0.6-6.6-2.8-12.9-6.4-18.5c-1.6-2.9-3.4-5.8-5.4-8.5
				c0.5-0.5,0.8-1.3,1.3-1.8c1.7,2.4,3.3,4.9,4.6,7.4c3.8,6.2,6.4,11.5,7.4,18.7c3.8-12.8,10-25.4,15.9-37.4
				C53.6,41.6,61,29.5,69.7,18.2c1.2-0.9,2.4-1.8,3.6-2.8c-1.3,2.1-2.6,4.1-3.6,6.2C62.2,32.4,55.5,43.8,49.7,55.7z"/>
		</g>
	</g>
	<path id="Path_8905" class="st7" d="M612.4,390.5c15.8-11.4,39.8-15.4,62.1-8.6c6.8,2.1,14.6,6.2,15.1,11.9
		c0.8,4.9-4.1,8.6-9.5,10.4c-5.3,1.6-11.5,2.3-16.3,4.3c-2.6,1.2-5.1,3.4-4.4,5.9s4,4.1,6.5,5.7c8.5,5.2,14.2,14.8,9.2,21.1
		c-3.1,4-9.2,5.6-14.7,6.5c-16.7,2.8-33.8,2.9-50.5,0.2c-3.9-0.6-7.8-1.2-11.4-2.9c-12.1-5.7-7.4-19.9-4.9-27.9
		C596.7,406.5,603.4,397.1,612.4,390.5z"/>
	<g id="Group_8171" transform="translate(554.059 476.22) rotate(-133)">
		<path id="Path_8906" class="st13" d="M30.8-3.4c-0.3,0-0.8-0.3-1-0.3c-0.9,0-1.7,0-2.6,0.3c-3.6,1-7.7,4.9-11.5,9.2
			c-3.3,3.9-6.3,8-9,12.3C2.9,23.3-0.2,28.9-3.5,34.8c-3.2,6.2-6,12.5-8.5,19c-1.8,5.1-3.6,10.3-3.6,16.2s2.1,12.3,5.9,14.9
			c2.6,1.8,5.6,1.8,7.9,4.1c3.3,3.3,4.9,10.3,3.8,15.9c-0.8,5.4-2.8,9.7-4.6,14.6c-1.6,4.4-2.4,9.1-2.3,13.8c0,2.6,0.3,5.2,0.8,7.7
			c0.6,2.6,1.5,5.2,2.6,7.7c2.2,5,5.7,9.3,10.3,12.3c4.1,2.6,7.9,3.3,10.8,1.3c3.3-2.6,5.1-8.5,10-7.9c2.6,0.3,5.1,2.3,7.2,4.9
			s3.8,5.9,5.9,8.5c2.3,3.3,4.6,6.9,7.4,9.7c2.7,2.8,5.8,5.2,9.2,7.2c6.9,3.6,14.4,4.4,19.2,1c0.9-0.7,1.8-1.5,2.6-2.3l0.3-0.3
			c3.1-4.1,3.6-10.5,2.3-16.2c-1-3.6-2.4-7.1-4.4-10.3c-1-1.6-2.1-3.1-3.3-4.6c-1.1-1.6-2.3-3-3.6-4.4c-3.3-3.3-6.7-6.9-8.7-11
			c-1.1-2-1.6-4.3-1.5-6.7c-0.1-2.1,0.7-4.1,2.1-5.6c2.1-1.8,4.9-2.6,6.9-4.1c1.4-1.1,2.6-2.5,3.3-4.1c0.8-1.7,1.3-3.5,1.3-5.4
			c0-1.8-0.3-3.6-0.8-5.4c-0.4-1.7-1.1-3.4-2.1-4.9c-4.1-5.9-10.8-10-16.7-15.1c-2.1-1.7-3.8-3.9-4.9-6.4c-1-2.6-1.3-5.1,0.3-7.2
			c2.3-3.1,6.9-2.8,10.3-4.9c1.7-1.1,2.9-2.7,3.6-4.6c0.8-2,1-4.1,0.8-6.2c-0.9-4.1-2.5-8.1-4.6-11.8c-1.8-3.1-3.1-6.4-4.6-9.5
			c-1.5-3.1-3.1-6.2-5.1-9.5c-2.3-3.8-4.6-7.7-7.2-11.3c-2.3-3.8-4.9-7.5-7.7-11C35.2,0,33.4-2.6,30.8-3.4z"/>
		<g id="Group_8170" transform="translate(37.534 0)" class="st14">
			<path id="Path_8907" class="st15" d="M-8-3.6c-0.9,0-1.7,0-2.6,0.3c-3.6,21-5.6,42.1-4.9,63.3l0.3,4.4l0.5,4.4
				c0.3,2.8,0.5,5.9,1,8.7c1,5.9,1.8,11.5,3.3,17.4c1.3,5.6,3.1,11.3,4.9,16.9c2.3,5.4,4.1,11,6.9,16.2c2.3,5.4,5.6,10.3,8.5,15.4
				c1.5,2.6,3.3,4.9,4.9,7.2l2.6,3.6l2.8,3.3c6.9,9.5,15.4,17.7,23.8,25.9l0,0l0.3-0.3l0,0c-7.9-8.5-16.2-16.9-22.8-26.7l-2.6-3.6
				l-2.3-3.6c-1.5-2.6-3.3-4.9-4.6-7.2c-2.8-5.1-5.6-10-7.9-15.4c-2.6-5.1-4.4-10.8-6.7-16.2c-1.5-5.6-3.6-11-4.6-16.7
				c-1.5-5.6-2.1-11.3-3.1-17.2c-0.3-2.8-0.5-5.6-0.8-8.7l-0.3-4.4l0-4.4C-13.1,38.9-11.1,17.7-8-3.6z"/>
		</g>
	</g>
	<path id="Path_8915" class="st15" d="M327.5,97.9c-1.3-0.5-3.1-1.3-3.6-2.6c-0.8-1.3-0.8-3.6-0.8-5.1c-0.5,2.8-1.5,5.9-4.4,6.9
		c-1.3,0.5-2.7,0.8-4.1,0.8c2.1,0.7,4,1.7,5.6,3.1c1.8,1.5,2.6,4.1,2.8,6.4c0.4-1.3,0.6-2.7,0.8-4.1c0.2-1,0.5-1.9,1-2.8
		c1.2-1.3,2.9-2,4.6-2.1C328.8,98.3,328.1,98.1,327.5,97.9z"/>
	<path id="Path_8916" class="st15" d="M206.2,96.8c-0.9-0.3-1.7-0.8-2.3-1.5c-0.4-1-0.6-2-0.5-3.1c-0.3,1.8-1,3.6-2.6,4.4
		c-0.8,0.3-1.7,0.5-2.6,0.5c1.2,0.4,2.3,1,3.3,1.8c1,1.1,1.6,2.4,1.8,3.8c0.3-0.8,0.3-1.5,0.5-2.6c0-0.7,0.3-1.3,0.8-1.8
		c0.7-0.8,1.7-1.3,2.8-1.3C207,97.1,206.6,97,206.2,96.8z"/>
	<path id="Path_8918" class="st15" d="M135.6,123c-0.9-0.3-1.7-0.8-2.3-1.5c-0.4-1-0.6-2-0.5-3.1c-0.3,1.8-1,3.6-2.6,4.4
		c-0.8,0.3-1.7,0.5-2.6,0.5c1.2,0.4,2.3,1,3.3,1.8c1,1.1,1.6,2.4,1.8,3.8c0.3-0.8,0.3-1.5,0.5-2.6c0-0.7,0.3-1.3,0.8-1.8
		c0.7-0.8,1.7-1.3,2.8-1.3C136.5,123.3,136,123.2,135.6,123z"/>
	<path id="Path_8920" class="st15" d="M195.4,212.7c0.3-2-0.9-4-2.8-4.6c-4.1-2.1-7.2,4.4-5.1,7.4
		C190,219.1,194.7,216.1,195.4,212.7z"/>
	<path id="Path_8921" class="st15" d="M130,256.1c0.3-1.8-0.3-3.8-2.3-4.4c-3.6-0.8-5.6,2.1-4.9,5.6c0.5,1.8,3.6,2.3,5.1,1.8
		C129.1,258.5,129.8,257.3,130,256.1z"/>
	<path id="Path_8922" class="st15" d="M204.9,225.8c-3.1,0-3.1,4.9,0,4.9C208,230.7,208,225.8,204.9,225.8z"/>
	<path id="Path_8923" class="st15" d="M133.4,204c-1.5,0-2.7,1.3-2.6,2.7c0,1.4,1.2,2.6,2.6,2.6C136.7,209.4,136.7,204,133.4,204z"
		/>
	<path id="Path_8924" class="st15" d="M206.7,290.2c-0.8,1.8-1.5,3.6-2.1,5.1c2.9,0,5.8,0.3,8.7,0.8c-2.5,0.3-5,0.5-7.4,0.5
		c1,1.8,2.3,3.6,3.3,5.4c-1.8-1.5-3.6-2.6-5.1-4.6c-0.5,2.6-1,4.6-1.5,7.2v-7.2c-2.2,0.2-4.5,0.6-6.7,1c1.8-1.3,3.9-2.3,6.2-2.8
		c-1-1.5-2.1-3.1-3.1-4.4c0.3,0.5,4.4,3.3,4.4,3.3S205.9,291.2,206.7,290.2z"/>
	<path id="Path_8925" class="st15" d="M207.8,87.7l-3.1,7.7c4.2,0,8.4,0.5,12.6,1.3c-3.6,0.3-7.4,0.5-11,0.8
		c1.5,2.6,3.3,5.4,4.9,7.9c-2.6-2.3-5.4-3.8-7.4-6.7c-0.8,3.8-1.5,6.7-2.3,10.5V98.5c-3.3,0.3-6.5,0.8-9.7,1.5c2.6-2,5.7-3.4,9-4.1
		c-1.5-2.3-3.1-4.4-4.6-6.7c0.5,0.8,6.4,4.9,6.4,4.9S206.5,89,207.8,87.7z"/>
	<path id="Path_8926" class="st5" d="M36.7,230.7c0,0,86.9,52.8,99.2,162.6"/>
	<g id="Group_8179" transform="translate(259.306 153.714)">
		<path id="Path_8927" class="st5" d="M97.7,21.8L11,55.7l56.9,27.4"/>
		<path id="Path_8928" class="st15" d="M102.8,16.2c-1.5,1.3-2.8,2.6-4.4,3.8c2.6,1.3,5.1,2.8,7.4,4.6c-2.3-1-4.6-1.8-6.9-2.8
			c0.3,2.1,0.5,4.3,0.5,6.4c-1-2.3-2.1-3.8-2.6-6.2c-1.5,2.1-2.8,3.6-4.6,5.6c1-2.3,2.1-4.4,3.1-6.7c-2.1-0.9-4.2-1.5-6.4-1.8
			c2.2-0.5,4.5-0.5,6.7,0l-0.8-5.4c0,0.8,2.6,4.9,2.6,4.9S101.8,16.7,102.8,16.2z"/>
		<path id="Path_8929" class="st15" d="M12.5,52.9l-0.3-0.3c-3.6-1.8-6.2,3.6-2.6,5.4l0.3,0.3C13.6,59.8,16.1,54.4,12.5,52.9z"/>
		<path id="Path_8930" class="st15" d="M68.9,81.6L68.9,81.6c-1-0.6-2.3-0.2-2.8,0.8c-0.6,1-0.2,2.3,0.8,2.8h0.3
			C69.7,86.2,71.5,82.6,68.9,81.6z"/>
	</g>
	<path id="Path_8931" class="st15" d="M258.8,129.9c-1.4,11.5-9.4,21.1-20.5,24.6c9.1,0.9,17.9-3.2,23.1-10.8c5-7.5,6-17,2.6-25.4
		c-3.5-7.8-10.2-13.6-18.5-15.9C254.6,108.5,259.7,119,258.8,129.9z"/>
	<path id="Path_8932" class="st15" d="M165.7,34.5c-0.8,0-1.5,0.7-1.5,1.6c0,0.8,0.7,1.5,1.5,1.5c0.8,0,1.6-0.6,1.6-1.5
		C167.3,35.2,166.6,34.5,165.7,34.5C165.7,34.5,165.7,34.5,165.7,34.5z"/>
	<path id="Path_8933" class="st15" d="M282.6,61.2c-0.8,0-1.6,0.6-1.6,1.5s0.6,1.6,1.5,1.6c0,0,0.1,0,0.1,0
		C284.7,64.5,284.7,61.2,282.6,61.2z"/>
	<path id="Path_8935" class="st15" d="M408.3,137.6c-0.8,0-1.6,0.6-1.6,1.5c0,0.8,0.6,1.6,1.5,1.6c0,0,0.1,0,0.1,0
		c0.8,0,1.5-0.7,1.5-1.6C409.7,138.3,409.1,137.6,408.3,137.6z"/>
	<path id="Path_8936" class="st15" d="M325.2,148.1c-0.8,0-1.6,0.6-1.6,1.5c0,0.8,0.6,1.6,1.5,1.6c0,0,0.1,0,0.1,0
		C327.2,151.4,327.2,148.1,325.2,148.1z"/>
	<path id="Path_8940" class="st15" d="M157,314.8c-0.8,0-1.6,0.6-1.6,1.5c0,0.8,0.6,1.6,1.5,1.6c0,0,0.1,0,0.1,0
		c0.8,0,1.6-0.6,1.6-1.5C158.6,315.5,157.9,314.8,157,314.8C157,314.8,157,314.8,157,314.8z"/>
	<path id="Path_8943" class="st15" d="M65.2,251.2c-4.1,0-4.1,6.2,0,6.2C69.3,257.3,69.3,251.2,65.2,251.2z"/>
	<path id="Path_8944" class="st15" d="M116.4,323.3c-4.1,0-4.1,6.2,0,6.2S120.5,323.3,116.4,323.3z"/>
	<path id="Path_8950" class="st15" d="M40,219.7l-3.1,7.7c4.2,0,8.4,0.5,12.6,1.3c-3.6,0.3-7.4,0.5-11,0.8c1.5,2.6,3.3,5.4,4.9,7.9
		c-2.6-2.3-5.4-3.8-7.4-6.7c-0.8,3.8-1.5,6.7-2.3,10.5v-10.8c-3.3,0.3-6.5,0.8-9.7,1.5c2.6-2,5.7-3.4,9-4.1
		c-1.5-2.3-3.1-4.4-4.6-6.7c0.5,0.8,6.4,4.9,6.4,4.9S38.7,221.2,40,219.7z"/>
	<path id="Path_8951" class="st15" d="M101.8,276.3c-1.8,2.8-3.8,5.4-6.2,7.7l11.5,4.6c-3.8-0.5-7.4-1.3-11.3-1.8
		c-0.8,3.6-1.5,6.9-2.1,10.5c-0.8-2.3-2.3-10.5-2.3-10.5s-7.9,0-9.5,0.5c1-1.5,8.7-4.6,8.7-4.6c-0.8-2.4-1.3-4.9-1.5-7.4
		c1.5,2.3,3.1,4.6,4.9,6.7C94.1,282,100.3,277.4,101.8,276.3z"/>
	<path id="Path_8952" class="st15" d="M141.1,393.3c-1.2-0.3-2.2-1-2.8-2.1c-0.4-1.2-0.6-2.5-0.5-3.8c-0.5,2.1-1.3,4.4-3.3,5.4
		c-1,0.4-2,0.6-3.1,0.5c1.5,0.6,3,1.4,4.4,2.3c1.3,1.3,2.1,3,2.3,4.9c0.3-1,0.5-2,0.5-3.1l0.8-2.3c0.9-1,2.2-1.6,3.6-1.5
		C142.2,393.6,141.6,393.5,141.1,393.3z"/>
	<path id="Path_8953" class="st15" d="M129.8,359.2c-2.8,0-2.8,4.6,0,4.6C132.6,363.8,132.6,359.2,129.8,359.2z"/>
</g>
</svg>
