<svg xmlns="http://www.w3.org/2000/svg" xmlns:xlink="http://www.w3.org/1999/xlink" width="392.413" height="523.382" viewBox="0 0 392.413 523.382">
  <defs>
    <clipPath id="clip-path">
      <path id="Path_11081" data-name="Path 11081" d="M305.332,104.987c-17.325-3.5-34.7-8.228-37.249,9.623-1.54,10.79-2.6,17.5-11.769,28.21-8.083,9.443-17.49,13.685-34.142,12.908-19.853-.927-26.618-11.784-32.918-24.5-13.071-26.375-3.465-25.371-23.389-43.743-8.62-7.949-21.656-13.122-39.233-17.4A214.355,214.355,0,0,0,85.3,63.868c-12.168-.647-31.482-9.694-32.918-22.747-1.733-15.747,4.44-16.686,4.331-24.5-.174-12.417-2.6-10.5-19.057-11.373C25.254,4.593,16-7,17.833-17.491c1.508-8.652,11.231-17.06,15.5-22.748,7.361-9.821,8.361-12.749,9.967-18.34,1.062-3.694-.023-7.556.441-11.312,1.2-9.716,11.951-37.877,25.923-42.375s30.144-6.033,46.023-7.4,32.069-2.687,46.371-6.815c18.814-5.431,34.4-15.675,55.518-16.609,18.973-.84,53.339,11.261,44.355,25.2C254.3-106.046,227.455-98.722,229.778-84.2c1.446,9.042,18.1,15.328,33.026,15.255s28.247-4.7,40.783-9.247c14.1-5.11,28.45-10.347,44.667-12.549s34.935-.9,48.035,5.883,18.638,39.912,7.9,47.409c-8.083,5.643-21.628,6.816-33.4,9.269S346.825-19.912,348.932-12.3c3.326,12.012,34.711,12.37,45.78,22.765,15.278,14.35,20.441,44.166,9.375,63.027-13.86,23.621-37.249,28-55.44,29.746C341.021,103.97,321.2,108.192,305.332,104.987Z" transform="translate(-17.602 143.135)" fill="none"/>
    </clipPath>
    <linearGradient id="linear-gradient" x1="-3.294" y1="-0.129" x2="-3.165" y2="-1.284" gradientUnits="objectBoundingBox">
      <stop offset="0" stop-color="#f79459"/>
      <stop offset="0.668" stop-color="#feb088"/>
      <stop offset="0.908" stop-color="#fba98b"/>
      <stop offset="1" stop-color="#f9a48e"/>
    </linearGradient>
    <linearGradient id="linear-gradient-3" x1="0" y1="0.5" x2="1" y2="0.5" xlink:href="#linear-gradient"/>
  </defs>
  <g id="Group_11337" data-name="Group 11337" transform="translate(-12148 -2092)">
    <path id="Path_10758" data-name="Path 10758" d="M305.332,104.987c-17.325-3.5-34.7-8.228-37.249,9.623-1.54,10.79-2.6,17.5-11.769,28.21-8.083,9.443-17.49,13.685-34.142,12.908-19.853-.927-26.618-11.784-32.918-24.5-13.071-26.375-3.465-25.371-23.389-43.743-8.62-7.949-21.656-13.122-39.233-17.4A214.355,214.355,0,0,0,85.3,63.868c-12.168-.647-31.482-9.694-32.918-22.747-1.733-15.747,4.44-16.686,4.331-24.5-.174-12.417-2.6-10.5-19.057-11.373C25.254,4.593,16-7,17.833-17.491c1.508-8.652,11.231-17.06,15.5-22.748,7.361-9.821,8.361-12.749,9.967-18.34,1.062-3.694-.023-7.556.441-11.312,1.2-9.716,11.951-37.877,25.923-42.375s30.144-6.033,46.023-7.4,32.069-2.687,46.371-6.815c18.814-5.431,34.4-15.675,55.518-16.609,18.973-.84,53.339,11.261,44.355,25.2C254.3-106.046,227.455-98.722,229.778-84.2c1.446,9.042,18.1,15.328,33.026,15.255s28.247-4.7,40.783-9.247c14.1-5.11,28.45-10.347,44.667-12.549s34.935-.9,48.035,5.883,18.638,39.912,7.9,47.409c-8.083,5.643-21.628,6.816-33.4,9.269S346.825-19.912,348.932-12.3c3.326,12.012,34.711,12.37,45.78,22.765,15.278,14.35,20.441,44.166,9.375,63.027-13.86,23.621-37.249,28-55.44,29.746C341.021,103.97,321.2,108.192,305.332,104.987Z" transform="translate(12130.398 2235.135)" fill="#2d1159"/>
    <g id="Group_11331" data-name="Group 11331" transform="translate(12148 2092)">
      <ellipse id="Ellipse_506" data-name="Ellipse 506" cx="105.812" cy="8.158" rx="105.812" ry="8.158" transform="translate(98.866 507.067)" fill="#bbbdbf" opacity="0.4"/>
      <g id="Group_11330" data-name="Group 11330" transform="translate(0 0)">
        <g id="Group_11322" data-name="Group 11322">
          <g id="Group_11333" data-name="Group 11333" transform="translate(112.742 207.384)">
            <path id="Path_10566" data-name="Path 10566" d="M5310.12,3503.737c-1.315-1.32,36.258-.3,71.118,30.16s45.913,6.962,52.586,14.028,2.51-18.939,21.717-20.161,57.067,9.365,56.28,9.436c-.49.045-12.812,2.28-56.28,0-11.179-.156-4.337,48.585-48.858,51.826-26.6.72-38.391-18.844-51.968-58.416C5334.912,3509.5,5322.729,3507.766,5310.12,3503.737Z" transform="translate(-5310.086 -3503.393)" fill="#16073a"/>
          </g>
          <g id="Group_11321" data-name="Group 11321" transform="translate(125.589 223.027)">
            <path id="Path_11082" data-name="Path 11082" d="M306.811,241.041a74.108,74.108,0,0,0-6.591-11.224c-11.239-15.573-28.943-20.145-47.126-22.016-15.98-1.644-31.211-1.64-45.671,6.451a60.491,60.491,0,0,0-22.083,21.382c-2.747,4.543-4.115,10-5.911,15-2.23,6.2-4.445,12.4-6.537,18.645-5.537,16.531-12,34.046-12.517,51.6-.252,8.644,7.284,15.182,15.658,15.184,6.012,0,11.047-2.805,13.3-8.222,2.994-7.192,5.941-14.93,10.074-21.559,5.654-9.068,8.556,4.749,9.716,9.155,1.275,4.848,1.267,10.008,1.551,15,.274,4.792-.592,8.37,2.6,12.491,5.526,7.145,16.05,7.739,24.323,7.489l20.787-.628c6.789-.2,19.758-.961,22.957-8.641,1.344-3.226.192-8.537.333-12.024.133-3.295-1.472-19.72,2.278-21.5,5.39-2.561,10.86,15.091,12.481,18.127a18.9,18.9,0,0,0,14.58,9.946,17.592,17.592,0,0,0,14.456-5.813c3.593-4.083,5.073-9.685,5.151-15.125.133-9.338-3.454-17.038-6.39-25.626q-4.548-13.3-9.094-26.605A192.587,192.587,0,0,0,306.811,241.041Z" transform="translate(-160.369 -128.618)" fill="#eeec38"/>
            <path id="Path_11083" data-name="Path 11083" d="M263.429,205.661a9.011,9.011,0,0,1-2.214,3.783c-2.734,2.743-6.8,3.725-10.674,3.773-3.1.038-6.362-.52-8.75-2.493a7.357,7.357,0,0,1-2.656-5.6,16.128,16.128,0,0,0,4.937-6.526,22.86,22.86,0,0,0,1.318-9.624c-.067-1.935-.241-3.687-.221-5.121,0,0,5.361-1.819,13.061.241-.211,1.386-.365,2.7-.462,3.946a34.231,34.231,0,0,0,.154,7.547C258.626,200.425,260.6,203.563,263.429,205.661Z" transform="translate(-168.631 -126.118)" fill="url(#linear-gradient)"/>
            <path id="Path_11084" data-name="Path 11084" d="M258.937,184.087q-.312,2.089-.457,3.955a19.636,19.636,0,0,1-9.085,1.481,18.935,18.935,0,0,1-3.292-.547c-.073-1.935-.241-3.693-.223-5.128C245.88,183.847,251.243,182.034,258.937,184.087Z" transform="translate(-169.338 -126.118)" fill="#f79459"/>
            <path id="Path_11085" data-name="Path 11085" d="M273.642,151.067c-1.275,16.418-12.925,28.9-26.02,27.888s-22.68-15.15-21.407-31.569,12.924-28.905,26.02-27.888S274.916,134.648,273.642,151.067Z" transform="translate(-167.264 -119.44)" fill="url(#linear-gradient)"/>
            <path id="Path_11086" data-name="Path 11086" d="M282.959,150.651c-.64,2.435-2.658,4.014-4.506,3.529s-2.829-2.854-2.189-5.289,2.658-4.014,4.506-3.528S283.6,148.216,282.959,150.651Z" transform="translate(-172.504 -122.15)" fill="#f79459"/>
            <path id="Path_11087" data-name="Path 11087" d="M229.654,149.514c.473,2.472-.665,4.768-2.542,5.128s-3.783-1.354-4.256-3.827.665-4.768,2.543-5.128S229.181,147.042,229.654,149.514Z" transform="translate(-166.912 -122.188)" fill="#f79459"/>
            <path id="Path_11088" data-name="Path 11088" d="M284.13,264.457a28.647,28.647,0,0,0-3.559-6.981.2.2,0,0,0-.343.192l.005.011c2.745,6.388,3.422,14.764-1.182,20.383-3.6,4.363-19.736,9.768-27.9,4.624-.565.345-8.474,7.832-17.037,6.705-2.35-.308-12.371-6.934-13.271-15.287-.485-4.644,1.426-9.761,4.139-13.483a.381.381,0,0,0-.011-.5.376.376,0,0,0-.53-.022c-4.819,4.436-8.267,11.141-7.234,18.278a12.035,12.035,0,0,0,1.155,4.213c5.145,9.309,12.662,9.993,15.223,10.338,6.507.872,12.618-1.914,17.84-5.892,3.309,1.753,21.258,8.639,31.992-6.208C286.841,276.1,286.047,269.952,284.13,264.457Z" transform="translate(-166.311 -133.91)" fill="#c3c123"/>
          </g>
          <path id="Path_11089" data-name="Path 11089" d="M285.724,118.336c5.335,9.843,5.041,20.324-.656,23.413s-14.64-2.387-19.975-12.23-5.041-20.324.656-23.413S280.389,108.493,285.724,118.336Z" transform="translate(-45.47 110.72)" fill="#2d1159"/>
          <ellipse id="Ellipse_507" data-name="Ellipse 507" cx="24.875" cy="14.399" rx="24.875" ry="14.399" transform="matrix(0.883, -0.469, 0.469, 0.883, 170.126, 230.547)" fill="#2d1159"/>
        </g>
        <g id="Group_11329" data-name="Group 11329" transform="translate(105.22 369.455)">
          <g id="Group_11328" data-name="Group 11328" transform="translate(0 0)">
            <path id="Path_11090" data-name="Path 11090" d="M181.083,335.3s-1.2-21.09,18.507-27.259c1.2,3.777,7.933,10.513,26.566-2.582,4.219-4.942,1.453-13.787,5.163-13.274,2.3.319.408,7.01.408,7.01s7.272-12.621,11.49-9.871c3.089,2.015-3.966,18.144-10.891,20.228C222.128,324.226,207.334,344.68,181.083,335.3Z" transform="translate(-142.267 -283.646)" fill="url(#linear-gradient-3)"/>
            <path id="Path_11091" data-name="Path 11091" d="M319.338,328.778s-6.42-29.7-28.831-24.333c-1.573,3.637-10.828,7.974-19.368-1.131-3.7-5.344-.047-13.864-3.791-13.728-2.318.083-1.117,6.933-1.117,6.933s-5.955-13.294-10.43-10.985c-3.277,1.691,2.108,18.452,8.786,21.226C273.247,322.392,289.543,344.735,319.338,328.778Z" transform="translate(-150.002 -283.261)" fill="url(#linear-gradient-3)"/>
            <g id="Group_11327" data-name="Group 11327" transform="translate(54.739)">
              <g id="Group_11323" data-name="Group 11323" transform="translate(1.7)">
                <path id="Path_11092" data-name="Path 11092" d="M286.8,283.026H207.349a6.584,6.584,0,0,0-6.576,6.576v56.234h92.6V289.6A6.584,6.584,0,0,0,286.8,283.026Z" transform="translate(-200.773 -283.026)" fill="#fff"/>
              </g>
              <g id="Group_11324" data-name="Group 11324" transform="translate(3.015 1.5)">
                <path id="Path_11093" data-name="Path 11093" d="M292.212,291a4.832,4.832,0,0,0-3.907-4.257,6.273,6.273,0,0,0-1.51-.042l-1.619.08-3.239.156-6.477.252-6.477.186c-2.159.072-4.317.1-6.477.137l-6.477.107q-6.477.067-12.953.062c-4.318-.006-8.636-.019-12.954-.087s-8.636-.11-12.954-.231c-2.159-.054-4.318-.094-6.477-.175l-1.619-.054-.81-.028-.4-.013c-.132,0-.227,0-.344,0a4.22,4.22,0,0,0-1.309.249,4.62,4.62,0,0,0-1.176.668,4.266,4.266,0,0,0-1.482,2.3,4.7,4.7,0,0,0-.11.7c-.029.23-.029.529-.044.789l-.082,1.619c-.108,2.159-.226,4.318-.377,6.477h-.2c-.15-2.159-.269-4.318-.377-6.477l-.082-1.619c-.008-.278-.032-.52-.026-.829a5.831,5.831,0,0,1,.064-.907,5.686,5.686,0,0,1,5.083-4.741c.153-.012.328-.028.465-.033l.4-.013.81-.028,1.619-.054c2.159-.082,4.318-.122,6.477-.175,4.318-.121,8.636-.172,12.954-.231s8.636-.081,12.954-.088,8.635.018,12.953.062l6.477.107c2.16.039,4.318.065,6.477.137l6.477.185,6.477.252,3.239.156,1.619.08.405.021.437.038a3.152,3.152,0,0,1,.437.073,3.039,3.039,0,0,1,.427.107,5.267,5.267,0,0,1,2.774,1.958A5.022,5.022,0,0,1,292.212,291Z" transform="translate(-202.243 -284.701)" fill="#dde8ff"/>
              </g>
              <g id="Group_11325" data-name="Group 11325" transform="translate(40.871 23.52)">
                <path id="Path_11094" data-name="Path 11094" d="M258.8,316.433a7.131,7.131,0,1,1-7.13-7.131A7.131,7.131,0,0,1,258.8,316.433Z" transform="translate(-244.534 -309.302)" fill="#dde8ff"/>
              </g>
              <g id="Group_11326" data-name="Group 11326" transform="translate(0 61.2)">
                <path id="Path_11095" data-name="Path 11095" d="M291.567,358.017H202.184a3.309,3.309,0,0,1-3.31-3.31v-1.655a1.655,1.655,0,0,1,1.655-1.655h92.693a1.655,1.655,0,0,1,1.655,1.655v1.655A3.309,3.309,0,0,1,291.567,358.017Z" transform="translate(-198.874 -351.397)" fill="#95b4fe"/>
              </g>
            </g>
            <path id="Path_11096" data-name="Path 11096" d="M337.6,372.351q-2.508,2.248-5.382,4.465C287.273,408,213.848,389.568,200.525,380.323c-5.525-2.457-4.393-11.7-2.681-15.3,6.565-.184,21.713,1.621,55.219-15.912a342.971,342.971,0,0,0,32.64-19.7c56.982-38.4,71.559-7.89,72.212,4.822C358.425,343.859,353.624,358.09,337.6,372.351Z" transform="translate(-143.879 -285.927)" fill="#19cbc5"/>
            <path id="Path_11097" data-name="Path 11097" d="M337.6,376.854q-2.508,2.248-5.382,4.465c-44.944,31.183-118.369,12.753-131.692,3.507-5.525-2.457-4.393-11.7-2.681-15.3,6.565-.184,21.713,1.621,55.219-15.912a41.614,41.614,0,0,0,3.273,3.426,44.63,44.63,0,0,0,11.508,7.808A42.912,42.912,0,0,0,282.5,368.8c8.165.662,16.32-1,24.475-1.764s16.819-.509,23.925,3.579A20.936,20.936,0,0,1,337.6,376.854Z" transform="translate(-143.879 -290.43)" fill="#13a5a0"/>
            <path id="Path_11098" data-name="Path 11098" d="M343.05,383.131c1.637,4.942-7.224,12.326-19.795,16.492s-24.088,3.536-25.726-1.407,7.224-12.326,19.794-16.491S341.412,378.189,343.05,383.131Z" transform="translate(-154.462 -293.089)" fill="#361181"/>
            <path id="Path_11099" data-name="Path 11099" d="M330.309,388.192c1.031,3.11-4.544,7.755-12.454,10.376s-15.155,2.224-16.185-.885,4.545-7.754,12.454-10.375S329.279,385.083,330.309,388.192Z" transform="translate(-154.904 -293.782)" fill="url(#linear-gradient-3)"/>
            <path id="Path_11100" data-name="Path 11100" d="M154.96,393.568c-1.173-5.073,8.334-11.6,21.237-14.588s24.311-1.29,25.485,3.784-8.335,11.6-21.237,14.587S156.132,398.641,154.96,393.568Z" transform="translate(-139.518 -292.936)" fill="#361181"/>
            <path id="Path_11101" data-name="Path 11101" d="M170.08,390.77c-.738-3.191,5.244-7.3,13.361-9.178s15.3-.811,16.033,2.38-5.244,7.3-13.36,9.178S170.817,393.962,170.08,390.77Z" transform="translate(-141.108 -293.267)" fill="url(#linear-gradient-3)"/>
            <path id="Path_11102" data-name="Path 11102" d="M138.135,329.58c2.207-12.541,20.4-41.045,72.271,4.029s74.536,44.822,82.845,46.081c1.259,3.777,1.259,13.094-4.533,14.856-14.353,7.555-89.476,16.872-130.27-19.557C140.174,356.913,136.29,340.072,138.135,329.58Z" transform="translate(-137.72 -285.761)" fill="#19cbc5"/>
            <path id="Path_11103" data-name="Path 11103" d="M293.031,390.6a6.843,6.843,0,0,1-4.312,4.475c-14.352,7.553-89.48,16.87-130.275-19.562-18.267-18.073-22.15-34.913-20.306-45.413a26.256,26.256,0,0,1,10.031-16.035,26.529,26.529,0,0,0-5.148,11.285c-1.856,10.489,2.039,27.329,20.306,45.4C203.612,406.721,277.364,398.088,293.031,390.6Z" transform="translate(-137.721 -286.281)" fill="#13a5a0"/>
          </g>
        </g>
      </g>
    </g>
    <g id="Group_11334" data-name="Group 11334" transform="translate(12307.372 2198.603)">
      <path id="Path_10813" data-name="Path 10813" d="M323.708,29.176c-.613-.143-1.213-.294-1.8-.454-9.007-2.437-14.2-6.4-14.612-11.147-.459-5.22,4.78-10.382,14.753-14.535l.751,1.8c-8.988,3.746-13.93,8.325-13.559,12.563.336,3.82,5.137,7.258,13.177,9.431,8.476,2.3,19.557,3,31.2,1.975,23.339-2.043,42.445-10.721,41.727-18.949-.374-4.238-6.064-7.9-15.539-10.014l.426-1.9c10.553,2.362,16.6,6.529,17.057,11.749.839,9.6-18.267,18.853-43.5,21.062C342.723,31.723,332.135,31.162,323.708,29.176Z" transform="translate(-307.264 18.756)" fill="#fff"/>
      <path id="Path_10814" data-name="Path 10814" d="M318.4,40.3a30.427,30.427,0,1,1,55.47-9.057,30.783,30.783,0,0,1-1.35,4.279c.842-.325,1.656-.663,2.439-1.007.308-.921.583-1.862.811-2.825a32.385,32.385,0,1,0-59.961,8.023C316.653,39.919,317.508,40.117,318.4,40.3Z" transform="translate(-299.221 8.128)" fill="#fff"/>
      <path id="Path_10815" data-name="Path 10815" d="M367.952,9.31A30.482,30.482,0,0,1,333.868,25.1a30.3,30.3,0,0,1-17.318-11.32c-.938-.16-1.851-.338-2.748-.528A32.275,32.275,0,0,0,333.42,27,32.429,32.429,0,0,0,370.573,8.314Q369.3,8.826,367.952,9.31Z" transform="translate(-295.82 36.906)" fill="#fff"/>
    </g>
    <path id="Path_11104" data-name="Path 11104" d="M28.044,2.156,2.773,0,0,16.527,33.4,30.164,34.058,7.3Z" transform="matrix(-0.035, -0.999, 0.999, -0.035, 12436.883, 2210.877)" fill="none" stroke="#fff" stroke-miterlimit="10" stroke-width="1"/>
    <path id="Path_11105" data-name="Path 11105" d="M125.243,33.046c-.574-.23-1.378-.574-1.608-1.149a5.091,5.091,0,0,1-.345-2.3c-.23,1.263-.689,2.642-1.952,3.1a4.761,4.761,0,0,1-1.838.345,7.789,7.789,0,0,1,2.527,1.378A4.407,4.407,0,0,1,123.29,37.3a10.345,10.345,0,0,0,.345-1.838,4.114,4.114,0,0,1,.459-1.263,2.876,2.876,0,0,1,2.067-.919A3.551,3.551,0,0,1,125.243,33.046Z" transform="translate(12193.964 2100.134)" fill="#fff"/>
    <path id="Path_11106" data-name="Path 11106" d="M125.243,33.046c-.574-.23-1.378-.574-1.608-1.149a5.091,5.091,0,0,1-.345-2.3c-.23,1.263-.689,2.642-1.952,3.1a4.761,4.761,0,0,1-1.838.345,7.789,7.789,0,0,1,2.527,1.378A4.407,4.407,0,0,1,123.29,37.3a10.345,10.345,0,0,0,.345-1.838,4.114,4.114,0,0,1,.459-1.263,2.876,2.876,0,0,1,2.067-.919A3.551,3.551,0,0,1,125.243,33.046Z" transform="translate(12378.606 2145.233)" fill="#fff"/>
    <path id="Path_11107" data-name="Path 11107" d="M125.243,33.046c-.574-.23-1.378-.574-1.608-1.149a5.091,5.091,0,0,1-.345-2.3c-.23,1.263-.689,2.642-1.952,3.1a4.761,4.761,0,0,1-1.838.345,7.789,7.789,0,0,1,2.527,1.378A4.407,4.407,0,0,1,123.29,37.3a10.345,10.345,0,0,0,.345-1.838,4.114,4.114,0,0,1,.459-1.263,2.876,2.876,0,0,1,2.067-.919A3.551,3.551,0,0,1,125.243,33.046Z" transform="translate(12305.683 2146.399)" fill="#fff"/>
    <path id="Path_11108" data-name="Path 11108" d="M125.243,33.046c-.574-.23-1.378-.574-1.608-1.149a5.091,5.091,0,0,1-.345-2.3c-.23,1.263-.689,2.642-1.952,3.1a4.761,4.761,0,0,1-1.838.345,7.789,7.789,0,0,1,2.527,1.378A4.407,4.407,0,0,1,123.29,37.3a10.345,10.345,0,0,0,.345-1.838,4.114,4.114,0,0,1,.459-1.263,2.876,2.876,0,0,1,2.067-.919A3.551,3.551,0,0,1,125.243,33.046Z" transform="translate(12181.623 2261.551)" fill="#fff"/>
    <path id="Path_11109" data-name="Path 11109" d="M125.243,33.046c-.574-.23-1.378-.574-1.608-1.149a5.091,5.091,0,0,1-.345-2.3c-.23,1.263-.689,2.642-1.952,3.1a4.761,4.761,0,0,1-1.838.345,7.789,7.789,0,0,1,2.527,1.378A4.407,4.407,0,0,1,123.29,37.3a10.345,10.345,0,0,0,.345-1.838,4.114,4.114,0,0,1,.459-1.263,2.876,2.876,0,0,1,2.067-.919A3.551,3.551,0,0,1,125.243,33.046Z" transform="translate(12310.034 2224.79)" fill="#fff"/>
    <path id="Path_11110" data-name="Path 11110" d="M125.243,33.046c-.574-.23-1.378-.574-1.608-1.149a5.091,5.091,0,0,1-.345-2.3c-.23,1.263-.689,2.642-1.952,3.1a4.761,4.761,0,0,1-1.838.345,7.789,7.789,0,0,1,2.527,1.378A4.407,4.407,0,0,1,123.29,37.3a10.345,10.345,0,0,0,.345-1.838,4.114,4.114,0,0,1,.459-1.263,2.876,2.876,0,0,1,2.067-.919A3.551,3.551,0,0,1,125.243,33.046Z" transform="translate(12087.451 2129.417)" fill="#fff"/>
    <path id="Path_11111" data-name="Path 11111" d="M123.425,31.955c-.393-.157-.942-.393-1.1-.785a3.48,3.48,0,0,1-.236-1.57,2.513,2.513,0,0,1-1.334,2.119,3.254,3.254,0,0,1-1.256.236,5.323,5.323,0,0,1,1.727.942,3.012,3.012,0,0,1,.863,1.962,7.07,7.07,0,0,0,.236-1.256,2.812,2.812,0,0,1,.314-.863,1.966,1.966,0,0,1,1.413-.628A2.427,2.427,0,0,1,123.425,31.955Z" transform="translate(12222.474 2128.339)" fill="#fff"/>
    <path id="Path_11112" data-name="Path 11112" d="M123.425,31.955c-.393-.157-.942-.393-1.1-.785a3.48,3.48,0,0,1-.236-1.57,2.513,2.513,0,0,1-1.334,2.119,3.254,3.254,0,0,1-1.256.236,5.323,5.323,0,0,1,1.727.942,3.012,3.012,0,0,1,.863,1.962,7.07,7.07,0,0,0,.236-1.256,2.812,2.812,0,0,1,.314-.863,1.966,1.966,0,0,1,1.413-.628A2.427,2.427,0,0,1,123.425,31.955Z" transform="translate(12300.538 2229.573)" fill="#fff"/>
    <path id="Path_11113" data-name="Path 11113" d="M123.425,31.955c-.393-.157-.942-.393-1.1-.785a3.48,3.48,0,0,1-.236-1.57,2.513,2.513,0,0,1-1.334,2.119,3.254,3.254,0,0,1-1.256.236,5.323,5.323,0,0,1,1.727.942,3.012,3.012,0,0,1,.863,1.962,7.07,7.07,0,0,0,.236-1.256,2.812,2.812,0,0,1,.314-.863,1.966,1.966,0,0,1,1.413-.628A2.427,2.427,0,0,1,123.425,31.955Z" transform="translate(12307.784 2208.108)" fill="#fff"/>
    <path id="Path_11114" data-name="Path 11114" d="M123.425,31.955c-.393-.157-.942-.393-1.1-.785a3.48,3.48,0,0,1-.236-1.57,2.513,2.513,0,0,1-1.334,2.119,3.254,3.254,0,0,1-1.256.236,5.323,5.323,0,0,1,1.727.942,3.012,3.012,0,0,1,.863,1.962,7.07,7.07,0,0,0,.236-1.256,2.812,2.812,0,0,1,.314-.863,1.966,1.966,0,0,1,1.413-.628A2.427,2.427,0,0,1,123.425,31.955Z" transform="translate(12366.07 2287.625)" fill="#fff"/>
    <path id="Path_11115" data-name="Path 11115" d="M123.425,31.955c-.393-.157-.942-.393-1.1-.785a3.48,3.48,0,0,1-.236-1.57,2.513,2.513,0,0,1-1.334,2.119,3.254,3.254,0,0,1-1.256.236,5.323,5.323,0,0,1,1.727.942,3.012,3.012,0,0,1,.863,1.962,7.07,7.07,0,0,0,.236-1.256,2.812,2.812,0,0,1,.314-.863,1.966,1.966,0,0,1,1.413-.628A2.427,2.427,0,0,1,123.425,31.955Z" transform="translate(12077.696 2146.494)" fill="#fff"/>
    <path id="Path_11116" data-name="Path 11116" d="M113.136,104.5l-1.378,3.446a30.159,30.159,0,0,1,5.628.574c-1.608.115-3.331.23-4.939.345.689,1.149,1.493,2.412,2.182,3.56a20.624,20.624,0,0,1-3.331-2.986c-.345,1.723-.689,2.986-1.034,4.709v-4.824a28.721,28.721,0,0,0-4.364.689,9.908,9.908,0,0,1,4.02-1.838c-.689-1.034-1.378-1.952-2.067-2.986a31.848,31.848,0,0,0,2.871,2.182S112.561,105.074,113.136,104.5Z" transform="translate(12152.999 2024.13)" fill="#fff"/>
    <g id="Group_11335" data-name="Group 11335" transform="translate(12301.924 2205.164) rotate(103)">
      <path id="Path_8927" data-name="Path 8927" d="M15.755,27.45,0,11.27,29.078,0,45.9,16.017Z" transform="translate(1.33 60.397)" fill="none" stroke="#fff" stroke-miterlimit="10" stroke-width="1"/>
      <path id="Path_8928" data-name="Path 8928" d="M6.2,1.034c-.689.574-1.263,1.149-1.952,1.723A20.08,20.08,0,0,1,7.58,4.824c-1.034-.459-2.067-.8-3.1-1.263a22.371,22.371,0,0,1,.23,2.871A14.051,14.051,0,0,1,3.56,3.675C2.871,4.594,2.3,5.283,1.493,6.2c.459-1.034.919-1.952,1.378-2.986A11.8,11.8,0,0,0,0,2.412a6.551,6.551,0,0,1,2.986,0L2.642,0A12.553,12.553,0,0,0,3.79,2.182S5.743,1.263,6.2,1.034Z" transform="translate(26.503 56.837)" fill="#fff"/>
      <path id="Path_8929" data-name="Path 8929" d="M2.038.277,1.923.162A1.336,1.336,0,1,0,.774,2.574l.115.115C2.5,3.378,3.646.966,2.038.277Z" transform="translate(0 69.951)" fill="#fff"/>
      <path id="Path_10551" data-name="Path 10551" d="M2.038.277,1.923.162A1.336,1.336,0,1,0,.774,2.574l.115.115C2.5,3.378,3.646.966,2.038.277Z" transform="translate(45.551 74.831)" fill="#fff"/>
      <path id="Path_8930" data-name="Path 8930" d="M1.4.122h0A.926.926,0,0,0,.477,1.73H.592C1.74,2.189,2.544.581,1.4.122Z" transform="translate(16.149 87.036)" fill="#fff"/>
      <path id="Path_10552" data-name="Path 10552" d="M1.4.122h0A.926.926,0,0,0,.477,1.73H.592C1.74,2.189,2.544.581,1.4.122Z" transform="translate(44.618 47.178)" fill="#fff"/>
      <path id="Path_10553" data-name="Path 10553" d="M1.4.122h0A.926.926,0,0,0,.477,1.73H.592C1.74,2.189,2.544.581,1.4.122Z" transform="translate(57.988 22.776)" fill="#fff"/>
      <path id="Path_10554" data-name="Path 10554" d="M1.4.122h0A.926.926,0,0,0,.477,1.73H.592C1.74,2.189,2.544.581,1.4.122Z" transform="translate(60.428 0)" fill="#fff"/>
      <path id="Path_10555" data-name="Path 10555" d="M0,59.7,15.616,47.251,28.438,22.87,30.9,0" transform="translate(30.293 0.699)" fill="none" stroke="#fff" stroke-width="1"/>
    </g>
    <path id="Path_11117" data-name="Path 11117" d="M98.888,46.689A13.247,13.247,0,0,1,89.7,57.715a11.2,11.2,0,0,0,10.337-4.824,12.153,12.153,0,0,0,1.149-11.37A12.775,12.775,0,0,0,92.916,34.4,13.308,13.308,0,0,1,98.888,46.689Z" transform="translate(12189.859 2100.846)" fill="#fff"/>
    <path id="Path_11118" data-name="Path 11118" d="M124.725,32.735c-.522-.209-1.254-.522-1.463-1.045a4.632,4.632,0,0,1-.313-2.09c-.209,1.149-.627,2.4-1.776,2.821a4.332,4.332,0,0,1-1.672.313,7.087,7.087,0,0,1,2.3,1.254,4.009,4.009,0,0,1,1.149,2.612,9.412,9.412,0,0,0,.313-1.672,3.743,3.743,0,0,1,.418-1.149,2.617,2.617,0,0,1,1.881-.836A3.23,3.23,0,0,1,124.725,32.735Z" transform="translate(12099.452 2228.271)" fill="#fff"/>
    <path id="Path_11119" data-name="Path 11119" d="M119.041,104.5l-2.5,6.258a54.771,54.771,0,0,1,10.221,1.043c-2.92.209-6.049.417-8.969.626,1.252,2.086,2.712,4.38,3.963,6.466-2.086-1.877-4.38-3.129-6.049-5.423-.626,3.129-1.252,5.423-1.877,8.552v-8.76a52.16,52.16,0,0,0-7.926,1.251,17.993,17.993,0,0,1,7.3-3.337c-1.252-1.877-2.5-3.546-3.755-5.423a57.837,57.837,0,0,0,5.215,3.963S118,105.543,119.041,104.5Z" transform="translate(12159.412 2093.319)" fill="#fff"/>
    <path id="Path_11120" data-name="Path 11120" d="M3.853,2.245A1.893,1.893,0,0,0,2.589.178C.752-.741-.626,2.13.292,3.509,1.441,5.117,3.508,3.738,3.853,2.245Z" transform="matrix(-0.035, -0.999, 0.999, -0.035, 12436.096, 2187.624)" fill="#fff"/>
    <path id="Path_11121" data-name="Path 11121" d="M3.288,2.01A1.6,1.6,0,0,0,2.254.057C.646-.288-.273.976.072,2.584c.23.8,1.608,1.034,2.3.8A2,2,0,0,0,3.288,2.01Z" transform="matrix(-0.035, -0.999, 0.999, -0.035, 12451.216, 2212.186)" fill="#fff"/>
    <path id="Path_11122" data-name="Path 11122" d="M4.824,0C4.479.8,4.135,1.608,3.9,2.3a22.428,22.428,0,0,1,3.9.345,32.446,32.446,0,0,1-3.331.23c.459.8,1.034,1.608,1.493,2.412a12.9,12.9,0,0,1-2.3-2.067c-.23,1.149-.459,2.067-.689,3.216V3.216A26.823,26.823,0,0,0,0,3.675,7.569,7.569,0,0,1,2.756,2.412C2.3,1.723,1.838,1.034,1.378.459A17.8,17.8,0,0,0,3.331,1.952S4.479.459,4.824,0Z" transform="matrix(-0.035, -0.999, 0.999, -0.035, 12462.026, 2182.842)" fill="#fff"/>
    <path id="Path_11123" data-name="Path 11123" d="M11.1,84.4s34.688,21.079,39.6,64.874" transform="translate(12454.871 2153.517)" fill="none" stroke="#fff" stroke-miterlimit="10" stroke-width="1"/>
    <g id="Group_11336" data-name="Group 11336" transform="translate(12374.104 2284.402)">
      <path id="Path_8927-2" data-name="Path 8927" d="M136.786,62.9,102.2,76.407l22.716,10.949" transform="translate(-100.998 -59.728)" fill="none" stroke="#fff" stroke-miterlimit="10" stroke-width="1"/>
      <path id="Path_8928-2" data-name="Path 8928" d="M138.126,60.721c-.614.512-1.126,1.023-1.74,1.535a17.889,17.889,0,0,1,2.967,1.842c-.921-.409-1.842-.716-2.763-1.126a19.932,19.932,0,0,1,.2,2.558,12.515,12.515,0,0,1-1.023-2.456c-.614.819-1.126,1.433-1.842,2.251.409-.921.819-1.74,1.228-2.66a10.511,10.511,0,0,0-2.558-.716,5.837,5.837,0,0,1,2.66,0l-.307-2.149a11.184,11.184,0,0,0,1.023,1.944S137.716,60.926,138.126,60.721Z" transform="translate(-100.292 -59.8)" fill="#fff"/>
      <path id="Path_8929-2" data-name="Path 8929" d="M102.841,75.006l-.1-.1a1.19,1.19,0,1,0-1.023,2.149l.1.1C103.251,77.768,104.274,75.62,102.841,75.006Z" transform="translate(-101.026 -59.452)" fill="#fff"/>
      <path id="Path_8930-2" data-name="Path 8930" d="M124.828,86.2h0a.825.825,0,0,0-.819,1.433h.1C125.135,88.044,125.852,86.612,124.828,86.2Z" transform="translate(-100.501 -59.189)" fill="#fff"/>
    </g>
    <path id="Path_11124" data-name="Path 11124" d="M22.228,92.4a1.228,1.228,0,0,0,0,2.456A1.228,1.228,0,0,0,22.228,92.4Z" transform="translate(12455.101 2153.966)" fill="#fff"/>
    <path id="Path_11125" data-name="Path 11125" d="M42.228,120.5a1.228,1.228,0,1,0,0,2.456A1.228,1.228,0,1,0,42.228,120.5Z" transform="translate(12455.566 2153.972)" fill="#fff"/>
    <path id="Path_11126" data-name="Path 11126" d="M12.546,80.1l-1.228,3.07a26.87,26.87,0,0,1,5.014.512c-1.433.1-2.967.2-4.4.307.614,1.023,1.33,2.149,1.944,3.172a18.376,18.376,0,0,1-2.967-2.66c-.307,1.535-.614,2.66-.921,4.2V84.4a25.594,25.594,0,0,0-3.888.614,8.827,8.827,0,0,1,3.581-1.637c-.614-.921-1.228-1.74-1.842-2.66A28.376,28.376,0,0,0,10.4,82.658S12.035,80.714,12.546,80.1Z" transform="translate(12455.455 2153.926)" fill="#fff"/>
    <path id="Path_11127" data-name="Path 11127" d="M36.679,102.209a17.963,17.963,0,0,1-2.456,3.07l4.6,1.842c-1.535-.2-2.967-.512-4.5-.716-.307,1.433-.614,2.763-.819,4.2-.307-.921-.921-4.2-.921-4.2a27.6,27.6,0,0,0-3.786.2c.409-.614,3.479-1.842,3.479-1.842a12.473,12.473,0,0,1-.614-2.967,22.232,22.232,0,0,0,1.944,2.66S36.065,102.619,36.679,102.209Z" transform="translate(12455.283 2153.922)" fill="#fff"/>
    <path id="Path_11128" data-name="Path 11128" d="M51.888,147.854a1.821,1.821,0,0,1-1.126-.819,3.977,3.977,0,0,1-.2-1.535,3.025,3.025,0,0,1-1.33,2.149,2.6,2.6,0,0,1-1.228.2,9.361,9.361,0,0,1,1.74.921,3.458,3.458,0,0,1,.921,1.944,5.136,5.136,0,0,0,.2-1.228l.307-.921a1.858,1.858,0,0,1,1.433-.614A1.517,1.517,0,0,1,51.888,147.854Z" transform="translate(12455.729 2153.952)" fill="#fff"/>
    <path id="Path_11129" data-name="Path 11129" d="M47.419,134.5a.924.924,0,0,0,0,1.842A.924.924,0,0,0,47.419,134.5Z" transform="translate(12455.696 2153.979)" fill="#fff"/>
  </g>
</svg>
