<svg id="Group_11140" data-name="Group 11140" xmlns="http://www.w3.org/2000/svg" width="41.231" height="25.01" viewBox="0 0 41.231 25.01">
  <path id="Path_10710" data-name="Path 10710" d="M39.742,25.01H1.494A1.471,1.471,0,0,1,0,23.567V23.5l.005-.015V1.548L0,1.533V1.464A1.441,1.441,0,0,1,1.449,0H39.762a1.468,1.468,0,0,1,1.469,1.464v22.1A1.469,1.469,0,0,1,39.742,25.01ZM.851,23.626a.63.63,0,0,0,.643.536H39.742a.62.62,0,0,0,.641-.6V1.464a.619.619,0,0,0-.621-.616H1.449a.592.592,0,0,0-.6.555l0,.007Z" transform="translate(0)"/>
  <path id="Path_10711" data-name="Path 10711" d="M516.96,294.935a1.267,1.267,0,1,1,1.272,1.247,1.252,1.252,0,0,1-1.272-1.247Z" transform="translate(-480.712 -273.095)"/>
  <path id="Path_10712" data-name="Path 10712" d="M528.408,302.687h-.217v-1.439h.55c.338,0,.5.121.5.409a.371.371,0,0,1-.369.394h0l.409.636h-.247l-.379-.626h-.252v.626Z" transform="translate(-491.155 -280.125)" fill="#fff"/>
  <path id="Path_10713" data-name="Path 10713" d="M530.928,304.347v-.434h.47c.2.167.258.242,0,.434h-.47Z" transform="translate(-493.7 -282.603)"/>
  <g id="Group_11139" data-name="Group 11139" transform="translate(1.631 1.58)">
    <path id="Path_10714" data-name="Path 10714" d="M138.1,163.367a.942.942,0,1,0,.944.944A.946.946,0,0,0,138.1,163.367Z" transform="translate(-129.173 -153.492)"/>
    <path id="Path_10715" data-name="Path 10715" d="M42.319,41.145a11.09,11.09,0,0,1-2.128-3.268l-.011-.025q-.044-.106-.087-.213l-.019-.05q-.037-.1-.073-.192l-.025-.069q-.032-.088-.062-.177l-.028-.083q-.027-.082-.054-.165l-.03-.1q-.024-.078-.046-.155l-.03-.106q-.021-.074-.04-.149c-.01-.038-.02-.075-.029-.113s-.024-.1-.035-.144-.019-.08-.028-.119-.021-.094-.031-.141-.018-.082-.026-.123-.018-.093-.027-.14-.016-.084-.023-.127-.016-.093-.023-.14-.014-.085-.02-.128-.013-.095-.02-.142-.012-.085-.017-.128-.011-.1-.017-.146-.01-.084-.014-.126-.009-.1-.013-.152-.007-.081-.01-.122-.007-.108-.01-.162c0-.038,0-.075-.007-.113,0-.062-.005-.124-.007-.186,0-.031,0-.061,0-.092q0-.139,0-.28t0-.278c0-.034,0-.068,0-.1,0-.057,0-.115.007-.172s.005-.088.008-.133.005-.093.009-.139.008-.1.013-.15.007-.079.011-.119c.005-.055.012-.109.018-.164,0-.034.008-.068.012-.1.007-.059.015-.117.023-.176,0-.029.008-.058.012-.087.009-.062.019-.125.03-.187,0-.024.008-.049.012-.073q.017-.1.036-.2l.012-.06q.02-.1.043-.206l.01-.047q.024-.108.05-.216l.008-.035q.028-.113.058-.225l.006-.022q.032-.118.066-.235l0-.008A10.979,10.979,0,0,1,40.9,27.88l0,0c.031-.051.062-.1.094-.152l.047-.076.069-.106.079-.121.047-.069c.036-.052.071-.1.108-.156l.027-.038q.067-.094.136-.186l.005-.007a11.108,11.108,0,0,1,.749-.9h0l.06-.064a11.04,11.04,0,1,0,0,15.143l0,0Zm-12.571-6.23h-.793V31.866L27.9,34.915h-.6l-1.06-3.009v3.009h-.813v-4.11h.964l1.237,3.085,1.106-3.085h1.02Zm4.059,0h-.677V34.69a1.639,1.639,0,1,1-.944-2.976h0a1.634,1.634,0,0,1,.944.3V31.77h.677V33.1a1.656,1.656,0,0,1,.02.257,1.626,1.626,0,0,1-.02.255Zm1.838.04a.984.984,0,0,1-1.1-.99h.772a.324.324,0,0,0,.328.313c.167,0,.358-.04.358-.2,0-.429-.389-.475-.53-.515-.116-.03-.828-.126-.828-.8a.931.931,0,0,1,1.04-.979.843.843,0,0,1,.934.889h-.692c-.01-.056.01-.2-.323-.2-.353,0-.414.53.2.616a1.006,1.006,0,0,1,.919.894A1.064,1.064,0,0,1,35.645,34.955Zm3.15-2.433h-.464v2.393h-.712V32.522H37.21V31.77h.409v-.909h.712v.909H38.8Z" transform="translate(-23.256 -22.536)"/>
    <path id="Path_10716" data-name="Path 10716" d="M415.736,163.367h0a.942.942,0,1,0,0,1.883h0a.942.942,0,1,0,0-1.883Z" transform="translate(-387.338 -153.492)"/>
    <path id="Path_10717" data-name="Path 10717" d="M303.254,22.536A11,11,0,0,0,295.223,26q.086.091.17.184h0l.016.018a11.006,11.006,0,0,1,2.571,5.025l.006.027q.023.106.043.213l.01.052q.018.1.035.2l.012.073q.015.09.028.18c0,.03.009.061.013.091.008.056.015.111.022.167,0,.036.008.072.012.107.006.052.012.1.017.155s.007.082.011.124.008.095.012.142.006.094.009.142.005.085.008.127,0,.114.006.17c0,.034,0,.068,0,.1q0,.137,0,.275t0,.276c0,.033,0,.066,0,.1,0,.058,0,.117-.007.175,0,.041,0,.081-.007.122s-.006.1-.009.149-.008.091-.011.136-.007.088-.012.132-.01.1-.016.148-.009.078-.013.116-.014.106-.021.159c0,.034-.009.068-.014.1-.008.057-.017.114-.027.171l-.014.085q-.016.093-.033.185l-.013.065q-.02.1-.041.2l-.009.043q-.024.111-.051.221l0,.013a11.019,11.019,0,0,1-2.464,4.719l-.085.1,0,.005c-.048.053-.1.1-.145.156a11.037,11.037,0,1,0,8.031-18.609Zm-2.827,12.556a2.143,2.143,0,1,1,0-4.286,2.111,2.111,0,0,1,1.954,1.287h-.889a1.365,1.365,0,1,0-1.065,2.216,1.37,1.37,0,0,0,1.075-.52h.894A2.167,2.167,0,0,1,300.426,35.092Zm5.75-.177H305.5v-.227a1.634,1.634,0,0,1-.949.3h0a1.638,1.638,0,1,1,0-3.277h0a1.635,1.635,0,0,1,.949.3V31.77h.676v1.363a1.661,1.661,0,0,1,.015.222,1.629,1.629,0,0,1-.015.22Zm2.3-2.489a.949.949,0,0,0-.742.409v2.08h-.717V31.77h.707v.414c.02-.308.591-.434.752-.434Zm3.135,2.489v-.228a1.639,1.639,0,1,1-.949-2.973h0a1.633,1.633,0,0,1,.949.3V30.982h.677v2.152a1.662,1.662,0,0,1,.015.22,1.632,1.632,0,0,1-.015.218v1.342Z" transform="translate(-276.153 -22.536)"/>
    <path id="Path_10718" data-name="Path 10718" d="M502.856,163.367a.942.942,0,1,0,.944.944A.946.946,0,0,0,502.856,163.367Z" transform="translate(-468.349 -153.492)"/>
    <path id="Path_10719" data-name="Path 10719" d="M254.555,73.782l-.005.007c-.046.062-.091.124-.136.186l-.027.038c-.036.051-.072.1-.108.156l-.047.069-.079.121-.069.106-.047.076c-.032.051-.063.1-.094.152l0,0a11.014,11.014,0,0,0-1.127,2.558l0,.008q-.035.117-.066.235l-.006.022q-.03.112-.058.225l-.008.035q-.026.107-.05.216l-.01.047q-.022.1-.043.206l-.012.06q-.019.1-.036.2c0,.024-.008.049-.012.073-.01.062-.02.124-.03.187,0,.029-.008.058-.012.087-.008.059-.016.117-.023.176,0,.034-.008.068-.012.1-.006.055-.012.109-.018.164,0,.04-.007.079-.011.119s-.009.1-.013.15-.006.093-.009.139-.006.088-.008.133,0,.115-.007.172c0,.034,0,.068,0,.1q0,.139,0,.278t0,.28c0,.031,0,.061,0,.092,0,.062,0,.124.007.186,0,.038,0,.076.007.113,0,.054.006.108.01.162s.007.081.01.122.008.1.013.152.009.084.014.126.011.1.017.146.011.085.017.128.013.095.02.142.013.086.02.128.015.093.023.14.015.085.023.127.017.093.027.14.017.082.026.123.02.094.031.141.019.08.028.119.023.1.035.144.019.076.029.113.026.1.04.149l.03.106q.023.078.046.155l.03.1q.026.083.053.165l.028.083q.03.089.062.177l.025.069q.036.1.073.192l.019.05q.042.107.087.213l.011.025a11.055,11.055,0,0,0,2.132,3.265l.148-.153.09-.1a11.069,11.069,0,0,0,2.464-4.719l0-.013c.018-.073.034-.147.051-.221l.009-.043q.021-.1.041-.2l.013-.065q.017-.092.033-.185l.014-.085q.014-.085.027-.171c.005-.034.01-.068.014-.1.007-.053.014-.106.021-.159s.009-.078.013-.116.011-.1.016-.148.008-.088.012-.132.008-.09.011-.136.006-.1.009-.149.005-.081.007-.122c0-.058,0-.116.007-.175,0-.033,0-.066,0-.1q0-.137,0-.276t0-.275c0-.034,0-.068,0-.1,0-.057,0-.114-.006-.17s0-.085-.008-.127-.006-.095-.009-.142-.008-.1-.012-.142-.007-.083-.011-.124-.011-.1-.017-.155c0-.036-.008-.072-.012-.107-.007-.056-.014-.111-.022-.167q-.006-.046-.013-.091-.013-.09-.028-.18l-.012-.073q-.017-.1-.035-.2l-.01-.052q-.021-.107-.043-.213l-.006-.027a11.04,11.04,0,0,0-2.571-5.025L255.535,73l-.229-.12A11.076,11.076,0,0,0,254.555,73.782Zm-.544,8.035h-.03a1.486,1.486,0,0,1-1.57-1.535v-.03a1.6,1.6,0,0,1,1.58-1.676h.02v.762c-.384,0-.762.177-.762.525h.762v.631h-.783c0,.444.4.6.783.606h0c.348,0,.677-.111.677-.237h.853C255.541,81.393,254.647,81.807,254.011,81.818Zm1.611-1.464a1.325,1.325,0,0,1-.01.141h-1.6v-.631h.762c0-.348-.379-.525-.762-.525v-.762a1.6,1.6,0,0,1,1.61,1.641Zm.783-1.767h.7V79c.02-.308.591-.434.757-.434v.676a.957.957,0,0,0-.747.409v2.08H256.4Z" transform="translate(-236.296 -69.353)"/>
  </g>
</svg>
