<svg id="Layer_1" data-name="Layer 1" xmlns="http://www.w3.org/2000/svg" viewBox="0 0 150 150"><defs><style>.cls-1{opacity:0.5;}.cls-2{fill:#19cbc5;}.cls-3{fill:#0b42d8;}.cls-4,.cls-5,.cls-6,.cls-7,.cls-8{fill:none;stroke:#0b42d8;}.cls-5,.cls-6,.cls-8{stroke-linecap:round;}.cls-5{stroke-width:3px;}.cls-6{stroke-width:3px;}.cls-7,.cls-8{stroke-miterlimit:4;}.cls-7{stroke-width:1px;}.cls-8{stroke-width:3px;}.cls-9{fill:#361181;}</style></defs><title>membership_galaxy</title><g id="Group_11376" data-name="Group 11376"><g id="Group_10821" data-name="Group 10821"><g id="Group_7763" data-name="Group 7763" class="cls-1"><circle id="Ellipse_179" data-name="Ellipse 179" class="cls-2" cx="73.66" cy="72.18" r="60"/></g><g id="Group_7764" data-name="Group 7764"><circle id="Ellipse_180" data-name="Ellipse 180" class="cls-2" cx="73.66" cy="72.18" r="45.63"/></g></g><g id="Group_10830" data-name="Group 10830"><g id="Ellipse_281" data-name="Ellipse 281"><circle class="cls-3" cx="124.57" cy="13.7" r="3.7"/><circle class="cls-4" cx="124.57" cy="13.7" r="3.2"/></g><g id="Ellipse_282" data-name="Ellipse 282"><circle class="cls-3" cx="144.11" cy="43.18" r="2.47"/><circle class="cls-4" cx="144.11" cy="43.18" r="1.97"/></g><g id="Group_10429" data-name="Group 10429"><path id="Path_5123" data-name="Path 5123" class="cls-5" d="M141.45,15.05l1.63,9.23"/><path id="Path_5124" data-name="Path 5124" class="cls-6" d="M146.88,18.85l-9.24,1.63"/></g></g><g id="Group_10835" data-name="Group 10835"><g id="Ellipse_281-2" data-name="Ellipse 281-2"><circle class="cls-3" cx="25.36" cy="138.39" r="2.56"/><circle class="cls-7" cx="25.36" cy="138.39" r="2.06"/></g><g id="Ellipse_282-2" data-name="Ellipse 282-2"><circle class="cls-3" cx="8.57" cy="120.71" r="1.7"/><circle class="cls-7" cx="8.57" cy="120.71" r="1.2"/></g><g id="Group_10429-2" data-name="Group 10429-2"><path id="Path_5123-2" data-name="Path 5123-2" class="cls-8" d="M13.74,139.5l-2.21-6.08"/><path id="Path_5124-2" data-name="Path 5124-2" class="cls-8" d="M9.6,137.57l6.08-2.22"/></g></g><path id="Path_10575" data-name="Path 10575" class="cls-9" d="M49.27,63.43a1.13,1.13,0,0,0-1.1-1.15H46.7a1,1,0,0,0-1,1s0,.07,0,.11a1.13,1.13,0,0,0,1.11,1.15h1.46A1.22,1.22,0,0,0,49.27,63.43ZM54,73h1.43a1.15,1.15,0,0,0,0-2.29H54A1.25,1.25,0,0,0,52.85,72a1,1,0,0,0,1,1ZM50.7,80.58a1.13,1.13,0,0,0-1.1-1.15H48.13a1,1,0,0,0-1,1s0,.07,0,.11a1.13,1.13,0,0,0,1.11,1.14H49.7A1.21,1.21,0,0,0,50.7,80.58ZM66.86,48.71h1.43a1.13,1.13,0,0,0,1.14-1.11v0a1.13,1.13,0,0,0-1.11-1.14H66.86a1.25,1.25,0,0,0-1.15,1.29,1,1,0,0,0,1,1ZM98.3,86.58H96.87a1.15,1.15,0,0,0,0,2.29H98.3a1.14,1.14,0,0,0,1.15-1.11v0C99.3,87,98.87,86.58,98.3,86.58Zm-.86-31.44a4.63,4.63,0,0,0-3.28,1.43l-8.15-5a3.61,3.61,0,0,0,.28-1.72,4.53,4.53,0,0,0-4.37-4.71h-.2a4.6,4.6,0,0,0-4.57,4.58,3.84,3.84,0,0,0,.43,1.85l-13.3,7.15a4.76,4.76,0,0,0-4-2.14,4.58,4.58,0,0,0,0,9.15c.43,0,.86-.15,1.15-.15l4.14,8a4.54,4.54,0,0,0-.43,6.15l-9,9.86c-.29,0-.86-.14-1.57-.14a4.58,4.58,0,0,0,0,9.15h0A4.71,4.71,0,0,0,59.14,94,4.33,4.33,0,0,0,58,91l9-9.86a3.88,3.88,0,0,0,1.86.43A4.59,4.59,0,0,0,73.43,77a2.61,2.61,0,0,0-.14-1l21-12.72a4.62,4.62,0,1,0,3.15-8.15ZM54.56,96.59a2.58,2.58,0,0,1,0-5.15h0A2.67,2.67,0,0,1,57.14,94a2.57,2.57,0,0,1-2.55,2.57ZM81.72,47.28a2.57,2.57,0,1,1-2.57,2.57A2.76,2.76,0,0,1,81.72,47.28ZM60.28,63.71a2.57,2.57,0,1,1,2.57-2.57h0a2.55,2.55,0,0,1-2.55,2.57Zm8.58,15.72a2.57,2.57,0,1,1,2.57-2.57h0a2.56,2.56,0,0,1-2.55,2.57ZM72.57,74A4.78,4.78,0,0,0,69,72.29a5,5,0,0,0-1.43.29l-4.14-7.87A4.58,4.58,0,0,0,65,61.28v-.42l13.86-7.58a4.61,4.61,0,0,0,3,1.14,4.31,4.31,0,0,0,3-1.14l8.29,5.15a4.08,4.08,0,0,0-.28,1.42,6.25,6.25,0,0,0,.28,1.72ZM97.44,62.28a2.57,2.57,0,1,1,0-5.14A2.66,2.66,0,0,1,100,59.71a2.56,2.56,0,0,1-2.55,2.57Zm-1,14a1.12,1.12,0,0,0-1.11-1.14H93.87a1.15,1.15,0,0,0,0,2.29H95.3C96,77.29,96.44,76.86,96.44,76.29ZM84,80.87H82.58a1.14,1.14,0,0,0,0,2.28H84A1.12,1.12,0,0,0,85.15,82v0C85,81.3,84.58,80.87,84,80.87Z"/></g></svg>