<svg id="Layer_1" data-name="Layer 1" xmlns="http://www.w3.org/2000/svg" viewBox="0 0 150 150"><defs><style>.cls-1{opacity:0.5;}.cls-2{fill:#10a0de;}.cls-3{fill:#361181;}</style></defs><title>membership_universe</title><g id="Group_10823" data-name="Group 10823"><g id="Group_7763" data-name="Group 7763" class="cls-1"><circle id="Ellipse_179" data-name="Ellipse 179" class="cls-2" cx="73.45" cy="72.4" r="60"/></g><g id="Group_7764" data-name="Group 7764"><circle id="Ellipse_180" data-name="Ellipse 180" class="cls-2" cx="73.45" cy="72.4" r="45.63"/></g></g><path id="Path_10306" data-name="Path 10306" class="cls-3" d="M52.4,79A4.59,4.59,0,0,0,57,74.39a4.71,4.71,0,0,0-4.57-4.71,4.64,4.64,0,0,0,0,9.28Zm0-7.14a2.57,2.57,0,1,1-2.57,2.57h0A2.76,2.76,0,0,1,52.4,71.82Zm26-12.13a44.59,44.59,0,0,0-10.14,7.56C62,73.54,57.11,82,60.25,85.11a3.8,3.8,0,0,0,2.72,1c4,0,10.14-4,15.14-9l.57-.57a1.13,1.13,0,0,0,0-1.58,1.12,1.12,0,0,0-1.57,0h0l-.43.43c-7,7-13.42,9.42-14.85,8s.85-7.72,8-14.86,13.42-9.42,14.85-8a2.78,2.78,0,0,1,.43,1.86,1.07,1.07,0,1,0,2.14.14,3.83,3.83,0,0,0-1-3.57C85.11,58.25,82.82,57.4,78.39,59.69Zm4,5.71A4.6,4.6,0,0,0,77.82,70a4.71,4.71,0,0,0,4.57,4.57,4.57,4.57,0,1,0,0-9.14Zm0,7.14A2.57,2.57,0,1,1,85,70h0a2.56,2.56,0,0,1-2.56,2.56h0ZM97.39,48c-3.14-3.15-8.71-3.43-15.56-1-6.58,2.42-13.72,7.27-20,13.7-1.86,1.86-3.57,3.86-5.29,5.86A1.12,1.12,0,0,0,58.26,68a64.62,64.62,0,0,1,5.14-5.71c6.14-6.14,13-10.85,19.28-13.14,5.85-2.28,10.71-2,13.28.43s2.71,7.28.43,13.28C94.1,69.11,89.39,76,83.25,82.1S70.25,93,64,95.24c-6,2.29-10.71,2-13.28-.43S48,87.82,50.12,82A1.13,1.13,0,1,0,48,81.25c-2.43,6.56-2,12,1.14,15a10.1,10.1,0,0,0,7.29,2.57,24.49,24.49,0,0,0,8.28-1.72c6.57-2.43,13.71-7.28,20-13.71S95.82,70,98.39,63.4s2.14-12.15-1-15.43Z"/></svg>