<svg xmlns="http://www.w3.org/2000/svg" width="120" height="120" viewBox="0 0 120 120">
  <g id="Group_11375" data-name="Group 11375" transform="translate(-468 -282)">
    <g id="Group_11118" data-name="Group 11118" transform="translate(468 282)">
      <g id="Group_7763" data-name="Group 7763" transform="translate(0)" opacity="0.5">
        <ellipse id="Ellipse_179" data-name="Ellipse 179" cx="60" cy="60" rx="60" ry="60" fill="#19cbc5"/>
      </g>
      <g id="Group_7764" data-name="Group 7764" transform="translate(14.374 14.374)">
        <ellipse id="Ellipse_180" data-name="Ellipse 180" cx="45.626" cy="45.626" rx="45.626" ry="45.626" transform="translate(0)" fill="#19cbc5"/>
      </g>
    </g>
    <path id="Path_10673" data-name="Path 10673" d="M3.573,18.3A1.127,1.127,0,0,0,2.43,17.152H1A1.02,1.02,0,0,0,0,18.3a1.127,1.127,0,0,0,1.143,1.143H2.573A1.213,1.213,0,0,0,3.573,18.3ZM8.29,27.873H9.72a1.143,1.143,0,1,0,0-2.287H8.29a1.251,1.251,0,0,0-1.143,1.286A1.02,1.02,0,0,0,8.29,27.873ZM5,35.448A1.127,1.127,0,0,0,3.859,34.3H2.43a1.02,1.02,0,0,0-1,1.143,1.127,1.127,0,0,0,1.143,1.143H4A1.213,1.213,0,0,0,5,35.448ZM21.155,3.573h1.429A1.127,1.127,0,0,0,23.727,2.43a1.127,1.127,0,0,0-1.143-1.143H21.155a1.251,1.251,0,0,0-1.143,1.286A1.02,1.02,0,0,0,21.155,3.573ZM52.6,41.452H51.171a1.143,1.143,0,0,0,0,2.287H52.6A1.127,1.127,0,0,0,53.744,42.6C53.6,41.88,53.172,41.452,52.6,41.452Zm-.858-31.446a4.653,4.653,0,0,0-3.288,1.429l-8.147-5a3.626,3.626,0,0,0,.286-1.715A4.548,4.548,0,0,0,36.02,0a4.606,4.606,0,0,0-4.574,4.574,3.957,3.957,0,0,0,.429,1.858L18.582,13.579a4.751,4.751,0,0,0-4-2.144,4.7,4.7,0,0,0-4.574,4.574,4.7,4.7,0,0,0,4.574,4.574c.429,0,.858-.143,1.143-.143l4.145,8a4.653,4.653,0,0,0-1.429,3.288,4.6,4.6,0,0,0,1,2.859l-9.005,9.863c-.286,0-.858-.143-1.572-.143a4.574,4.574,0,1,0,0,9.148,4.7,4.7,0,0,0,4.574-4.574,4.341,4.341,0,0,0-1.143-3L21.3,36.02a3.957,3.957,0,0,0,1.858.429,4.606,4.606,0,0,0,4.574-4.574,2.791,2.791,0,0,0-.143-1L48.6,18.153a4.614,4.614,0,1,0,3.145-8.147ZM8.862,51.457a2.573,2.573,0,1,1,0-5.146,2.657,2.657,0,0,1,2.573,2.573A2.562,2.562,0,0,1,8.862,51.457ZM36.02,2.144a2.573,2.573,0,1,1-2.573,2.573A2.764,2.764,0,0,1,36.02,2.144ZM14.58,18.582a2.573,2.573,0,1,1,2.573-2.573A2.562,2.562,0,0,1,14.58,18.582ZM23.156,34.3a2.573,2.573,0,1,1,2.573-2.573A2.562,2.562,0,0,1,23.156,34.3Zm3.716-5.432A4.771,4.771,0,0,0,23.3,27.158a5.079,5.079,0,0,0-1.429.286l-4.145-7.862a4.566,4.566,0,0,0,1.572-3.43v-.429L33.161,8.147a4.613,4.613,0,0,0,3,1.143,4.341,4.341,0,0,0,3-1.143l8.29,5.146a4.229,4.229,0,0,0-.286,1.429,6.143,6.143,0,0,0,.286,1.715ZM51.743,17.152a2.573,2.573,0,0,1,0-5.146,2.657,2.657,0,0,1,2.573,2.573A2.562,2.562,0,0,1,51.743,17.152Zm-1,14.008A1.127,1.127,0,0,0,49.6,30.017H48.17a1.143,1.143,0,0,0,0,2.287H49.6C50.314,32.161,50.743,31.732,50.743,31.16ZM38.307,35.734H36.878a1.143,1.143,0,0,0,0,2.287h1.429a1.127,1.127,0,0,0,1.143-1.143C39.308,36.163,38.879,35.734,38.307,35.734Z" transform="translate(500.037 314.954)" fill="#361181"/>
  </g>
</svg>
