<svg id="Layer_1" data-name="Layer 1" xmlns="http://www.w3.org/2000/svg" viewBox="0 0 150 150"><defs><style>.cls-1{opacity:0.5;}.cls-2{fill:#eeec38;}.cls-3{fill:#361181;}</style></defs><title>membership_launch</title><g id="Group_10383" data-name="Group 10383"><g id="Group_7763" data-name="Group 7763" class="cls-1"><circle id="Ellipse_179" data-name="Ellipse 179" class="cls-2" cx="73.45" cy="72.4" r="60"/></g><g id="Group_7764" data-name="Group 7764"><circle id="Ellipse_180" data-name="Ellipse 180" class="cls-2" cx="73.45" cy="72.4" r="45.63"/></g></g><path id="Path_10304" data-name="Path 10304" class="cls-3" d="M74.68,47.23H73.2a1.05,1.05,0,0,0-1,1.06s0,.08,0,.12a1.14,1.14,0,0,0,1,1.18h1.47a1.17,1.17,0,0,0,1.19-1.15v0C75.71,47.82,75.27,47.23,74.68,47.23ZM97.88,95a8,8,0,0,0-4.58-4.14c-.59-.15-1-.3-1.63-.44A5.35,5.35,0,0,0,88,85.07a1.27,1.27,0,0,0-.74-.15,8.12,8.12,0,0,0-5.32-7.24,7.72,7.72,0,0,0-2.51-.45h0a1,1,0,0,0-1,1v0a1.14,1.14,0,0,0,1,1.18,7.63,7.63,0,0,1,1.77.3A5.71,5.71,0,0,1,85,85.66a1.09,1.09,0,0,0,.3.89.72.72,0,0,0,.89.3,3,3,0,0,1,1.18.15,3.17,3.17,0,0,1,2.07,3.84,1.28,1.28,0,0,0,.15,1,1,1,0,0,0,.89.45,10.31,10.31,0,0,1,2.21.3A5.78,5.78,0,0,1,96,95.57a5.4,5.4,0,0,1,.15,4.28,1.4,1.4,0,0,0,.59,1.48h.44a1.12,1.12,0,0,0,1-.74,6.85,6.85,0,0,0-.3-5.62ZM66.55,79.89a7.54,7.54,0,0,1,1.77-.3,1,1,0,0,0,1-1.06v-.12a1.14,1.14,0,0,0-1.19-1,7,7,0,0,0-2.51.44,8,8,0,0,0-5.17,7.09c-.3,0-.45.15-.74.15a5.6,5.6,0,0,0-3.7,5.32,3,3,0,0,0-1.63.44A7.92,7.92,0,0,0,49.85,95a7.82,7.82,0,0,0-.3,6.06,1.11,1.11,0,0,0,1,.74H51a1,1,0,0,0,.67-1.32,1.19,1.19,0,0,0-.08-.16A6.15,6.15,0,0,1,51.76,96a5.38,5.38,0,0,1,3.26-3,5.56,5.56,0,0,1,2.22-.3,1,1,0,0,0,.88-.44,1.2,1.2,0,0,0,.15-1,3.12,3.12,0,0,1,2.07-3.84,3,3,0,0,1,1.18-.15,2,2,0,0,0,.89-.3,2.14,2.14,0,0,0,.3-.89A6,6,0,0,1,66.55,79.89ZM76.9,86a4.81,4.81,0,0,0-5,1.63,5.33,5.33,0,0,0-1,2.07H70A7.45,7.45,0,0,0,62.41,97v0a1.18,1.18,0,1,0,2.36,0A5.21,5.21,0,0,1,70,91.87a5.15,5.15,0,0,1,1.7.29,1.13,1.13,0,0,0,1.18-.3,1,1,0,0,0,.3-1,1.8,1.8,0,0,1,.44-1.78,2.18,2.18,0,0,1,2.52-.88,2.34,2.34,0,0,1,1.62,2.07,1.19,1.19,0,0,0,2.37,0A5,5,0,0,0,76.9,86Zm-20-13.89H66.1V74a1.18,1.18,0,0,0,1.15,1.18H80.59A1.16,1.16,0,0,0,81.77,74v-2h9.16a1.16,1.16,0,0,0,1.18-1.15V66a5.87,5.87,0,0,0-2.66-4.88l-7.83-4.73V48a4.54,4.54,0,0,0-1-3l-5.32-6.95a1.81,1.81,0,0,0-2.55-.25,1.54,1.54,0,0,0-.26.25L67.14,45a5.46,5.46,0,0,0-1,3v8.27l-7.68,5a5.71,5.71,0,0,0-2.66,4.88V71a1.06,1.06,0,0,0,1.07,1ZM81.62,58.9,88.12,63a3.4,3.4,0,0,1,1.63,3v3.7H81.62ZM68.32,48a1.75,1.75,0,0,1,.59-1.48l5-6.5,5,6.5A3,3,0,0,1,79.55,48V66.89H68.32Zm0,21.13H79.41V73H68.32ZM58,66a3.4,3.4,0,0,1,1.62-3l6.5-4.14V69.84H58Z"/></svg>