<svg id="Layer_1" data-name="Layer 1" xmlns="http://www.w3.org/2000/svg" viewBox="0 0 150 150"><defs><style>.cls-1{opacity:0.5;}.cls-2{fill:#91e375;}.cls-3{fill:#361181;}</style></defs><title>membership_orbit</title><g id="Group_10822" data-name="Group 10822"><g id="Group_7763" data-name="Group 7763" class="cls-1"><circle id="Ellipse_179" data-name="Ellipse 179" class="cls-2" cx="73.45" cy="72.4" r="60"/></g><g id="Group_7764" data-name="Group 7764"><circle id="Ellipse_180" data-name="Ellipse 180" class="cls-2" cx="73.45" cy="72.4" r="45.63"/></g></g><path id="Path_10307" data-name="Path 10307" class="cls-3" d="M103.3,64.68l-6-6a1.13,1.13,0,0,0-1.6,0l-1.17,1.17L93.39,58.7l5.54-5.55a2.3,2.3,0,0,0,0-3.21l-3.07-3.06a2.28,2.28,0,0,0-3.21,0L87,52.28l-1.17-1.17L87,49.94a1.13,1.13,0,0,0,0-1.6l-6-6a1.15,1.15,0,0,0-1.6,0L75.44,46.3a1.93,1.93,0,0,0-.3.87,1.11,1.11,0,0,0,.3.73l6,6a1.06,1.06,0,0,0,1.46,0L84,52.72l1.32,1.16-2.19,2.19a2,2,0,0,0,0,2.78l3.5,3.5a1.9,1.9,0,0,0,1.46.58,2.15,2.15,0,0,0,1.46-.58l2.19-2.2,1.16,1.17-1.16,1.17a1.13,1.13,0,0,0,0,1.6l6,6a1.06,1.06,0,0,0,1.46,0l3.94-3.94a.89.89,0,0,0,.35-1.21A.82.82,0,0,0,103.3,64.68Zm-21-13.13L77.77,47l2.33-2.34,4.53,4.53Zm11.82-3.21h.15l3.06,3.07v.14l-1.75,1.76-3.21-3.22Zm-6,12.4-3.21-3.21,5.83-5.83L94,54.91Zm10.36,7.15-4.38-4.52,1.17-1.17L96.44,61,101,65.55ZM65.22,64A19.26,19.26,0,1,0,84.48,83.21h0A19.06,19.06,0,0,0,65.63,64ZM52.53,72l5.83,2.18A1.4,1.4,0,0,1,59,75.62l-1.17,4.09a3.54,3.54,0,0,0,2,4.08l2.77,1a1.1,1.1,0,0,1,.73,1l.59,7.73a2,2,0,0,1-.29.87c-.15.3-.44.3-.88.3H62A1.11,1.11,0,0,1,61,94l-2-4.67a3.67,3.67,0,0,0-3.21-2H54a1,1,0,0,1-.88-.43l-4.23-5.55A.76.76,0,0,0,48.3,81,16.8,16.8,0,0,1,52.53,72Zm12.69,28.45A17.15,17.15,0,0,1,48.15,84.09l3.07,4.08a3.09,3.09,0,0,0,2.62,1.31h1.75a1.1,1.1,0,0,1,1,.73l2,4.67a3.38,3.38,0,0,0,3.06,1.9h.73a4.07,4.07,0,0,0,2.48-1,3.93,3.93,0,0,0,.88-2.48l-.59-7.73A3.48,3.48,0,0,0,63,82.63l-2.48-1a1.12,1.12,0,0,1-.73-1.31L61,76.21a3.54,3.54,0,0,0-2-4.08l-4.82-1.9a16.73,16.73,0,0,1,11.09-4.09A16.08,16.08,0,0,1,75.29,69.5l-4.53,3.06A3.25,3.25,0,0,0,69.6,76.5L70.18,78A1.1,1.1,0,0,1,70,79.12l-2.48,3.07a3.38,3.38,0,0,0,3.31,5.41h0l5.55-1.46h.73l4.52,2A17.12,17.12,0,0,1,65.22,100.43ZM82.15,86l-4.09-1.75a3.8,3.8,0,0,0-2.19-.14l-5.54,1.46a1.05,1.05,0,0,1-1.3-.7v0a1.29,1.29,0,0,1,.14-1l2.48-3.06a3.44,3.44,0,0,0,.59-3.36l-.59-1.45a1.2,1.2,0,0,1,.44-1.32l5.11-3.5a17.47,17.47,0,0,1,5.4,12.4C82.44,84.23,82.29,85.11,82.15,86ZM81.71,60.3a1.15,1.15,0,0,0-1.6.13,1.14,1.14,0,0,0,0,1.47l3.64,3.65a1.06,1.06,0,0,0,1.46,0,1.13,1.13,0,0,0,0-1.6Z"/></svg>