<svg id="Layer_1" data-name="Layer 1" xmlns="http://www.w3.org/2000/svg" xmlns:xlink="http://www.w3.org/1999/xlink" viewBox="0 0 700 560"><defs><style>.cls-1{fill:none;}.cls-2{fill:#2d1159;}.cls-3{clip-path:url(#clip-path);}.cls-4{opacity:0.15;isolation:isolate;fill:url(#linear-gradient);}.cls-5{fill:#fff;}</style><clipPath id="clip-path"><path class="cls-1" d="M-1842.63,105.09S-1601.32,25.19-1345.1,38-673,169-278.43,160.05s565-75,806.41-84,442.88,0,442.88,0,183.55,157.32,0,369.73-438.8,133.59-747.3,140.77S-60.89,653-467.09,657.71s-794,29.27-1028,146.84-347.57,353.8-347.57,353.8Z"/></clipPath><linearGradient id="linear-gradient" x1="0.38" y1="560.11" x2="0.38" y2="561.97" gradientTransform="matrix(1175.6, -706.37, -557.48, -927.8, 311729.89, 521493.75)" gradientUnits="userSpaceOnUse"><stop offset="0" stop-color="#e19ff1"/><stop offset="0.09" stop-color="#eba7e8"/><stop offset="0.23" stop-color="#764ce8"/><stop offset="0.29" stop-color="#4d06ed"/><stop offset="0.57" stop-color="#f197f1"/><stop offset="0.61" stop-color="#cb90f6"/><stop offset="0.78" stop-color="#e584f2"/><stop offset="1" stop-color="#784b6a"/></linearGradient></defs><title>mobile_nav_bg</title><g id="Group_10753" data-name="Group 10753"><g id="Group_10412" data-name="Group 10412"><path id="Path_5236" data-name="Path 5236" class="cls-2" d="M-1853.12,51.71s47.88-74.79,497.71-65,619.18,171.74,966.17,168.78S189.78,23.7,520.22,4.06,966,89.45,966,89.45V429.74S941.94,621.21,468.44,591.1-58,651.44-464.32,656s-794.3,30.19-1028.36,144-347.7,355.43-347.7,355.43Z"/><g class="cls-3"><g id="Mask_Group_36" data-name="Mask Group 36"><g id="Group_7912" data-name="Group 7912"><path id="Path_4581" data-name="Path 4581" class="cls-4" d="M825.43,919.15l239.31-37.7-2257,1362.34L-2269.41,459.65c311.22-25,636.14,64.07,988.77,85.4,322.44,19.52,641.87-159,1055.82-98.17C212.06,491.33,569.86,817.52,825.43,919.15Z"/></g></g></g><g id="Group_10382" data-name="Group 10382"><path id="Path_5084-2" data-name="Path 5084-2" class="cls-5" d="M490,333.76s-.77,5.39.7,8.25c1.38,2.39,6.34,3.94,6.34,3.94a14.86,14.86,0,0,0-7.46.24c-2.8,1.27-4.73,6.8-4.73,6.8s1.19-5.28-.29-8.14c-1.22-2.12-6.55-4-6.55-4s5.55,1,7.67-.18C488.47,338.72,490,333.76,490,333.76Z"/><path id="Path_5085-2" data-name="Path 5085-2" class="cls-5" d="M430.58,379.91c-1.53-2.66-.7-8.26-.7-8.26s-1.61,5.17-4.26,6.7A7.8,7.8,0,0,1,423,379l-.5,1.88a5.25,5.25,0,0,1,2,1.87c1.47,2.87.28,8.15.28,8.15s1.94-5.54,4.74-6.8a14.74,14.74,0,0,1,7.46-.24S432,382.29,430.58,379.91Z"/><path id="Path_5097-2" data-name="Path 5097-2" class="cls-5" d="M566.46,118.9s-.76,4.5.67,6.68c1.07,1.86,5.2,3.19,5.2,3.19a12.81,12.81,0,0,0-6.09.16c-2.28,1-3.93,5.45-3.93,5.45a12.63,12.63,0,0,0-.26-6.57c-.86-1.8-5.4-3.25-5.4-3.25s4.71.82,6.36-.31C565.13,123,566.46,118.9,566.46,118.9Z"/><path id="Path_5098-2" data-name="Path 5098-2" class="cls-5" d="M642.69,200.75s-.76,4.51.67,6.68c1.07,1.86,5.2,3.19,5.2,3.19a13,13,0,0,0-6.1.16c-2.27,1-3.92,5.45-3.92,5.45a12.74,12.74,0,0,0-.26-6.57c-.86-1.8-5.41-3.24-5.41-3.24s4.72.81,6.36-.32C641.36,204.88,642.69,200.75,642.69,200.75Z"/><path id="Path_5099-2" data-name="Path 5099-2" class="cls-5" d="M652.39,152a10.19,10.19,0,0,0,.86,5.16,9.06,9.06,0,0,0,4.37,2.07,9.36,9.36,0,0,0-4.63.55c-1.8.86-2.6,4.68-2.6,4.68a9.3,9.3,0,0,0-.65-5.1c-.77-1.33-4.59-2.13-4.59-2.13s3.72.33,4.9-.7A8.76,8.76,0,0,0,652.39,152Z"/><path id="Path_5100-2" data-name="Path 5100-2" class="cls-5" d="M596.85,160.22a10.27,10.27,0,0,0,.85,5.16,9.13,9.13,0,0,0,4.38,2.07,9.36,9.36,0,0,0-4.63.55c-1.8.87-2.61,4.69-2.61,4.69a9.23,9.23,0,0,0-.64-5.11c-.77-1.32-4.59-2.12-4.59-2.12s3.72.32,4.9-.71A11.28,11.28,0,0,0,596.85,160.22Z"/></g></g></g></svg>