<svg id="Layer_1" data-name="Layer 1" xmlns="http://www.w3.org/2000/svg" xmlns:xlink="http://www.w3.org/1999/xlink" viewBox="0 0 550 400"><defs><style>.cls-1{fill:none;}.cls-2{fill:#ccf04f;}.cls-3{fill:#f79459;}.cls-4{fill:#2b2b8e;}.cls-5{fill:#2d1159;}.cls-6{fill:#643189;}.cls-7{fill:#e8e2e3;}.cls-8{fill:#1aa5a0;}.cls-9{fill:#23cbc5;}.cls-10{clip-path:url(#clip-path);}.cls-11{fill:#fff;}.cls-12{fill:#bbbdbf;opacity:0.4;isolation:isolate;}</style><clipPath id="clip-path"><path class="cls-1" d="M526.81,198.15c8.08,31.16-28.17,34.59-36.48,67.94s-10.92,60.49-68.27,60-80.91-4.15-91.39-40.7,27.63-59.22,19.91-82-29.3-28-31.54-13.38-63.39-61.63-55.22-78.62S230.53,91.49,227.92,55,312.22-9.25,350.58,8.3,399.83,41,435.15,37.17s52.53-7.69,77.52,9.21S490.16,115.26,490.33,144,518.74,167,526.81,198.15Z"/></clipPath></defs><title>mybrand_graphic</title><g id="Group_11600" data-name="Group 11600"><g id="Group_11601" data-name="Group 11601"><g id="Group_11499" data-name="Group 11499"><path id="Path_12403" data-name="Path 12403" class="cls-2" d="M41,275c-9.68-4.83-16.11-11.26-14.37-14.38s11-1.75,20.65,3.05c.58.28,1.15.58,1.7.88l0,0c7.7,4.15,13,9.22,12.92,12.36a2.14,2.14,0,0,1-.26,1.13C59.91,281.14,50.67,279.76,41,275Z"/><path id="Path_12404" data-name="Path 12404" class="cls-3" d="M61.92,276.88c4.28-6.16,9.45-6,9.45-6a14.25,14.25,0,0,1-2.74-5.72c-3.2,3.24-7.94,4.49-11.32,5A46.3,46.3,0,0,0,49,264.52l0,0c-3.55-1-6.31-.91-7,.39-1.09,2,3,6,9,9.06C55.3,276.09,59.48,277.14,61.92,276.88Z"/></g></g><g id="Group_11602" data-name="Group 11602"><g id="Group_11499-2" data-name="Group 11499-2"><path id="Path_12403-2" data-name="Path 12403-2" class="cls-2" d="M72.2,354.31C62.44,359,53.41,360.07,52,356.78s5.39-9.74,15.12-14.4c.58-.28,1.17-.55,1.74-.79l0,0c8-3.52,15.25-4.53,17.7-2.57a2,2,0,0,1,.73.9C88.74,343.21,82,349.64,72.2,354.31Z"/><path id="Path_12404-2" data-name="Path 12404-2" class="cls-3" d="M86.61,339c-2.22-7.17,1.09-11.15,1.09-11.15a14.11,14.11,0,0,1-6.19-1.36c.59,4.52-1.35,9-3.05,12a46.42,46.42,0,0,0-9.54,3.09l0,0c-2.94,2.19-4.6,4.41-4,5.76.88,2.08,6.57,1.38,12.71-1.54C81.92,343.73,85.32,341.09,86.61,339Z"/></g></g><path id="Path_12444" data-name="Path 12444" class="cls-4" d="M55.4,266.27s30.7-52.07,36.24-66.89,87.89,6.75,87.89,6.75l44.62,26.13L175,240.14,110.85,228.2,74,279.05Z"/><path id="Path_12445" data-name="Path 12445" class="cls-4" d="M70.69,327.07s37.78-61.58,51.1-78c7.57-9.37,35.93-22.11,55.61-29.41,9-3.33,30,5.17,30,5.17l19.32,24.74s-3.77,11-24,14.1-58.52,6.61-58.52,6.61L95.05,337.41Z"/><g id="Group_11599" data-name="Group 11599"><path id="Path_12462" data-name="Path 12462" class="cls-5" d="M526.81,198.15c8.08,31.16-28.17,34.59-36.48,67.94s-10.92,60.49-68.27,60-80.91-4.15-91.39-40.7,27.63-59.22,19.91-82-29.3-28-31.54-13.38-63.39-61.63-55.22-78.62S230.53,91.49,227.92,55,312.22-9.25,350.58,8.3,399.83,41,435.15,37.17s52.53-7.69,77.52,9.21S490.16,115.26,490.33,144,518.74,167,526.81,198.15Z"/><path id="Path_12446" data-name="Path 12446" class="cls-5" d="M317.17,184.16c-4.87-9.45,8.68-11.1,11.58-17.37,5-10.8-6.17-20.29-7-30.09-1.45-17.4-10.69-22.43-18.15-23.61-1.52-8.24-13-6.52-17.89-10-18.06-12.78-20,12.8-27.73,12.46-23.86-1-7.26,19.19-12.74,25.2-14.34,15.75,13.08,27.65,28.58,28.16,2.12,12.68,15.08,11,18.84,28C297.26,217.69,326,201.35,317.17,184.16Z"/><g id="Group_11532" data-name="Group 11532"><g id="Group_11531" data-name="Group 11531"><g id="Group_11530" data-name="Group 11530"><g id="Group_11529" data-name="Group 11529"><g id="Group_11528" data-name="Group 11528"><g id="Group_11527" data-name="Group 11527"><g id="Group_11526" data-name="Group 11526"><path id="Path_12447" data-name="Path 12447" class="cls-6" d="M232.84,156.12c-5.79,4.14-53.34,50-53.34,50L226.59,249s31.25-32.39,45.91-50.88c9.3-11.73,1.39-30.74,8.49-37.4C262.41,143.8,252.91,141.76,232.84,156.12Z"/></g></g></g></g></g></g></g><g id="Group_11547" data-name="Group 11547"><g id="Group_11539" data-name="Group 11539"><g id="Group_11538" data-name="Group 11538"><g id="Group_11537" data-name="Group 11537"><g id="Group_11536" data-name="Group 11536"><g id="Group_11535" data-name="Group 11535"><g id="Group_11534" data-name="Group 11534"><g id="Group_11533" data-name="Group 11533"><path id="Path_12448" data-name="Path 12448" class="cls-3" d="M161.77,142.56c-1.29-2.55-6.88-4.45-8.56-3.24-.93.16-2,.11-3.42-1.3-1.75-1.69-5.25,7.37-4.71,8.45,2.82,5.53,13.27,9.72,14.89,10.33l6.47-4a16.75,16.75,0,0,1-2.76-5.17A27.37,27.37,0,0,0,161.77,142.56Z"/></g></g></g></g></g></g></g><g id="Group_11546" data-name="Group 11546"><g id="Group_11545" data-name="Group 11545"><g id="Group_11544" data-name="Group 11544"><g id="Group_11543" data-name="Group 11543"><g id="Group_11542" data-name="Group 11542"><g id="Group_11541" data-name="Group 11541"><g id="Group_11540" data-name="Group 11540"><path id="Path_12449" data-name="Path 12449" class="cls-3" d="M161.48,142.09a26.91,26.91,0,0,0-6.48-6.16c-3.05-1.93-4-3.64-4.65-3.28-2.08,1.18,2,4.77,3.73,6.91C155.17,139.9,162.3,143.24,161.48,142.09Z"/></g></g></g></g></g></g></g></g><g id="Group_11553" data-name="Group 11553"><g id="Group_11552" data-name="Group 11552"><g id="Group_11551" data-name="Group 11551"><g id="Group_11550" data-name="Group 11550"><g id="Group_11549" data-name="Group 11549"><g id="Group_11548" data-name="Group 11548"><path id="Path_12450" data-name="Path 12450" class="cls-6" d="M235.94,179.23c28.82-32.25,37.13-28.34,37.13-28.34-44.4-24.54-47.88-5.22-69.56,17.8S209.32,209,235.94,179.23Z"/></g></g></g></g></g></g><g id="Group_11559" data-name="Group 11559"><g id="Group_11558" data-name="Group 11558"><g id="Group_11557" data-name="Group 11557"><g id="Group_11556" data-name="Group 11556"><g id="Group_11555" data-name="Group 11555"><g id="Group_11554" data-name="Group 11554"><path id="Path_12451" data-name="Path 12451" class="cls-7" d="M208.06,175.19c-.17-.15-.32-.27-.18-.44a79.18,79.18,0,0,1,23.45-19.39.42.42,0,0,1,.54.23h0a.45.45,0,0,1-.22.6,77.72,77.72,0,0,0-23.09,19.09c-.15.19-.3.08-.48-.08Z"/></g></g></g></g></g></g><g id="Group_11561" data-name="Group 11561"><g id="Group_11560" data-name="Group 11560"><path id="Path_12452" data-name="Path 12452" class="cls-5" d="M220.23,176.6c-1.86-10,32-1.26,16.46-26-5.43-8.61,3.68-26.14-4-34.55-10.81-11.91-21,6.65-23.68-3.63C204.76,96,184.36,95.73,179.88,110c-6.51,20.7-12.5,18.53-7.94,23C185.28,146,220.23,176.6,220.23,176.6Z"/></g></g><g id="Group_11566" data-name="Group 11566"><g id="Group_11562" data-name="Group 11562"><path id="Path_12453" data-name="Path 12453" class="cls-8" d="M182.29,136.52c-8.83-7.31-18.53-14.92-22.57-20.56L176,112.09Z"/></g><g id="Group_11563" data-name="Group 11563"><path id="Path_12454" data-name="Path 12454" class="cls-8" d="M176.32,194l22.75,20.72c16.52-17.12,32.21-33.62,40.63-44.61L227.38,160l-10.44-10.59Z"/></g><g id="Group_11564" data-name="Group 11564"><path id="Path_12455" data-name="Path 12455" class="cls-9" d="M135.88,157.21,176.31,194c15.84-16.3,30.3-31.75,40.63-44.61-13-11.07-26.72-23.7-41-37.32-11.49,11.11-25.4,26.8-40.14,44A.78.78,0,0,0,135.88,157.21Z"/></g><g id="Group_11565" data-name="Group 11565"><path id="Path_12456" data-name="Path 12456" class="cls-9" d="M213.84,165.15a157.47,157.47,0,0,0,22.33,20.14c1.1-5.09,2.38-10.29,3.51-15.17l-22.74-20.71C215.76,155.16,214,159.82,213.84,165.15Z"/></g></g><g id="hand"><g id="Group_11568" data-name="Group 11568"><g id="Group_11567" data-name="Group 11567"><path id="Path_12457" data-name="Path 12457" class="cls-3" d="M151.37,137.28c3.19,4-.68,13.58-5.36,10.95a9.14,9.14,0,0,1-2.43-2C142.15,144.35,149.62,135.07,151.37,137.28Z"/></g></g></g><g id="Group_11575" data-name="Group 11575"><g id="Group_11574" data-name="Group 11574"><g id="Group_11573" data-name="Group 11573"><g id="Group_11572" data-name="Group 11572"><g id="Group_11571" data-name="Group 11571"><g id="Group_11570" data-name="Group 11570"><g id="Group_11569" data-name="Group 11569"><path id="Path_12458" data-name="Path 12458" class="cls-3" d="M199.17,184.06c-1.1-2.64-3.5-4.93-4-6.46-1.19-3.41-1.78-5.12-2.51-5.24-3-.47.94,8.08-.83,9.17-.94.08-3.08-1.85-4.43-3.37-1.61-1.82-1.61-2.27-4.17-5.6s-8.64.63-7.33,4.84a32.68,32.68,0,0,0,3.78,8.26c3.07,4.35,15.38,11.58,17,12.3l6-3.83s-.94-3.49-1.59-5.07C200.17,187.09,199.58,185.05,199.17,184.06Z"/></g></g></g></g></g></g></g><g id="Group_11581" data-name="Group 11581"><g id="Group_11580" data-name="Group 11580"><g id="Group_11579" data-name="Group 11579"><g id="Group_11578" data-name="Group 11578"><g id="Group_11577" data-name="Group 11577"><g id="Group_11576" data-name="Group 11576"><path id="Path_12459" data-name="Path 12459" class="cls-6" d="M193.26,198.41c11.08,10,48.26,31.73,54.32,36.13s41-32.73,46.12-46.14S272,152.1,272,152.1L246.5,198.44s-33.73-4.45-43.59-10.62C200.52,186.32,191.69,197,193.26,198.41Z"/></g></g></g></g></g></g><g id="Group_11598" data-name="Group 11598"><g id="Group_11597" data-name="Group 11597"><g id="Group_11588" data-name="Group 11588"><g id="Group_11587" data-name="Group 11587"><g id="Group_11586" data-name="Group 11586"><g id="Group_11585" data-name="Group 11585"><g id="Group_11584" data-name="Group 11584"><g id="Group_11583" data-name="Group 11583"><g id="Group_11582" data-name="Group 11582"><path id="Path_12460" data-name="Path 12460" class="cls-3" d="M291,145.13l-10.56,17.19c-5,4.32-20.92-5.93-16.44-13.23l7.48-7Z"/></g></g></g></g></g></g></g><g id="Group_11596" data-name="Group 11596"><g id="Group_11595" data-name="Group 11595"><g id="Group_11594" data-name="Group 11594"><g id="Group_11593" data-name="Group 11593"><g id="Group_11592" data-name="Group 11592"><g id="Group_11591" data-name="Group 11591"><g id="Group_11590" data-name="Group 11590"><g id="Group_11589" data-name="Group 11589"><path id="Path_12461" data-name="Path 12461" class="cls-3" d="M271.62,124.83a25.69,25.69,0,0,0-2.4,2.71,20.24,20.24,0,0,0-2.15,4.35c-1.4,3.59-3.6,10.45-.26,14.09,8,8.68,20.77,6.52,26.63-2.71,5.12-8.06,7-27.33,1.24-24.77-9,4-10.8-1.8-16.68.39-1.23.46-2.6,1.17-4.61,3.75C272.75,123.47,272.2,124.2,271.62,124.83Z"/></g></g></g></g></g></g></g></g></g></g><g class="cls-10"><g id="Mask_Group_127" data-name="Mask Group 127"><g id="Group_11723" data-name="Group 11723"><path id="Path_8916" data-name="Path 8916" class="cls-11" d="M272,157.21a3.78,3.78,0,0,1-.05-2.28,5.37,5.37,0,0,1,1.84-1.8,4.57,4.57,0,0,1-4.16.32,6.14,6.14,0,0,1-1.56-1.49,11.26,11.26,0,0,1,.36,3.11,6.29,6.29,0,0,1-1.75,3c.65-.19,1.17-.56,2-.87a2.31,2.31,0,0,1,1.58-.33,3,3,0,0,1,2.2,1.3A2.39,2.39,0,0,1,272,157.21Z"/><path id="Path_12383" data-name="Path 12383" class="cls-11" d="M398.3,22.53a3.81,3.81,0,0,1-.06-2.29,5.37,5.37,0,0,1,1.84-1.8,4.6,4.6,0,0,1-4.16.33,6.31,6.31,0,0,1-1.56-1.49,11.15,11.15,0,0,1,.37,3.1,6.27,6.27,0,0,1-1.75,3c.64-.19,1.16-.55,2-.86a2.26,2.26,0,0,1,1.58-.33,3,3,0,0,1,2.2,1.29A2.22,2.22,0,0,1,398.3,22.53Z"/><path id="Path_8918" data-name="Path 8918" class="cls-11" d="M285.72,92.57a3.78,3.78,0,0,1-.05-2.28,5.37,5.37,0,0,1,1.83-1.81,4.52,4.52,0,0,1-4.15.33,6,6,0,0,1-1.56-1.49,11.63,11.63,0,0,1,.36,3.1,6.27,6.27,0,0,1-1.75,3c.64-.19,1.16-.56,2-.87a2.27,2.27,0,0,1,1.57-.33,3,3,0,0,1,2.2,1.3A2.26,2.26,0,0,1,285.72,92.57Z"/><path id="Path_8920" data-name="Path 8920" class="cls-11" d="M310.23,146.12A3.5,3.5,0,0,0,312,142c-.56-3.74-6.35-2.78-7.45.06C303.35,145.52,307.62,147.18,310.23,146.12Z"/><path id="Path_8921" data-name="Path 8921" class="cls-11" d="M490.11,351.1c1.34-.67,2.48-2,1.86-3.62-1.18-2.79-4.06-2.84-6.12-.62-1,1.2.14,3.52,1.21,4.31A3.65,3.65,0,0,0,490.11,351.1Z"/><path id="Path_8922" data-name="Path 8922" class="cls-11" d="M199.14,92.07c-1.46-2.08-4.75.23-3.29,2.3S200.59,94.15,199.14,92.07Z"/><path id="Path_8923" data-name="Path 8923" class="cls-11" d="M366.2,147.09a2.22,2.22,0,1,0-3.64,2.55C364.14,151.89,367.78,149.34,366.2,147.09Z"/><path id="Path_12385" data-name="Path 12385" class="cls-11" d="M550.78,204.05a2.22,2.22,0,0,0-3.64,2.55C548.72,208.85,552.36,206.3,550.78,204.05Z"/><path id="Path_8924" data-name="Path 8924" class="cls-11" d="M213.46,46.64c-1.58.33-3.15.66-4.44,1a41,41,0,0,1,3.61,6.26c-1.37-1.53-2.66-3.13-3.87-4.78-.72,1.54-1.33,3.25-2.06,4.79.19-1.94,0-3.63.7-5.64-2,.86-3.61,1.49-5.58,2.35l4.85-3.39a48.74,48.74,0,0,0-3.85-4,14.11,14.11,0,0,1,4.82,2.82c.55-1.42,1.11-2.84,1.49-4.14a32.49,32.49,0,0,0-.19,4.52S212.4,46.61,213.46,46.64Z"/><path id="Path_8931" data-name="Path 8931" class="cls-11" d="M450.36,155.29A24.41,24.41,0,0,1,424,153.07a20.63,20.63,0,0,0,18.19,10.5,22.41,22.41,0,0,0,18.37-10.28,23.51,23.51,0,0,0,2-20A24.5,24.5,0,0,1,450.36,155.29Z"/><path id="Path_8932" data-name="Path 8932" class="cls-11" d="M340.72,49.28a1.27,1.27,0,1,0-.31,1.77,1.28,1.28,0,0,0,.31-1.77Z"/><path id="Path_12384" data-name="Path 12384" class="cls-11" d="M542.12,323.36a1.27,1.27,0,1,0-.31,1.77,1.28,1.28,0,0,0,.31-1.77Z"/><path id="Path_8933" data-name="Path 8933" class="cls-11" d="M441.18,66.46a1.27,1.27,0,1,0-2.08,1.46h0C439.9,69.42,442.15,67.85,441.18,66.46Z"/><path id="Path_12387" data-name="Path 12387" class="cls-11" d="M190.24,136.62a1.27,1.27,0,1,0-2.08,1.45h0C189,139.58,191.21,138,190.24,136.62Z"/><path id="Path_12382" data-name="Path 12382" class="cls-11" d="M482.26,189.5a1.27,1.27,0,0,0-2.08,1.46h0C481,192.47,483.23,190.89,482.26,189.5Z"/><path id="Path_8943" data-name="Path 8943" class="cls-11" d="M246.67,80.83a2.54,2.54,0,1,0-.62,3.53A2.55,2.55,0,0,0,246.67,80.83Z"/><path id="Path_8944" data-name="Path 8944" class="cls-11" d="M493.31,311.19a2.54,2.54,0,0,0-4.16,2.91h0a2.54,2.54,0,1,0,4.16-2.91Z"/><path id="Path_8950" data-name="Path 8950" class="cls-11" d="M345,213.1l-6.65,1.56a55.37,55.37,0,0,1,5.07,9.09c-1.87-2.3-3.86-4.78-5.73-7.08-1,2.25-2.06,4.79-3.07,7.05.35-2.83.05-5.46,1-8.18-3,1.3-5.23,2.11-8.19,3.41l7.27-5.09A53,53,0,0,0,329,208a18.24,18.24,0,0,1,7,4.13c.83-2.13,1.49-4.14,2.32-6.27a57.9,57.9,0,0,0-.26,6.63Z"/><path id="Path_8951" data-name="Path 8951" class="cls-11" d="M450.48,358.07a37.37,37.37,0,0,1-8.11-.51l2.34,10c-1.47-2.84-2.65-5.63-4.12-8.47-2.79,1.18-5.41,2.24-8.07,3.59,1.19-1.61,6-6.53,6-6.53s-3.76-5.37-4.84-6.17c1.53,0,7.24,3.71,7.24,3.71a26.18,26.18,0,0,1,4.3-4.56,46.13,46.13,0,0,0-2.2,6.44S449.06,357.52,450.48,358.07Z"/><path id="Path_8952" data-name="Path 8952" class="cls-11" d="M387.53,100.33a3.71,3.71,0,0,1,.05-2.87,8.28,8.28,0,0,1,2.36-2.17c-1.63.63-3.56,1.2-5.22.3a5.37,5.37,0,0,1-1.8-1.84,19,19,0,0,1,.5,4,7.08,7.08,0,0,1-2.2,3.86,10.32,10.32,0,0,0,2.32-1.11l1.93-.57a3.83,3.83,0,0,1,2.73,1.7A3.2,3.2,0,0,1,387.53,100.33Z"/><path id="Path_12386" data-name="Path 12386" class="cls-11" d="M389.46,231.82a3.74,3.74,0,0,1,.05-2.88,8.08,8.08,0,0,1,2.35-2.16c-1.62.62-3.55,1.19-5.21.29a5.34,5.34,0,0,1-1.8-1.83,18.83,18.83,0,0,1,.5,4,7.14,7.14,0,0,1-2.2,3.87,10.77,10.77,0,0,0,2.32-1.11l1.93-.58a3.85,3.85,0,0,1,2.73,1.7A3.05,3.05,0,0,1,389.46,231.82Z"/><path id="Path_8953" data-name="Path 8953" class="cls-11" d="M418.83,301.58c-1.33-1.91-4.45.28-3.12,2.18S420.17,303.48,418.83,301.58Z"/><path id="Path_12288" data-name="Path 12288" class="cls-11" d="M451.6,255c-.26-1.11-.59-2.69,0-3.64.5-1.13,2.06-2.22,3.1-3-2.15,1-4.71,1.75-6.74.33a8.79,8.79,0,0,1-2.46-2.4,14.41,14.41,0,0,1,.59,5.26,8.12,8.12,0,0,1-3,4.94,18.87,18.87,0,0,0,3.14-1.42,7.56,7.56,0,0,1,2.39-.64,5.3,5.3,0,0,1,3.57,2.15A7,7,0,0,1,451.6,255Z"/><path id="Path_12289" data-name="Path 12289" class="cls-11" d="M469.21,394.16a1.27,1.27,0,1,0-2.08,1.45h0a1.27,1.27,0,0,0,2.08-1.45Z"/><path id="Path_12290" data-name="Path 12290" class="cls-11" d="M228.72,116.74a1.27,1.27,0,1,0-2.07,1.46h0C227.44,119.7,229.7,118.13,228.72,116.74Z"/></g></g></g></g></g><ellipse id="Ellipse_655" data-name="Ellipse 655" class="cls-12" cx="243.36" cy="390.22" rx="73" ry="5.78"/></svg>