<svg xmlns="http://www.w3.org/2000/svg" xmlns:xlink="http://www.w3.org/1999/xlink" width="1440" height="400" viewBox="0 0 1440 400">
  <defs>
    <clipPath id="clip-path">
      <path id="Path_10354" data-name="Path 10354" d="M0,0H1440V374.011S1382.8,400,1251.7,400,1093.371,374.011,945,374.011s-157.943,16.63-330,16.63-211.688-39.605-360-39.605S0,374.011,0,374.011Z" transform="translate(0 180)" fill="#fff" stroke="#707070" stroke-width="1"/>
    </clipPath>
    <clipPath id="clip-path-2">
      <path id="Path_4845" data-name="Path 4845" d="M.141,41.948V1260.987c0,57.96-1.02,107.716,0,105.078H94.6c281.471-9.569,431.2-68.425,440.718-75.385,154.727-76.818,195.947,13.6,349.891-120.739,132.927-96.842,405.243,32.616,590.32-36.274,199.936-77.628,46.336-379.738,46.336-379.738s15.917-85.5-46.336-131.146c-77.892-71.019-268.308-53.883-327.513-127.793-80.523-91.353-100.868-142.809-477.341-136.3-78.666-75.763,144.054-159.062,85.681-253.431-12.276-19.811-21.17-41.094-28.059-63.314H85.446C38.346,41.948.141-16.012.141,41.948Z" transform="translate(0.313 -16.188)"/>
    </clipPath>
    <linearGradient id="linear-gradient" x1="1.511" y1="1.05" x2="0.584" y2="-0.045" gradientUnits="objectBoundingBox">
      <stop offset="0" stop-color="#27053e"/>
      <stop offset="0.494" stop-color="#160539"/>
      <stop offset="1" stop-color="#27053e"/>
    </linearGradient>
    <linearGradient id="linear-gradient-2" x1="1.046" y1="0.995" x2="1.046" y2="0.026" gradientUnits="objectBoundingBox">
      <stop offset="0" stop-color="#e19ff1"/>
      <stop offset="0.092" stop-color="#eba7e8"/>
      <stop offset="0.231" stop-color="#764ce8"/>
      <stop offset="0.287" stop-color="#4d06ed"/>
      <stop offset="0.57" stop-color="#f197f1"/>
      <stop offset="0.612" stop-color="#cb90f6"/>
      <stop offset="0.781" stop-color="#e584f2"/>
      <stop offset="1" stop-color="#784b6a"/>
    </linearGradient>
    <linearGradient id="linear-gradient-3" x1="1.478" y1="0.984" x2="1.478" y2="0.036" gradientUnits="objectBoundingBox">
      <stop offset="0" stop-color="#ead00a"/>
      <stop offset="0.191" stop-color="#4f0bd9"/>
      <stop offset="0.399" stop-color="#0b42d8"/>
      <stop offset="0.573" stop-color="#910fef"/>
      <stop offset="0.978" stop-color="#4f0bd9"/>
      <stop offset="1" stop-color="#662745"/>
    </linearGradient>
    <linearGradient id="linear-gradient-4" x1="0.5" x2="0.5" y2="1" gradientUnits="objectBoundingBox">
      <stop offset="0" stop-color="#c5fb00"/>
      <stop offset="0.626" stop-color="#f79459"/>
      <stop offset="0.911" stop-color="#0b42d8"/>
      <stop offset="1" stop-color="#04c7c7"/>
    </linearGradient>
  </defs>
  <g id="Group_12522" data-name="Group 12522" transform="translate(0 -180)">
    <g id="Mask_Group_49" data-name="Mask Group 49" clip-path="url(#clip-path)">
      <g id="Group_7779" data-name="Group 7779" transform="translate(-0.313 -473.345)" clip-path="url(#clip-path-2)">
        <g id="Group_7146" data-name="Group 7146" transform="translate(-23.979 17.119)">
          <rect id="Rectangle_1561" data-name="Rectangle 1561" width="1550.89" height="1398.406" fill="url(#linear-gradient)"/>
        </g>
        <g id="Group_7147" data-name="Group 7147" transform="translate(-241.856 408.857)">
          <path id="Path_4581" data-name="Path 4581" d="M1212.414,791.495l110.934,47.022L14.722,856.619,52.816.811c138.018,72.14,252.08,200.3,395.518,304.837,131.149,95.591,312.62,99.6,471.681,238.7C1093.019,682.117,1130.916,676.233,1212.414,791.495Z" transform="translate(0 162.32) rotate(-8)" opacity="0.15" fill="url(#linear-gradient-2)"/>
        </g>
        <g id="Group_7749" data-name="Group 7749" transform="translate(142.638 173.766)">
          <g id="Group_7744" data-name="Group 7744" transform="translate(9.179 3.497)" opacity="0.3">
            <path id="Path_10361" data-name="Path 10361" d="M71.056-.212c39.4.061,71.391,30,71.452,66.877s-31.831,66.718-71.233,66.658S-.116,103.32-.176,66.446,31.655-.272,71.056-.212Z" transform="translate(3.844 145.48) rotate(-91.372)" fill="#00e2da"/>
          </g>
          <g id="Group_7745" data-name="Group 7745" transform="translate(0 0)" opacity="0.3">
            <path id="Path_10362" data-name="Path 10362" d="M58.473-1.51c33.831.553,61.7,30.072,62.257,65.932S94.307,128.9,60.476,128.351-1.228,98.279-1.782,62.419,24.643-2.063,58.473-1.51Z" transform="matrix(-0.969, -0.247, 0.247, -0.969, 119.821, 152.283)" fill="#00e2da"/>
          </g>
          <g id="Group_7746" data-name="Group 7746" transform="translate(23.96 33.37)" opacity="0.3">
            <path id="Path_4831" data-name="Path 4831" d="M1016.374,187.71c12.151-28.913,40.585-26.771,52.736,14.858,8.768,30.386,57.621,3.079,45.471,32.126-12.151,28.913-43.968,41.9-71.15,28.913C1016.374,250.622,1004.224,216.623,1016.374,187.71Z" transform="translate(-1011.659 -168.299)" fill="#00e2da"/>
          </g>
          <g id="Group_7747" data-name="Group 7747" transform="translate(28.287 66.743)" opacity="0.3">
            <path id="Path_4832" data-name="Path 4832" d="M1029.64,204.3c7.516-17.937,29.312-14.457,40.961,13.252,8.518,20.212,44.093,6.024,36.577,23.827-7.516,17.937-30.94,24.094-52.36,13.787C1033.523,244.992,1022.25,222.1,1029.64,204.3Z" transform="translate(-1027.373 -193.231)" fill="#00e2da"/>
          </g>
          <g id="Group_7748" data-name="Group 7748" transform="translate(32.629 91.922)" opacity="0.3">
            <path id="Path_4833" data-name="Path 4833" d="M1040.982,217.206c4.008-9.638,20.167-5.756,30.815,11.378,7.766,12.449,32.443,7.362,28.435,17s-20.544,11.11-36.953,3.213C1046.87,241.033,1036.849,226.844,1040.982,217.206Z" transform="translate(-1040.051 -212.041)" fill="#00e2da"/>
          </g>
        </g>
        <g id="Group_7753" data-name="Group 7753" transform="translate(-31.359 120.775)">
          <g id="Group_7750" data-name="Group 7750" transform="translate(0 0)" opacity="0.3">
            <path id="Path_10363" data-name="Path 10363" d="M44.441-2.407C71.2-1.519,93.616,20.894,94.5,47.655S74.416,95.391,47.655,94.5-1.519,71.2-2.407,44.441,17.68-3.294,44.441-2.407Z" transform="translate(73.262 130.244) rotate(-135)" fill="#ffeb47"/>
          </g>
          <g id="Group_7751" data-name="Group 7751" transform="translate(19.408 12.014)" opacity="0.41">
            <path id="Path_10364" data-name="Path 10364" d="M41.3-.985c23.812.359,43.406,21.138,43.765,46.41S66.411,90.895,42.6,90.536-.807,69.4-1.166,44.125,17.487-1.344,41.3-.985Z" transform="translate(84.648 106.22) rotate(-166.914)" fill="#ffeb47"/>
          </g>
          <g id="Group_7752" data-name="Group 7752" transform="translate(33.207 21.595)" opacity="0.41">
            <path id="Path_4834" data-name="Path 4834" d="M1154.985,359.379c0-21.685,16.535-39.354,36.828-39.354a35.794,35.794,0,0,1,25.929,11.378c-6.514-10.709-17.913-17.8-30.815-17.8-20.293,0-36.828,17.669-36.828,39.354A40.288,40.288,0,0,0,1161,380.8,41.089,41.089,0,0,1,1154.985,359.379Z" transform="translate(-1150.1 -313.6)" fill="#ffeb47"/>
          </g>
        </g>
        <g id="Group_7778" data-name="Group 7778" transform="translate(-238.967 1021.402)">
          <g id="Group_7767" data-name="Group 7767" transform="translate(84.277 41.426)" opacity="0.05">
            <g id="Group_7766" data-name="Group 7766" transform="translate(0)">
              <ellipse id="Ellipse_181" data-name="Ellipse 181" cx="186.768" cy="199.581" rx="186.768" ry="199.581" fill="#833467"/>
            </g>
          </g>
          <g id="Group_7769" data-name="Group 7769" transform="translate(0 0)" opacity="0.1">
            <g id="Group_7768" data-name="Group 7768">
              <path id="Path_10365" data-name="Path 10365" d="M164.457-8.907C263.487-5.622,346.429,77.32,349.713,176.35S275.38,353,176.35,349.713-5.622,263.487-8.907,164.457,65.427-12.191,164.457-8.907Z" transform="translate(271.11 481.974) rotate(-135)" fill="#833467"/>
            </g>
          </g>
          <g id="Group_7771" data-name="Group 7771" transform="translate(107.724 66.406)" opacity="0.4">
            <g id="Group_7770" data-name="Group 7770">
              <path id="Path_4841" data-name="Path 4841" d="M1049.4,894.192c-83.05,37.614-178.876-3.748-214.076-92.5s3.507-191.148,86.557-228.762q6.389-2.811,12.777-5.22c75.534-26.638,158.333,9.236,195.412,84.464,2.129,4.283,4.008,8.7,5.887,13.252C1171.155,754.177,1132.448,856.577,1049.4,894.192Z" transform="translate(-822.319 -558.962)" fill="#833467"/>
            </g>
          </g>
          <g id="Group_7773" data-name="Group 7773" transform="translate(135.941 66.54)" opacity="0.4">
            <g id="Group_7772" data-name="Group 7772">
              <path id="Path_4842" data-name="Path 4842" d="M941.675,758.426h0c38.456,43.638,95.952,61.708,150.442,47.252h0c10.4-2.811,18.664-11.244,21.8-22.087a185.185,185.185,0,0,0-6.138-118.062c-1.754-4.551-3.758-8.968-5.887-13.252-36.953-75.228-119.877-111.1-195.411-84.464a128.116,128.116,0,0,0-12.777,5.22,163.826,163.826,0,0,0-58,44.307c-26.932,32.26-11.4,83.527,28.059,93.3C892.948,717.734,920.255,734.065,941.675,758.426Z" transform="translate(-822.229 -559.062)" fill="#833467"/>
            </g>
          </g>
          <g id="Group_7775" data-name="Group 7775" transform="translate(131.681 66.406)" opacity="0.4">
            <g id="Group_7774" data-name="Group 7774">
              <path id="Path_4843" data-name="Path 4843" d="M1087.355,713.484l21.921-12.85c11.65-6.827,16.66-21.953,11.524-34.937,0-.134,0-.134-.125-.268-1.754-4.551-3.758-8.968-5.887-13.252-36.953-75.228-119.877-111.1-195.411-84.464a128.214,128.214,0,0,0-12.777,5.221,165.7,165.7,0,0,0-71.024,62.11c-12.652,19.811,2.63,46.315,24.8,43.236l54.74-7.63A72.214,72.214,0,0,1,964.1,681.492l47.725,30.519A72.064,72.064,0,0,0,1087.355,713.484Z" transform="translate(-830.995 -558.962)" fill="#833467"/>
            </g>
          </g>
          <g id="Group_7777" data-name="Group 7777" transform="translate(220.188 66.54)" opacity="0.4">
            <g id="Group_7776" data-name="Group 7776">
              <path id="Path_4844" data-name="Path 4844" d="M1032.711,652.278c-75.534,26.638-158.333-9.236-195.411-84.464C912.834,541.176,995.633,577.05,1032.711,652.278Z" transform="translate(-837.3 -559.062)" fill="#833467"/>
            </g>
          </g>
        </g>
        <g id="Group_10851" data-name="Group 10851" transform="translate(-178.507 849.689) rotate(-1)" style="mix-blend-mode: multiply;isolation: isolate">
          <path id="Path_4582" data-name="Path 4582" d="M1213.165,554.719,1.213,556.169,1.836,0C107.4,28.254,245.108,166.468,550.148,145.788,899.3,171.7,981.986,386.874,1213.165,554.719Z" transform="translate(0 0)" fill="url(#linear-gradient-3)"/>
        </g>
      </g>
      <g id="Group_10850" data-name="Group 10850" transform="translate(2295.041 173.266) rotate(135)">
        <path id="Path_5084" data-name="Path 5084" d="M7.182,14.679s.592-3.882,2.2-5.634c1.438-1.438,5.155-1.716,5.155-1.716s-3.4-.042-5.052-1.377S7.654.45,7.654.45,7.371,4.322,5.768,6.074C4.49,7.353.459,7.8.459,7.8s4.011.176,5.207,1.372C7.151,10.972,7.182,14.679,7.182,14.679Z" transform="translate(36.987 158.991)" fill="#fff"/>
        <path id="Path_5085" data-name="Path 5085" d="M5.872,8.838c-1.6,1.6-2.2,5.634-2.2,5.634s-.026-3.861-1.522-5.357a5.093,5.093,0,0,0-1.67-.872L.531,6.853a4,4,0,0,0,1.732-.984C3.866,4.116,4.149.244,4.149.244s.171,4.166,1.826,5.5,5.052,1.377,5.052,1.377S7.31,7.4,5.872,8.838Z" transform="translate(7.239 123.068)" fill="#fff"/>
        <path id="Path_5086" data-name="Path 5086" d="M5.9,11.814s.417-3.258,1.85-4.542C8.871,6.154,11.969,5.9,11.969,5.9S9.19,5.835,7.834,4.8,6.282.37,6.282.37,6.024,3.468,4.741,4.9C3.777,6.014.37,6.282.37,6.282s3.392.2,4.284,1.248C5.85,8.726,5.9,11.814,5.9,11.814Z" transform="translate(667.109 648.806)" fill="#fff"/>
        <path id="Path_5087" data-name="Path 5087" d="M5.9,11.814s.417-3.258,1.85-4.541C8.871,6.154,11.969,5.9,11.969,5.9S9.19,5.835,7.834,4.8,6.282.37,6.282.37,6.024,3.468,4.741,4.9C3.777,6.014.37,6.282.37,6.282s3.392.2,4.284,1.248C5.85,8.726,5.9,11.814,5.9,11.814Z" transform="translate(882.159 378.579)" fill="#fff"/>
        <path id="Path_5088" data-name="Path 5088" d="M4.122,9.316s.546-2.49,1.659-3.454C6.735,5.058,9.2,5.13,9.2,5.13A6.331,6.331,0,0,1,6.152,4C5.1,3.1,5.347.315,5.347.315S4.956,2.8,3.842,3.763c-.8.8-3.578.737-3.578.737s2.614.377,3.2,1.284C4.358,6.836,4.122,9.316,4.122,9.316Z" transform="translate(775.789 674.795)" fill="#fff"/>
        <path id="Path_5089" data-name="Path 5089" d="M4.122,9.316s.546-2.49,1.66-3.454C6.735,5.058,9.2,5.13,9.2,5.13A6.331,6.331,0,0,1,6.152,4C5.1,3.1,5.347.315,5.347.315S4.956,2.8,3.842,3.763c-.8.8-3.578.737-3.578.737s2.614.377,3.2,1.284C4.353,6.991,4.122,9.316,4.122,9.316Z" transform="translate(784.959 514.749)" fill="#fff"/>
        <path id="Path_5091" data-name="Path 5091" d="M5.9,11.814s.417-3.258,1.85-4.542C8.871,6.154,11.969,5.9,11.969,5.9S9.19,5.835,7.834,4.8,6.282.37,6.282.37,6.024,3.468,4.741,4.9C3.777,6.014.37,6.282.37,6.282s3.392.2,4.284,1.248C5.855,8.572,5.9,11.814,5.9,11.814Z" transform="translate(677.674 355.553)" fill="#fff"/>
        <path id="Path_5093" data-name="Path 5093" d="M5.9,11.814s.417-3.258,1.85-4.541C8.871,6.154,11.969,5.9,11.969,5.9S9.19,5.835,7.834,4.8,6.282.37,6.282.37,6.024,3.468,4.741,4.9C3.777,6.014.37,6.282.37,6.282s3.392.2,4.284,1.248C5.85,8.726,5.9,11.814,5.9,11.814Z" transform="translate(577.882 78.457)" fill="#fff"/>
        <path id="Path_5094" data-name="Path 5094" d="M5.9,11.814s.417-3.258,1.85-4.541C8.871,6.154,11.969,5.9,11.969,5.9S9.19,5.835,7.834,4.8,6.282.37,6.282.37,6.024,3.468,4.741,4.9C3.777,6.014.37,6.282.37,6.282s3.392.2,4.284,1.248C5.85,8.726,5.9,11.814,5.9,11.814Z" transform="translate(537.26 31.604)" fill="#fff"/>
        <path id="Path_5095" data-name="Path 5095" d="M4.122,9.315s.546-2.49,1.659-3.454C6.735,5.058,9.2,5.13,9.2,5.13A6.332,6.332,0,0,1,6.152,4C5.1,3.1,5.347.315,5.347.315S4.956,2.8,3.842,3.763c-.8.8-3.578.737-3.578.737s2.614.377,3.2,1.284C4.358,6.836,4.122,9.315,4.122,9.315Z" transform="translate(535.546 69.596)" fill="#fff"/>
        <path id="Path_5096" data-name="Path 5096" d="M4.122,9.316s.546-2.49,1.659-3.454C6.735,5.058,9.2,5.13,9.2,5.13A6.332,6.332,0,0,1,6.152,4C5.1,3.1,5.347.315,5.347.315S4.956,2.8,3.842,3.763c-.8.8-3.578.737-3.578.737s2.614.377,3.2,1.284C4.2,6.841,4.122,9.316,4.122,9.316Z" transform="translate(499.266 54.887)" fill="#fff"/>
        <path id="Path_5097" data-name="Path 5097" d="M5.9,11.814s.417-3.258,1.85-4.542C8.871,6.154,11.969,5.9,11.969,5.9S9.19,5.835,7.834,4.8,6.282.37,6.282.37,6.024,3.468,4.741,4.9C3.777,6.014.37,6.282.37,6.282s3.392.2,4.284,1.248C5.85,8.726,5.9,11.814,5.9,11.814Z" transform="translate(45.873 323.817)" fill="#fff"/>
        <path id="Path_5098" data-name="Path 5098" d="M5.9,11.814s.417-3.258,1.85-4.541C8.871,6.154,11.969,5.9,11.969,5.9S9.19,5.835,7.834,4.8,6.282.37,6.282.37,6.024,3.468,4.741,4.9C3.777,6.014.37,6.282.37,6.282s3.392.2,4.284,1.248C5.85,8.726,5.9,11.814,5.9,11.814Z" transform="translate(115.019 279.194)" fill="#fff"/>
        <path id="Path_5099" data-name="Path 5099" d="M4.122,9.316s.546-2.49,1.659-3.454C6.735,5.058,9.2,5.13,9.2,5.13A6.332,6.332,0,0,1,6.152,4C5.1,3.1,5.347.315,5.347.315S4.956,2.8,3.842,3.763c-.8.8-3.578.737-3.578.737s2.614.377,3.2,1.284C4.358,6.836,4.122,9.316,4.122,9.316Z" transform="translate(113.305 317.186)" fill="#fff"/>
        <path id="Path_5100" data-name="Path 5100" d="M4.122,9.316s.546-2.49,1.659-3.454C6.735,5.058,9.2,5.13,9.2,5.13A6.332,6.332,0,0,1,6.152,4C5.1,3.1,5.347.315,5.347.315S4.956,2.8,3.842,3.763c-.8.8-3.578.737-3.578.737s2.614.377,3.2,1.284C4.2,6.841,4.122,9.316,4.122,9.316Z" transform="translate(77.024 302.477)" fill="#fff"/>
        <path id="Path_5101" data-name="Path 5101" d="M6.706,6.96A6.389,6.389,0,0,1,5.586,3.444c.2-1.242,1.953-3,1.953-3A8.893,8.893,0,0,1,4.4,1.938C3.008,1.984,1.214.19,1.214.19s1.48,1.959,1.279,3.356C2.458,4.629.385,6.551.385,6.551S2.6,4.933,3.679,5.052A7.785,7.785,0,0,1,6.706,6.96Z" transform="translate(1008.63 477.313)" fill="#fff"/>
        <path id="Path_5102" data-name="Path 5102" d="M6.706,6.96A6.388,6.388,0,0,1,5.586,3.444c.2-1.242,1.953-3,1.953-3A8.893,8.893,0,0,1,4.4,1.938C3.009,1.984,1.214.19,1.214.19s1.48,1.959,1.279,3.356C2.458,4.629.385,6.551.385,6.551S2.6,4.933,3.679,5.052C5.221,5.155,6.706,6.96,6.706,6.96Z" transform="translate(991.366 452.859)" fill="#fff"/>
        <path id="Path_5103" data-name="Path 5103" d="M6.706,6.96A6.388,6.388,0,0,1,5.586,3.444c.2-1.242,1.953-3,1.953-3A8.894,8.894,0,0,1,4.4,1.938C3.009,1.984,1.214.19,1.214.19s1.48,1.959,1.279,3.356C2.457,4.629.385,6.551.385,6.551S2.6,4.933,3.679,5.052C5.221,5.155,6.706,6.96,6.706,6.96Z" transform="translate(913.395 349.002)" fill="#fff"/>
        <path id="Path_5104" data-name="Path 5104" d="M10.635,10.783S8.578,7.607,8.81,5.282C9.031,3.267,11.9.7,11.9.7S9.046,2.8,6.876,3.029C4.711,3.1,1.87.26,1.87.26S4.087,3.276,3.855,5.6C3.644,7.308.608,10.344.608,10.344S4.088,7.911,5.784,8.009C8.253,8.082,10.635,10.783,10.635,10.783Z" transform="translate(839.208 493.191)" fill="#fff"/>
        <path id="Path_5105" data-name="Path 5105" d="M4.122,9.316s.546-2.49,1.659-3.454C6.735,5.058,9.2,5.13,9.2,5.13A6.332,6.332,0,0,1,6.152,4C5.1,3.1,5.347.315,5.347.315S4.956,2.8,3.842,3.763c-.8.8-3.578.737-3.578.737s2.614.377,3.2,1.284C4.2,6.841,4.122,9.316,4.122,9.316Z" transform="translate(647.587 343.342)" fill="#fff"/>
        <path id="Path_5106" data-name="Path 5106" d="M4.122,9.316s.546-2.49,1.659-3.454C6.735,5.058,9.2,5.13,9.2,5.13A6.332,6.332,0,0,1,6.152,4C5.1,3.1,5.347.315,5.347.315S4.956,2.8,3.842,3.763c-.8.8-3.578.737-3.578.737s2.614.377,3.2,1.284C4.358,6.836,4.122,9.316,4.122,9.316Z" transform="translate(395.522 523.184)" fill="#fff"/>
        <path id="Path_5107" data-name="Path 5107" d="M4.122,9.316s.546-2.49,1.659-3.454C6.735,5.058,9.2,5.13,9.2,5.13A6.331,6.331,0,0,1,6.152,4C5.1,3.1,5.347.315,5.347.315S4.956,2.8,3.842,3.763c-.8.8-3.578.737-3.578.737s2.614.377,3.2,1.284C4.358,6.836,4.122,9.316,4.122,9.316Z" transform="translate(451.416 524.111)" fill="#fff"/>
        <path id="Path_5108" data-name="Path 5108" d="M4.122,9.316s.546-2.49,1.659-3.454C6.735,5.058,9.2,5.13,9.2,5.13A6.331,6.331,0,0,1,6.152,4C5.1,3.1,5.347.315,5.347.315S4.956,2.8,3.842,3.763c-.8.8-3.578.737-3.578.737s2.614.377,3.2,1.284A8.068,8.068,0,0,1,4.122,9.316Z" transform="translate(751.881 627.078)" fill="#fff"/>
        <path id="Path_5109" data-name="Path 5109" d="M6.5,14.612s.9-3.892,2.649-5.34c1.588-1.289,5.294-1.257,5.294-1.257s-3.387-.351-4.882-1.846S8.36.492,8.36.492,7.613,4.379,5.866,5.827C4.433,7.111.417,7.089.417,7.089s4,.64,5.032,2C6.779,10.895,6.5,14.612,6.5,14.612Z" transform="translate(396.744 567.668)" fill="#fff"/>
        <path id="Path_5110" data-name="Path 5110" d="M6.5,14.612s.9-3.892,2.649-5.34c1.588-1.289,5.294-1.257,5.294-1.257s-3.387-.351-4.882-1.846S8.36.492,8.36.492,7.613,4.379,5.866,5.827C4.433,7.111.417,7.089.417,7.089s4,.64,5.032,2C6.779,10.895,6.5,14.612,6.5,14.612Z" transform="translate(755.135 493.833)" fill="#fff"/>
        <path id="Path_5111" data-name="Path 5111" d="M10.636,10.783S8.578,7.607,8.81,5.282C9.031,3.267,11.9.7,11.9.7S9.046,2.8,6.876,3.029C4.711,3.1,1.87.26,1.87.26S4.087,3.276,3.855,5.6C3.644,7.308.608,10.344.608,10.344S4.088,7.911,5.784,8.009C8.1,8.087,10.636,10.783,10.636,10.783Z" transform="translate(415.187 612.769)" fill="#fff"/>
      </g>
      <g id="Group_7872" data-name="Group 7872" transform="translate(-780.11 379.77) rotate(-21)">
        <path id="Path_5084-2" data-name="Path 5084" d="M7.179.271s.362,3.905,1.816,5.594c1.311,1.379,4.886,1.454,4.886,1.454S10.6,7.551,8.927,9s-2.06,5.682-2.06,5.682-.064-3.912-1.518-5.6C4.183,7.853.314,7.628.314,7.628s3.883-.4,5.1-1.682C6.948,4.033,7.179.271,7.179.271Z" transform="translate(56.487 588.712)" fill="#ffe6f7"/>
        <path id="Path_5085-2" data-name="Path 5085" d="M5.6,5.737C4.14,4.2,3.781.143,3.781.143S3.547,4.061,2.022,5.662a5.582,5.582,0,0,1-1.66.977L.331,8.048a3.317,3.317,0,0,1,1.62.9c1.454,1.689,1.518,5.6,1.518,5.6s.39-4.236,2.06-5.682,4.954-1.678,4.954-1.678S6.908,7.116,5.6,5.737Z" transform="translate(25.821 627.342)" fill="#ffe6f7"/>
        <path id="Path_5086-2" data-name="Path 5086" d="M5.894.222s.227,3.282,1.542,4.5c1.02,1.073,4,1.161,4,1.161A8.845,8.845,0,0,0,7.382,7.233C6.016,8.36,5.643,11.812,5.643,11.812S5.562,8.683,4.4,7.3C3.529,6.225.253,6.143.253,6.143s3.287-.388,4.2-1.5C5.678,3.358,5.894.222,5.894.222Z" transform="translate(691.356 59.786)" fill="#ffe6f7"/>
        <path id="Path_5087-2" data-name="Path 5087" d="M5.895.222s.227,3.282,1.542,4.5c1.02,1.073,4,1.161,4,1.161A8.845,8.845,0,0,0,7.382,7.233C6.016,8.36,5.644,11.812,5.644,11.812S5.562,8.683,4.4,7.3C3.529,6.225.253,6.143.253,6.143s3.287-.388,4.2-1.5C5.678,3.358,5.895.222,5.895.222Z" transform="translate(884.46 321.987)" fill="#ffe6f7"/>
        <path id="Path_5088-2" data-name="Path 5088" d="M4.2.158s.393,2.5,1.416,3.412c.878.763,3.266.552,3.266.552A6.6,6.6,0,0,0,5.875,5.443C4.811,6.406,4.9,9.222,4.9,9.222s-.244-2.5-1.267-3.415C2.9,5.041.216,5.258.216,5.258s2.545-.528,3.161-1.481C4.3,2.661,4.2.158,4.2.158Z" transform="translate(797.556 30.077)" fill="#ffe6f7"/>
        <path id="Path_5089-2" data-name="Path 5089" d="M4.2.158s.393,2.5,1.416,3.412c.877.763,3.266.552,3.266.552A6.6,6.6,0,0,0,5.875,5.443C4.811,6.406,4.9,9.222,4.9,9.222s-.244-2.5-1.267-3.415C2.9,5.041.216,5.258.216,5.258s2.545-.528,3.161-1.481A6.954,6.954,0,0,0,4.2.158Z" transform="translate(797.776 191.938)" fill="#ffe6f7"/>
        <path id="Path_5093-2" data-name="Path 5093" d="M5.894.222s.227,3.282,1.542,4.5c1.02,1.073,4,1.161,4,1.161A8.845,8.845,0,0,0,7.382,7.233C6.016,8.36,5.643,11.812,5.643,11.812S5.562,8.683,4.4,7.3C3.529,6.225.253,6.143.253,6.143s3.287-.388,4.2-1.5C5.678,3.358,5.894.222,5.894.222Z" transform="translate(574.408 643.38)" fill="#ffe6f7"/>
        <path id="Path_5094-2" data-name="Path 5094" d="M5.894.222s.227,3.282,1.542,4.5c1.02,1.073,4,1.161,4,1.161A8.845,8.845,0,0,0,7.382,7.233C6.016,8.36,5.643,11.812,5.643,11.812S5.562,8.683,4.4,7.3C3.529,6.225.253,6.143.253,6.143s3.287-.388,4.2-1.5C5.678,3.358,5.894.222,5.894.222Z" transform="translate(532.649 693.172)" fill="#ffe6f7"/>
        <path id="Path_5095-2" data-name="Path 5095" d="M4.2.158s.393,2.5,1.416,3.412c.878.763,3.266.552,3.266.552A6.6,6.6,0,0,0,5.875,5.443C4.811,6.406,4.9,9.222,4.9,9.222s-.244-2.5-1.267-3.415C2.9,5.041.216,5.258.216,5.258s2.545-.527,3.161-1.481C4.3,2.661,4.2.158,4.2.158Z" transform="translate(532.883 657.42)" fill="#ffe6f7"/>
        <path id="Path_5096-2" data-name="Path 5096" d="M4.2.158s.393,2.5,1.416,3.412c.878.763,3.266.552,3.266.552A6.6,6.6,0,0,0,5.875,5.443C4.811,6.406,4.9,9.222,4.9,9.222s-.244-2.5-1.267-3.415C2.9,5.041.216,5.258.216,5.258s2.545-.527,3.161-1.481A8.649,8.649,0,0,0,4.2.158Z" transform="translate(497.051 674.36)" fill="#ffe6f7"/>
        <path id="Path_5097-2" data-name="Path 5097" d="M5.895.222s.227,3.282,1.542,4.5c1.02,1.073,4,1.161,4,1.161A8.845,8.845,0,0,0,7.382,7.233C6.016,8.36,5.644,11.812,5.644,11.812S5.562,8.683,4.4,7.3C3.529,6.225.253,6.143.253,6.143s3.287-.388,4.2-1.5C5.678,3.358,5.895.222,5.895.222Z" transform="translate(73.856 424.024)" fill="#ffe6f7"/>
        <path id="Path_5098-2" data-name="Path 5098" d="M5.895.222s.227,3.282,1.542,4.5c1.02,1.073,4,1.161,4,1.161A8.844,8.844,0,0,0,7.382,7.233C6.016,8.36,5.644,11.812,5.644,11.812S5.562,8.683,4.4,7.3C3.529,6.225.253,6.143.253,6.143s3.287-.388,4.2-1.5C5.678,3.358,5.895.222,5.895.222Z" transform="translate(138.226 465.452)" fill="#ffe6f7"/>
        <path id="Path_5099-2" data-name="Path 5099" d="M4.2.158s.393,2.5,1.416,3.412c.878.763,3.266.552,3.266.552A6.6,6.6,0,0,0,5.875,5.443C4.811,6.406,4.9,9.222,4.9,9.222s-.244-2.5-1.267-3.415C2.9,5.041.216,5.258.216,5.258s2.545-.527,3.161-1.481C4.3,2.661,4.2.158,4.2.158Z" transform="translate(138.46 429.701)" fill="#ffe6f7"/>
        <path id="Path_5100-2" data-name="Path 5100" d="M4.2.158s.393,2.5,1.416,3.412c.878.763,3.266.552,3.266.552A6.6,6.6,0,0,0,5.875,5.443C4.811,6.406,4.9,9.222,4.9,9.222s-.244-2.5-1.267-3.415C2.9,5.041.216,5.258.216,5.258s2.545-.527,3.161-1.481A8.648,8.648,0,0,0,4.2.158Z" transform="translate(102.628 446.64)" fill="#ffe6f7"/>
        <path id="Path_5101-2" data-name="Path 5101" d="M6.167.233A7.4,7.4,0,0,0,4.9,3.862C5.018,5.112,6.621,6.8,6.621,6.8A7.386,7.386,0,0,0,3.67,5.455C2.328,5.486.5,7.406.5,7.406S2.033,5.336,1.915,3.93C1.939,2.833.041,1,.041,1s2.053,1.519,3.1,1.338A8.737,8.737,0,0,0,6.167.233Z" transform="translate(1012.171 219.659)" fill="#ffe6f7"/>
        <path id="Path_5102-2" data-name="Path 5102" d="M6.167.233A7.4,7.4,0,0,0,4.9,3.862C5.018,5.112,6.621,6.8,6.621,6.8A7.385,7.385,0,0,0,3.67,5.455C2.328,5.486.5,7.406.5,7.406S2.033,5.336,1.915,3.93C1.939,2.834.041,1,.041,1s2.053,1.519,3.1,1.338C4.636,2.146,6.167.233,6.167.233Z" transform="translate(994.178 245.429)" fill="#ffe6f7"/>
        <path id="Path_5103-2" data-name="Path 5103" d="M6.167.233A7.4,7.4,0,0,0,4.9,3.862C5.018,5.112,6.621,6.8,6.621,6.8A7.386,7.386,0,0,0,3.67,5.455C2.328,5.486.5,7.406.5,7.406S2.033,5.336,1.915,3.93C1.938,2.834.041,1,.041,1s2.053,1.519,3.1,1.338C4.635,2.146,6.167.233,6.167.233Z" transform="translate(913.273 355.128)" fill="#ffe6f7"/>
        <path id="Path_5104-2" data-name="Path 5104" d="M9.764.368S7.605,3.7,7.7,6.051c.1,2.033,2.734,4.478,2.734,4.478S7.8,8.553,5.715,8.444C3.627,8.492.73,11.532.73,11.532S3.035,8.349,2.936,6C2.825,4.283.056,1.372.056,1.372S3.285,3.646,4.929,3.453C7.318,3.242,9.764.368,9.764.368Z" transform="translate(849.811 208.734)" fill="#ffe6f7"/>
        <path id="Path_5106-2" data-name="Path 5106" d="M4.2.158s.393,2.5,1.416,3.412c.878.763,3.266.552,3.266.552A6.6,6.6,0,0,0,5.875,5.443C4.811,6.406,4.9,9.222,4.9,9.222s-.244-2.5-1.267-3.415C2.9,5.041.216,5.259.216,5.259s2.545-.528,3.161-1.481C4.3,2.661,4.2.158,4.2.158Z" transform="translate(422.129 205.025)" fill="#ffe6f7"/>
        <path id="Path_5107-2" data-name="Path 5107" d="M4.2.158s.393,2.5,1.416,3.412c.877.763,3.266.552,3.266.552A6.6,6.6,0,0,0,5.875,5.443C4.811,6.406,4.9,9.222,4.9,9.222s-.244-2.5-1.267-3.415C2.9,5.041.216,5.258.216,5.258s2.545-.528,3.161-1.481C4.3,2.661,4.2.158,4.2.158Z" transform="translate(476.159 200.978)" fill="#ffe6f7"/>
        <path id="Path_5108-2" data-name="Path 5108" d="M4.2.158s.393,2.5,1.416,3.412c.878.763,3.266.552,3.266.552A6.6,6.6,0,0,0,5.875,5.443C4.811,6.406,4.9,9.222,4.9,9.222s-.244-2.5-1.267-3.415C2.9,5.041.216,5.258.216,5.258s2.545-.528,3.161-1.481A9.051,9.051,0,0,0,4.2.158Z" transform="translate(771.892 79.816)" fill="#ffe6f7"/>
        <path id="Path_5109-2" data-name="Path 5109" d="M6.62.25s.661,3.9,2.27,5.271c1.464,1.219,5.045.981,5.045.981s-3.29.544-4.815,2.145-1.467,5.825-1.467,5.825S7.142,10.57,5.533,9.2C4.218,7.975.338,8.22.338,8.22s3.893-.871,4.967-2.3C6.688,4.005,6.62.25,6.62.25Z" transform="translate(425.874 154.23)" fill="#ffe6f7"/>
        <path id="Path_5110-2" data-name="Path 5110" d="M6.621.25s.661,3.9,2.27,5.271c1.464,1.219,5.045.981,5.045.981s-3.29.544-4.815,2.145-1.467,5.825-1.467,5.825S7.142,10.57,5.533,9.2C4.218,7.975.338,8.22.338,8.22s3.893-.871,4.967-2.3C6.688,4.005,6.621.25,6.621.25Z" transform="translate(768.009 209.22)" fill="#ffe6f7"/>
        <path id="Path_5111-2" data-name="Path 5111" d="M9.764.368S7.606,3.7,7.7,6.051c.1,2.033,2.734,4.478,2.734,4.478S7.8,8.553,5.715,8.444C3.628,8.492.731,11.532.731,11.532S3.035,8.348,2.936,6C2.825,4.283.056,1.372.056,1.372S3.285,3.646,4.929,3.453C7.168,3.245,9.764.368,9.764.368Z" transform="translate(446.762 110.985)" fill="#ffe6f7"/>
      </g>
    </g>
    <path id="Path_10265" data-name="Path 10265" d="M534.79,199.633,762.965,20.8h.25v.25L547.564,215.162a10.109,10.109,0,1,1-13.525-15.028C534.289,200.134,534.539,199.884,534.79,199.633Z" transform="translate(571.784 201.039)" fill="url(#linear-gradient-4)"/>
  </g>
</svg>
