<svg xmlns="http://www.w3.org/2000/svg" xmlns:xlink="http://www.w3.org/1999/xlink" width="591.54" height="527.343" viewBox="0 0 591.54 527.343">
  <defs>
    <clipPath id="clip-path">
      <path id="Union_4" data-name="Union 4" d="M29.371,122.473c39.621-54.8,65.074-18.362,68.637-44.209s.863-42.471,17.352-57.277,29.605-17.251,50.123-12.26,19.1,8.056,53.758,6.736c33.031-1.265,59.953-21.805,81.7-13.483,10.85,2.441,18.174,8.927,24.229,18.445,10.877,17.114-2.754,25.812,4.7,36.319,3.852,5.431,5.553,5.149,10.133,4.861,4.268-.267,11.057-.534,24.439,3.866,27.711,9.1,16.371,33.543,47.91,43.935,14.1,4.644,20.025,21.5,13.867,32.3-7.414,13-31.666,24.694-44.895,22.92-23.914-3.209-53.793-33.081-73.078-25.826-8.371,3.144-17.395,2.575-25.783,2-8.822-.6-16.941-1.2-22.855,2.532-10.635,15.084-24.924,20.369-43.232,21.008-13.855.483-25.432-6.837-35.736-14.157-10.459-7.421-19.6-14.849-28.48-14.121-17.625,1.442-20.086,10.407-19.746,26.208s-11.113,33.738-32.57,27.023-18.664-3.483-64.82,25.5c-7.732,4.854-14.146,7.03-19.273,7.031C-9.764,221.834-3.617,168.092,29.371,122.473Z" transform="translate(0 0)" fill="#2d1159"/>
    </clipPath>
  </defs>
  <g id="Group_11889" data-name="Group 11889" transform="translate(-106.63 -7548.457)">
    <ellipse id="Ellipse_718" data-name="Ellipse 718" cx="97.865" cy="7.749" rx="97.865" ry="7.749" transform="translate(341.099 8060.302)" fill="#bbbdbf" opacity="0.4"/>
    <g id="Group_11803" data-name="Group 11803" transform="translate(106.63 7564.449)">
      <path id="Path_13389" data-name="Path 13389" d="M927.682,1404.311c-2.747-9.811-6.89-10.819-20.4-13.64-35.624-7.437-72.77-5.407-104.062,1.905-18.961,4.431-39.742.18-57.315,6-15.445,5.118-27.647,14.927-46.8,14.33-22.271-.695-38.884-14.2-60.133-18.741-20.16-4.31-22.454,7.916-38.893,9.617-8,.827-17.575-1.62-25.079.4-19.966,5.367,2.816,22.652,15.937,27.8a132.163,132.163,0,0,0,23.711,6.778c25.509,4.824,57.89,4.735,77.856-4.564,25.246-11.757,57.214-4.368,85.574,9.286,13.039,6.277,34.527,17.35,48.805,13.877,9.635-2.345,14.83-8.593,26.5-8.478,10.248.1,19.98,2.957,29.838,1.2C907.212,1445.8,933.573,1425.359,927.682,1404.311Z" transform="translate(-466.277 -1076.415)" fill="#2d1159"/>
      <path id="Path_13390" data-name="Path 13390" d="M1869.994,880.854a93.1,93.1,0,0,0,23.362-6.685c12.716-5.565,33.528-26.389,12.176-35.565-8.025-3.449-17.507-1.138-25.856-3.045-7.078-1.617-10.981-5.558-16.74-9.5-21.094-14.427-64.319-7.006-78.921,14.776-2.536,3.783-7.533,12.608-2.222,16.045,6.635,4.294,14.045-8.2,20.276,2.077,2.034,3.355.376,7.465,2.776,10.612,4.889,6.416,14.672,1.712,20.874.458,10.787-2.178,11.329,1.872,18.916,7.622C1852.162,883.355,1861.245,882.19,1869.994,880.854Z" transform="translate(-1323.191 -675.371)" fill="#2d1159"/>
      <path id="Path_13391" data-name="Path 13391" d="M974.417,329.973a170.824,170.824,0,0,0-35.754,3.768A135.611,135.611,0,1,1,808.5,538.9c17.061,73.821,82.528,124.944,163.126,124.944,94.033,0,161.817-73.336,161.817-167.365S1068.45,329.973,974.417,329.973Z" transform="translate(-636.888 -329.973)" fill="#bec6ee" opacity="0.85"/>
      <path id="Path_13392" data-name="Path 13392" d="M1550.77,846.948a7.028,7.028,0,0,0-.348,3.535c1.979,9.2,12.993,1.88,16.589-2.584,6.021-7.474,12.69-42.964,16.019-51.822,2.061-5.483,1.826-6.1,5.043-12.727,2.008-4.141,2.557-14.556,2.081-15.448-2.032-1.037-2.492,8.435-3.522,8.484-.882-.445-1.453-3.7-1.321-5.043.366-3.747-1.286-12.593-2.432-13.806-2.733-2.89-1.53,2.52-2.491,10.564-1,8.378-.443,13.239-2.044,21.543C1576.406,799.7,1553.073,839.69,1550.77,846.948Z" transform="translate(-1161.238 -631.637)" fill="#f79459"/>
      <path id="Path_13393" data-name="Path 13393" d="M395.987,405.319c-8.264,5.466-16.234,10.676-26.5,14.3-10.946,3.866-23.613,7.881-34.714,6.549-12.538-1.5-55.9-27.356-88.355-15.724s-52.7,27.623-41.478,62.252,41.169,11.91,60.245,45.176c12.655,22.069,31.633,40,75.575,47.179S419.48,554.58,440.957,546.6c21.794-8.1,26.092,9.03,49.961,11.637,21.757,2.375,31.844.253,50.377-6.519,28.167-10.293,26.251-12.757,24.871-33.845-1.217-18.586,17.774-14.565,27.866-29.564,13.5-20.059,12.584-45.174-15.779-51.2.705-4.189-2.056-30.018-37.456-26.669-18.468,1.747-25.109-2.306-35.772-12.422-7.652-7.26-18.844-12.522-30.206-15.015-20.876-4.581-45.318,2.185-65.2,13.685C404.742,399.511,400.325,402.451,395.987,405.319Z" transform="translate(-201.823 -366.438)" fill="#2d1159"/>
      <path id="Path_13394" data-name="Path 13394" d="M1479.721,893.765c.8-11.269-12.786-29.293-17.51-36.646-3.406-5.3-16.99-34.126-25.755-32-12.348,3,1.254,24.937,5.031,30.851a257.889,257.889,0,0,0,21.318,28.648c2.884,3.375,13.6,19.209,18.659,9.263C1481.975,892.88,1479.634,894.995,1479.721,893.765Z" transform="translate(-1077.168 -679.887)" fill="#f79459"/>
      <path id="Path_13395" data-name="Path 13395" d="M1366.359,786.656c1.287,5.541,6.535,17.566,12.5,17.652,4.732.068,8.388-4.648,10.308-9.277.641-1.548-.161-4.871.163-6.516-7.219-4.11-5.465-12.29-5.164-17.551-2.069,6.932-9.979,8.886-16.284,6.429,1.819.709,2.721,3.976,2.951,5.668C1371.216,785.882,1370.225,787.3,1366.359,786.656Z" transform="translate(-1031.206 -641.684)" fill="#f79459"/>
      <path id="Path_13396" data-name="Path 13396" d="M1387.381,778.868c-.04-2.917.336-5.892.451-7.9-2.069,6.932-9.979,8.886-16.283,6.429,1.819.709,2.721,3.976,2.951,5.668a5.331,5.331,0,0,1-.043,1.835,18.461,18.461,0,0,0,5.925.9C1383.214,785.633,1385.757,781.862,1387.381,778.868Z" transform="translate(-1034.873 -641.684)" fill="#b96118"/>
      <path id="Path_13397" data-name="Path 13397" d="M1358.065,675.43c5.441-1.22,4.491-11.631-.378-8.376,1.34-5.056-5.341-14.486-9.734-16.561-4.875-2.3-14.445-.947-18.27,2.815-10.22,10.047-8,34.037,9.106,41.367a22.625,22.625,0,0,0,9,2c3.6-.2,6.739-6.251,8.108-9.107C1358.447,682.235,1358.238,675.391,1358.065,675.43Z" transform="translate(-1000.943 -555.732)" fill="#f79459"/>
      <path id="Path_13402" data-name="Path 13402" d="M1297.156,661.853c-6.461,5-11.872,7.823-15.456,15.733-2.912,6.43-.32,9.135,1.387,15.053-18.761-10.166-12.475-46.265,1.042-58.436,8.778-7.9,20.023-1.782,19.961,9.175C1304.049,650.8,1303.461,656.977,1297.156,661.853Z" transform="translate(-964.05 -542.485)" fill="#2d1159"/>
      <path id="Path_13403" data-name="Path 13403" d="M1381.056,646.543c2.989-1.6,5.488-2.358,6.673,1.164,1.064-7.485-.141-14.935-6.225-20.077-5.067-4.283-10.767-1.865-16.276-4.222-2.914-1.247-9.388-6.452-8.548.585.65,5.448,4.227,10.383,7.206,14.789C1367.948,644.794,1374.742,649.92,1381.056,646.543Z" transform="translate(-1024.311 -535.249)" fill="#2d1159"/>
      <path id="Path_13404" data-name="Path 13404" d="M1310.311,1482.92a15.462,15.462,0,0,1,.591,2.633c1.325,10.757-6.1,22.3-3.076,32.173,3.5,11.416,7.549-6.931,9.1-10.623,2.1-4.991,11.831-30.353,17.588-40.222,4.534-7.772.325-10.328-4.254-11.516-5.626-1.459-8.073,3.376-11.688,6.15-2.756,2.114-7.236,2.184-9.649,4.665C1304.247,1471,1308.555,1477.2,1310.311,1482.92Z" transform="translate(-989.118 -1125.259)" fill="#f79459"/>
      <path id="Path_13405" data-name="Path 13405" d="M1485.208,1547.817a13.458,13.458,0,0,1,1.058,2.223c3.3,9.3-2.08,21.923,2.643,30.088,5.464,9.446,5.677-8.217,6.428-11.814,1.111-5.325,6.879-27.327,9.346-39.207,1.329-6.4-2.191-9.707-6.055-9.82-5.55-.162-6.917,4.632-9.774,7.827-2.178,2.436-6.362,3.4-8.149,6.1C1477.242,1538.438,1482.467,1543.081,1485.208,1547.817Z" transform="translate(-1111.22 -1170.629)" fill="#f79459"/>
      <path id="Path_13406" data-name="Path 13406" d="M1296.39,829.047c2.5-1.574-.085-7.53-2.029-9.752,7.187,1.213,17.434,22.868,15.525,36.291-1.381,9.714-11.982,30.144-20.485,32.85-15.315,4.873-5.88,14.981-19.712,23.293-10.192,6.124-30.082,9.047-36.043,20.281-1.248-19.22,12.977-36.584,18.371-54.446,3.722-12.322,4.42-22.657,8.006-35.048,1.512-5.223,3.233-10.337,4.405-15.653.678-3.074-.571-7.51,1.864-9.86,3.785-3.652,7.141.582,9.336,3.391C1280.334,826.418,1290.993,832.445,1296.39,829.047Z" transform="translate(-937.343 -673.225)" fill="#19cbc5"/>
      <path id="Path_13407" data-name="Path 13407" d="M1584.792,1037.666c-.039-.009-.078-.015-.117-.024a21.915,21.915,0,0,1,1.353,10.949c-.574,5.235-2.642,11.26-6.325,18.418-6.76,13.141-18.386,29.052-32.91,48.335-8.084,17.736-23.37,57.341-27.036,68.019,3.235,6.577,7.857,7.584,12.627,8.914,20.893-27.321,62.67-93.717,63.846-138.08C1596.441,1046.142,1591.7,1039.237,1584.792,1037.666Z" transform="translate(-1139.634 -830.184)" fill="#eeec38"/>
      <path id="Path_13408" data-name="Path 13408" d="M1343.774,1084.193c-.093.174-.187.353-.285.541,12.843-17.142,23.11-31.485,29.274-43.468,7.065-13.734,8.22-23.326,3.675-30.878-2.747-3.632-7.107-6.04-12.935-6.99-13.318-2.172-31.3,1.066-44.376,3.83-11.745,2.48-59.647,14.206-74.917,23.812-17.055,10.727-21.159,42.922-4.161,54.12,34.952,23.027,74.083-22.593,74.815-23.049-4.959,6.01-44.506,72.929-47.308,75.758,2.62,6.212,8.378,10.051,11.385,10.448C1297.356,1135.362,1337.464,1093.981,1343.774,1084.193Z" transform="translate(-934.235 -805.475)" fill="#eeec38"/>
      <path id="Path_13409" data-name="Path 13409" d="M1149.535,844.858c1.9-7.59,5.36-25.99,13.932-29.348,16.664-6.528,11.428,20.814,5.707,34.453-6.007,14.321-13.947,28.072-19.906,42.206-3.665,8.691-6.03,14.407-9,23.31-1.782,5.338-9.448,28.377-13.009,30.917-3.738,2.667-22.041,6.617-21.857,5.944.515-1.891,5.944-2.638,5.282-5.026-.384-.747-1.15-.8-2.3-.684-3.184.336-15.125.845-16.486-.047-2.83-1.853,7.206-2.377,14-4.984,6.683-2.565,13.074-1.162,17.734-.433,2.319-7.377,8.88-40.626,11.086-48.1C1143.173,864.433,1143.274,869.917,1149.535,844.858Z" transform="translate(-836.861 -672.471)" fill="#f79459"/>
      <path id="Path_13410" data-name="Path 13410" d="M738.5,716.836c-2.146-.03-1.8,3.022.17,3.049C740.819,719.916,740.476,716.864,738.5,716.836Z" transform="translate(-586.374 -603.424)" fill="#cdd2ee" opacity="0.3"/>
      <path id="Path_13411" data-name="Path 13411" d="M1225.941,1494.413c-2.146-.031-1.8,3.021.17,3.049C1228.256,1497.492,1227.913,1494.44,1225.941,1494.413Z" transform="translate(-930.916 -1153.049)" fill="#cdd2ee" opacity="0.3"/>
      <path id="Path_13413" data-name="Path 13413" d="M1264.036,795.427c-1.633-.023-1.372,2.3.129,2.319C1265.8,797.769,1265.536,795.448,1264.036,795.427Z" transform="translate(-958.091 -658.976)" fill="#cdd2ee" opacity="0.3"/>
      <path id="Path_13415" data-name="Path 13415" d="M510.561,771.071c-2.442-.034-2.17,3.229.112,3.26C513.116,774.366,512.844,771.1,510.561,771.071Z" transform="translate(-425.076 -641.76)" fill="#cdd2ee" opacity="0.3"/>
      <path id="Path_13418" data-name="Path 13418" d="M800.033,927.9a1.13,1.13,0,1,0,.448,2.208A1.13,1.13,0,1,0,800.033,927.9Z" transform="translate(-630.185 -752.598)" fill="#cdd2ee" opacity="0.3"/>
      <path id="Path_13420" data-name="Path 13420" d="M1949.753,860.952a1.247,1.247,0,1,0,.494,2.435A1.247,1.247,0,1,0,1949.753,860.952Z" transform="translate(-1442.783 -705.277)" fill="#cdd2ee" opacity="0.3"/>
      <path id="Path_13421" data-name="Path 13421" d="M870.132,754.855a.843.843,0,0,0-.574-.3,1.056,1.056,0,0,0-.7.184,1.074,1.074,0,0,0-.11.09.943.943,0,0,0-.771.7.763.763,0,0,0,.713.911,2.479,2.479,0,0,0,.837-.1,1.118,1.118,0,0,0,.742-.874A.776.776,0,0,0,870.132,754.855Z" transform="translate(-678.917 -630.086)" fill="#cdd2ee" opacity="0.3"/>
      <path id="Path_13422" data-name="Path 13422" d="M1191.833,1506.169a.845.845,0,0,0-.574-.3,1.054,1.054,0,0,0-.7.184,1.022,1.022,0,0,0-.11.09.943.943,0,0,0-.771.7.763.763,0,0,0,.713.911,2.5,2.5,0,0,0,.837-.1,1.121,1.121,0,0,0,.742-.874A.778.778,0,0,0,1191.833,1506.169Z" transform="translate(-906.31 -1161.147)" fill="#cdd2ee" opacity="0.3"/>
      <path id="Path_13423" data-name="Path 13423" d="M1088.5,703.2a.686.686,0,0,0-.5-.333.763.763,0,0,0-.6.212,1.077,1.077,0,0,0-.1.1.953.953,0,0,0-.67.8c-.087.5.215,1.025.614,1.031a1.683,1.683,0,0,0,.725-.117,1.242,1.242,0,0,0,.646-.995A1.1,1.1,0,0,0,1088.5,703.2Z" transform="translate(-833.474 -593.547)" fill="#cdd2ee" opacity="0.3"/>
      <path id="Path_13424" data-name="Path 13424" d="M1095.191,1487.494a.689.689,0,0,0-.5-.333.764.764,0,0,0-.6.212,1.018,1.018,0,0,0-.1.1.952.952,0,0,0-.67.8c-.087.5.215,1.026.614,1.03a1.668,1.668,0,0,0,.725-.116,1.243,1.243,0,0,0,.646-.995A1.1,1.1,0,0,0,1095.191,1487.494Z" transform="translate(-838.202 -1147.919)" fill="#cdd2ee" opacity="0.3"/>
      <path id="Path_13425" data-name="Path 13425" d="M476.261,566.659a.688.688,0,0,0-.5-.333.762.762,0,0,0-.6.212,1.053,1.053,0,0,0-.1.1.952.952,0,0,0-.67.8c-.087.5.215,1.026.614,1.031a1.679,1.679,0,0,0,.725-.117,1.243,1.243,0,0,0,.646-.995A1.1,1.1,0,0,0,476.261,566.659Z" transform="translate(-400.716 -497.034)" fill="#cdd2ee" opacity="0.3"/>
      <path id="Path_13426" data-name="Path 13426" d="M775.055,1445.712a.687.687,0,0,0-.5-.333.763.763,0,0,0-.6.212,1.129,1.129,0,0,0-.1.1.952.952,0,0,0-.67.8c-.087.5.215,1.026.614,1.031a1.678,1.678,0,0,0,.725-.117,1.243,1.243,0,0,0,.646-.995A1.1,1.1,0,0,0,775.055,1445.712Z" transform="translate(-611.916 -1118.386)" fill="#cdd2ee" opacity="0.3"/>
      <path id="Path_13439" data-name="Path 13439" d="M1297.137,657.1a.912.912,0,1,0,.361,1.781A.912.912,0,1,0,1297.137,657.1Z" transform="translate(-981.699 -561.191)" fill="#cdd2ee" opacity="0.3"/>
      <path id="Path_13440" data-name="Path 13440" d="M1427.552,1576.018a.911.911,0,1,0,.361,1.78A.911.911,0,1,0,1427.552,1576.018Z" transform="translate(-1073.881 -1210.721)" fill="#cdd2ee" opacity="0.3"/>
      <path id="Path_13441" data-name="Path 13441" d="M870.661,1524.352a.911.911,0,1,0,.361,1.78A.911.911,0,1,0,870.661,1524.352Z" transform="translate(-680.247 -1174.201)" fill="#cdd2ee" opacity="0.3"/>
      <path id="Path_13443" data-name="Path 13443" d="M1463.054,612.41c-1.6-.023-1.347,2.258.127,2.279C1464.784,614.71,1464.528,612.43,1463.054,612.41Z" transform="translate(-1098.78 -529.611)" fill="#cdd2ee" opacity="0.3"/>
      <path id="Path_13444" data-name="Path 13444" d="M928.109,639.382c-2.146-.03-1.8,3.021.17,3.049C930.424,642.461,930.081,639.41,928.109,639.382Z" transform="translate(-720.396 -548.677)" fill="#cdd2ee" opacity="0.3"/>
    </g>
    <g id="Mask_Group_131" data-name="Mask Group 131" transform="translate(108.264 7548.457)" clip-path="url(#clip-path)">
      <g id="Group_11805" data-name="Group 11805" transform="translate(70.317 26.828)">
        <path id="Path_13445" data-name="Path 13445" d="M93.13,79.466,50.766,74.8,46.1,110.819l55.988,29.674,1.12-49.829Z" transform="translate(28.551 50.053)" fill="none" stroke="#fff" stroke-miterlimit="10" stroke-width="1"/>
        <path id="Path_13446" data-name="Path 13446" d="M128.831,35.2c-.933-.373-2.24-.933-2.613-1.866a8.273,8.273,0,0,1-.56-3.733c-.373,2.053-1.12,4.292-3.173,5.039a7.737,7.737,0,0,1-2.986.56,12.656,12.656,0,0,1,4.106,2.24,7.16,7.16,0,0,1,2.053,4.666,16.808,16.808,0,0,0,.56-2.986,6.685,6.685,0,0,1,.747-2.053,4.673,4.673,0,0,1,3.359-1.493A5.77,5.77,0,0,1,128.831,35.2Z" transform="translate(92.133 10.898)" fill="#fff"/>
        <path id="Path_13447" data-name="Path 13447" d="M79.585,147.059a3.357,3.357,0,0,1-1.68-1.12,4.734,4.734,0,0,1-.373-2.24,4.036,4.036,0,0,1-1.866,3.173,5.52,5.52,0,0,1-1.866.373,10.055,10.055,0,0,1,2.426,1.306,5.534,5.534,0,0,1,1.306,2.8c.187-.56.187-1.12.373-1.866a2.016,2.016,0,0,1,.56-1.306,2.674,2.674,0,0,1,2.053-.933A2.028,2.028,0,0,1,79.585,147.059Z" transform="translate(1.741 -82.642)" fill="#fff"/>
        <path id="Path_13448" data-name="Path 13448" d="M117.657,104.5l-2.24,5.6a49.005,49.005,0,0,1,9.145.933c-2.613.187-5.412.373-8.025.56,1.12,1.866,2.426,3.919,3.546,5.785-1.866-1.68-3.919-2.8-5.412-4.852-.56,2.8-1.12,4.852-1.68,7.652v-7.838a46.669,46.669,0,0,0-7.092,1.12,16.1,16.1,0,0,1,6.532-2.986c-1.12-1.68-2.24-3.173-3.359-4.852a51.746,51.746,0,0,0,4.666,3.546S116.724,105.433,117.657,104.5Z" transform="translate(16.199 -65.795)" fill="#fff"/>
        <path id="Path_13449" data-name="Path 13449" d="M11.1,84.4s63.266,38.445,72.224,118.321" transform="translate(-1.769 58.369)" fill="none" stroke="#fff" stroke-miterlimit="10" stroke-width="1"/>
        <g id="Group_11804" data-name="Group 11804" transform="translate(177.155 96.859)">
          <path id="Path_13450" data-name="Path 13450" d="M165.28,62.9,102.2,87.535,143.631,107.5" transform="translate(-100.008 -57.115)" fill="none" stroke="#fff" stroke-miterlimit="10" stroke-width="1"/>
          <path id="Path_13451" data-name="Path 13451" d="M142.678,61.48c-1.12.933-2.053,1.866-3.173,2.8a32.627,32.627,0,0,1,5.412,3.359c-1.68-.747-3.359-1.306-5.039-2.053a36.356,36.356,0,0,1,.373,4.666,22.831,22.831,0,0,1-1.866-4.479c-1.12,1.493-2.053,2.613-3.359,4.106.746-1.68,1.493-3.173,2.24-4.852a19.172,19.172,0,0,0-4.666-1.306,10.645,10.645,0,0,1,4.852,0l-.56-3.919a20.4,20.4,0,0,0,1.866,3.546S141.931,61.853,142.678,61.48Z" transform="translate(-73.674 -59.8)" fill="#fff"/>
          <path id="Path_13452" data-name="Path 13452" d="M104.337,75.209l-.187-.187c-2.613-1.306-4.479,2.613-1.866,3.919l.187.187C105.083,80.248,106.95,76.328,104.337,75.209Z" transform="translate(-101.026 -46.842)" fill="#fff"/>
          <path id="Path_13453" data-name="Path 13453" d="M125.853,86.292h0A1.5,1.5,0,0,0,124.36,88.9h.187C126.412,89.651,127.719,87.039,125.853,86.292Z" transform="translate(-81.484 -37.023)" fill="#fff"/>
        </g>
        <path id="Path_13454" data-name="Path 13454" d="M104.63,54.369A21.526,21.526,0,0,1,89.7,72.285a18.2,18.2,0,0,0,16.8-7.838,19.748,19.748,0,0,0,1.866-18.476A20.758,20.758,0,0,0,94.926,34.4,21.625,21.625,0,0,1,104.63,54.369Z" transform="translate(66.319 15.056)" fill="#fff"/>
        <path id="Path_13455" data-name="Path 13455" d="M61.92,7.9a1.12,1.12,0,0,0,0,2.24A1.12,1.12,0,0,0,61.92,7.9Z" transform="translate(41.283 -7.9)" fill="#fff"/>
        <path id="Path_13456" data-name="Path 13456" d="M107.52,18.3a1.12,1.12,0,1,0,0,2.24C109.013,20.726,109.013,18.3,107.52,18.3Z" transform="translate(80.785 1.109)" fill="#fff"/>
        <path id="Path_13457" data-name="Path 13457" d="M156.52,48.1a1.12,1.12,0,1,0,0,2.24A1.12,1.12,0,1,0,156.52,48.1Z" transform="translate(123.232 26.924)" fill="#fff"/>
        <path id="Path_13458" data-name="Path 13458" d="M124.12,52.2a1.12,1.12,0,1,0,0,2.24C125.613,54.626,125.613,52.2,124.12,52.2Z" transform="translate(95.165 30.476)" fill="#fff"/>
        <path id="Path_13459" data-name="Path 13459" d="M23.24,92.4a2.24,2.24,0,0,0,0,4.479A2.24,2.24,0,0,0,23.24,92.4Z" transform="translate(6.808 65.299)" fill="#fff"/>
        <path id="Path_13460" data-name="Path 13460" d="M43.24,120.5a2.24,2.24,0,1,0,0,4.479A2.24,2.24,0,1,0,43.24,120.5Z" transform="translate(24.131 89.641)" fill="#fff"/>
        <path id="Path_13461" data-name="Path 13461" d="M17.857,80.1l-2.24,5.6a49.005,49.005,0,0,1,9.145.933c-2.613.187-5.412.373-8.025.56,1.12,1.866,2.426,3.919,3.546,5.785-1.866-1.68-3.919-2.8-5.412-4.852-.56,2.8-1.12,4.852-1.68,7.652V87.938A46.678,46.678,0,0,0,6.1,89.058a16.1,16.1,0,0,1,6.532-2.986c-1.12-1.68-2.24-3.173-3.359-4.852a51.755,51.755,0,0,0,4.666,3.546S16.924,81.22,17.857,80.1Z" transform="translate(-6.1 54.644)" fill="#fff"/>
        <path id="Path_13462" data-name="Path 13462" d="M43.17,102.547a32.762,32.762,0,0,1-4.479,5.6l8.4,3.359c-2.8-.373-5.412-.933-8.212-1.306-.56,2.613-1.12,5.039-1.493,7.652-.56-1.68-1.68-7.652-1.68-7.652s-5.785,0-6.905.373c.747-1.12,6.345-3.359,6.345-3.359a22.748,22.748,0,0,1-1.12-5.412,40.545,40.545,0,0,0,3.546,4.852S42.05,103.293,43.17,102.547Z" transform="translate(13.563 73.442)" fill="#fff"/>
        <path id="Path_13463" data-name="Path 13463" d="M55.092,149.792a3.32,3.32,0,0,1-2.053-1.493,7.254,7.254,0,0,1-.373-2.8c-.373,1.493-.933,3.173-2.426,3.919a4.734,4.734,0,0,1-2.24.373,17.071,17.071,0,0,1,3.173,1.68,6.306,6.306,0,0,1,1.68,3.546,9.368,9.368,0,0,0,.373-2.239l.56-1.68a3.388,3.388,0,0,1,2.613-1.12A2.768,2.768,0,0,1,55.092,149.792Z" transform="translate(30.195 111.297)" fill="#fff"/>
        <path id="Path_13464" data-name="Path 13464" d="M48.115,134.5c-2.053,0-2.053,3.359,0,3.359S50.168,134.5,48.115,134.5Z" transform="translate(28.962 101.768)" fill="#fff"/>
      </g>
    </g>
  </g>
</svg>
