<svg xmlns="http://www.w3.org/2000/svg" viewBox="0 0 100 100"><defs><style>.cls-1{opacity:0.5;}.cls-2{fill:#91e375;}.cls-3{fill:#361181;}.cls-4,.cls-5{fill:none;stroke:#361181;}.cls-5{stroke-linecap:round;stroke-width:3px;}</style></defs><title>Layer 2</title><g id="Layer_2" data-name="Layer 2"><g id="Layer_2-2" data-name="Layer 2"><g id="Group_11032" data-name="Group 11032"><g id="Group_7763" data-name="Group 7763" class="cls-1"><circle id="Ellipse_179" data-name="Ellipse 179" class="cls-2" cx="50" cy="50" r="50"/></g><g id="Group_7764" data-name="Group 7764"><circle id="Ellipse_180" data-name="Ellipse 180" class="cls-2" cx="50" cy="50" r="38.97"/></g></g><g id="Group_10441" data-name="Group 10441"><g id="Group_10434" data-name="Group 10434"><g id="Ellipse_281" data-name="Ellipse 281"><circle class="cls-3" cx="66.55" cy="25.84" r="2.08"/><circle class="cls-4" cx="66.55" cy="25.84" r="1.52"/></g><g id="Ellipse_282" data-name="Ellipse 282"><circle class="cls-3" cx="73.5" cy="44.39" r="1.38"/><circle class="cls-4" cx="73.5" cy="44.39" r="0.83"/></g><g id="Group_10429" data-name="Group 10429"><path id="Path_5123" data-name="Path 5123" class="cls-5" d="M75.6,28.7l-.28,5.24"/><path id="Path_5124" data-name="Path 5124" class="cls-5" d="M78.08,31.46l-5.24-.28"/></g><path id="Path_9989" data-name="Path 9989" class="cls-3" d="M25.44,64.2,19.71,45.46A5.14,5.14,0,0,1,23.07,39l.07,0a1,1,0,0,1,1.22.55l0,.12a.94.94,0,0,1-.54,1.21l-.12,0a3.14,3.14,0,0,0-2.14,3.89l0,.08,3.74,12.26L28,56.33a1,1,0,0,1,.79,1.84l-.21.07-2.66.81,1.4,4.57a.94.94,0,0,1-.55,1.21l-.12,0A1,1,0,0,1,25.44,64.2ZM51.49,32.41a3.15,3.15,0,0,1,4,2,.31.31,0,0,0,0,.08L59.22,46.8l-2.66.81a1,1,0,1,0,.38,2,.76.76,0,0,0,.2-.06l2.66-.81,1.4,4.57a1,1,0,0,0,1.9-.58L57.37,34A5.14,5.14,0,0,0,51,30.49l-.07,0a1,1,0,0,0-.7,1.13.56.56,0,0,0,0,.12.94.94,0,0,0,1.14.69Zm-.81,31-5,1.54A1,1,0,0,0,46,67a.83.83,0,0,0,.21-.06l5-1.54a1,1,0,0,0,.7-1.13s0-.08,0-.12A1,1,0,0,0,50.68,63.45Zm.94,3-5,1.54A1,1,0,0,0,47,70a.83.83,0,0,0,.21-.06l5-1.54a.94.94,0,0,0,.7-1.13.56.56,0,0,0,0-.12A1,1,0,0,0,51.62,66.49Zm.93,3-5,1.54a1,1,0,0,0,.38,2l.21-.06,5-1.55a.94.94,0,0,0,.7-1.13.36.36,0,0,0,0-.11A1,1,0,0,0,52.55,69.53ZM43,69.14a.94.94,0,0,0-.7,1.13.36.36,0,0,0,0,.11l.93,3.05a1,1,0,1,0,2-.38.66.66,0,0,0-.06-.2l-.93-3.06a.94.94,0,0,0-1.14-.68A.17.17,0,0,0,43,69.14ZM42.41,66l-.76.23a1,1,0,0,0-.53,1.31,1,1,0,0,0,1.11.59l.76-.23a1,1,0,0,0-.38-2ZM68,64h0c1.16,3.81-8.17,8.32-16.49,11.08-.66.2-1.3.5-2.06.73a15.31,15.31,0,0,1-2.12.54c-8.43,2.37-18.62,3.72-19.76,0l0-.19a.78.78,0,0,1-.05-.5,40.81,40.81,0,0,1-.32-7.49c.3-4.46,3.47-6.68,6.45-8.84L34,59c.16-.15.42-.33.58-.49A11.48,11.48,0,0,1,27.8,51.2l-2.09-6.85C23.82,38.17,28,31.17,35.25,29s14.63,1.24,16.58,7.62l.32,1h0l1.31,4.28h0l.46,1.52a11.82,11.82,0,0,1-1.56,9.84,3.74,3.74,0,0,0,.75.08l.63,0c3.68.12,7.57.28,10.29,3.72A40.59,40.59,0,0,1,68,63.47.67.67,0,0,0,68,64ZM29.27,49.19c.67.84,4.77,5.41,12.67,3s9.31-8.66,9.46-9.86l-1.19-3.9c-.8-.9-5.47-5.3-13.36-2.89S28.11,44,28,45.1Zm-2-8.23a14.06,14.06,0,0,1,9-7.23,15.28,15.28,0,0,1,12.4,1.1c-2.52-3.81-7.82-5.51-12.87-4S27.48,36.53,27.28,41ZM43.89,57.2c5.42-1.65,8.84-6.44,8.42-11.2-1.23,2.77-4,6.31-9.8,8.09a14.24,14.24,0,0,1-11.15-.75L30.74,53C33.2,56.94,38.56,58.83,43.89,57.2Zm-14.2,9.34a7.7,7.7,0,0,1,3.81,2.58,14.55,14.55,0,0,1,3.31,7.41c.91-.07,1.8-.24,2.91-.37l-2.59-8.47a3.89,3.89,0,0,1,2.57-4.84l10.84-3.31a3.89,3.89,0,0,1,4.84,2.57L58,70.58a25.68,25.68,0,0,0,2.62-1.32,13.68,13.68,0,0,1-1.4-8A7.12,7.12,0,0,1,60.91,57c-2-1.37-4.53-1.53-7.36-1.6H52.9a6.61,6.61,0,0,1-2.07-.3,15,15,0,0,1-6.45,4.05,14,14,0,0,1-7.62.25,10.9,10.9,0,0,1-1.55,1.41l-.51.37C32.58,62.74,30.53,64.2,29.69,66.54Zm5.06,10.1a11.93,11.93,0,0,0-2.83-6.21,6,6,0,0,0-2.79-2h0a36.54,36.54,0,0,0,.3,7.09l.06.19c.3.64,2.08,1,5.26.89Zm21.34-5.38L53.44,62.6a1.89,1.89,0,0,0-2.36-1.25h0L40.25,64.66A1.9,1.9,0,0,0,39,67h0l2.65,8.66A49.19,49.19,0,0,0,47,74.36a31.09,31.09,0,0,0,4.09-1.25,47.49,47.49,0,0,0,5-1.85Zm10-6.61h0L66,64.37a43,43,0,0,0-3.71-6.05h0a6.09,6.09,0,0,0-1.22,3.18,11.84,11.84,0,0,0,1.13,6.73c2.71-1.66,4.07-3,3.89-3.58Z"/></g></g></g></g></svg>