<svg xmlns="http://www.w3.org/2000/svg" viewBox="0 0 100 100"><defs><style>.cls-1{opacity:0.5;}.cls-2{fill:#eeec38;}.cls-3,.cls-4{fill:#361181;}.cls-3,.cls-5,.cls-6{stroke:#361181;}.cls-3{stroke-miterlimit:4;stroke-width:0.5px;}.cls-5,.cls-6{fill:none;}.cls-6{stroke-linecap:round;stroke-width:3px;}</style></defs><title>Layer 5</title><g id="Layer_2" data-name="Layer 2"><g id="Layer_5" data-name="Layer 5"><g id="Group_11031" data-name="Group 11031"><g id="Group_7763" data-name="Group 7763" class="cls-1"><circle id="Ellipse_179" data-name="Ellipse 179" class="cls-2" cx="50" cy="50" r="50"/></g><g id="Group_7764" data-name="Group 7764"><circle id="Ellipse_180" data-name="Ellipse 180" class="cls-2" cx="50" cy="50" r="38.97"/></g></g><g id="Group_10440" data-name="Group 10440"><g id="Group_10432" data-name="Group 10432"><path id="Path_9987" data-name="Path 9987" class="cls-3" d="M38.47,63l-15.55-3.3a.76.76,0,0,1-.63-.86s0-.06,0-.09l.93-4.34,30.15,6.41.33-1.56L23.57,52.89,29,27.55a.75.75,0,0,1,.85-.63l.09,0,45.23,9.62a.76.76,0,0,1,.63.86.24.24,0,0,0,0,.08l-3.9,18.34,1.55.33,3.9-18.34A2.44,2.44,0,0,0,75.46,35L30.23,25.39a2.45,2.45,0,0,0-2.83,1.83L20.76,58.46a2.45,2.45,0,0,0,1.83,2.83l15.54,3.3L37,69.72l-4.66-1-.33,1.56,23.31,4.95.33-1.55-4.34-.92,1.09-5.13,5.13,1.09.33-1.56Zm11.32,9.39L38.6,70.05l1.09-5.13,11.19,2.39ZM62,54.57l3.14-14.76L37.36,33.89,34.22,48.65ZM38.58,35.77,63.29,41,60.81,52.69,36.1,47.43Zm7.8,7.67c.15,0,.18-.12.34-.09l.19-.12.13-.62A1,1,0,0,0,47,42l-.25-.37c-.12-.19-.28-.22-.4-.41s-.43-.26-.59-.29l-2.33-.5-1,4.51,2.95.63c.16,0,.5-.06.65,0l.57-.37c.19-.12.22-.28.29-.59a.91.91,0,0,0,0-.65c-.15,0-.27-.23-.55-.45Zm-2-1.55,1.09.23c.16,0,.16,0,.28.23a.58.58,0,0,1,.09.34c0,.16,0,.16-.22.28a.63.63,0,0,1-.35.09l-1.08-.23Zm.91,2.63a.56.56,0,0,1-.35.09l-1.08-.23.19-.93,1.09.23c.16,0,.31.06.28.22.12.19.12.19.09.34s0,.16-.23.28Zm5.85-2.33,1.25.27-.53,2.48a2,2,0,0,1-.36.9,2.18,2.18,0,0,1-.6.53c-.18.12-.53.21-.72.33a2.86,2.86,0,0,1-1.86-.4c-.28-.22-.43-.25-.52-.59s-.21-.54-.34-.73a2,2,0,0,1,.05-1l.52-2.49,1.25.27-.53,2.48a1.26,1.26,0,0,0,.14.85c.13.18.28.22.59.28a.82.82,0,0,0,.69-.18,1.22,1.22,0,0,0,.48-.71Zm5,1.06,1.39.3-2.43,2.24-.4,1.87-1.24-.27.36-1.71-1.14-3L54.1,43l.61,1.76ZM66.36,67.84,68,74l-1.53.32-1.61-6.19Zm5.07.59-1.07,1.23-5.65-4.77-2.45,7-1.52-.49L64,62.29Zm-7.21-8.85-1.53.33-.81-3.1,1.54-.32ZM58.06,61l3.19,1-.48,1.52-3.19-1Zm8.36-.34,2.3-2.43,1.08,1-2.31,2.43Z"/><g id="Ellipse_277" data-name="Ellipse 277"><circle class="cls-4" cx="77.66" cy="25.25" r="1.63"/><circle class="cls-5" cx="77.66" cy="25.25" r="1.07"/></g><g id="Ellipse_278" data-name="Ellipse 278"><circle class="cls-4" cx="84.73" cy="43.58" r="1.08"/><circle class="cls-5" cx="84.73" cy="43.58" r="0.53"/></g><g id="Group_10427" data-name="Group 10427"><path id="Path_5123" data-name="Path 5123" class="cls-6" d="M83.12,31.28l-.21,4.11"/><path id="Path_5124" data-name="Path 5124" class="cls-6" d="M85.07,33.45,81,33.23"/></g></g></g></g></g></svg>