<svg xmlns="http://www.w3.org/2000/svg" viewBox="0 0 100 100"><defs><style>.cls-1{opacity:0.5;}.cls-2{fill:#91e375;}.cls-3{fill:#361181;}.cls-4,.cls-5{fill:none;stroke:#361181;}.cls-5{stroke-linecap:round;stroke-width:3px;}</style></defs><title>Layer 6</title><g id="Layer_2" data-name="Layer 2"><g id="Layer_6" data-name="Layer 6"><g id="Group_11027" data-name="Group 11027"><g id="Group_7763" data-name="Group 7763" class="cls-1"><circle id="Ellipse_179" data-name="Ellipse 179" class="cls-2" cx="50" cy="50" r="50"/></g><g id="Group_7764" data-name="Group 7764"><circle id="Ellipse_180" data-name="Ellipse 180" class="cls-2" cx="50" cy="50" r="40.12"/></g></g><g id="Group_11030" data-name="Group 11030"><g id="Group_10445" data-name="Group 10445"><g id="Group_10442" data-name="Group 10442"><path id="Path_9992" data-name="Path 9992" class="cls-3" d="M65.53,47.64l-3.05,1.29,2-2.62a3,3,0,0,0-.58-4.19l-7.69-5.79a3,3,0,0,0-4.18.59L50,39.6l.44-3.31A3,3,0,0,0,47.86,33l-9.55-1.17A3,3,0,0,0,35,34.39l-.4,3.24-1.28-3A3,3,0,0,0,29.39,33L20.53,36.8A3,3,0,0,0,19,40.72L33.48,74.94a3,3,0,0,0,3.91,1.59L71.62,62a3,3,0,0,0,1.58-3.91l-3.76-8.86A3,3,0,0,0,65.53,47.64Zm-16-4.38L53.48,38a1.17,1.17,0,0,1,1.64-.23l7.68,5.79A1.18,1.18,0,0,1,63,45.21L46.83,66.47l-.25-.57,1.22-9.32L50,58.19a.93.93,0,0,0,.67.17.91.91,0,0,0,.6-.35l4-5.33a.91.91,0,0,0-.18-1.27l-5.33-4a.89.89,0,0,0-.67-.18h0l.52-4ZM57,57.1l1.89,4.47-4.47,1.9-1.07-2.53,2.61-3.42v0l1-.44Zm-18.2-9.58.12-1,4.82.59-.59,4.83-2.61-.32Zm9.83,2.85.75-1,3.87,2.93-2.92,3.87-2.24-1.68ZM36.78,34.61a1.17,1.17,0,0,1,1.31-1l9.55,1.17a1.18,1.18,0,0,1,1,1.3L45.18,62.61l-3.84-9.07,2.47.31a.89.89,0,0,0,.46-.07.88.88,0,0,0,.21-.12.94.94,0,0,0,.34-.6l.81-6.63a.9.9,0,0,0-.19-.67.94.94,0,0,0-.6-.34l-6.63-.81a1,1,0,0,0-.61.14L36,41Zm-.1,40.24a1.17,1.17,0,0,1-1.54-.62L20.61,40a1.18,1.18,0,0,1,.63-1.54l8.85-3.76a1.16,1.16,0,0,1,1.54.62h0l2.51,5.9v.13h.07l12,28.19a1.18,1.18,0,0,1-.63,1.54l-8.86,3.76ZM71.53,58.79a1.17,1.17,0,0,1-.62,1.54L48.07,70a3,3,0,0,0-.24-1.18l-.19-.44,4.42-5.8,1,2.41a.9.9,0,0,0,1.19.48h0l6.14-2.61a.9.9,0,0,0,.48-1.19h0l-2.61-6.14a.89.89,0,0,0-.49-.48l2.46-3.24,6-2.53a1.16,1.16,0,0,1,1.54.62l3.76,8.86Z"/><path id="Path_9993" data-name="Path 9993" class="cls-3" d="M65.56,51.49l-6.14,2.6a.92.92,0,0,0-.49,1.19h0l2.61,6.14a.92.92,0,0,0,1.19.48l6.14-2.61a.91.91,0,0,0,.49-1.19L66.75,52A.91.91,0,0,0,65.56,51.49ZM67.33,58l-4.47,1.9L61,55.41l4.47-1.9Z"/><path id="Path_9994" data-name="Path 9994" class="cls-3" d="M29.7,37.69,23.56,40.3a.91.91,0,0,0-.48,1.19h0l2.6,6.14a.92.92,0,0,0,1.2.49L33,45.51a.92.92,0,0,0,.48-1.19l-2.61-6.14A.91.91,0,0,0,29.7,37.69Zm1.78,6.5L27,46.09l-1.9-4.48,4.48-1.89Z"/><path id="Path_9995" data-name="Path 9995" class="cls-3" d="M33.38,46.35,27.24,49a.91.91,0,0,0-.49,1.19h0l2.61,6.14a.91.91,0,0,0,1.19.48l6.14-2.61A.9.9,0,0,0,37.17,53l-2.6-6.14A.91.91,0,0,0,33.38,46.35Zm1.77,6.49-4.47,1.9-1.9-4.47,4.47-1.9Z"/><path id="Path_9996" data-name="Path 9996" class="cls-3" d="M37.05,55l-6.14,2.61a.92.92,0,0,0-.49,1.19h0L33,64.94a.91.91,0,0,0,1.19.48l6.14-2.6a.92.92,0,0,0,.49-1.2l-2.61-6.14A.91.91,0,0,0,37.05,55Zm1.77,6.49-4.47,1.9-1.9-4.47L36.93,57Z"/><path id="Path_9997" data-name="Path 9997" class="cls-3" d="M55.47,50.85a.94.94,0,0,0,.67.17.89.89,0,0,0,.6-.35l4-5.33a.91.91,0,0,0-.18-1.27l-5.33-4a.9.9,0,0,0-1.27.17l-4,5.33a.9.9,0,0,0,.17,1.27Zm-.59-8.8L58.76,45l-2.93,3.88L52,45.93Z"/><path id="Path_9998" data-name="Path 9998" class="cls-3" d="M38.31,43.92l6.62.81a1,1,0,0,0,.47-.07.92.92,0,0,0,.54-.73l.81-6.62a.91.91,0,0,0-.79-1l-6.63-.81a.9.9,0,0,0-1,.79l-.82,6.63a.9.9,0,0,0,.79,1ZM40,37.41l4.83.58-.59,4.83-4.82-.59Z"/><path id="Path_9999" data-name="Path 9999" class="cls-3" d="M38,65.55a3,3,0,1,0,3.92,1.59h0A3,3,0,0,0,38,65.55Zm1.63,3.83a1.18,1.18,0,0,1-1.54-.62,1.17,1.17,0,1,1,2.16-.92h0A1.18,1.18,0,0,1,39.59,69.38Z"/></g><g id="Ellipse_283" data-name="Ellipse 283"><circle class="cls-3" cx="80.45" cy="44.05" r="1.07"/><circle class="cls-4" cx="80.45" cy="44.05" r="0.52"/></g><g id="Group_10443" data-name="Group 10443"><path id="Path_5123" data-name="Path 5123" class="cls-5" d="M73.75,37.61l2.74,2.73"/><path id="Path_5124" data-name="Path 5124" class="cls-5" d="M73.75,40.34l2.74-2.73"/></g><g id="Ellipse_284" data-name="Ellipse 284"><ellipse class="cls-3" cx="69.37" cy="32.61" rx="1.43" ry="1.79"/><ellipse class="cls-4" cx="69.37" cy="32.61" rx="0.87" ry="1.23"/></g></g></g></g></g></svg>