<svg xmlns="http://www.w3.org/2000/svg" viewBox="0 0 100 100"><defs><style>.cls-1{opacity:0.5;}.cls-2{fill:#eeec38;}.cls-3,.cls-5{fill:none;stroke:#361181;}.cls-3{stroke-linecap:round;stroke-width:3px;}.cls-4{fill:#361181;}</style></defs><title>Layer 1</title><g id="Layer_2" data-name="Layer 2"><g id="Layer_1-2" data-name="Layer 1"><g id="Group_11026" data-name="Group 11026"><g id="Group_7763" data-name="Group 7763" class="cls-1"><circle id="Ellipse_179" data-name="Ellipse 179" class="cls-2" cx="50" cy="50" r="50"/></g><g id="Group_7764" data-name="Group 7764"><circle id="Ellipse_180" data-name="Ellipse 180" class="cls-2" cx="49.74" cy="49.74" r="39.86"/></g></g><g id="Group_10447" data-name="Group 10447"><g id="Group_10438" data-name="Group 10438"><g id="Group_10431" data-name="Group 10431"><g id="Group_10426" data-name="Group 10426"><path id="Path_5123" data-name="Path 5123" class="cls-3" d="M17.78,35.7,21,38.88"/><path id="Path_5124" data-name="Path 5124" class="cls-3" d="M17.78,38.88,21,35.7"/></g><path id="Path_9986" data-name="Path 9986" class="cls-4" d="M68.43,52.09,53,50.37,53.14,49l15.43,1.72ZM51.79,62.49l-.13,1.38L64.47,65.3l.13-1.38Zm-.44,4.41,15.43,1.72.13-1.39L51.49,65.52Zm.91-9.09,17.39,1.93.13-1.37L52.4,56.43Zm.46-4.54,10.46,1.16.13-1.38L52.85,51.89ZM52,60.84l17.38,1.94.14-1.38L52.1,59.46ZM40,32.49l1.31.15.14-1.38-1.31-.15Zm-2.07,8.82,12.55,1.4-1,10.47-12.55-1.4Zm.4,9.24,9.93,1.1L49,43.94l-9.93-1.11Zm4.29-17.77,1.3.15.14-1.38-1.3-.15Zm-6,21.89,12.55,1.4L48.08,66.54l-12.55-1.4Zm9,10.2-3.36-3.44-4,2.63Zm2-6.88-4.24,2.74,3.6,3.6Zm-8.56-1.64,3.35,3.43,4-2.62Zm-2,6.87,4.24-2.73-3.61-3.61Zm.33-31,1.31.15L38.82,31l-1.3-.15ZM46.85,38l-1.31-.15-.14,1.38,1.31.15Zm2.61.29-1.31-.15L48,39.51l1.31.15Zm-7.85-.87-1.3-.15-.14,1.38,1.31.15Zm2.62.29-1.31-.15-.13,1.38,1.3.15Zm7.84.87-1.3-.15-.14,1.38,1.31.15ZM39,37.12,37.69,37l-.13,1.38,1.3.14Zm38.28-4.66L73.14,73.78,31,69.1l4.14-41.32Zm-41.35,1,9.15,1,.42-4.13-9.15-1ZM75.27,39.2,35.8,34.81,32.48,67.87,72,72.26Zm.56-5.51-29-3.23-.42,4.13,29,3.23ZM54.69,38.86l-1.31-.15-.13,1.38,1.3.15Zm19.69-3.94L48,32l-.13,1.37,26.4,2.94ZM53.6,44.45,71,46.38,71.12,45,53.74,43.07Zm-.29,2.89L70.7,49.28l.13-1.38L53.45,46Zm14.45-7-1.31-.14-.13,1.37,1.3.15Zm2.61.29-1.3-.14-.14,1.38,1.3.14Zm2.62.29-1.31-.14-.14,1.37,1.31.15ZM57.3,39.15,56,39l-.14,1.38,1.31.15Zm7.84.87-1.3-.14-.14,1.38L65,41.4Zm-5.22-.58-1.31-.14-.14,1.37,1.31.15Zm2.61.29-1.31-.14L61.09,41l1.3.15Z"/><g id="Ellipse_280" data-name="Ellipse 280"><circle class="cls-4" cx="25.53" cy="41.43" r="1.22"/><circle class="cls-5" cx="25.53" cy="41.43" r="0.67"/></g></g></g></g></g></g></svg>