<svg xmlns="http://www.w3.org/2000/svg" viewBox="0 0 100.01 100.01"><defs><style>.cls-1{opacity:0.5;}.cls-2{fill:#10a0de;}.cls-3,.cls-4{fill:#361181;}.cls-3,.cls-5,.cls-6{stroke:#361181;}.cls-3{stroke-miterlimit:4;stroke-width:0.5px;}.cls-5,.cls-6{fill:none;}.cls-6{stroke-linecap:round;stroke-width:3px;}</style></defs><title>Layer 3</title><g id="Layer_2" data-name="Layer 2"><g id="Layer_3" data-name="Layer 3"><g id="Group_11029" data-name="Group 11029"><g id="Group_7763" data-name="Group 7763" class="cls-1"><circle id="Ellipse_179" data-name="Ellipse 179" class="cls-2" cx="50.01" cy="50.01" r="50.01"/></g><g id="Group_7764" data-name="Group 7764"><circle id="Ellipse_180" data-name="Ellipse 180" class="cls-2" cx="50.01" cy="50.01" r="38.97"/></g></g><g id="Group_10439" data-name="Group 10439"><g id="Group_10433" data-name="Group 10433"><path id="Path_9988" data-name="Path 9988" class="cls-3" d="M50.13,61.81l14-2.71.26,1.35-14,2.7ZM82.34,57,76.7,58.05a5,5,0,0,1-4.1,5.4,5.2,5.2,0,0,1-2-10.21,5.05,5.05,0,0,1,5.82,3.47l4.3-.83L78.53,44.47l-6.81-.64-9.8,1.91-1.15-5.91,6.72-1.3L66,36.45,54.42,38.69l-.26-1.34L55.91,37l-.73-3.76L28.6,38.41l3.7,19.06L59,52.29,56.77,40.75l1.34-.26,2.5,12.88-28,5.44L33.76,65l3.89-.76a5.05,5.05,0,0,1,4.11-5.39,5.2,5.2,0,0,1,2,10.2,5,5,0,0,1-5.83-3.46l-5.24,1L27,37.33l29.4-5.71,1,5.11,9.26-1.8L72,42.53l7.53.76L82.21,57ZM39.12,64.65a3.91,3.91,0,0,0,4.49,3,3.83,3.83,0,0,0-1.46-7.51,3.73,3.73,0,0,0-3.06,4.31ZM63,44.14l7.51-1.46-2.1-2.94-6,1.17ZM75.23,57.65a3.92,3.92,0,0,0-4.49-3,3.83,3.83,0,0,0-3,4.48h0a3.9,3.9,0,0,0,4.48,3,3.83,3.83,0,0,0,3-4.47Z"/><g id="Ellipse_279" data-name="Ellipse 279"><circle class="cls-4" cx="21.17" cy="42.49" r="1.45"/><circle class="cls-5" cx="21.17" cy="42.49" r="0.89"/></g><g id="Group_10428" data-name="Group 10428"><path id="Path_5123" data-name="Path 5123" class="cls-6" d="M20.13,33.66l3.68,2"/><path id="Path_5124" data-name="Path 5124" class="cls-6" d="M21,36.47l2-3.68"/></g></g></g></g></g></svg>