<svg xmlns="http://www.w3.org/2000/svg" viewBox="0 0 100 100"><defs><style>.cls-1{opacity:0.5;}.cls-2{fill:#19cbc5;}.cls-3{fill:#361181;}.cls-4,.cls-5,.cls-6{fill:none;stroke:#361181;}.cls-5,.cls-6{stroke-linecap:round;}.cls-5{stroke-width:3px;}.cls-6{stroke-width:3px;}</style></defs><title>Layer 4</title><g id="Layer_2" data-name="Layer 2"><g id="Layer_4" data-name="Layer 4"><g id="Group_11028" data-name="Group 11028"><g id="Group_7763" data-name="Group 7763" class="cls-1"><circle id="Ellipse_179" data-name="Ellipse 179" class="cls-2" cx="50" cy="50" r="50"/></g><g id="Group_7764" data-name="Group 7764"><circle id="Ellipse_180" data-name="Ellipse 180" class="cls-2" cx="50" cy="50" r="38.97"/></g></g><g id="Group_10446" data-name="Group 10446"><g id="Group_10436" data-name="Group 10436"><path id="Path_9990" data-name="Path 9990" class="cls-3" d="M82.9,43.38l-1.68-1.47L76,37.41A19.25,19.25,0,0,0,66.74,33a2.17,2.17,0,0,0-2.63,1.34,4,4,0,0,1-4.24,2.39h0A4,4,0,0,1,56.57,33a2.16,2.16,0,0,0-2-2.19h0a18.76,18.76,0,0,0-9.9.88c-2.41.9-4.85,1.83-7.21,2.74l-1.68.65a2.19,2.19,0,0,0-1.55,2.68c0,.09.06.19.1.28,1,3.27,2,6.61,3,9.91a2.18,2.18,0,0,0,1.7,1.75,2.69,2.69,0,0,0,1.29-.11l1.63-.47L38.09,70.52a3.39,3.39,0,0,0,3,4.27h0l23.32,4.1a3.4,3.4,0,0,0,4.17-2.39,2.6,2.6,0,0,0,.11-.62l3.77-21.35,1.33,1a2.93,2.93,0,0,0,1.21.57A2.24,2.24,0,0,0,77.17,55l6.09-8.22a2.22,2.22,0,0,0-.05-3.15A1.89,1.89,0,0,0,82.9,43.38Zm-1.18,2.25c-2,2.74-4.06,5.48-6.09,8.22a1.07,1.07,0,0,1-.33.34,1.23,1.23,0,0,1-.4-.23l-1.75-1.29-.32-.23a19.63,19.63,0,0,1,1.34-5v0l-1.63-1c-.13.21-.84,1.5-1.65,6a.67.67,0,0,0-.07.24l-4,22.88c-.22,1.25-.81,1.66-2,1.45L41.4,72.89a1.8,1.8,0,0,1-1.23-.64A1.87,1.87,0,0,1,40,70.86L44,48c.84-4.77.61-6.27.56-6.52l-1.89.41v0A20.35,20.35,0,0,1,42.23,47l-.42.12-2.11.62a1.29,1.29,0,0,1-.43.07.87.87,0,0,1-.19-.4c-1-3.32-2-6.66-2.94-9.93a1.14,1.14,0,0,1-.07-.41.8.8,0,0,1,.36-.2l1.68-.65c2.36-.91,4.79-1.84,7.19-2.73a16.91,16.91,0,0,1,8.91-.79,1.27,1.27,0,0,1,.38.11,1.16,1.16,0,0,1,.07.37,5.91,5.91,0,0,0,4.86,5.4h0a5.89,5.89,0,0,0,6.3-3.46,1.41,1.41,0,0,1,.18-.29.7.7,0,0,1,.38,0,17.16,17.16,0,0,1,8.36,4L80,43.36l1.68,1.47a1.29,1.29,0,0,1,.34.36A1.14,1.14,0,0,1,81.72,45.63Z"/><path id="Path_9991" data-name="Path 9991" class="cls-3" d="M65.66,52.05l-1.35-.23.25-1.43-1.4-.24.26-1.49L61,48.23,61.2,47l-2.61-.46.24-1.38-1.42-.25-.24,1.37-2.24-.39-.21,1.2-2.41-.42-.26,1.48-1.39-.24-.25,1.42-1.35-.24-.3,1.7L47,50.52,46.42,54l1.9.34.14-.83,3,.53-.25,1.4,1.42.25.25-1.4,2.73.48-1.31,7.44,1.69.3-.28,1.56,2.31.41L58.26,63l1.46.26.33-1.89-1.45-.26-.27,1.48-2.09-.37,1.25-7.1,2.81.49L60.05,57l1.43.25.24-1.4,3,.53-.15.82,1.9.34.62-3.53-1.71-.3ZM62,54l-.25,1.4-1.29-.23.25-1.4-3.26-.57-.28,1.55-1.07-.19L56.39,53l-3.26-.58-.25,1.4-1.29-.23.25-1.39-3-.54.1-.6,1.24.22.25-1.43,1.34.24L52,48.6,54.5,49l.22-1.2,6.05,1.07-.21,1.2,2.5.44L62.8,52l1.34.24-.25,1.42,1.24.22-.1.6L62,54Z"/></g><g id="Ellipse_286" data-name="Ellipse 286"><circle class="cls-3" cx="31.22" cy="28.11" r="1.4"/><circle class="cls-4" cx="31.22" cy="28.11" r="0.84"/></g><g id="Group_10444" data-name="Group 10444"><path id="Path_5123" data-name="Path 5123" class="cls-5" d="M22,33.31l1.76,3.61"/><path id="Path_5124" data-name="Path 5124" class="cls-6" d="M21.11,36l3.61-1.76"/></g><g id="Ellipse_285" data-name="Ellipse 285"><ellipse class="cls-3" cx="25.88" cy="42.54" rx="0.7" ry="1.05" transform="translate(-22.77 53.17) rotate(-71)"/><ellipse class="cls-4" cx="25.88" cy="42.54" rx="0.14" ry="0.49" transform="translate(-22.77 53.17) rotate(-71)"/></g></g></g></g></svg>