<svg id="Layer_1" data-name="Layer 1" xmlns="http://www.w3.org/2000/svg" xmlns:xlink="http://www.w3.org/1999/xlink" viewBox="0 0 600 1024"><defs><style>.cls-1{fill:none;}.cls-2{clip-path:url(#clip-path);}.cls-3{fill:url(#radial-gradient);}.cls-4{fill:#100230;opacity:0.76;}.cls-4,.cls-5{isolation:isolate;}.cls-5{fill:#19063d;opacity:0.82;}.cls-6{fill:#ffe6f7;}.cls-7{fill:#fff;}</style><clipPath id="clip-path"><rect class="cls-1" x="-0.36" y="-0.28" width="625.58" height="1024.28"/></clipPath><radialGradient id="radial-gradient" cx="0.33" cy="1024.33" r="1.06" gradientTransform="matrix(0, -1332.25, 1333.22, 0, -1365383.96, 1530.71)" gradientUnits="userSpaceOnUse"><stop offset="0" stop-color="#38237c"/><stop offset="1" stop-color="#1c143c"/></radialGradient></defs><title>sidebar_mobile</title><g class="cls-2"><g id="Mask_Group_54" data-name="Mask Group 54"><g id="Group_11414" data-name="Group 11414"><rect id="Rectangle_2047" data-name="Rectangle 2047" class="cls-3" x="-840.45" y="-582.74" width="2224.08" height="3342.06" transform="translate(-745.16 614.64) rotate(-51.01)"/><g id="Group_11410" data-name="Group 11410"><path id="Path_11209" data-name="Path 11209" class="cls-4" d="M-497,942.8a101.65,101.65,0,0,1,17.17,12.63c23.77,21.79,38.75,53.66,53.12,83.12,28.88,60.32,69.56,125.74,135.38,135.71,48.67,7.55,95.91-18.55,135.44-47.7s78.23-62.8,125.55-74.82c60.71-15.19,125.84,8.23,175.26,46.33s87.25,89.73,125.86,138.83c52.43,66.65,115.21,134.67,199,158.58,34.82,9.71,70.89,17.89,107.24,15.47,67.07-5,125.92-44.59,177.74-87.36,51.44-43.08,100.59-91.2,162.14-118.45,122.1-54,276.64-7.28,358.15,98.2,3.3,4.58,7,9.47,10.28,14.05L958.22,1721.47c-4.39-15-9.49-30-15.21-44.17-8.08-19.92-19.33-39.86-37.82-51.64-32.05-20.22-74.34-7.31-109.84,6.63l-181.42,69.09c-50.76,19.42-107.72,53.58-163,50.25-89.21-4.69-166.1-66.3-218.35-137.9S146.51,1458,101.49,1381.46c-24-41.12-53.35-82-97.79-99.54-77.14-30.6-162.36,22.72-244.91,17.68C-321.3,1294.65-383.44,1236.07-426,1173c-32.51-48-49.35-104.28-81.86-152.26-37.1-54.88-75.48-64.93-138.28-76.27-30.13-5.28-61.54-16-80-40.52C-656.16,939.49-564.24,903.06-497,942.8Z"/><path id="Path_11210" data-name="Path 11210" class="cls-5" d="M-659.42,99.55c15,1.94,29.56-3.46,43.74-9.18,58.06-23.72,125.55-21.31,164,36.59,19.17,28.26,23,64.47,36.49,95.79,4.65,10.78,10.77,22.1,21,28.42,17.33,10.85,40.71,5.57,57.41-6.39s28.62-29.07,42.55-43.91C-240,144.12-166,135.27-94.45,162.59c55.71,20.89,114.28,68.94,177.26,48.58,49.35-16.11,75.26-70.94,79.35-122.41s-8.37-103-10.24-154.17A475.84,475.84,0,0,1,244-364.83L633.41-49.56C398.68,38.16,455.84,343.7,287.5,517c-45.43,46.67-110.5,80.63-173.67,65.8-68.57-16-113.36-80.3-156.18-136-42.52-56.07-101.72-113.56-171.82-107.24-26.85,2.48-51.34,13.86-76.38,23.53-35.95,12.94-84.64,21.94-120.72,3.55-37.55-18.93-51-66.79-60.09-106s-15.47-80-36-114.5C-524,118-556.69,92.25-588,102.59c-69.35,23.5-100.44-1-100.89-32C-689.42,85.46-674.41,97.61-659.42,99.55Z"/><path id="Path_11219" data-name="Path 11219" class="cls-6" d="M458.43,23.46S454,28,450.36,28.16c-3,.32-7.84-3.24-7.84-3.24s4,3.65,4.81,7-2.92,8.87-2.92,8.87,4-4.49,7.6-5.08c2.73-.5,8.07,3.43,8.07,3.43s-4.77-4.64-4.85-7.41C454.87,28.33,458.43,23.46,458.43,23.46Z"/><path id="Path_11221" data-name="Path 11221" class="cls-7" d="M566.54,54.29a4.76,4.76,0,0,0-.11,5.64,4.74,4.74,0,0,0,5.64.11,4.74,4.74,0,0,0,.11-5.64,3.47,3.47,0,0,0-4.82-.9A3.42,3.42,0,0,0,566.54,54.29Z"/><path id="Path_11230" data-name="Path 11230" class="cls-7" d="M157.28,945.42a4,4,0,1,0,5.54,5.76,4.77,4.77,0,0,0,.11-5.65,3.7,3.7,0,0,0-5.21-.52A3.39,3.39,0,0,0,157.28,945.42Z"/><path id="Path_11231" data-name="Path 11231" class="cls-6" d="M31,931.73s-3.91,3.32-6.81,3.4c-2.45,0-6.17-3.38-6.17-3.38s3,3.27,3.31,5.92c.53,2.85-3.28,7.06-3.28,7.06s3.65-3.52,6.55-3.6c2.21-.24,6.42,3.57,6.42,3.57s-3.56-4.1-3.35-6.36A16.87,16.87,0,0,1,31,931.73Z"/></g></g></g></g></svg>