<svg xmlns="http://www.w3.org/2000/svg" width="35.257" height="35.257" viewBox="0 0 35.257 35.257"><defs><style>.a{fill:#0b42d8;}.b{fill:#a2b1ce;}.c{fill:#e8ecf3;}.d{fill:#a7b5d1;}.e{fill:#fff;fill-rule:evenodd;}</style></defs><rect class="a" width="35.257" height="35.257" rx="17.628" transform="translate(0)"/><path class="b" d="M524.9,1480.2c-.011-.084-.023-.169-.035-.254a3.463,3.463,0,0,1,.223-1.527l.25.215c.552.456.088,1.051.213,1.564-.071,0-.142.006-.213.006Z" transform="translate(-507.628 -1461.572)"/><path class="c" d="M525.646,1478.928q-.172.432-.347.862c-.155-.3-.994-.605,0-.911Z" transform="translate(-507.626 -1461.595)"/><path class="d" d="M524.921,1478.413l.437,0q.107.337.215.673c-.238.157-.01.3.015.446l-.231.233a.435.435,0,0,0-.224.441C524.688,1479.655,525,1479.011,524.921,1478.413Z" transform="translate(-507.629 -1461.571)"/><path class="e" d="M522.08,1478.858v10.8a.282.282,0,0,0,.282.281h4.009a.282.282,0,0,0,.281-.281v-10.974h2.907a.281.281,0,0,0,.28-.257l.279-3.305a.281.281,0,0,0-.28-.306h-3.186v-2.345a1,1,0,0,1,1-1h2.24a.281.281,0,0,0,.281-.281v-3.306a.281.281,0,0,0-.281-.281H526.1a4.023,4.023,0,0,0-4.022,4.023v3.187h-2a.281.281,0,0,0-.281.282v3.305a.281.281,0,0,0,.281.281h2Z" transform="translate(-507.374 -1461.029)"/></svg>