<svg xmlns="http://www.w3.org/2000/svg" width="35.257" height="35.257" viewBox="0 0 35.257 35.257"><defs><style>.a{fill:#0b42d8;}.b{fill:#fff;}</style></defs><rect class="a" width="35.257" height="35.257" rx="17.628"/><g transform="translate(6.005 5.949)"><circle class="b" cx="1.369" cy="1.369" r="1.369" transform="translate(16.495 4.171)"/><path class="b" d="M179.27,1473.185a5.753,5.753,0,1,0,5.752,5.752A5.759,5.759,0,0,0,179.27,1473.185Zm0,9.438a3.685,3.685,0,1,1,3.684-3.686A3.689,3.689,0,0,1,179.27,1482.623Z" transform="translate(-167.494 -1467.258)"/><g transform="translate(0 0)"><path class="b" d="M183.519,1490.3h-9.326a7.025,7.025,0,0,1-7.016-7.016v-9.327a7.024,7.024,0,0,1,7.016-7.017h9.326a7.024,7.024,0,0,1,7.016,7.017v9.327A7.025,7.025,0,0,1,183.519,1490.3Zm-9.326-21.162a4.824,4.824,0,0,0-4.819,4.819v9.327a4.823,4.823,0,0,0,4.819,4.818h9.326a4.825,4.825,0,0,0,4.82-4.818v-9.327a4.825,4.825,0,0,0-4.82-4.819Z" transform="translate(-167.176 -1466.945)"/></g></g></svg>