<svg xmlns="http://www.w3.org/2000/svg" width="35.257" height="35.257" viewBox="0 0 35.257 35.257"><defs><style>.a{fill:#0b42d8;}.b{fill:#fff;fill-rule:evenodd;}</style></defs><rect class="a" width="35.257" height="35.257" rx="17.628" transform="translate(0)"/><g transform="translate(8.048 5.54)"><g transform="translate(0 0)"><path class="b" d="M868.968,1483.019a4.95,4.95,0,0,0,5.118,1.406,10.523,10.523,0,0,0,1.1-.4,6.842,6.842,0,0,0,1.922-1.215,9.521,9.521,0,0,0,2.9-5.43,8.551,8.551,0,0,0-5.8-10.246,10.7,10.7,0,0,0-6.735-.14,9.948,9.948,0,0,0-1.817.8,8.92,8.92,0,0,0-4.239,5.281,10.626,10.626,0,0,0-.332,1.856,7.9,7.9,0,0,0,.874,4.349c.108.213.245.407.347.623a3.793,3.793,0,0,0,1.058,1.363,1.134,1.134,0,0,0,.739.283c.379-.026.473-.39.578-.7a10.428,10.428,0,0,0,.23-1.067.865.865,0,0,0-.124-.8,6.36,6.36,0,0,1,.917-7.768,6.943,6.943,0,0,1,6.065-1.827,5.887,5.887,0,0,1,4.6,3.51,7.729,7.729,0,0,1,.438,2.662,8.171,8.171,0,0,1-.634,3.376,5.973,5.973,0,0,1-1.82,2.5c-1.224.923-3.8,1.324-4.313-.6a3.7,3.7,0,0,1-.047-1.567c.242-1.208.7-2.355.983-3.551a3.92,3.92,0,0,0,.071-1.93,1.7,1.7,0,0,0-1.479-1.372,2.2,2.2,0,0,0-2.136.807,4.873,4.873,0,0,0-.653,4.57,1.77,1.77,0,0,1,.057,1.011c-.485,1.966-.908,3.948-1.413,5.908a13.64,13.64,0,0,0-.394,4.071,6.075,6.075,0,0,0,.114,1.137c.057.25.149.607.394.738.339.18.627-.254.786-.488a13.153,13.153,0,0,0,1.491-3.019c.242-.686.43-1.389.614-2.092C868.5,1484.8,868.852,1483.525,868.968,1483.019Z" transform="translate(-861.055 -1466.515)"/></g></g></svg>