<svg xmlns="http://www.w3.org/2000/svg" width="35.257" height="35.257" viewBox="0 0 35.257 35.257"><defs><style>.a{fill:#0b42d8;}.b{fill:#fff;}</style></defs><rect class="a" width="35.257" height="35.257" rx="17.628" transform="translate(0)"/><g transform="translate(6.807 10.019)"><path class="b" d="M362.928,1476.014a4.784,4.784,0,0,0-4.784-4.784H345.735a4.784,4.784,0,0,0-4.783,4.784v5.815a4.784,4.784,0,0,0,4.783,4.784h12.409a4.784,4.784,0,0,0,4.784-4.784Zm-7.829,3.2-4.949,2.714c-.216.117-.408-.039-.408-.284v-5.571c0-.248.2-.4.414-.28l4.983,2.856A.325.325,0,0,1,355.1,1479.215Z" transform="translate(-340.952 -1471.23)"/></g></svg>