<svg xmlns="http://www.w3.org/2000/svg" width="35.257" height="35.257" viewBox="0 0 35.257 35.257"><defs><style>.a{fill:#0b42d8;}.b{fill:#fff;}</style></defs><rect class="a" width="35.257" height="35.257" rx="17.628" transform="translate(0)"/><g transform="translate(7.901 7.919)"><path class="b" d="M169.493,1566.712h4.032v12.971h-4.032Zm2.017-6.449a2.338,2.338,0,1,1-2.337,2.339,2.34,2.34,0,0,1,2.337-2.339" transform="translate(-169.173 -1560.263)"/><path class="b" d="M176.417,1567.035h3.868v1.775h.055a4.232,4.232,0,0,1,3.814-2.1c4.083,0,4.837,2.686,4.837,6.178v7.114h-4.03V1573.7c0-1.5-.026-3.44-2.1-3.44-2.1,0-2.417,1.641-2.417,3.332v6.416h-4.03Z" transform="translate(-169.536 -1560.586)"/></g></svg>