<svg xmlns="http://www.w3.org/2000/svg" width="35.257" height="35.257" viewBox="0 0 35.257 35.257"><defs><style>.a{fill:#0b42d8;}.b,.c{fill:#fff;}.c{fill-rule:evenodd;}</style></defs><rect class="a" width="35.257" height="35.257" rx="17.628" transform="translate(0)"/><g transform="translate(6.704 8.686)"><path class="b" d="M708.339,1471.971a8.916,8.916,0,0,1-2.193.626c.353-.059.874-.7,1.082-.957a4.021,4.021,0,0,0,.731-1.33c.019-.038.034-.086,0-.115a.127.127,0,0,0-.117.01,11.224,11.224,0,0,1-2.6,1,.175.175,0,0,1-.18-.048,2.042,2.042,0,0,0-.227-.233,4.587,4.587,0,0,0-1.262-.773,4.41,4.41,0,0,0-1.936-.312,4.622,4.622,0,0,0-1.836.52,4.717,4.717,0,0,0-1.482,1.21,4.561,4.561,0,0,0-.885,1.771,4.812,4.812,0,0,0-.047,1.871c.014.1,0,.119-.09.1a13.916,13.916,0,0,1-8.952-4.557c-.1-.119-.161-.119-.247.01a4.54,4.54,0,0,0,.774,5.364c.176.166.355.332.55.484a4.57,4.57,0,0,1-1.728-.484c-.1-.066-.157-.029-.166.09a2.809,2.809,0,0,0,.029.513,4.591,4.591,0,0,0,2.83,3.66,2.669,2.669,0,0,0,.574.176,5.1,5.1,0,0,1-1.694.052c-.124-.024-.17.038-.124.157a4.766,4.766,0,0,0,3.56,2.98c.161.028.323.028.485.067-.01.014-.02.014-.029.028a5.636,5.636,0,0,1-2.431,1.289,8.7,8.7,0,0,1-3.692.472c-.2-.029-.24-.027-.294,0s-.007.082.057.133c.252.166.508.313.768.456a12.249,12.249,0,0,0,2.469.987,13.146,13.146,0,0,0,12.763-2.984c2.615-2.6,3.531-6.182,3.531-9.77,0-.141.166-.217.265-.292a8.622,8.622,0,0,0,1.729-1.807.526.526,0,0,0,.107-.346v-.019C708.42,1471.913,708.427,1471.93,708.339,1471.971Z" transform="translate(-686.707 -1469.827)"/><path class="c" d="M693.5,1488.693Z" transform="translate(-687.048 -1470.773)"/><path class="c" d="M693.487,1488.693c-.029,0-.359,0,0,0Z" transform="translate(-687.039 -1470.773)"/><path class="c" d="M694.265,1488.712c0-.037.385,0,0,0C694.265,1488.693,694.313,1488.712,694.265,1488.712Z" transform="translate(-687.086 -1470.773)"/><path class="c" d="M702.346,1469.972a.079.079,0,0,1-.09,0Z" transform="translate(-687.487 -1469.834)"/></g></svg>