<svg id="Layer_7" data-name="Layer 7" xmlns="http://www.w3.org/2000/svg" viewBox="0 0 100 100"><defs><style>.cls-1{opacity:0.6;}.cls-2{fill:#19CBC5;}.cls-3{fill:#361181;fill-rule:evenodd;}</style></defs><title>testimonial_icon_green</title><g id="Group_10723" data-name="Group 10723"><g id="Group_7763" data-name="Group 7763" class="cls-1"><circle id="Ellipse_179" data-name="Ellipse 179" class="cls-2" cx="50" cy="50" r="50"/></g><g id="Group_7764" data-name="Group 7764"><circle id="Ellipse_180" data-name="Ellipse 180" class="cls-2" cx="50" cy="50" r="39.52"/></g></g><g id="Group_10718" data-name="Group 10718"><path id="Path_10258" data-name="Path 10258" class="cls-3" d="M54.87,61H46.28c0,.59,0,1.18.07,1.77a37.12,37.12,0,0,0,1.58,9.29c.65,2.16,1.6,4.61,2.64,7.16,1-2.56,2-5,2.65-7.16a37.12,37.12,0,0,0,1.58-9.29C54.83,62.19,54.85,61.6,54.87,61Z" transform="translate(0 0)"/><path id="Path_10259" data-name="Path 10259" class="cls-3" d="M41.52,44.49a34.53,34.53,0,0,0,.26,4.19l-4.1,4.13,2.41,11.56,5-5.36h0a.2.2,0,0,0,0,.13.37.37,0,0,0,.36.37H55.71a.37.37,0,0,0,.36-.37.29.29,0,0,0,0-.13l5.17,5.36,2.41-11.56-4.13-4.17a36,36,0,0,0,.26-4.15c0-7.93-2.81-16.42-9.13-21.56-6.32,5.14-9.12,13.63-9.12,21.56ZM54,41.11a3.29,3.29,0,1,1-3.4-3.17h.11A3.24,3.24,0,0,1,54,41.11Z" transform="translate(0 0)"/></g></svg>