<svg id="Group_11135" data-name="Group 11135" xmlns="http://www.w3.org/2000/svg" width="36.047" height="25.222" viewBox="0 0 36.047 25.222">
  <g id="Group_11134" data-name="Group 11134" transform="translate(0)">
    <path id="Path_10690" data-name="Path 10690" d="M224.047,222.416v21.955a2.4,2.4,0,0,1-2.6,1.633q-15.429-.05-30.858,0A2.386,2.386,0,0,1,188,244.372V222.416a2.38,2.38,0,0,1,2.6-1.632q15.429.047,30.859,0A2.4,2.4,0,0,1,224.047,222.416Zm-1.1,22.525v-23.07H189.116v23.07Z" transform="translate(-188 -220.783)"/>
    <path id="Path_10691" data-name="Path 10691" d="M343.251,279.326h-2.51l-.243-2.269a18.29,18.29,0,0,0-1.925.027c-.177.019-.417.342-.463.56-.332,1.567-1.35,1.967-2.786,1.719-.155-.027-.316-.021-.567-.036.1-.252.174-.468.272-.671,1.321-2.728,2.657-5.449,3.96-8.185a.881.881,0,0,1,.975-.59c.711.043,1.426.011,2.18.011.184,1.63.355,3.186.538,4.741C342.863,276.166,343.054,277.7,343.251,279.326Zm-2.847-4.344c-.072-.673-.137-1.277-.227-2.115l-.963,2.115Z" transform="translate(-311.246 -262.012)"/>
    <path id="Path_10692" data-name="Path 10692" d="M212.308,279.364l-1.066-7.605,1.453.88.083-.117-3.224-2.575h4.078l.548,5.726.138.046q.325-.69.65-1.381c.625-1.325,1.233-2.658,1.894-3.965a.988.988,0,0,1,.686-.451c.688-.061,1.385-.021,2.175-.021-.1.24-.152.428-.24.6-1.4,2.723-2.825,5.437-4.2,8.174a1.035,1.035,0,0,1-1.157.7C213.547,279.322,212.958,279.364,212.308,279.364Z" transform="translate(-206.101 -262.022)"/>
    <path id="Path_10693" data-name="Path 10693" d="M294.77,276.212c.748.186,1.4.4,2.078.5.531.078,1.208.029,1.295-.6.042-.309-.452-.734-.771-1.035a8.456,8.456,0,0,0-.943-.591,2.721,2.721,0,0,1-.036-4.574c1.243-.939,3.846-1,4.948-.079l-.684,1.849a13.611,13.611,0,0,0-1.968-.311c-.307-.006-.62.3-.93.467a4.522,4.522,0,0,0,.569.849,4.859,4.859,0,0,0,.881.542,2.739,2.739,0,0,1,1.559,2.592,2.981,2.981,0,0,1-2.013,2.735,5.628,5.628,0,0,1-4.061-.043c-.572-.2-.749-.507-.443-1.076A13.257,13.257,0,0,0,294.77,276.212Z" transform="translate(-277.105 -261.417)"/>
    <path id="Path_10694" data-name="Path 10694" d="M270.069,279.641l1.786-9.429h2.419c-.187,1.054-.359,2.083-.552,3.108-.359,1.906-.745,3.806-1.082,5.715-.081.46-.243.643-.715.614C271.343,279.615,270.758,279.641,270.069,279.641Z" transform="translate(-256.921 -262.293)"/>
  </g>
</svg>
